<svg id="Layer_1" data-name="Layer 1" xmlns="http://www.w3.org/2000/svg" viewBox="0 0 2200.16 2815.67"><defs><style>.cls-1{fill:#a1acc6;}.cls-2{fill:#fec267;}.cls-3{fill:#fff;}.cls-4{fill:#ef9d59;}.cls-5{fill:#650000;}.cls-6{fill:#777782;}.cls-7{fill:#b7b3b3;}.cls-8{fill:#c1612b;}.cls-9{fill:#e8ba9a;}.cls-10{fill:#a84e20;}.cls-11{fill:#e23b3b;}.cls-12{fill:#fff3e9;}.cls-13{fill:#f4d7c1;}.cls-14{fill:none;stroke:#6b184e;stroke-linecap:round;stroke-miterlimit:10;stroke-width:21.06px;}.cls-15{fill:#512717;}.cls-16{fill:#0cc4e2;}.cls-17{fill:#8c5144;}.cls-18{fill:#686779;}.cls-19{fill:#a56957;}.cls-20{fill:#f9ddc7;}.cls-21{fill:#a56856;}.cls-22{fill:#e5482e;}</style></defs><polygon class="cls-1" points="1325.29 2726.29 1325.29 2726.37 1325.17 2726.33 1325.29 2726.29"/><polygon class="cls-1" points="1325.17 2726.33 1325.04 2726.37 1325.04 2726.29 1325.17 2726.33"/><path class="cls-2" d="M1786.4,2590.24c2.23,26.1-42.37,330.74-280.15,377.37-167.15,32.45-250.35-113.81-260.2-200.71-11.6-102.32,54.19-194.56,94.14-196.28,33.8-1.46,31.13,66,60.77,115.1,46,76.24,168,74.33,223.21-51.13Z" transform="translate(-931.25 -597.89)"/><path class="cls-3" d="M1331.17,2625.31c1.16,3.73,2.28,7.52,3.29,10.92,6.32,21.28,14.19,47.76,28.91,72.14,41.29,68.38,125.18,91.94,199.46,56,0,0-88.41,66.34-160.1,27.45C1320.61,2747.29,1331.17,2625.31,1331.17,2625.31Z" transform="translate(-931.25 -597.89)"/><path class="cls-4" d="M1557.09,2904.92a243.9,243.9,0,0,1-59.3,19.66c-49.23,9.57-92.59,1-128.78-25.55-25-18.36-44.34-43.73-57.71-69.68,94.16,140.52,290.65-9.29,270.14-88.67l151.32-90.32C1714.05,2726.36,1665.11,2852.69,1557.09,2904.92Z" transform="translate(-931.25 -597.89)"/><path class="cls-5" d="M1460.39,2988.49c-46.84,0-90.12-13.86-127.13-41-62.68-46-97.12-122.91-103.45-178.74-8.69-76.64,23.08-144.59,52.92-179.48,18.62-21.78,38.78-34.2,56.76-35,33.11-1.27,43.06,32.25,52.73,64.81,5.62,18.93,12,40.39,22.73,58.17,17.71,29.33,48.84,45.56,83.15,43.3,46-3,86.53-36.7,111.11-92.56a16.35,16.35,0,1,1,29.92,13.17c-29.22,66.41-81.16,108.29-138.93,112-46.76,3-89.09-19.05-113.23-59-12.9-21.37-19.91-45-26.09-65.76-5.77-19.45-12.31-41.46-19.82-41.46h-.17c-6.31.27-18.82,6.6-33.32,23.55-25.58,29.91-52.78,88.34-45.28,154.56,5.53,48.75,35.59,115.92,90.31,156.07,42.67,31.3,93.31,41.54,150.53,30.43,117.62-23.06,183.59-114.37,218.22-186.9,39.49-82.71,49.58-162.24,48.76-173a16.42,16.42,0,0,1,15-17.6,16.22,16.22,0,0,1,17.59,14.83c2.76,32.3-45.94,346.29-293.29,394.8A257.52,257.52,0,0,1,1460.39,2988.49Z" transform="translate(-931.25 -597.89)"/><path class="cls-6" d="M1860.76,3210.68l-433.12,113.68s-120.3,13.76-203.54,13.76c-169,0-219.28-262.35-219.28-262.35l177.68-173.46,450.2-139.47" transform="translate(-931.25 -597.89)"/><path class="cls-2" d="M1860.76,3210.69l-433.11,113.69s-120.33,13.76-203.53,13.76c-169.07,0-219.31-262.37-219.31-262.37l135.53-132.31,42.16-41.16,334.82-103.72L1622.64,2766l10.06-3.1,35.16,69.05Z" transform="translate(-931.25 -597.89)"/><path class="cls-4" d="M1860.76,3210.69l-433.11,113.69s-120.33,13.76-203.53,13.76c-169.07,0-219.31-262.37-219.31-262.37l135.53-132.31,110-39.89c68.77,39.48,70.28,203.85,194.86,174.77,84-19.64,67.59-168.24,72.17-279.76L1622.64,2766c14.23,19.48,29.44,41.82,45.22,66Z" transform="translate(-931.25 -597.89)"/><path class="cls-5" d="M1224.1,3354.47c-180.47,0-233.18-264.38-235.33-275.63l-1.66-8.63,186.79-182.35,3.77-1.16,450.19-139.47a16.34,16.34,0,1,1,9.67,31.22L1191.1,2916.76l-168.37,164.36c10.23,43.57,64.15,240.66,201.37,240.66,77.08,0,188-12.13,200.54-13.52l432-113.39a16.35,16.35,0,0,1,8.3,31.62l-434.25,114-1.16.13C1424.55,3341.17,1307.32,3354.47,1224.1,3354.47Z" transform="translate(-931.25 -597.89)"/><path class="cls-6" d="M1427.64,3324.36c-42.81,11.53-201,56.26-301.83,22.51-126.92-42.47-193.13-209.23-175.76-331,25.83-181.18,202-198.78,291.59-120.62,42.93,37.46,78.34,122,74.71,199.28Z" transform="translate(-931.25 -597.89)"/><path class="cls-2" d="M1427.65,3324.38c-42.8,11.51-201,56.23-301.82,22.5-84.43-28.22-142-111.44-165.92-199.85a.12.12,0,0,1,0-.08c-12.06-44.52-15.62-90.33-9.81-131.09,25.84-181.18,202-198.78,291.56-120.62,12.55,10.94,24.45,25.93,34.92,43.53v0c25.39,42.71,42.36,101,39.82,155.7Z" transform="translate(-931.25 -597.89)"/><path class="cls-4" d="M1427.65,3324.38c-42.8,11.51-201,56.23-301.82,22.5-84.43-28.22-142-111.44-165.92-199.85,1.76,4,62.31,136.67,197.32,123.4s159.33-182.41,119.31-331.62c25.39,42.71,42.36,101,39.82,155.7Z" transform="translate(-931.25 -597.89)"/><path class="cls-5" d="M1431.89,3340.15c-101.14,26.62-235.15,58.13-334.85,12.7-128.44-62.39-191.46-239.93-156-374.06,14.7-57.47,55.84-111,113-131.67,70.14-26.5,156.64-9.12,208.17,46,43.93,56.31,61.44,131.64,54.13,201.43-.89-27.59-6.55-54.56-15.39-80.07-24.39-73.1-81.58-138.68-161.67-145.94-118.48-11-179.65,87.25-175.49,195.81,4.2,101.41,52.74,212.31,147.19,259,47.7,22.32,101.59,21.59,153.4,17,53.46-5.33,106.29-17.2,159-31.74l8.5,31.57Z" transform="translate(-931.25 -597.89)"/><ellipse class="cls-7" cx="1142.54" cy="3150.73" rx="100.73" ry="112.26" transform="matrix(0.98, -0.18, 0.18, 0.98, -1492.43, -333.31)"/><ellipse class="cls-7" cx="1208.13" cy="2989.44" rx="37" ry="41.23" transform="translate(-1461.55 -324) rotate(-10.62)"/><ellipse class="cls-7" cx="1019.79" cy="3041.35" rx="37" ry="41.23" transform="translate(-1474.34 -357.83) rotate(-10.62)"/><ellipse class="cls-7" cx="1102.02" cy="2979.6" rx="41.05" ry="45.75" transform="translate(-1461.59 -343.7) rotate(-10.62)"/><path class="cls-6" d="M2201.55,3210.68l433.12,113.68s120.3,13.76,203.54,13.76c169,0,219.29-262.35,219.29-262.35l-177.69-173.46-450.19-139.47" transform="translate(-931.25 -597.89)"/><path class="cls-2" d="M2201.55,3210.69l433.11,113.69s120.33,13.76,203.53,13.76c169.07,0,219.32-262.37,219.32-262.37L2922,2943.46l-42.15-41.16L2545,2798.58,2439.67,2766l-10.06-3.1-35.16,69.05Z" transform="translate(-931.25 -597.89)"/><path class="cls-4" d="M2201.55,3210.69l433.11,113.69s120.33,13.76,203.53,13.76c169.07,0,219.32-262.37,219.32-262.37L2922,2943.46,2812,2903.57c-68.78,39.48-70.29,203.85-194.87,174.77-84-19.64-67.58-168.24-72.16-279.76L2439.67,2766c-14.23,19.48-29.44,41.82-45.22,66Z" transform="translate(-931.25 -597.89)"/><path class="cls-5" d="M2838.21,3354.47c-83.21,0-200.45-13.3-205.39-13.87l-2.3-.42L2197.4,3226.49a16.35,16.35,0,1,1,8.3-31.62l432,113.39c12.49,1.39,123.48,13.52,200.53,13.52,137.23,0,191.14-197.09,201.37-240.66l-168.37-164.36-446.43-138.31a16.34,16.34,0,1,1,9.67-31.22l454,140.63,186.79,182.35-1.65,8.63C3071.39,3090.09,3018.69,3354.47,2838.21,3354.47Z" transform="translate(-931.25 -597.89)"/><path class="cls-6" d="M2634.67,3324.36c42.82,11.53,201,56.26,301.83,22.51,126.93-42.47,193.13-209.23,175.77-331-25.84-181.18-202-198.78-291.59-120.62-42.93,37.46-78.34,122-74.72,199.28Z" transform="translate(-931.25 -597.89)"/><path class="cls-2" d="M2634.66,3324.38c42.81,11.51,201,56.23,301.82,22.5,84.43-28.22,142-111.44,165.92-199.85a.12.12,0,0,0,0-.08c12.06-44.52,15.62-90.33,9.82-131.09-25.84-181.18-202-198.78-291.57-120.62-12.55,10.94-24.45,25.93-34.91,43.53v0c-25.39,42.71-42.36,101-39.83,155.7Z" transform="translate(-931.25 -597.89)"/><path class="cls-4" d="M2634.66,3324.38c42.81,11.51,201,56.23,301.82,22.5,84.43-28.22,142-111.44,165.92-199.85-1.76,4-62.31,136.67-197.32,123.4s-159.33-182.41-119.3-331.62c-25.39,42.71-42.36,101-39.83,155.7Z" transform="translate(-931.25 -597.89)"/><path class="cls-5" d="M2638.92,3308.58c93.18,24.54,222.07,55.53,312.39,14.71,113.8-55.61,169.8-217,138.46-335.84-28.13-109.83-141.82-151.22-237.5-95.15-44.44,27.63-73.76,72.85-90.92,122.16-8.84,25.51-14.5,52.48-15.39,80.07-7.32-69.79,10.2-145.11,54.13-201.43,51.53-55.11,138-72.47,208.16-46,88.66,32.65,126.55,129.79,122.93,218.15-4.74,114-59.69,235.36-165.91,287.58-99.75,45.44-233.62,13.92-334.84-12.7l8.49-31.57Z" transform="translate(-931.25 -597.89)"/><ellipse class="cls-7" cx="2919.78" cy="3150.73" rx="112.26" ry="100.73" transform="translate(-1646.39 4841.85) rotate(-79.38)"/><ellipse class="cls-7" cx="2854.19" cy="2989.44" rx="41.23" ry="37" transform="translate(-1541.38 4645.79) rotate(-79.38)"/><ellipse class="cls-7" cx="3042.52" cy="3041.35" rx="41.23" ry="37" transform="translate(-1438.77 4873.27) rotate(-79.38)"/><ellipse class="cls-7" cx="2960.29" cy="2979.6" rx="45.75" ry="41.05" transform="translate(-1445.17 4742.05) rotate(-79.38)"/><polygon class="cls-1" points="1097.97 2752 1097.97 2752.08 1097.84 2752.04 1097.97 2752"/><polygon class="cls-1" points="1097.84 2752.04 1097.71 2752.08 1097.71 2752 1097.84 2752.04"/><path class="cls-8" d="M1626.43,3199.35s164.27,71.07,404.71,71.07,404.71-71.07,404.71-71.07l151.2-253.56c44.72-225.25-109.77-655.09-265.82-826.38H1741c-156,171.29-310.54,601.13-265.82,826.38Z" transform="translate(-931.25 -597.89)"/><path class="cls-2" d="M2587.06,2945.78l-31.44,52.72-119.76,200.86s-164.28,71.06-404.73,71.06-404.7-71.06-404.7-71.06l-119.75-200.74v0l-31.53-52.8c-44.73-225.25,109.78-655.08,265.85-826.35h580.22C2477.28,2290.7,2631.79,2720.53,2587.06,2945.78Z" transform="translate(-931.25 -597.89)"/><path class="cls-4" d="M2470.94,2363.14c-114.36,51.65-269.23,83.42-439.77,83.42s-325.54-31.77-439.9-83.46c44.65-98.78,97.11-185.93,149.73-243.67h580.22C2373.84,2177.17,2426.3,2264.36,2470.94,2363.14Z" transform="translate(-931.25 -597.89)"/><path class="cls-4" d="M2555.62,2998.5l-119.76,200.86s-164.28,71.06-404.73,71.06-404.7-71.06-404.7-71.06l-119.75-200.74v0c28.54-111.32,7-321.34,42-355.35s396.47,44.63,396.47,44.63,22,112.22,86,112.22,86-112.22,86-112.22,361.52-78.65,396.48-44.63S2527.12,2887.18,2555.62,2998.5Z" transform="translate(-931.25 -597.89)"/><path class="cls-9" d="M2438.48,3004.17c-1.92,244.89-407.31,235.95-407.31,235.95s-405.43,8.94-407.35-235.95c-1.6-204,338-177.88,326.31-241.34a220.66,220.66,0,0,1-2.25-63.54c7.61,28.55,31.89,100.79,83.29,100.79s75.68-72.24,83.28-100.79a220.31,220.31,0,0,1-2.25,63.54C2100.47,2826.29,2440.11,2800.16,2438.48,3004.17Z" transform="translate(-931.25 -597.89)"/><path class="cls-10" d="M1945.14,2687.86s22,112.21,86,112.21,86-112.21,86-112.21" transform="translate(-931.25 -597.89)"/><path class="cls-5" d="M2587.05,2945.79c13.39-237.92-121.67-634.89-279.43-814l13.61,6-290.16,0V2101c.13-.14.12,36.9,0,36.77V2101c.19-.14,0,36.78.07,36.77l-290.16.08,13.65-6c-131.16,152.2-218.34,399.84-258.43,595.63-13.92,71.63-24.31,143.72-21,218.31-23.77-71.53-22.23-149.77-13-223.86,21.15-149,71-292.61,139.68-426.19,35.23-67,74.36-132,125.5-188.76l5.48-6H1741l290.16.08c-.07,0,.12,36.9-.07,36.77.07,0-.12-36.9.07-36.77v36.77c-.19.13,0-36.77-.07-36.77l290.16,0h8.18c53.48,58.19,94.18,125.58,130.24,195.11,88.31,173.83,185,457.86,127.4,649.68Z" transform="translate(-931.25 -597.89)"/><path class="cls-5" d="M1626.43,3199.35c68.12,9.89,134.26,25.73,201.71,38.35a1118.4,1118.4,0,0,0,406,0c33.41-6.36,66.56-13.51,99.85-20.44,33.49-7.09,67.56-13.9,101.86-17.93-14.09,11.09-29.68,19.48-45.52,27-167.47,78.73-612.06,84.11-763.9-27Z" transform="translate(-931.25 -597.89)"/><path class="cls-11" d="M1671.18,2447.15c-2-.34-3.91-.68-5.82-1.11A37.17,37.17,0,0,1,1671.18,2447.15Z" transform="translate(-931.25 -597.89)"/><path class="cls-12" d="M2438.47,3004.18c-1.92,244.89-407.31,236-407.31,236s-405.43,8.94-407.36-236c-1.59-204,338-177.87,326.32-241.33-12.55-67.95,6.5-161.83,81-161.83s93.59,93.88,81,161.83C2100.46,2826.31,2440.1,2800.17,2438.47,3004.18Z" transform="translate(-931.25 -597.89)"/><path class="cls-13" d="M2438.48,3004.17c-1.92,244.89-407.31,235.95-407.31,235.95s-405.43,8.94-407.35-235.95c-1.6-204,338-177.88,326.31-241.34a220.66,220.66,0,0,1-2.25-63.54c7.61,28.55,31.89,100.79,83.29,100.79s75.68-72.24,83.28-100.79a220.31,220.31,0,0,1-2.25,63.54C2100.47,2826.29,2440.11,2800.16,2438.48,3004.17Z" transform="translate(-931.25 -597.89)"/><path class="cls-2" d="M1944.59,2679.88c21.94,352.39,54.06,549.2,10.34,626.78-41.23,87.15-163.61,98.23-220.89,83.21-46.79,8.34-98.13,11.89-142.83-13.35-101.11-7.51-105.7-153.76,16-208.66,0,0-82-354.45-52.3-629.3,9.91-91.61,41-249.91,151.7-391.81" transform="translate(-931.25 -597.89)"/><path class="cls-4" d="M1833.81,2431.78c-91.3-14.05-173.56-37.65-241.56-68.23,22.82-69.3,58.43-145.13,114.32-216.8Z" transform="translate(-931.25 -597.89)"/><path class="cls-4" d="M1954.91,3306.64c-41.21,87.18-163.58,98.25-220.86,83.22-46.82,8.37-98.13,11.88-142.86-13.35-49.35-3.68-75.72-40.43-75.6-83.47,14.72,11.76,34.92,18.25,60.35,16.42,31.32,23.72,77.31,23.4,118,13.72,80.46,14.94,187.38,3.92,228.59-83.23,43.71-77.5,11.37-281.23,22.61-551.35C1967.06,3035.49,1998.3,3229.75,1954.91,3306.64Z" transform="translate(-931.25 -597.89)"/><path class="cls-5" d="M1944.59,2679.88c14.68,102.69,28.07,210.36,38.89,313.45,7.72,79.47,14.21,158.92,7.3,239-5.43,80.81-46.37,142.84-126.53,167.7-44,13.39-89.1,17-134.58,6.51l7.39.3c-50.31,9.63-108.14,12.1-154.87-14.34l7.66,2.33c-64.48-4.16-101.71-62.8-89.3-124,10.12-54.1,51.38-95.89,99.88-117.88l-9.22,18.63c-9.76-43.77-17.79-87.2-25.14-131.06-27.88-175.46-46.67-354.86-23.9-532.28,18.62-133.76,67.74-264.44,151.51-371.51a16.35,16.35,0,1,1,25.78,20.11c-80,102.07-127.14,227.82-144.92,355.93-26.69,221.38,5.78,447.43,51.43,664.35l-12.07,5.7c-39.27,16.9-72.57,51.73-79.69,94.05-7.54,44.47,16.34,80.76,62.92,81.91,40.63,25.23,91.22,22,137.62,13.53,70.68,17.62,170.84-1.77,205.36-72.63,22.67-44.59,19.41-98,19.15-147.33-.51-25.93-2.06-52-3.41-78.1-6.56-130.5-13.63-263.75-11.26-394.34Z" transform="translate(-931.25 -597.89)"/><path class="cls-5" d="M1853.16,3204.19c-68.3-37.71-168.18-44.77-241.69-20.57a16.38,16.38,0,1,1-8.6-31.54c44.08-9,88.67-6.25,132,2.55,42,9,83.91,23.65,118.31,49.56Z" transform="translate(-931.25 -597.89)"/><path class="cls-5" d="M1607.24,3229.08c-29.22,42.24-36.08,111.58,10.16,142.41L1596.94,3397c-48.72-45-33-126.45,10.3-167.9Z" transform="translate(-931.25 -597.89)"/><path class="cls-5" d="M1728.19,3229.08c-35.31,40.28-41,121.74,13.86,146.54l-16,28.5c-60.91-39.48-49.2-133.42,2.16-175Z" transform="translate(-931.25 -597.89)"/><path class="cls-2" d="M2117.69,2679.88c-21.94,352.39-54.07,549.2-10.35,626.78,41.24,87.15,163.61,98.23,220.9,83.21,46.79,8.34,98.13,11.89,142.83-13.35,101.1-7.51,105.7-153.76-16-208.66,0,0,82-354.45,52.29-629.3-9.91-91.61-41-249.91-151.7-391.81" transform="translate(-931.25 -597.89)"/><path class="cls-4" d="M2470,2363.55c-68,30.58-150.25,54.18-241.59,68.23l127.23-285C2411.62,2218.42,2447.23,2294.25,2470,2363.55Z" transform="translate(-931.25 -597.89)"/><path class="cls-4" d="M2107.36,3306.64c41.21,87.18,163.59,98.25,220.87,83.22,46.81,8.37,98.13,11.88,142.86-13.35,49.35-3.68,75.72-40.43,75.59-83.47-14.71,11.76-34.91,18.25-60.34,16.42-31.32,23.72-77.32,23.4-118,13.72-80.47,14.94-187.38,3.92-228.6-83.23-43.71-77.5-11.36-281.23-22.61-551.35C2095.22,3035.49,2064,3229.75,2107.36,3306.64Z" transform="translate(-931.25 -597.89)"/><path class="cls-5" d="M2117.69,2679.88c2.37,130.54-4.73,263.87-11.26,394.34-2.54,51.51-6.1,103.94-2.07,155,2.19,24.15,6.25,49.66,17.8,70.39,34.51,70.88,134.7,90.23,205.36,72.63,46.39,8.5,97,11.71,137.63-13.53,46.51-1.19,70.46-37.3,62.92-81.91-7.14-42.34-40.42-77.15-79.7-94.05l-12.07-5.7c45.66-216.92,78.12-443,51.44-664.35-17.79-128.11-65-253.86-144.92-355.93a16.34,16.34,0,1,1,25.77-20.11c83.78,107.08,132.89,237.75,151.52,371.51,22.76,177.42,4,356.82-23.91,532.28-7.34,43.86-15.38,87.29-25.13,131.06l-9.23-18.63c48.51,22,89.77,63.78,99.89,117.88,12.39,61.06-24.77,119.9-89.3,124l7.66-2.32c-46.74,26.43-104.56,24-154.88,14.33l7.39-.3c-45.47,10.54-90.61,6.88-134.58-6.5-80.14-24.9-121.09-86.82-126.52-167.71-6.92-80-.43-159.51,7.3-239,10.8-103.07,24.2-210.79,38.89-313.45Z" transform="translate(-931.25 -597.89)"/><path class="cls-5" d="M2209.12,3204.19c52.53-38.36,119-54.41,183.39-57.44,22.06-.66,44.47.66,66.89,5.33a16.39,16.39,0,1,1-8.59,31.55c-73.53-24.2-173.33-17.17-241.69,20.56Z" transform="translate(-931.25 -597.89)"/><path class="cls-5" d="M2455,3229.08c43.34,41.44,59,122.92,10.3,167.9l-20.47-25.49c46.25-30.85,39.38-100.14,10.17-142.41Z" transform="translate(-931.25 -597.89)"/><path class="cls-5" d="M2334.08,3229.08c51.37,41.61,63.07,135.57,2.17,175l-16-28.5c54.84-24.82,49.17-106.23,13.85-146.54Z" transform="translate(-931.25 -597.89)"/><path class="cls-14" d="M2621.43,2004.56" transform="translate(-931.25 -597.89)"/><polygon class="cls-15" points="1080.29 1182.83 1077.94 1183.2 1077.94 1182.46 1080.29 1182.83"/><path class="cls-2" d="M2020.54,614.23c778.09,11.49,879.19,518.7,856.08,1049.57,16.25,36.72,58.93,162.73,0,292-119.8,262.78-542.51,357.77-856.08,357.77s-736.28-95-856.09-357.77c-58.93-129.25-16.25-255.26,0-292-23.11-530.87,78-1038.08,856.08-1049.57" transform="translate(-931.25 -597.89)"/><path class="cls-2" d="M2876.63,1955.79c-119.81,262.78-542.52,357.78-856.1,357.78s-736.3-95-856.1-357.78c-58.93-129.28-16.22-255.24,0-292-15.67-360.83,26-710.79,298.75-901.49,128.47-89.88,308.17-144.37,557.35-148,249.17,3.67,428.88,58.16,557.35,148C2850.63,953,2892.29,1303,2876.63,1663.78,2892.85,1700.55,2935.56,1826.51,2876.63,1955.79Z" transform="translate(-931.25 -597.89)"/><path class="cls-4" d="M2810.41,2055.5c-168.61,187.58-519.7,258.07-789.88,258.07s-621.28-70.49-789.89-258.07c209.93,144.37,532.39,200.87,789.89,200.87S2600.48,2199.87,2810.41,2055.5Z" transform="translate(-931.25 -597.89)"/><path class="cls-5" d="M1836.14,2303.13c-202.19-11.42-419.65-62.09-578-195-91.14-76.92-150.88-192.13-141.76-313.2,3.16-47.64,13.26-94,33.11-137.73l-1.38,7.32c-25.95-519.13,89-966.45,673.46-1051.21,65.92-9.8,132.37-14.27,198.71-15.41l.48,32.69c-65.13,1.12-130.18,5.51-194.38,15-566.8,81.3-670,516.6-645.61,1017.47l.16,3.74-1.54,3.58A386.7,386.7,0,0,0,1153,1796.69c-8.49,336.61,413.72,458.43,683.11,506.44Z" transform="translate(-931.25 -597.89)"/><path class="cls-5" d="M2020.78,597.89c703,9.91,906,420.18,872.17,1066.63l-1.38-7.32c38.71,87.18,45.54,188.3,13.62,278.77-66.72,181-254.86,277.2-430.35,325.55a1241.83,1241.83,0,0,1-269.91,41.62c269.83-49.5,690.73-168.63,683-506.45-1.84-42.75-10.47-86.65-26.29-126.27l-1.55-3.58.16-3.75c5.56-130.64,4.35-261.91-15.57-390.37C2776.31,808.36,2463.36,636,2020.3,630.58l.48-32.69Z" transform="translate(-931.25 -597.89)"/><path class="cls-16" d="M1541.51,715.29c-90.93-22.06-319.72,17.18-452.6,344.93-48.59,119.83-56.62,330.07,98.14,318.61C1365,1365.66,1293.09,1050,1541.51,715.29Z" transform="translate(-931.25 -597.89)"/><path class="cls-3" d="M1541.52,715.27c-7.56,10.18-14.77,20.29-21.77,30.4-115-.14-312.4,73.4-434.36,374.2-12.13,29.84-21.84,65-27.59,101.16-.28-55.11,12.41-114.66,31.13-160.78C1221.77,732.45,1450.56,693.26,1541.52,715.27Z" transform="translate(-931.25 -597.89)"/><path class="cls-17" d="M1541.52,715.27c-248.41,334.66-176.45,650.42-354.49,663.57-85.14,6.3-121-54.56-128-130.52,19.76,30.88,49.85,49.78,92.48,47.29,170.9-10,152.18-386.73,389.5-580.47C1541.17,715.21,1541.38,715.21,1541.52,715.27Z" transform="translate(-931.25 -597.89)"/><path class="cls-5" d="M1175.42,1395.61c-42.62,0-77.08-16.53-100.2-48.25-50.77-69.68-39.16-200.28-1.46-293.28,58.89-145.24,145-253,249.16-311.74,88.59-50,173-54.94,222.44-42.93a16.33,16.33,0,0,1,9.27,25.62c-118.24,159.3-162.15,311.91-197.44,434.54-38.07,132.31-65.57,227.91-168.93,235.56Q1181.72,1395.61,1175.42,1395.61Zm320-668.89c-97.36,0-277.61,59.15-391.34,339.65-33.94,83.71-44.12,204.5-2.41,261.73,18.92,26,46.49,37.25,84.2,34.43,77.23-5.71,99.9-72.85,139.94-212,32.6-113.31,76.71-266.62,186.84-423.17C1507.22,727,1501.47,726.72,1495.39,726.72Z" transform="translate(-931.25 -597.89)"/><path class="cls-16" d="M2519.08,715.29c90.93-22.06,319.72,17.18,452.6,344.93,48.59,119.83,56.62,330.07-98.14,318.61C2695.55,1365.66,2767.51,1050,2519.08,715.29Z" transform="translate(-931.25 -597.89)"/><path class="cls-3" d="M2519.07,715.27c7.56,10.18,14.77,20.29,21.77,30.4,115-.14,312.4,73.4,434.36,374.2,12.13,29.84,21.84,65,27.59,101.16.28-55.11-12.41-114.66-31.13-160.78C2838.82,732.45,2610,693.26,2519.07,715.27Z" transform="translate(-931.25 -597.89)"/><path class="cls-17" d="M2519.07,715.27c248.41,334.66,176.45,650.42,354.49,663.57,85.14,6.3,121.05-54.56,128-130.52-19.76,30.88-49.85,49.78-92.48,47.29-170.9-10-152.18-386.73-389.5-580.47C2519.42,715.21,2519.21,715.21,2519.07,715.27Z" transform="translate(-931.25 -597.89)"/><path class="cls-5" d="M2885.17,1395.61q-6.3,0-12.84-.48c-103.35-7.65-130.86-103.25-168.93-235.56C2668.11,1036.94,2624.2,884.33,2506,725a16.33,16.33,0,0,1,9.27-25.62c49.44-12,133.84-7,222.45,42.93,104.11,58.7,190.26,166.5,249.15,311.74,37.71,93,49.31,223.6-1.46,293.28C2962.25,1379.08,2927.78,1395.61,2885.17,1395.61ZM2548,727.37c110.13,156.55,154.24,309.87,186.84,423.17,40,139.14,62.71,206.28,139.94,212,37.76,2.82,65.28-8.46,84.2-34.43,41.71-57.23,31.52-178-2.41-261.73C2835.72,768.38,2639.79,720.21,2548,727.37Z" transform="translate(-931.25 -597.89)"/><polygon class="cls-18" points="1091.12 476.79 1091.12 476.86 1090.99 476.79 1091.12 476.79"/><path class="cls-14" d="M2061.62,1887.18" transform="translate(-931.25 -597.89)"/><path class="cls-14" d="M2062.37,1927.64" transform="translate(-931.25 -597.89)"/><path class="cls-16" d="M1392.31,1573.16c26.86,119.5,143.87,171.81,267.79,138,123.12-33.63,170.35-89.52,170.35-89.52,66.53-345.85-118.07-446.26-263.23-397.79C1441.28,1265.87,1358.25,1421.62,1392.31,1573.16Z" transform="translate(-931.25 -597.89)"/><path class="cls-19" d="M2396.37,2054s-77,46.74-189.13,77.7c-55.47,15.37-119.53,26.79-187.13,26.79-67.25,0-131-11.35-186.29-26.59-112.59-30.88-190-77.9-190-77.9s98.66-358.82,376.33-358.82S2396.37,2054,2396.37,2054Z" transform="translate(-931.25 -597.89)"/><path class="cls-17" d="M2396.37,2054s-77,46.74-189.13,77.7c-90.76-30.06-162.31-128.8-186.44-212.52-24.12,83.93-96,182.88-187,212.72-112.59-30.88-190-77.9-190-77.9s98.66-358.82,376.33-358.82S2396.37,2054,2396.37,2054Z" transform="translate(-931.25 -597.89)"/><path class="cls-15" d="M2020.09,2174.87c-206.36,0-377.59-102.51-384.78-106.88l-10.55-6.4,3.28-11.9c1-3.76,26-93.26,86.15-184.09,80.85-122.16,186.63-186.73,305.9-186.73s225,64.57,305.9,186.73c60.11,90.83,85.12,180.33,86.16,184.09l3.27,11.9-10.55,6.4C2397.68,2072.36,2226.46,2174.87,2020.09,2174.87Zm-356.78-128.59c40.7,22.19,188.62,95.9,356.78,95.9,168.46,0,316.15-73.69,356.79-95.89-20.15-61.31-123.15-334.73-356.79-334.73S1683.45,1985,1663.31,2046.28Z" transform="translate(-931.25 -597.89)"/><ellipse class="cls-5" cx="716.34" cy="905.61" rx="149.17" ry="172.04"/><ellipse class="cls-3" cx="756.86" cy="855.85" rx="48.63" ry="61.49"/><ellipse class="cls-3" cx="660.71" cy="963.58" rx="26.94" ry="41.61"/><path class="cls-16" d="M2648.76,1573.16c-26.86,119.5-143.87,171.81-267.78,138-123.12-33.63-170.36-89.52-170.36-89.52-66.52-345.85,118.07-446.26,263.23-397.79C2599.8,1265.87,2682.83,1421.62,2648.76,1573.16Z" transform="translate(-931.25 -597.89)"/><path class="cls-5" d="M1744.24,1066.28c-105.54-93.6-246.06-67.22-323.26,45.81-25,34.8-44.66,73.61-59.79,114,7.39-43.48,23.53-85,45.89-123.11,23.17-38.35,55.29-73.27,95.64-94.06,84.91-44.1,189.69-26.84,241.52,57.4Z" transform="translate(-931.25 -597.89)"/><path class="cls-5" d="M2296.82,1066.28c51.82-84.24,156.66-101.49,241.52-57.4,40.35,20.79,72.48,55.71,95.64,94.06,22.37,38.1,38.51,79.63,45.89,123.11-15.12-40.35-34.74-79.17-59.79-114-77.21-113.07-217.79-139.37-323.26-45.81Z" transform="translate(-931.25 -597.89)"/><path class="cls-19" d="M1667.33,2061.57a191.35,191.35,0,0,1-43.67-5.11c-46.61-11-70.82-40.77-82.93-63.86-21-40-23.16-92.31-5.74-136.56,47.71-121.16,212.54-189.3,465.14-192.77l-32.9,114.41c-39.26,136.52-165.08,283.89-299.89,283.89Z" transform="translate(-931.25 -597.89)"/><path class="cls-12" d="M2885.6,2465c-137.92,54.25-218.19,17-326.95-102-78-85.39-195.87-84.56-342.59-84.35-75.7.11-195.69.32-195.69.32s-120,.13-195.7.27c-146.75.21-264.55-.27-342.34,85.33-108.45,119.36-188.58,156.84-326.71,103-119.76-46.69-179.72-256.14-24.39-378-155.68-121.35-96.34-331,23.31-378,137.92-54.24,218.22-17,327,102a217.6,217.6,0,0,0,61.46,47c60.63,31.32,136,36.44,223.6,37.21,18.63.17,37.82.14,57.53.07l195.65-.28s120-.18,195.73-.32c104.06-.13,193.57.07,264.56-30.31,5.4-2.33,10.7-4.8,15.9-7.49a217.74,217.74,0,0,0,61.85-47.52c108.45-119.32,188.61-156.81,326.71-103,119.79,46.68,179.72,256.14,24.42,378C3064.62,2208.32,3005.25,2418,2885.6,2465Z" transform="translate(-931.25 -597.89)"/><path class="cls-3" d="M2885.62,2465c-138,54.27-218.22,17-327-102-78.06-85.39-195.89-84.53-342.59-84.33-75.68.08-195.68.29-195.68.29s-120,.16-195.69.28c-146.78.21-264.57-.28-342.34,85.35-108.47,119.36-188.61,156.85-326.72,103-119.76-46.72-179.74-256.16-24.41-378-155.66-121.36-96.33-331,23.3-378,138-54.27,218.25-17,327,102A216.32,216.32,0,0,0,1530,1853.3c4.26,2.61,8.55,5,13,7.27,60.64,31.32,136.08,36.46,223.61,37.24,18.65.16,37.82.12,57.53,0,75.64-.08,195.64-.24,195.64-.24h.78c10.51,0,122.86-.21,194.95-.33,104.05-.16,193.59.08,264.57-30.3,5.4-2.37,10.71-4.82,15.91-7.51,4.86-2.54,9.61-5.19,14.31-8.09a216.36,216.36,0,0,0,47.55-39.45c108.43-119.32,188.61-156.8,326.68-102.94,119.8,46.67,179.74,256.12,24.45,378C3064.62,2208.32,3005.25,2417.93,2885.62,2465Z" transform="translate(-931.25 -597.89)"/><path class="cls-20" d="M2020.5,1897.61v21.6c-72.58,145.7-192.86,192.66-329.79,179-143.88-14.37-199.69-141-160.69-244.89,4.26,2.61,8.55,5,13,7.27,60.64,31.32,136.08,36.46,223.61,37.24,18.65.16,37.82.12,57.53,0,75.64-.08,195.64-.24,195.64-.24Z" transform="translate(-931.25 -597.89)"/><path class="cls-20" d="M2350.37,2098.19c-137,13.68-257.22-33.28-329.83-179v-21.6c10.51,0,122.86-.21,194.95-.33,104.05-.16,193.59.08,264.57-30.3,5.4-2.37,10.71-4.82,15.91-7.51,4.86-2.54,9.61-5.19,14.31-8.09C2550.67,1955.59,2495.11,2083.73,2350.37,2098.19Z" transform="translate(-931.25 -597.89)"/><path class="cls-20" d="M2750.08,2138.4s-13.68-81.57,37.67-148.9c48.66-63.82,143.58-76.08,147-30.7C2941.18,2045.06,2808,2053.61,2750.08,2138.4Z" transform="translate(-931.25 -597.89)"/><path class="cls-20" d="M2652.64,2383.81s98,80.57,186.76,47.31c103.34-38.73,139.32-111.42,106.18-148.18S2766.88,2409.85,2652.64,2383.81Z" transform="translate(-931.25 -597.89)"/><path class="cls-20" d="M1402.15,2383.81s-98,80.57-186.76,47.31c-103.34-38.73-139.32-111.42-106.18-148.18S1287.91,2409.85,1402.15,2383.81Z" transform="translate(-931.25 -597.89)"/><path class="cls-20" d="M1102.67,1981.93c11-42,137-50.27,167.66-10.29,36.92,48.1,33.51,87.52,60.46,102.34C1240.53,2123.19,1084.85,2049.64,1102.67,1981.93Z" transform="translate(-931.25 -597.89)"/><path class="cls-20" d="M1511.36,2292.69s37.91-115.39,87.44-119.42,113,42.12,101.14,55C1679.19,2250.72,1567,2239.28,1511.36,2292.69Z" transform="translate(-931.25 -597.89)"/><path class="cls-20" d="M2545.91,2292.69s-37.91-115.39-87.45-119.42-113,42.12-101.14,55C2378.07,2250.72,2490.27,2239.28,2545.91,2292.69Z" transform="translate(-931.25 -597.89)"/><path class="cls-5" d="M1267,2507.9c-34.93,0-73.36-8-117.33-25.15-64.42-25.11-113.66-92.9-125.46-172.7-12.31-83.24,17.3-162.56,81.55-220.47-64.42-57.71-94.26-136.94-82.2-220.23,11.56-79.83,60.61-147.76,125-173.06,153.35-60.29,239.58-9.19,345,106.22,72.57,79.41,184.91,79.24,327.17,79l398-.58c142.25-.21,254.59-.37,326.94-80,105.13-115.71,191.2-167.08,344.73-107.24,64.42,25.11,113.67,92.9,125.46,172.7,12.31,83.25-17.3,162.57-81.55,220.47,64.42,57.72,94.26,136.95,82.2,220.23-11.56,79.83-60.61,147.77-125,173.06-153.36,60.3-239.59,9.19-345.06-106.22-72.57-79.41-184.84-79.16-327.19-79l-199,.29,0-16.34,0,16.34-199,.3c-142.25.2-254.61.36-327,80C1419.41,2458.1,1354.08,2507.9,1267,2507.9Zm-2.09-804.4c-31.86,0-65.79,8-104.43,23.21-53.61,21.08-94.66,78.91-104.57,147.33-11.25,77.71,19.85,151.56,85.33,202.61a16.35,16.35,0,0,1,0,25.76c-65.33,51.25-96.22,125.19-84.73,202.86,10.11,68.39,51.32,126.1,105,147C1284,2500,1359,2476,1470.24,2353.53c82-90.31,206.73-90.48,351.1-90.69l398-.58c144.45-.16,269.06-.41,351.37,89.66,111.63,122.15,186.7,145.93,309,97.85,53.62-21.07,94.66-78.91,104.57-147.33,11.25-77.7-19.85-151.55-85.33-202.61a16.35,16.35,0,0,1,0-25.75c65.34-51.25,96.22-125.19,84.73-202.87-10.1-68.39-51.32-126.1-105-147-122.39-47.71-197.41-23.72-308.67,98.76-82.05,90.31-206.72,90.49-351.08,90.7l-398,.58c-144.33.2-269,.41-351.35-89.67C1393.12,1741,1333.87,1703.5,1264.93,1703.5Z" transform="translate(-931.25 -597.89)"/><path class="cls-5" d="M1139.76,2075.61c57.15,41.37,136.53,46.14,203.88,24.62-33.1,16.06-69.89,26.07-108,27.48s-77.33-5.75-113-24.23l17.09-27.87Z" transform="translate(-931.25 -597.89)"/><path class="cls-5" d="M2917.06,2101.12c-28.06,12.71-56,19.14-82.9,27.53-26.4,8.51-54.21,17.66-71.29,41,12.33-26.6,40.17-42.58,65-56.08,25.42-13.6,51.53-25.47,73-40.83l16.24,28.36Z" transform="translate(-931.25 -597.89)"/><path class="cls-21" d="M2020.55,1607.74c97.36,0,410.09-6.1,509.21,177.58,51,111.15-5.61,259.65-163.13,270.18-144.84,9.68-269.93-55.81-346.09-219.55h0c-76.16,163.74-201.25,229.23-346.09,219.55-157.52-10.53-214.12-159-163.14-270.18,99.13-183.68,411.86-177.58,509.22-177.58Z" transform="translate(-931.25 -597.89)"/><path class="cls-3" d="M2547.36,1884.5a199.88,199.88,0,0,0-17.58-67.87C2430.63,1633,2117.89,1639,2020.54,1639s-410.09-6.09-509.24,177.59a199.88,199.88,0,0,0-17.58,67.87,201,201,0,0,1,17.58-99.19c99.15-183.68,411.89-177.55,509.24-177.55s410.09-6.13,509.24,177.55A201,201,0,0,1,2547.36,1884.5Z" transform="translate(-931.25 -597.89)"/><path class="cls-22" d="M1983.46,1818.74c-60.75,130.62-155.48,196.85-281.55,196.85-8.09,0-16.41-.28-24.73-.84-70.11-4.68-105.35-40.08-122.58-69-24.86-41.69-27.37-96.08-6.66-142.27C1577.4,2081.24,1937.36,1899.87,1983.46,1818.74Z" transform="translate(-931.25 -597.89)"/><path class="cls-22" d="M2057.41,1818.74c60.75,130.62,155.48,196.85,281.55,196.85,8.09,0,16.41-.28,24.73-.84,70.11-4.68,105.36-40.08,122.58-69,24.86-41.69,27.38-96.08,6.66-142.27C2463.47,2081.24,2103.51,1899.87,2057.41,1818.74Z" transform="translate(-931.25 -597.89)"/><path class="cls-5" d="M2338.77,2072.79c-138.11,0-247.21-68.71-318.23-200.37-71,131.65-180.15,200.36-318.23,200.37q-14.28,0-29-1c-74.08-5-133.74-39.36-168-96.87-34.5-58-37.91-133.22-8.91-196.44l.47-1c100.86-186.88,401.42-186.28,514.52-186.17l9.08,0v32.68h-9.14c-107.7-.17-393.59-.68-485.44,168.54-24.35,53.5-21.49,116.91,7.5,165.61,28.58,48,79,76.75,142.08,81,147.53,9.87,261.67-62.81,330.19-210.14l14.82-31.86,14.82,31.86c68.52,147.33,182.65,220,330.18,210.14,63-4.22,113.5-33,142.08-81,29-48.7,31.86-112.11,7.51-165.61-91.85-169.22-377.89-168.62-485.44-168.54h-9.14V1591.4l9.08,0c113.33-.07,413.67-.71,514.52,186.17l.47,1c29,63.22,25.59,138.49-8.91,196.44-34.24,57.51-93.9,91.91-168,96.87Q2353.05,2072.79,2338.77,2072.79Z" transform="translate(-931.25 -597.89)"/><path class="cls-5" d="M2162.82,1624.36c-16.88,47.12-68.3,81.38-104.56,100.48a81.77,81.77,0,0,1-76.32,0c-36.25-19.13-87.64-53.44-104.48-100.56-19.24-54,116.86-62.77,142.71-62.76S2182.11,1570.37,2162.82,1624.36Z" transform="translate(-931.25 -597.89)"/><path class="cls-3" d="M2079.31,1589.05c-11.2,19.06-59.16,18.69-59.16,18.69s-48,.33-59.15-18.74c-8-13.64,48.45-15.84,59.16-15.84S2087.3,1575.42,2079.31,1589.05Z" transform="translate(-931.25 -597.89)"/><ellipse class="cls-5" cx="1641.28" cy="1910.89" rx="18.59" ry="18.62" transform="translate(-1203.18 2951.58) rotate(-89.92)"/><ellipse class="cls-5" cx="642.94" cy="1279.99" rx="18.62" ry="18.59"/><ellipse class="cls-5" cx="710.85" cy="1240.22" rx="18.62" ry="18.59"/><ellipse class="cls-5" cx="2399.8" cy="1910.89" rx="18.62" ry="18.59" transform="translate(-933.91 -594.55) rotate(-0.08)"/><ellipse class="cls-5" cx="1535.63" cy="1279.99" rx="18.62" ry="18.59"/><ellipse class="cls-5" cx="1467.72" cy="1240.22" rx="18.62" ry="18.59"/><path class="cls-5" d="M2593,1450.23c-105.58-35.25-195.64,5-261.48,89.31a310.08,310.08,0,0,0-23.18,34.18l-31.33-32.1c93.14-45.09,192.34-29.53,273.72,31.55-43.23-12.39-87.41-23.25-131.8-22.24-43,.49-83.29,13-121.07,33a23.4,23.4,0,0,1-31.33-32.1c14.6-30.2,35.32-56.17,59.41-78.5,73.41-69.42,185.91-91,267.06-23.12Z" transform="translate(-931.25 -597.89)"/><line class="cls-19" x1="1089.28" y1="1238.06" x2="1089.28" y2="1109.5"/><polygon class="cls-5" points="1072.94 1238.06 1081.11 1109.5 1097.45 1109.5 1105.63 1238.06 1072.94 1238.06 1072.94 1238.06"/></svg>