<svg id="Layer_1" data-name="Layer 1" xmlns="http://www.w3.org/2000/svg" viewBox="0 0 2444.51 1619.29"><defs><style>.cls-1{fill:#001922;}.cls-2{fill:#e31114;}</style></defs><path class="cls-1" d="M2343.6,157.15c15.74-1.76,18.13-16.84,31.24-31.49,19.24-21.5,13.79-38.26.67-40.72s-22.81,12.93-36.74,13.84h-.13l-.13,0c-13.89,1.45-26-12.08-38.54-7.44s-15.07,22.07,7.52,40C2322.88,143.61,2327.78,158.07,2343.6,157.15Z" transform="translate(-70.4 -60.07)"/><path class="cls-1" d="M2382.67,165.61c-9.74-11.26-11.76-25.48-4.5-31.76s21-2.25,30.79,9,11.76,25.48,4.5,31.76S2392.42,176.87,2382.67,165.61Z" transform="translate(-70.4 -60.07)"/><path class="cls-1" d="M2306.51,172.08c7.71-12.74,7.3-27.1-.92-32.07s-21.12,1.33-28.83,14.07-7.3,27.1.92,32.07S2298.8,184.82,2306.51,172.08Z" transform="translate(-70.4 -60.07)"/><path class="cls-1" d="M2351.24,198.69c-4-15.17.6-29.59,10.38-32.2s21,7.57,25,22.74-.59,29.59-10.37,32.2S2355.29,213.86,2351.24,198.69Z" transform="translate(-70.4 -60.07)"/><path class="cls-1" d="M2343.07,199.38c1.43-15.63-5.58-29.06-15.66-30s-19.42,11-20.85,26.64,5.57,29.07,15.65,30S2341.63,215,2343.07,199.38Z" transform="translate(-70.4 -60.07)"/><path class="cls-1" d="M533.9,960.93c5.7-14.13-6-23-12.39-40.82C512.09,894,495.42,891,487.35,901s.54,25.2-5.05,37.4l-.06.12,0,.11c-5.11,12.42-22.1,16.52-23.89,29.23s11.8,22.82,37.3,11.9C513,972.29,527.47,974.74,533.9,960.93Z" transform="translate(-70.4 -60.07)"/><path class="cls-1" d="M558.9,931.72c-14,3.11-26.93-1.67-28.94-10.68s7.7-18.84,21.68-21.95,26.93,1.67,28.93,10.68S572.88,928.61,558.9,931.72Z" transform="translate(-70.4 -60.07)"/><path class="cls-1" d="M529.61,999.13c-7.26-12.34-19.6-18.54-27.56-13.86s-8.51,18.49-1.25,30.82,19.61,18.55,27.56,13.87S536.88,1011.47,529.61,999.13Z" transform="translate(-70.4 -60.07)"/><path class="cls-1" d="M572.55,973.42c-14.69-3.5-24.78-14-22.52-23.48s16-14.31,30.68-10.82,24.77,14,22.52,23.48S587.24,976.91,572.55,973.42Z" transform="translate(-70.4 -60.07)"/><path class="cls-1" d="M569.4,980.65c-12.58-8.35-27.14-8.54-32.52-.43s.44,21.45,13,29.8,27.14,8.55,32.52.44S582,989,569.4,980.65Z" transform="translate(-70.4 -60.07)"/><path class="cls-1" d="M119.23,829.1c9-.05,11.24-8.41,19.51-15.9,12.14-11,10.07-20.76,2.81-22.93s-13.64,5.93-21.56,5.6h-.14c-7.93,0-14-8.37-21.31-6.5s-9.82,11.55,1.85,23C108.35,820.22,110.25,828.68,119.23,829.1Z" transform="translate(-70.4 -60.07)"/><path class="cls-1" d="M140.77,836.22c-4.83-6.94-5.11-15.09-.64-18.2s12,0,16.83,6.93,5.12,15.08.65,18.19S145.6,843.15,140.77,836.22Z" transform="translate(-70.4 -60.07)"/><path class="cls-1" d="M97.4,835.31c5.12-6.73,5.74-14.86,1.41-18.15s-12-.51-17.11,6.21S76,838.23,80.29,841.52,92.29,842,97.4,835.31Z" transform="translate(-70.4 -60.07)"/><path class="cls-1" d="M121.06,853c-1.38-8.8,2.1-16.66,7.78-17.55s11.39,5.53,12.77,14.33-2.11,16.66-7.78,17.55S122.43,861.8,121.06,853Z" transform="translate(-70.4 -60.07)"/><path class="cls-1" d="M116.4,852.9c1.75-8.74-1.41-16.73-7-17.86S97.74,840.09,96,848.83s1.41,16.73,7,17.86S114.65,861.64,116.4,852.9Z" transform="translate(-70.4 -60.07)"/><path class="cls-1" d="M991.72,733.37c8.95,0,11.25-8.3,19.53-15.69,12.15-10.85,10.15-20.59,3-22.8s-13.61,5.8-21.49,5.43h-.15c-7.88-.07-13.83-8.42-21.15-6.62s-9.85,11.43,1.69,22.93C981,724.46,982.79,732.88,991.72,733.37Z" transform="translate(-70.4 -60.07)"/><path class="cls-1" d="M1013.11,740.59c-4.75-6.93-5-15-.52-18.11s11.95.07,16.71,7,5,15,.52,18.1S1017.87,747.52,1013.11,740.59Z" transform="translate(-70.4 -60.07)"/><path class="cls-1" d="M970,739.4c5.13-6.66,5.81-14.74,1.52-18s-11.94-.59-17.07,6.07-5.81,14.74-1.52,18S964.84,746.06,970,739.4Z" transform="translate(-70.4 -60.07)"/><path class="cls-1" d="M993.38,757.16c-1.31-8.77,2.21-16.57,7.86-17.41s11.3,5.57,12.61,14.34-2.2,16.57-7.86,17.41S994.69,765.93,993.38,757.16Z" transform="translate(-70.4 -60.07)"/><path class="cls-1" d="M988.75,757c1.8-8.68-1.29-16.66-6.88-17.82s-11.59,4.94-13.39,13.63,1.29,16.66,6.88,17.82S987,765.71,988.75,757Z" transform="translate(-70.4 -60.07)"/><path class="cls-1" d="M2151.89,1187.11c6.55,1.06,9.21-4.75,16.14-9.19,10.17-6.52,9.85-13.89,4.84-16.35s-10.65,2.65-16.38,1.46l0,0h-.05c-5.77-1-9.15-7.79-14.72-7.33s-8.55,7.21-1.45,17C2145.06,1179.33,2145.41,1185.71,2151.89,1187.11Z" transform="translate(-70.4 -60.07)"/><path class="cls-1" d="M2166.71,1194.91c-2.67-5.63-1.89-11.6,1.74-13.32s8.74,1.45,11.41,7.09,1.89,11.6-1.74,13.32S2169.38,1200.55,2166.71,1194.91Z" transform="translate(-70.4 -60.07)"/><path class="cls-1" d="M2135.26,1189c4.54-4.28,6-10.12,3.23-13s-8.67-1.83-13.21,2.44-6,10.11-3.23,13S2130.72,1193.25,2135.26,1189Z" transform="translate(-70.4 -60.07)"/><path class="cls-1" d="M2150.32,1204.73c.07-6.58,3.56-11.87,7.8-11.83s7.62,5.41,7.55,12-3.56,11.87-7.8,11.83S2150.25,1211.3,2150.32,1204.73Z" transform="translate(-70.4 -60.07)"/><path class="cls-1" d="M2146.94,1204.09c2.34-6.15,1-12.35-3-13.85s-9.07,2.26-11.4,8.4-1,12.35,2.95,13.86S2144.61,1210.24,2146.94,1204.09Z" transform="translate(-70.4 -60.07)"/><path class="cls-1" d="M1061.64,456.36c15.21-8.57,11.12-24.89,18.09-45.41,10.21-30.1-2.55-44.74-16.91-41.56s-17.54,22.94-31.27,29.88l-.13.06-.12.07c-13.45,7.47-31.6-1-42.29,9.1s-5.74,28.88,24.9,37.33C1034.8,451.58,1046,464.13,1061.64,456.36Z" transform="translate(-70.4 -60.07)"/><path class="cls-1" d="M1104.91,448.07c-14.74-7.2-22.92-20.75-18.28-30.25s20.36-11.37,35.1-4.16,22.93,20.75,18.28,30.25S1119.65,455.28,1104.91,448.07Z" transform="translate(-70.4 -60.07)"/><path class="cls-1" d="M1030.49,487.51c2.31-16.24-4.3-30.62-14.77-32.11s-20.84,10.46-23.15,26.71,4.29,30.62,14.77,32.11S1028.17,503.76,1030.49,487.51Z" transform="translate(-70.4 -60.07)"/><path class="cls-1" d="M1087.33,495.17c-10.66-13.63-12.18-30.25-3.39-37.12s24.56-1.39,35.21,12.24,12.18,30.26,3.39,37.13S1098,508.81,1087.33,495.17Z" transform="translate(-70.4 -60.07)"/><path class="cls-1" d="M1079.34,499.41c-5.3-16.48-18.2-27.06-28.82-23.65s-14.94,19.54-9.64,36,18.2,27.06,28.82,23.65S1084.63,515.88,1079.34,499.41Z" transform="translate(-70.4 -60.07)"/><path class="cls-1" d="M709.72,1219.47c12.14,8.58,23.21-.51,41.54-2.63,26.89-3.11,33.5-18.26,25.83-28.16s-24.05-5.13-34.4-13.17l-.09-.08-.1-.07c-10.65-7.63-10.74-24.68-22.41-29.23s-24.32,6.11-19.65,32.77C703.62,1197.07,698.05,1210.27,709.72,1219.47Z" transform="translate(-70.4 -60.07)"/><path class="cls-1" d="M731.87,1249.75c.17-14,7.61-25.21,16.62-25.09s16.17,11.52,16,25.49-7.61,25.21-16.62,25.1S731.7,1263.72,731.87,1249.75Z" transform="translate(-70.4 -60.07)"/><path class="cls-1" d="M674.4,1206.85c13.34-4.14,22-14.47,19.33-23.07s-15.65-12.23-29-8.09-22,14.47-19.34,23.07S661.05,1211,674.4,1206.85Z" transform="translate(-70.4 -60.07)"/><path class="cls-1" d="M689.21,1253.38c6.61-13.17,18.85-20.39,27.34-16.13s10,18.39,3.41,31.56-18.85,20.39-27.34,16.13S682.61,1266.55,689.21,1253.38Z" transform="translate(-70.4 -60.07)"/><path class="cls-1" d="M683,1248.77c10.75-10.07,14.2-23.86,7.7-30.79s-20.48-4.38-31.23,5.7-14.19,23.87-7.69,30.8S672.3,1258.85,683,1248.77Z" transform="translate(-70.4 -60.07)"/><path class="cls-2" d="M2420.66,1002.45c-10.71-9.44-22.23-1.9-40-1.76-26,.2-33.88,14-27.57,24.24s22.45,7.38,31.51,16.13l.08.08.09.08c9.39,8.39,7.72,24.69,18.4,30.23s23.87-3.33,22.15-29.28C2424.19,1024.48,2430.87,1012.44,2420.66,1002.45Z" transform="translate(-70.4 -60.07)"/><path class="cls-2" d="M2402.62,971.24c-1.61,13.33-9.87,23.3-18.46,22.27s-14.26-12.68-12.66-26,9.87-23.3,18.46-22.26S2404.22,957.91,2402.62,971.24Z" transform="translate(-70.4 -60.07)"/><path class="cls-2" d="M2453.11,1018.15c-13.17,2.58-22.5,11.55-20.84,20.05s13.69,13.29,26.87,10.7,22.51-11.55,20.84-20.05S2466.29,1015.57,2453.11,1018.15Z" transform="translate(-70.4 -60.07)"/><path class="cls-2" d="M2443.75,972.16c-7.67,11.91-20.11,17.55-27.78,12.6s-7.68-18.6,0-30.5,20.1-17.54,27.78-12.6S2451.41,960.26,2443.75,972.16Z" transform="translate(-70.4 -60.07)"/><ellipse class="cls-2" cx="2459.12" cy="990.39" rx="25.64" ry="16.53" transform="translate(-171.08 1619.93) rotate(-37.01)"/><path class="cls-1" d="M2123,482.57c-7.06,12.11,2.39,21.77,5.88,38.82,5.12,25,19.9,30,28.57,22s2.85-23,9.56-33.4l.06-.09.06-.1c6.29-10.63,22.31-12.12,25.62-23.46s-7.73-22.34-32.4-15.77C2143.52,475,2130.66,470.85,2123,482.57Z" transform="translate(-70.4 -60.07)"/><path class="cls-1" d="M2096.35,505.87c13.14-1,24.3,5.08,24.94,13.55s-9.51,16.14-22.65,17.12-24.3-5.08-24.94-13.55S2083.21,506.85,2096.35,505.87Z" transform="translate(-70.4 -60.07)"/><path class="cls-1" d="M2131.94,448.35c5,12.2,15.4,19.48,23.26,16.27s10.2-15.71,5.22-27.91-15.4-19.48-23.26-16.27S2127,436.15,2131.94,448.35Z" transform="translate(-70.4 -60.07)"/><path class="cls-1" d="M2089.43,466.09c12.92,5.12,20.71,16,17.41,24.36s-16.46,10.92-29.38,5.79-20.7-16-17.4-24.36S2076.52,461,2089.43,466.09Z" transform="translate(-70.4 -60.07)"/><path class="cls-1" d="M2093.26,459.91c10.35,9.27,23.58,11.38,29.56,4.71s2.43-19.6-7.92-28.87-23.59-11.38-29.57-4.71S2082.9,450.64,2093.26,459.91Z" transform="translate(-70.4 -60.07)"/><path class="cls-1" d="M1204.6,219.34c-5.32,12.46,4.9,20.59,10.29,36.52,7.92,23.37,22.69,26.37,30,17.63s0-22.42,5.17-33.18l0-.1,0-.1c4.76-11,20-14.3,21.76-25.57s-10.09-20.51-33-11.24C1223.4,209.61,1210.57,207.17,1204.6,219.34Z" transform="translate(-70.4 -60.07)"/><ellipse class="cls-1" cx="1184.79" cy="259.45" rx="23.06" ry="14.87" transform="translate(-98.31 179.35) rotate(-11.41)"/><path class="cls-1" d="M1209.09,185.43c6.24,11.11,17.11,16.85,24.27,12.82s7.9-16.29,1.65-27.39S1217.91,154,1210.75,158,1202.85,174.33,1209.09,185.43Z" transform="translate(-70.4 -60.07)"/><path class="cls-1" d="M1170.45,207.54c13,3.37,21.78,12.9,19.61,21.28s-14.48,12.45-27.48,9.08S1140.8,225,1143,216.62,1157.44,204.17,1170.45,207.54Z" transform="translate(-70.4 -60.07)"/><path class="cls-1" d="M1173.37,201.16c11,7.65,24,8.09,28.92,1s0-19.09-11.06-26.74-24-8.09-28.92-1S1162.33,193.51,1173.37,201.16Z" transform="translate(-70.4 -60.07)"/><path class="cls-1" d="M1656.75,1008.77c-2.46,15.43,11.25,21.66,21.75,38,15.4,23.93,32.76,23.14,38.54,11.31s-6.31-25.07-3.52-38.56l0-.12a.51.51,0,0,1,0-.13c2.26-13.59,18.3-21.58,17.18-34.7s-17-20.11-40-3.34C1675.05,992.62,1660,993.49,1656.75,1008.77Z" transform="translate(-70.4 -60.07)"/><path class="cls-1" d="M1638.45,1043.71c13.26-6.32,27.32-4.51,31.39,4s-3.38,20.6-16.64,26.92-27.32,4.5-31.39-4.05S1625.19,1050,1638.45,1043.71Z" transform="translate(-70.4 -60.07)"/><path class="cls-1" d="M1652.28,969.59c10.09,10.67,23.85,14,30.73,7.54s4.28-20.43-5.82-31.1-23.85-14-30.73-7.55S1642.19,958.92,1652.28,969.59Z" transform="translate(-70.4 -60.07)"/><ellipse class="cls-1" cx="1615.1" cy="1023.23" rx="18.08" ry="28.05" transform="translate(508.27 2569.81) rotate(-89.53)"/><path class="cls-1" d="M1616.73,997.19c14.49,5.47,29.1,2.32,32.62-7s-5.36-21.35-19.86-26.82-29.1-2.32-32.62,7S1602.24,991.72,1616.73,997.19Z" transform="translate(-70.4 -60.07)"/><path class="cls-1" d="M97,536.91c-5.92-1.28-8.62,3.9-15.16,7.62-9.58,5.46-9.64,12.2-5.18,14.69s9.84-1.92,15-.56l0,0h0c5.21,1.16,8,7.54,13.07,7.38s8.15-6.18,2.14-15.43C102.86,544.33,102.84,538.49,97,536.91Z" transform="translate(-70.4 -60.07)"/><path class="cls-1" d="M83.85,529.09c2.16,5.27,1.17,10.67-2.23,12.07s-7.9-1.74-10.07-7-1.17-10.67,2.22-12.06S81.68,523.83,83.85,529.09Z" transform="translate(-70.4 -60.07)"/><path class="cls-1" d="M112.25,536c-4.34,3.68-5.93,8.94-3.56,11.74s7.82,2.08,12.17-1.6,5.94-8.94,3.56-11.74S116.6,532.31,112.25,536Z" transform="translate(-70.4 -60.07)"/><path class="cls-1" d="M99.26,520.91c-.37,6-3.81,10.66-7.67,10.42S84.89,526,85.27,520s3.81-10.66,7.67-10.42S99.64,514.92,99.26,520.91Z" transform="translate(-70.4 -60.07)"/><path class="cls-1" d="M102.31,521.65c-2.42,5.5-1.51,11.22,2,12.78s8.38-1.63,10.8-7.13,1.5-11.21-2-12.77S104.73,516.16,102.31,521.65Z" transform="translate(-70.4 -60.07)"/><path class="cls-1" d="M309.38,546.22c3.69-8.42-3.19-14-6.75-24.83-5.21-15.89-15.21-18-20.25-12.14s-.12,15.2-3.71,22.46l0,.07,0,.06c-3.3,7.4-13.62,9.57-14.92,17.2s6.71,14,22.28,7.83C296.58,552.69,305.26,554.43,309.38,546.22Z" transform="translate(-70.4 -60.07)"/><path class="cls-1" d="M325,529.05c-8.48,1.63-16.21-1.48-17.26-6.95s5-11.22,13.46-12.85,16.2,1.49,17.25,7S333.45,527.42,325,529.05Z" transform="translate(-70.4 -60.07)"/><path class="cls-1" d="M306.12,569.17c-4.16-7.56-11.49-11.52-16.37-8.84s-5.46,11-1.29,18.56,11.48,11.52,16.36,8.84S310.28,576.74,306.12,569.17Z" transform="translate(-70.4 -60.07)"/><path class="cls-1" d="M332.46,554.43c-8.8-2.37-14.69-8.88-13.16-14.55s9.89-8.35,18.68-6,14.69,8.88,13.16,14.55S341.25,556.8,332.46,554.43Z" transform="translate(-70.4 -60.07)"/><path class="cls-1" d="M330.44,558.74c-7.44-5.26-16.22-5.64-19.61-.84s-.1,12.94,7.33,18.2,16.21,5.63,19.6.83S337.87,564,330.44,558.74Z" transform="translate(-70.4 -60.07)"/><path class="cls-1" d="M691.59,676c8.61-3.57,7.49-12.47,12.49-22.9,7.34-15.29,1.52-23.86-6.29-23.1S687,641,679.31,643.78l-.08,0-.07,0c-7.6,3.09-16.67-2.56-23,2.11s-4.89,14.93,10.8,21.36C677.68,671.7,682.81,679.07,691.59,676Z" transform="translate(-70.4 -60.07)"/><path class="cls-1" d="M715.05,674.33c-7.35-4.76-10.82-12.46-7.75-17.2s11.51-4.71,18.86,0,10.82,12.46,7.75,17.2S722.39,679.09,715.05,674.33Z" transform="translate(-70.4 -60.07)"/><path class="cls-1" d="M673.09,690.46c2.27-8.46-.31-16.5-5.77-18s-11.71,4.21-14,12.67.31,16.5,5.77,18S670.83,698.92,673.09,690.46Z" transform="translate(-70.4 -60.07)"/><path class="cls-1" d="M702.71,698.16c-4.77-7.9-4.51-16.81.59-19.88s13.09.83,17.87,8.74,4.51,16.8-.59,19.88S707.49,706.06,702.71,698.16Z" transform="translate(-70.4 -60.07)"/><path class="cls-1" d="M698.21,699.89c-1.75-9.07-7.91-15.5-13.75-14.37S675.29,694.91,677,704s7.91,15.5,13.76,14.37S700,709,698.21,699.89Z" transform="translate(-70.4 -60.07)"/><path class="cls-1" d="M1480.39,1494.45c-5.45-1.12-7.89,3.66-13.86,7.14-8.75,5.1-8.75,11.29-4.63,13.53s9-1.85,13.78-.64h.09c4.79,1,7.38,6.86,12.07,6.66s7.42-5.74,1.82-14.19C1485.85,1501.22,1485.77,1495.86,1480.39,1494.45Z" transform="translate(-70.4 -60.07)"/><path class="cls-1" d="M1468.25,1487.39c2,4.82,1.17,9.79-1.94,11.1s-7.27-1.53-9.31-6.35-1.17-9.79,1.94-11.1S1466.21,1482.57,1468.25,1487.39Z" transform="translate(-70.4 -60.07)"/><path class="cls-1" d="M1494.4,1493.48c-4,3.42-5.38,8.26-3.17,10.82s7.2,1.84,11.16-1.58,5.38-8.27,3.17-10.82S1498.36,1490.06,1494.4,1493.48Z" transform="translate(-70.4 -60.07)"/><path class="cls-1" d="M1482.34,1479.74c-.29,5.51-3.41,9.82-7,9.64s-6.2-4.81-5.91-10.32,3.41-9.82,7-9.63S1482.63,1474.23,1482.34,1479.74Z" transform="translate(-70.4 -60.07)"/><path class="cls-1" d="M1485.14,1480.4c-2.17,5.07-1.28,10.31,2,11.71s7.68-1.57,9.85-6.64,1.29-10.32-2-11.72S1487.32,1475.32,1485.14,1480.4Z" transform="translate(-70.4 -60.07)"/><path class="cls-1" d="M1456.33,1197.33c6.06-9.24-1-17.23-3-30.78-3-19.88-14.41-24.41-21.56-18.46s-3.2,18-8.91,25.87l0,.08,0,.07c-5.4,8.1-18.06,8.6-21.14,17.38s5.15,17.9,24.83,13.76C1439.85,1202.43,1449.79,1206.22,1456.33,1197.33Z" transform="translate(-70.4 -60.07)"/><path class="cls-1" d="M1478.25,1180.11c-10.38.23-18.91-5-19.06-11.7s8.15-12.3,18.53-12.52,18.9,5,19,11.7S1488.62,1179.89,1478.25,1180.11Z" transform="translate(-70.4 -60.07)"/><path class="cls-1" d="M1447.85,1223.87c-3.41-9.8-11.3-16-17.62-13.77s-8.68,11.93-5.26,21.74,11.29,16,17.61,13.76S1451.26,1233.68,1447.85,1223.87Z" transform="translate(-70.4 -60.07)"/><path class="cls-1" d="M1482,1211.69c-9.94-4.57-15.62-13.47-12.67-19.89s13.4-7.9,23.35-3.33,15.62,13.48,12.67,19.89S1492,1216.26,1482,1211.69Z" transform="translate(-70.4 -60.07)"/><path class="cls-1" d="M1478.76,1216.39c-7.76-7.72-18.08-9.93-23.06-4.93s-2.73,15.31,5,23,18.08,9.93,23.06,4.93S1486.52,1224.11,1478.76,1216.39Z" transform="translate(-70.4 -60.07)"/><path class="cls-1" d="M1051.41,898.68c-4.36-10.15-14.9-8.69-27.33-14.46-18.24-8.47-28.31-1.44-27.29,7.8s13.24,12.59,16.67,21.7l0,.09a.3.3,0,0,0,0,.08c3.78,9-2.78,19.8,2.84,27.21s17.77,5.58,25.17-13.12C1046.58,915.24,1055.23,909,1051.41,898.68Z" transform="translate(-70.4 -60.07)"/><path class="cls-1" d="M1049.14,870.9c-5.54,8.78-14.61,13-20.27,9.44s-5.77-13.57-.23-22.36,14.61-13,20.27-9.44S1054.67,862.12,1049.14,870.9Z" transform="translate(-70.4 -60.07)"/><path class="cls-1" d="M1068.88,920.39c-10.06-2.56-19.55.62-21.2,7.1s5.17,13.82,15.23,16.38,19.55-.62,21.2-7.1S1078.94,923,1068.88,920.39Z" transform="translate(-70.4 -60.07)"/><path class="cls-1" d="M1077.57,885.16c-9.3,5.78-19.86,5.6-23.58-.39s.79-15.54,10.09-21.31,19.86-5.6,23.58.39S1086.86,879.39,1077.57,885.16Z" transform="translate(-70.4 -60.07)"/><path class="cls-1" d="M1079.68,890.48c-10.72,2.21-18.25,9.6-16.82,16.51s11.27,10.72,22,8.51,18.25-9.6,16.83-16.51S1090.41,888.27,1079.68,890.48Z" transform="translate(-70.4 -60.07)"/><path class="cls-1" d="M150.49,99.72c-4.75-4.6-10.23-1.37-18.42-1.69-12-.48-15.95,5.71-13.26,10.58s10.21,3.9,14.19,8.14l0,0,0,0c4.15,4.08,3,11.57,7.83,14.36s11.09-1,10.87-13C151.63,110,155,104.55,150.49,99.72Z" transform="translate(-70.4 -60.07)"/><path class="cls-1" d="M142.84,84.91c-1,6.12-5.07,10.54-9,9.88s-6.31-6.17-5.28-12.29,5.07-10.54,9-9.87S143.87,78.79,142.84,84.91Z" transform="translate(-70.4 -60.07)"/><path class="cls-1" d="M165.12,107.68c-6.14.9-10.64,4.84-10.06,8.8s6,6.43,12.17,5.53,10.65-4.84,10.06-8.8S171.26,106.77,165.12,107.68Z" transform="translate(-70.4 -60.07)"/><path class="cls-1" d="M161.81,86.24c-3.8,5.33-9.67,7.66-13.1,5.21s-3.14-8.76.66-14.09,9.67-7.66,13.1-5.2S165.61,80.91,161.81,86.24Z" transform="translate(-70.4 -60.07)"/><path class="cls-1" d="M164.2,88.68c-5.41,3.69-7.86,9.5-5.49,13s8.69,3.32,14.1-.36,7.86-9.51,5.48-13S169.61,85,164.2,88.68Z" transform="translate(-70.4 -60.07)"/><path class="cls-2" d="M1186.67,755.54c-4.74-4.59-10.22-1.36-18.41-1.69-12-.48-16,5.72-13.26,10.59s10.2,3.9,14.19,8.14l0,0,0,0c4.15,4.07,3,11.56,7.84,14.36s11.09-1,10.86-13C1187.81,765.79,1191.16,760.38,1186.67,755.54Z" transform="translate(-70.4 -60.07)"/><path class="cls-2" d="M1179,740.74c-1,6.12-5.07,10.54-9,9.87s-6.31-6.16-5.27-12.28,5.06-10.54,9-9.88S1180.06,734.62,1179,740.74Z" transform="translate(-70.4 -60.07)"/><path class="cls-2" d="M1201.31,763.5c-6.14.9-10.65,4.84-10.07,8.8s6,6.44,12.17,5.54,10.65-4.85,10.07-8.8S1207.45,762.6,1201.31,763.5Z" transform="translate(-70.4 -60.07)"/><path class="cls-2" d="M1198,742.07c-3.8,5.32-9.67,7.65-13.1,5.2s-3.14-8.75.66-14.08,9.67-7.66,13.11-5.21S1201.79,736.74,1198,742.07Z" transform="translate(-70.4 -60.07)"/><path class="cls-2" d="M1200.38,744.51c-5.4,3.69-7.86,9.5-5.48,13s8.68,3.32,14.09-.37,7.86-9.5,5.49-13S1205.79,740.82,1200.38,744.51Z" transform="translate(-70.4 -60.07)"/><path class="cls-1" d="M422.32,1252c-4.35-15.39-19.76-15.29-36.52-25.94-24.58-15.62-40.37-7.43-40.66,6s16.63,20.59,19.83,34.32l0,.13,0,.12c3.74,13.6-7.74,27.91-1.06,39.62s24.46,11.37,38.62-14.08C412.24,1274.91,425.84,1267.64,422.32,1252Z" transform="translate(-70.4 -60.07)"/><path class="cls-1" d="M424.31,1211.73c-9.61,11.56-23.44,15.91-30.89,9.71s-5.71-20.59,3.9-32.15,23.44-15.91,30.9-9.72S433.92,1200.16,424.31,1211.73Z" transform="translate(-70.4 -60.07)"/><path class="cls-1" d="M443.29,1286.53c-14-5.58-28.19-2.81-31.79,6.19s4.81,20.82,18.77,26.4,28.19,2.81,31.79-6.19S457.25,1292.11,443.29,1286.53Z" transform="translate(-70.4 -60.07)"/><path class="cls-1" d="M462.43,1237.59c-14.44,6.53-29.57,4.28-33.78-5s4.08-22.15,18.53-28.69,29.57-4.28,33.78,5S476.88,1231.05,462.43,1237.59Z" transform="translate(-70.4 -60.07)"/><path class="cls-1" d="M464.47,1245.62c-15.81,1.14-28,10.33-27.29,20.53s14.15,17.53,30,16.38,28-10.33,27.3-20.53S480.28,1244.47,464.47,1245.62Z" transform="translate(-70.4 -60.07)"/><path class="cls-1" d="M805,369.1c-19.16,1.12-23,19.22-39.82,36.12-24.65,24.79-19.13,45.42-3.4,49.24s28.42-14.2,45.34-14.41h.32c16.9-.87,30.73,16.28,46.17,11.47s19.64-25.76-6.55-48.92C829.21,386.8,824.2,369,805,369.1Z" transform="translate(-70.4 -60.07)"/><path class="cls-1" d="M758.25,356.36c11.08,14.25,12.61,31.59,3.43,38.73s-25.61,1.39-36.69-12.86-12.62-31.59-3.43-38.73S747.17,342.11,758.25,356.36Z" transform="translate(-70.4 -60.07)"/><path class="cls-1" d="M850.85,353.39c-10.15,14.93-10.57,32.33-.94,38.87s25.65-.26,35.79-15.19,10.56-32.33.94-38.87S861,338.46,850.85,353.39Z" transform="translate(-70.4 -60.07)"/><path class="cls-1" d="M798.4,318.33c3.93,18.63-2.61,35.78-14.61,38.32s-24.93-10.5-28.87-29.13,2.61-35.77,14.61-38.31S794.46,299.71,798.4,318.33Z" transform="translate(-70.4 -60.07)"/><path class="cls-1" d="M808.34,318c-2.74,18.84,4.89,35.54,17,37.3s24.2-12.08,26.93-30.91-4.89-35.54-17-37.3S811.07,299.18,808.34,318Z" transform="translate(-70.4 -60.07)"/><path class="cls-1" d="M982.89,1604.23c-6.78,1.88-6.76,8.66-11.47,16-6.91,10.79-3.33,17.75,2.6,17.9s9.08-7.28,15.12-8.67h.06l.06,0c6-1.62,12.26,3.45,17.42.53s5.05-10.74-6.13-17C992.93,1608.69,989.76,1602.7,982.89,1604.23Z" transform="translate(-70.4 -60.07)"/><path class="cls-1" d="M965.16,1603.29c5.07,4.24,7,10.33,4.22,13.6s-9.06,2.48-14.14-1.76-7-10.34-4.22-13.61S960.08,1599,965.16,1603.29Z" transform="translate(-70.4 -60.07)"/><path class="cls-1" d="M998.1,1595.05c-2.48,6.13-1.28,12.4,2.67,14s9.17-2.08,11.64-8.22,1.28-12.4-2.67-14S1000.57,1588.92,998.1,1595.05Z" transform="translate(-70.4 -60.07)"/><path class="cls-1" d="M976.59,1586.55c2.86,6.37,1.84,13-2.26,14.86s-9.75-1.83-12.6-8.2-1.84-13,2.27-14.85S973.74,1580.19,976.59,1586.55Z" transform="translate(-70.4 -60.07)"/><path class="cls-1" d="M980.13,1585.67c.48,7,4.5,12.35,9,12s7.73-6.2,7.26-13.16-4.51-12.35-9-12S979.65,1578.71,980.13,1585.67Z" transform="translate(-70.4 -60.07)"/><path class="cls-1" d="M1893,977.84c6.74,17.68,24.9,15.93,45.77,26.71,30.62,15.8,48.37,4.48,47.28-11.42s-21.77-22.51-27-38.35l0-.15-.06-.14c-5.84-15.63,6.18-33.71-2.93-46.8s-30-10.81-44,20.67C1902.47,949.83,1887.21,959.83,1893,977.84Z" transform="translate(-70.4 -60.07)"/><path class="cls-1" d="M1894.93,1025.56c10.1-14.64,25.94-21.23,35.38-14.72s8.9,23.66-1.2,38.3-25.94,21.24-35.38,14.72S1884.82,1040.2,1894.93,1025.56Z" transform="translate(-70.4 -60.07)"/><path class="cls-1" d="M1864.65,939.41c17,5.11,33.52.34,36.81-10.65s-7.86-24-24.9-29.13-33.53-.33-36.82,10.66S1847.61,934.31,1864.65,939.41Z" transform="translate(-70.4 -60.07)"/><path class="cls-1" d="M1847.27,999.11c16.33-9.22,34.39-8.17,40.34,2.36s-2.47,26.55-18.8,35.78-34.4,8.17-40.35-2.36S1830.93,1008.34,1847.27,999.11Z" transform="translate(-70.4 -60.07)"/><path class="cls-1" d="M1844,989.87c18.51-3,31.94-15.15,30-27.09s-18.53-19.16-37-16.14-31.94,15.15-30,27.09S1825.5,992.89,1844,989.87Z" transform="translate(-70.4 -60.07)"/><path class="cls-1" d="M370.36,790.15c15.82,4.92,24.44-8.52,43.15-17.06,27.45-12.53,29.27-30.87,17.73-38.73s-27.28,2.81-41-2.17l-.13,0-.13,0c-13.91-4.43-19.86-22.49-33.8-23.3s-23.7,14.82-9.6,41.5C356.19,768.48,354.81,784.39,370.36,790.15Z" transform="translate(-70.4 -60.07)"/><path class="cls-1" d="M404.24,814.66c-4.61-14.88-.57-29.35,9-32.33S434.36,789,439,803.89s.58,29.35-9,32.32S408.86,829.53,404.24,814.66Z" transform="translate(-70.4 -60.07)"/><path class="cls-1" d="M328.55,788.88c12.74-9,18.37-22.9,12.59-31.1s-20.8-7.6-33.53,1.38-18.37,22.9-12.59,31.1S315.82,797.86,328.55,788.88Z" transform="translate(-70.4 -60.07)"/><path class="cls-1" d="M360.25,833.15c2.48-16.23,13-28.1,23.45-26.49s16.94,16.06,14.45,32.3-13,28.1-23.45,26.5S357.76,849.39,360.25,833.15Z" transform="translate(-70.4 -60.07)"/><path class="cls-1" d="M352.12,830.39c7.94-14.38,6.86-30.19-2.41-35.31s-23.23,2.39-31.16,16.77S311.69,842,321,847.16,344.18,844.77,352.12,830.39Z" transform="translate(-70.4 -60.07)"/><path class="cls-1" d="M321,294.11c4.18,13.12,17.44,12.6,32.16,21.28,21.61,12.74,35,5.24,34.83-6.37s-14.9-17.23-18.05-29l0-.11,0-.1c-3.61-11.6,5.86-24.25-.22-34.13s-21.38-9.08-32.84,13.22C329,274.15,317.52,280.79,321,294.11Z" transform="translate(-70.4 -60.07)"/><path class="cls-1" d="M320.44,328.86c7.94-10.22,19.72-14.36,26.31-9.24s5.5,17.55-2.44,27.78-19.72,14.36-26.31,9.24S312.5,339.09,320.44,328.86Z" transform="translate(-70.4 -60.07)"/><path class="cls-1" d="M302,265c12.17,4.4,24.34,1.61,27.18-6.24s-4.73-17.78-16.9-22.18-24.34-1.61-27.18,6.23S289.79,260.63,302,265Z" transform="translate(-70.4 -60.07)"/><path class="cls-1" d="M286.89,307.7c12.25-6,25.33-4.53,29.22,3.36s-2.88,19.19-15.13,25.23-25.32,4.53-29.21-3.37S274.65,313.74,286.89,307.7Z" transform="translate(-70.4 -60.07)"/><path class="cls-1" d="M284.91,300.85c13.57-1.44,23.83-9.7,22.9-18.45s-12.68-14.68-26.26-13.25-23.83,9.7-22.9,18.46S271.33,302.29,284.91,300.85Z" transform="translate(-70.4 -60.07)"/><path class="cls-1" d="M1745.73,1430.94c4.56-19.35-12.25-28.54-24-50.21-17.29-31.8-39.39-32.43-47.83-18s5.65,32.4.85,49.24l0,.16,0,.16c-4.14,17-25.24,25.66-25.05,42.4s19.73,27.11,50.46,8C1721,1449.71,1740.14,1450,1745.73,1430.94Z" transform="translate(-70.4 -60.07)"/><path class="cls-1" d="M1772.21,1388.33c-17.41,6.77-35.07,3.16-39.43-8.07s6.22-25.81,23.63-32.58,35.07-3.15,39.43,8.07S1789.62,1381.57,1772.21,1388.33Z" transform="translate(-70.4 -60.07)"/><path class="cls-1" d="M1747.72,1481.06c-11.8-14.48-28.94-20.06-38.28-12.45s-7.33,25.52,4.47,40,28.94,20.06,38.27,12.45S1759.52,1495.54,1747.72,1481.06Z" transform="translate(-70.4 -60.07)"/><path class="cls-1" d="M1798,1439.43c-19.63-1.62-34.71-13.19-33.67-25.85s17.8-21.61,37.44-20,34.71,13.19,33.67,25.85S1817.67,1441,1798,1439.43Z" transform="translate(-70.4 -60.07)"/><path class="cls-1" d="M1795.4,1449.38c-17.87-8.29-36.69-5.67-42,5.85s4.81,27.58,22.68,35.88,36.7,5.67,42-5.85S1813.28,1457.67,1795.4,1449.38Z" transform="translate(-70.4 -60.07)"/><path class="cls-1" d="M896.11,1382.46c4.12,7.69,12.32,5.82,22.5,9.51,14.93,5.43,22.37-.8,20.94-8s-11.28-9-14.6-15.94l0-.07,0-.06c-3.59-6.8.84-15.78-4.1-21.22s-14.37-3.18-18.91,12C898.78,1369.1,892.39,1374.57,896.11,1382.46Z" transform="translate(-70.4 -60.07)"/><path class="cls-1" d="M899.79,1404.17c3.76-7.29,10.61-11.24,15.31-8.82s5.47,10.29,1.71,17.58-10.61,11.24-15.31,8.82S896,1411.46,899.79,1404.17Z" transform="translate(-70.4 -60.07)"/><path class="cls-1" d="M880.87,1366.57c8.09,1.33,15.35-1.83,16.2-7s-5-10.52-13.1-11.85-15.35,1.82-16.2,7S872.78,1365.24,880.87,1366.57Z" transform="translate(-70.4 -60.07)"/><path class="cls-1" d="M876.45,1394.89c6.92-5.18,15.24-5.77,18.58-1.3s.44,12.28-6.49,17.46-15.24,5.76-18.58,1.3S869.52,1400.07,876.45,1394.89Z" transform="translate(-70.4 -60.07)"/><path class="cls-1" d="M874.41,1390.85c8.29-2.47,13.72-8.81,12.12-14.15s-9.6-7.67-17.89-5.19-13.71,8.8-12.12,14.15S866.13,1393.32,874.41,1390.85Z" transform="translate(-70.4 -60.07)"/><path class="cls-1" d="M1090.31,1158.25c-10.33-15.26-27.15-9.56-49.33-15.13-32.55-8.16-46.85,6.52-42.28,21.36s25.65,16.48,34.13,30.33c0,0,.05.09.07.13l.09.13c9,13.51,1.65,33.33,13.2,43.71s30.88,3.56,37.13-29.4C1087.59,1186.91,1099.82,1174,1090.31,1158.25Z" transform="translate(-70.4 -60.07)"/><path class="cls-1" d="M1077.88,1113.44c-6.32,16.13-19.87,25.9-30.27,21.83s-13.7-20.45-7.39-36.58,19.87-25.9,30.27-21.83S1084.19,1097.31,1077.88,1113.44Z" transform="translate(-70.4 -60.07)"/><path class="cls-1" d="M1125.76,1188.36c-17.29-1-31.85,7.15-32.52,18.3s12.8,21,30.09,22.06,31.85-7.15,32.52-18.29S1143.05,1189.4,1125.76,1188.36Z" transform="translate(-70.4 -60.07)"/><path class="cls-1" d="M1128.94,1127.9c-13.43,12.38-30.78,15.4-38.77,6.75s-3.56-25.72,9.86-38.1,30.79-15.4,38.77-6.75S1142.37,1115.52,1128.94,1127.9Z" transform="translate(-70.4 -60.07)"/><path class="cls-1" d="M1134.08,1135.94c-16.87,7-26.91,21.47-22.4,32.35s21.84,14,38.71,7.06,26.91-21.47,22.41-32.36S1151,1129,1134.08,1135.94Z" transform="translate(-70.4 -60.07)"/><path class="cls-1" d="M1687,328.06c2.36,12.31,14.41,13.26,26.78,22.69,18.15,13.84,31,8.5,32.16-2s-11.61-17.19-13.19-28.12a.44.44,0,0,1,0-.1l0-.1c-2-10.87,7.91-21.28,3.48-30.87s-18.35-10.51-31.1,8.42C1696.4,310.88,1685.3,315.64,1687,328.06Z" transform="translate(-70.4 -60.07)"/><path class="cls-1" d="M1682.76,359.41c8.28-8.39,19.37-10.86,24.78-5.53s3.08,16.46-5.2,24.85-19.36,10.86-24.77,5.52S1674.49,367.8,1682.76,359.41Z" transform="translate(-70.4 -60.07)"/><path class="cls-1" d="M1672.93,299.73c10.53,5.29,21.83,4.08,25.24-2.71s-2.36-16.58-12.89-21.87-21.83-4.07-25.24,2.71S1662.4,294.44,1672.93,299.73Z" transform="translate(-70.4 -60.07)"/><path class="cls-1" d="M1654.72,336.67c11.72-4.14,23.38-1.37,26,6.18s-4.67,17-16.39,21.17-23.38,1.37-26-6.18S1643,340.81,1654.72,336.67Z" transform="translate(-70.4 -60.07)"/><path class="cls-1" d="M1653.67,330.26c12.42.16,22.58-6.2,22.68-14.21s-9.88-14.63-22.31-14.79-22.58,6.2-22.68,14.21S1641.24,330.1,1653.67,330.26Z" transform="translate(-70.4 -60.07)"/><path class="cls-1" d="M1715.6,106.15c-1.87-9.27-11-9.91-20.35-16.94-13.79-10.32-23.47-6.2-24.24,1.72s8.87,12.89,10.13,21.13v.07l0,.08c1.59,8.18-5.83,16.1-2.42,23.3s13.91,7.81,23.4-6.55C1708.63,119.17,1717,115.5,1715.6,106.15Z" transform="translate(-70.4 -60.07)"/><path class="cls-1" d="M1718.59,82.48c-6.18,6.38-14.53,8.32-18.65,4.33s-2.43-12.4,3.76-18.78,14.53-8.32,18.65-4.33S1724.78,76.09,1718.59,82.48Z" transform="translate(-70.4 -60.07)"/><path class="cls-1" d="M1726.4,127.42c-8-3.92-16.49-2.93-19,2.21s1.89,12.49,9.86,16.41,16.49,2.93,19-2.21S1734.38,131.34,1726.4,127.42Z" transform="translate(-70.4 -60.07)"/><path class="cls-1" d="M1739.89,99.44c-8.81,3.2-17.62,1.19-19.68-4.49s3.41-12.88,12.22-16.08,17.62-1.18,19.68,4.49S1748.7,96.24,1739.89,99.44Z" transform="translate(-70.4 -60.07)"/><path class="cls-1" d="M1740.73,104.27c-9.37,0-17,4.82-17,10.86s7.55,11,16.92,11,17-4.83,17-10.87S1750.11,104.3,1740.73,104.27Z" transform="translate(-70.4 -60.07)"/><path class="cls-1" d="M115.74,1617.73c-8.12,1.36-8.93,9.26-15.31,17.25-9.37,11.73-6.05,20.27.83,21.17s11.47-7.37,18.68-8.25h.13c7.17-1.16,13.87,5.52,20.24,2.75s7.18-11.9-5.07-20.56C126.9,1624.16,123.93,1616.79,115.74,1617.73Z" transform="translate(-70.4 -60.07)"/><path class="cls-1" d="M95.21,1614.46c5.38,5.57,6.84,12.89,3.26,16.37S87.6,1632.6,82.21,1627s-6.84-12.89-3.25-16.37S89.82,1608.9,95.21,1614.46Z" transform="translate(-70.4 -60.07)"/><path class="cls-1" d="M134.57,1608.9c-3.63,6.84-3,14.28,1.41,16.63s10.93-1.3,14.56-8.14,3-14.29-1.4-16.63S138.21,1602.06,134.57,1608.9Z" transform="translate(-70.4 -60.07)"/><path class="cls-1" d="M110.57,1596.37c2.55,7.77.55,15.39-4.45,17s-11.13-3.33-13.67-11.09-.55-15.38,4.46-17S108,1588.61,110.57,1596.37Z" transform="translate(-70.4 -60.07)"/><path class="cls-1" d="M114.8,1595.78c-.29,8.16,3.73,14.93,9,15.12s9.76-6.28,10.06-14.44-3.74-14.93-9-15.12S115.09,1587.61,114.8,1595.78Z" transform="translate(-70.4 -60.07)"/><path class="cls-1" d="M1988.64,213.83c12.6,3.07,18.67-7.85,32.86-15.43,20.83-11.13,21.35-25.54,12-31.12s-21.16,3.53-32.13.32l-.1,0-.1,0C1990,164.76,1984.5,151,1973.58,151s-17.78,12.73-5.46,32.87C1976.51,197.6,1976.22,210.1,1988.64,213.83Z" transform="translate(-70.4 -60.07)"/><path class="cls-1" d="M2016.3,231.31c-4.33-11.39-1.89-22.89,5.46-25.68s16.81,4.18,21.14,15.57,1.89,22.89-5.46,25.68S2020.63,242.7,2016.3,231.31Z" transform="translate(-70.4 -60.07)"/><path class="cls-1" d="M1955.93,214.89c9.51-7.63,13.23-18.78,8.31-24.91s-16.61-4.91-26.12,2.72-13.22,18.78-8.3,24.91S1946.43,222.52,1955.93,214.89Z" transform="translate(-70.4 -60.07)"/><path class="cls-1" d="M1982.85,247.91c1.15-12.8,8.77-22.58,17-21.84s14,11.71,12.87,24.51-8.77,22.59-17,21.85S1981.7,260.71,1982.85,247.91Z" transform="translate(-70.4 -60.07)"/><path class="cls-1" d="M1976.37,246.14c5.49-11.61,3.88-23.9-3.61-27.45s-18,3-23.52,14.62-3.88,23.92,3.61,27.46S1970.87,257.76,1976.37,246.14Z" transform="translate(-70.4 -60.07)"/><path class="cls-2" d="M1244,1391s17,15.17,15.45,34.65c-2,24.4-21.34,38.52-41,37.2-19.43-1.31-35.07-17.12-45.49-29.6-14.15-17-27.61-41.56-33.53-55.68,9.29-12.17,28.53-32.56,46.52-45.4,13.23-9.44,32.36-20.78,51.49-17.13,19.36,3.68,34.56,22.25,30.28,46.34C1264.27,1380.62,1244,1391,1244,1391Z" transform="translate(-70.4 -60.07)"/><path class="cls-2" d="M552.71,1505.86s-8.67,8.31-18.84,6.69c-12.75-2-19.37-12.81-17.86-23.09s10.44-17.73,17.43-22.68c9.5-6.74,23-12.8,30.65-15.33,6,5.38,15.93,16.34,21.94,26.32,4.41,7.34,9.58,17.87,6.88,27.77s-13.12,17.24-25.61,14C557.33,1517,552.71,1505.86,552.71,1505.86Z" transform="translate(-70.4 -60.07)"/><path class="cls-2" d="M710.08,1593.22s2.46-9.29,10.09-12.42c9.56-3.91,18.57.7,21.81,8.35s.24,16.46-2.47,22.76a105.79,105.79,0,0,1-14.57,23.22,105.71,105.71,0,0,1-25.94-8.85c-6.08-3.18-14-8.22-16.26-16.12s1.79-17.24,11.67-20.22C702.31,1587.56,710.08,1593.22,710.08,1593.22Z" transform="translate(-70.4 -60.07)"/><path class="cls-2" d="M167.06,1089.55s6.74-10.39,17.34-11.18c13.27-1,22.46,8.28,23.38,19s-6.29,20.27-12.13,26.9c-7.94,9-20,18.28-27.13,22.63-7.31-4-19.86-12.63-28.25-21.22-6.17-6.33-13.85-15.67-13.48-26.25s9.09-20.41,22.39-20.11C159.81,1079.51,167.06,1089.55,167.06,1089.55Z" transform="translate(-70.4 -60.07)"/><path class="cls-1" d="M2258.1,700.11s-10.26-16.11-4.56-31.48c7.13-19.24,26-26.22,41.56-20.67,15.39,5.49,24.41,21.81,30,34.26,7.55,16.91,12.81,39.83,14.36,52.57-10.26,7.71-30.44,19.78-47.88,26-12.82,4.61-30.85,9.4-45.46,2.1-14.78-7.39-22.81-25.84-13.87-44.31C2239.37,703.86,2258.1,700.11,2258.1,700.11Z" transform="translate(-70.4 -60.07)"/><path class="cls-2" d="M1988.84,1502.66s-10.69-15.56-5.59-30.94c6.38-19.25,24.78-26.79,40.35-21.84,15.38,4.89,24.85,20.7,30.77,32.8,8,16.45,14,38.9,16,51.44-9.88,8-29.39,20.58-46.4,27.36-12.52,5-30.16,10.34-44.84,3.63-14.85-6.79-23.42-24.74-15.22-43.29C1970.47,1507,1988.84,1502.66,1988.84,1502.66Z" transform="translate(-70.4 -60.07)"/><path class="cls-2" d="M2219.16,1576.66s3.41-6.46,9.6-7.47c7.75-1.27,13.63,3.68,14.73,9.9s-2.63,12.24-5.71,16.44a80.35,80.35,0,0,1-14.75,14.72,79.91,79.91,0,0,1-17.72-11c-3.95-3.39-9-8.47-9.29-14.71s4.27-12.47,12.1-13C2214.37,1571.14,2219.16,1576.66,2219.16,1576.66Z" transform="translate(-70.4 -60.07)"/><path class="cls-2" d="M536.27,383.34s13.25-21.9,35.1-24.2c27.36-2.87,47,15.65,49.54,37.65,2.55,21.74-11.7,42.28-23.34,56.36-15.83,19.13-40.23,39.07-54.62,48.51-15.35-7.76-41.85-24.82-59.73-42.05-13.15-12.67-29.63-31.48-29.54-53.37.09-22.15,17.48-42.76,45-43C520.63,363.07,536.27,383.34,536.27,383.34Z" transform="translate(-70.4 -60.07)"/><path class="cls-2" d="M2448.51,421.74s10.06-.54,15.65,6.06c7,8.27,5.31,18.74-1.28,24.46s-16.34,5.56-23.5,4.88a111.07,111.07,0,0,1-27.88-7,111.57,111.57,0,0,1,.45-28.74c1.21-7.09,3.68-16.61,10.82-21.43s17.78-3.79,23.95,5.11C2451.65,412.17,2448.51,421.74,2448.51,421.74Z" transform="translate(-70.4 -60.07)"/><path class="cls-2" d="M676.54,131.64s-2.5-8.31,1.89-14.33c5.49-7.54,14.61-8.27,20.73-3.92s8,12.55,8.89,18.68a95.91,95.91,0,0,1-.2,24.78,96,96,0,0,1-24.16,5.48c-6.18.43-14.66.31-20.15-4.69s-6.79-14.12-.6-21.09C667.89,131,676.54,131.64,676.54,131.64Z" transform="translate(-70.4 -60.07)"/><path class="cls-2" d="M2463.91,1543.76s18-7.85,32.66.36c18.39,10.29,22.48,30.54,14.38,45.45-8,14.73-26,21.29-39.5,25-18.36,5-42.44,6.68-55.61,6.24-6.19-11.64-15.23-34-18.81-52.7-2.64-13.74-4.64-32.79,5.08-46.45,9.84-13.83,29.82-19,47.14-7C2463.08,1524.17,2463.91,1543.76,2463.91,1543.76Z" transform="translate(-70.4 -60.07)"/><path class="cls-2" d="M101.09,302.92s-8.19,1.9-13.74-2.72c-6.95-5.79-7.07-14.64-2.49-20.29s12.64-6.94,18.62-7.42a92.36,92.36,0,0,1,23.94,1.75,92.75,92.75,0,0,1,3.79,23.7c0,6-.63,14.19-5.8,19.18s-14.08,5.68-20.43-.74C99.9,311.25,101.09,302.92,101.09,302.92Z" transform="translate(-70.4 -60.07)"/><path class="cls-2" d="M807.85,970s-19-18.79-15.93-41.5c3.8-28.43,27.37-43.76,50.3-41,22.66,2.74,40,22.21,51.4,37.46,15.51,20.73,29.74,50.35,35.79,67.24-11.63,13.66-35.41,36.34-57.25,50.24-16.07,10.23-39.17,22.32-61.33,16.87-22.42-5.52-39.06-28.19-32.55-56.12C783.48,980.87,807.85,970,807.85,970Z" transform="translate(-70.4 -60.07)"/><path class="cls-2" d="M1413.37,135.94s-5.26,5.2-11.54,4.3c-7.87-1.13-12-7.7-11.22-14.05s6.26-11,10.52-14.14a81.21,81.21,0,0,1,18.73-9.74,81.65,81.65,0,0,1,13.76,16c2.8,4.48,6.08,10.91,4.51,17s-7.91,10.75-15.64,8.87C1416.32,142.72,1413.37,135.94,1413.37,135.94Z" transform="translate(-70.4 -60.07)"/><path class="cls-2" d="M1380.54,418.47s-25-.47-37.63-17.8c-15.82-21.7-9.77-47.32,7.54-60.27,17.11-12.8,41.44-10.83,59-7.89,23.9,4,52.69,14.85,67.71,22.38,1,16.76-.47,47.49-6.26,71-4.26,17.32-12.08,40.44-30.61,51.08-18.75,10.77-44.67,6.18-58.33-16.93C1371.08,441.6,1380.54,418.47,1380.54,418.47Z" transform="translate(-70.4 -60.07)"/><path class="cls-2" d="M1668.58,570.54s24.84,4.3,34.77,23.52c12.44,24.07,2.47,48.68-16.78,58.92-19,10.13-43,4.43-60-1.21-23.22-7.67-50.25-22.9-64-32.72,1.61-16.86,7.77-47.27,17.16-69.84,6.91-16.61,18.26-38.45,38.37-46.21,20.34-7.86,45.47.7,55.54,25.85C1681.58,548.93,1668.58,570.54,1668.58,570.54Z" transform="translate(-70.4 -60.07)"/><path class="cls-2" d="M1248.63,1620.55s-10.12-3.8-12.76-12.68c-3.32-11.13,2.84-20.69,11.77-23.47s18.44,1.57,25.18,5.31a119.33,119.33,0,0,1,24.36,18.88,119.19,119.19,0,0,1-12.81,28c-4.23,6.44-10.75,14.73-19.84,16.39s-19.09-3.93-21.32-15.32C1241.43,1628.6,1248.63,1620.55,1248.63,1620.55Z" transform="translate(-70.4 -60.07)"/><path class="cls-2" d="M1839.34,1277.25s-9.17,19.55-27.3,23.41c-22.71,4.84-40.79-9-44.91-27.19-4.07-18,6.06-36.52,14.58-49.36,11.59-17.45,30.29-36.35,41.53-45.54,13.57,5.14,37.31,17.11,53.85,30,12.16,9.47,27.65,23.79,29.52,42.16,1.89,18.6-10.87,37.43-33.93,40.07C1854.26,1292.87,1839.34,1277.25,1839.34,1277.25Z" transform="translate(-70.4 -60.07)"/><path class="cls-2" d="M362.62,1603.24s1.68,26.06-15.27,40.71c-21.21,18.35-48.4,14.27-63.39-2.63-14.8-16.7-14.85-42.19-13.31-60.75,2.09-25.24,10.89-56.14,17.42-72.42,17.37-2.46,49.48-3.63,74.48.36,18.4,2.94,43.14,9.08,55.82,27.44,12.84,18.58,10.3,46-12.57,62.18C387.52,1611.09,362.62,1603.24,362.62,1603.24Z" transform="translate(-70.4 -60.07)"/><path class="cls-2" d="M439.41,117.35s6.77,2,8.9,7.69c2.66,7.1-.92,13.62-6.62,15.83s-12.09-.19-16.66-2.32a78.26,78.26,0,0,1-16.73-11.21,77.52,77.52,0,0,1,7.08-18.86c2.47-4.39,6.35-10.09,12.2-11.59s12.62,1.7,14.59,9C443.74,111.77,439.41,117.35,439.41,117.35Z" transform="translate(-70.4 -60.07)"/><path class="cls-2" d="M2137.36,887.92s8.12,15.77,1.55,29.5c-8.23,17.19-26.27,22-40.19,15.59-13.76-6.38-20.72-22.24-24.81-34.22-5.55-16.29-8.47-37.93-8.82-49.84,10.15-6.25,29.83-15.7,46.49-20,12.25-3.17,29.33-6.07,42.22,1.92s18.9,25.83,9.06,42.15C2155,886,2137.36,887.92,2137.36,887.92Z" transform="translate(-70.4 -60.07)"/><path class="cls-2" d="M1475.34,820.15s-18.74-12.33-20-31.54c-1.6-24.05,15.26-40.59,34.61-42.13,19.12-1.51,36.64,11.65,48.58,22.31,16.23,14.49,32.88,36.52,40.67,49.43-7.3,13.19-23.13,35.83-38.8,50.91-11.54,11.1-28.55,24.9-47.72,24.1-19.39-.81-36.86-16.72-36.15-40.81C1457.07,833.17,1475.34,820.15,1475.34,820.15Z" transform="translate(-70.4 -60.07)"/><path class="cls-2" d="M2378.91,1308.49s-26.24-2.19-38.34-21.27c-15.16-23.89-7.06-50.41,12-62.85,18.86-12.3,44.3-8.56,62.59-4.27,24.86,5.83,54.39,19.19,69.66,28.13-.12,17.69-3.73,49.9-11.42,74.25-5.66,17.91-15.46,41.69-35.66,51.62-20.44,10.05-47.38,3.45-60.17-21.78C2367.38,1332.16,2378.91,1308.49,2378.91,1308.49Z" transform="translate(-70.4 -60.07)"/><path class="cls-2" d="M1726.29,1641.53s6.56,12.28,1.56,23.12c-6.25,13.59-20.35,17.6-31.35,12.7s-16.51-17.2-19.86-26.55c-4.54-12.71-7.09-29.65-7.51-39,7.89-5,23.22-12.66,36.24-16.24,9.58-2.63,22.94-5.11,33.14,1s15.14,20,7.61,33C1740.1,1639.85,1726.29,1641.53,1726.29,1641.53Z" transform="translate(-70.4 -60.07)"/><path class="cls-2" d="M1284.28,643.25s6.52-5.76,13.85-4.28c9.17,1.84,13.65,9.85,12.25,17.25s-8.09,12.54-13.3,15.92a96.13,96.13,0,0,1-22.65,10.2,95.79,95.79,0,0,1-15.12-19.72c-3-5.45-6.42-13.23-4.17-20.32s10-12.11,19-9.39C1281.26,635.09,1284.28,643.25,1284.28,643.25Z" transform="translate(-70.4 -60.07)"/><path class="cls-2" d="M2480.26,732.76s-2.79-6.43.16-11.68c3.69-6.56,10.93-8,16.25-5.1s7.6,9.3,8.9,14.13a77.25,77.25,0,0,1,2.19,19.89,77.43,77.43,0,0,1-18.85,6.69c-4.92.93-11.73,1.63-16.6-1.85s-6.79-10.68-2.49-16.86C2473.26,733,2480.26,732.76,2480.26,732.76Z" transform="translate(-70.4 -60.07)"/><path class="cls-2" d="M1871.83,684.82s-26.07,9.4-46-3.56c-25-16.23-28.83-45.15-16-65.42,12.67-20,38.65-27.6,58-31.5,26.35-5.31,60.46-5.46,79-3.6,7.63,17,18.29,49.39,21.6,76.07,2.43,19.62,3.47,46.66-11.51,65-15.16,18.57-43.83,24.06-67.13,5.52C1871.17,712.53,1871.83,684.82,1871.83,684.82Z" transform="translate(-70.4 -60.07)"/><path class="cls-2" d="M1222.19,963.67s-23.66,1.68-37.08-13.63c-16.8-19.17-13.26-43.9,2-57.62,15.08-13.56,38.25-13.76,55.13-12.47,22.94,1.75,51.08,9.55,65.92,15.39,2.34,15.77,3.59,44.95.11,67.7-2.55,16.73-8,39.25-24.59,50.89-16.81,11.78-41.71,9.64-56.59-11C1215.21,986.35,1222.19,963.67,1222.19,963.67Z" transform="translate(-70.4 -60.07)"/><path class="cls-2" d="M115.6,1395.79s-16.1-4.48-21.38-17.8c-6.62-16.69,1.58-32.26,15-37.75,13.21-5.43,28.62-.09,39.51,4.75,14.81,6.59,31.63,18.41,40.09,25.79-2.17,11-8.24,30.67-15.92,44.93-5.65,10.5-14.57,24.16-28.34,28-13.93,3.84-29.94-3.46-34.92-20.7C105.61,1409.18,115.6,1395.79,115.6,1395.79Z" transform="translate(-70.4 -60.07)"/><path class="cls-2" d="M1027.17,134.5s17.75,13.71,17.57,33c-.22,24.1-18.29,39.31-37.69,39.37-19.18.06-35.64-14.38-46.73-25.92-15.08-15.68-30-38.9-36.79-52.36,8.27-12.59,25.76-34,42.53-47.81,12.34-10.19,30.35-22.66,49.39-20.4,19.27,2.28,35.48,19.46,33,43.42C1046.37,122.9,1027.17,134.5,1027.17,134.5Z" transform="translate(-70.4 -60.07)"/></svg>