<svg xmlns="http://www.w3.org/2000/svg" viewBox="0 0 750 500"><g id="freepik--background-simple--inject-19"><path d="M32.63,438.63c-.27,5.76,6.85,12.84,18.21,19.37H686.68c11.36-6.53,18.48-13.61,18.21-19.37-.69-14.86-37.5-18.58-39.58-35.67s67.36-114.45,36.8-156.81-105.56-4.46-112.89-12.82S632,130.22,582,93.8s-157,18.58-157,18.58c-5,1.65-32.62,16.31-56.25,29.06-23.63-12.75-51.25-27.41-56.25-29.06,0,0-106.95-55-157-18.58s.08,131.17-7.25,139.53S66,203.79,35.41,246.15,74.3,385.87,72.22,403,33.32,423.77,32.63,438.63Z" style="fill:#92E3A9"></path><path d="M32.63,438.63c-.27,5.76,6.85,12.84,18.21,19.37H686.68c11.36-6.53,18.48-13.61,18.21-19.37-.69-14.86-37.5-18.58-39.58-35.67s67.36-114.45,36.8-156.81-105.56-4.46-112.89-12.82S632,130.22,582,93.8s-157,18.58-157,18.58c-5,1.65-32.62,16.31-56.25,29.06-23.63-12.75-51.25-27.41-56.25-29.06,0,0-106.95-55-157-18.58s.08,131.17-7.25,139.53S66,203.79,35.41,246.15,74.3,385.87,72.22,403,33.32,423.77,32.63,438.63Z" style="fill:#fff;opacity:0.7000000000000001"></path></g><g id="freepik--Plants--inject-19"><g style="opacity:0.15"><path d="M714.67,351.15c-3.65,1.51-12.51,1.14-12.51,1.14s2-5.77,2.19-6.11c2-4,8.31-10.62,13.3-9.85a6,6,0,0,1,4.64,7.58C721.39,347.36,717.79,349.86,714.67,351.15Z"></path><path d="M711.11,376.76c-3.77.47-11.63-2-12.26-2.18a104.53,104.53,0,0,1-5.06,13.18c-1.13,2.49-2.36,5-3.61,7.44.74-1,1.41-2,1.52-2.09,3-3.35,10.81-8.05,15.42-6a6,6,0,0,1,2.48,8.54c-1.78,3.09-5.92,4.55-9.26,5s-10.14-1.53-11.91-2.07c-.5.94-1,1.89-1.47,2.83-2.39,4.51-4.78,9-7,13.49-.78,1.58-1.49,3.16-2.21,4.74.66-.93,1.22-1.7,1.32-1.81,3-3.35,10.82-8.05,15.42-6a6,6,0,0,1,2.48,8.54c-1.78,3.08-5.92,4.55-9.26,5s-9.47-1.34-11.59-2c-.69,1.64-1.38,3.29-2,4.91-.37,1.12-.82,2.16-1.13,3.31s-.68,2.23-1,3.34c-.56,2.14-1.15,4.35-1.64,6.46-.36,1.47-.67,2.87-1,4.28.75-1.58,2.31-4.65,2.46-4.89,2.48-3.77,9.47-9.59,14.34-8.25a6,6,0,0,1,3.74,8.07c-1.28,3.32-5.15,5.39-8.39,6.31-3.57,1-11.4-.13-12.38-.28-.51,2.34-1,4.61-1.41,6.77-.32,1.59-.6,3.13-.87,4.6l-3.14-.06q.5-2.46,1.08-5.15c.51-2.37,1.11-4.9,1.75-7.49a66,66,0,0,1-6.84-3.38c-2.64,2.75-9.32,5.89-10.19,6.29.86,2.23,1.72,4.4,2.56,6.42.44,1.08.87,2.09,1.3,3.1l-3.33-.06c-.25-.64-.5-1.26-.75-1.93-.88-2.26-1.78-4.7-2.67-7.21-1,.18-8.76,1.6-12.36.72-3.27-.81-7.21-2.75-8.62-6a6,6,0,0,1,3.46-8.19c4.82-1.52,12,4.06,14.62,7.74.15.22,1.56,2.76,2.42,4.38-.36-1-.72-2-1.08-3.09-.73-2.09-1.38-4.21-2.1-6.48-.31-1.11-.62-2.23-.94-3.36s-.54-2.33-.83-3.51c-.59-2.75-1.06-5.56-1.47-8.4-1.84.63-8.4,2.76-11.77,2.46s-7.54-1.62-9.42-4.64a6,6,0,0,1,2.17-8.63c4.54-2.22,12.49,2.21,15.63,5.45.19.2,2.18,2.78,3.24,4.22-.23-1.71-.48-3.42-.66-5.16-.52-5-.89-10.11-1.28-15.19-.12-1.56-.26-3.11-.39-4.66-.66.23-8.39,2.94-12.17,2.6-3.35-.3-7.54-1.62-9.43-4.64a6,6,0,0,1,2.18-8.62c4.54-2.23,12.49,2.2,15.62,5.44.24.24,3.09,4,3.77,4.94-.29-3.42-.61-6.82-1.07-10.16a106.79,106.79,0,0,0-2.64-13.39c-.31.11-8.37,3-12.24,2.62-3.35-.3-7.54-1.62-9.42-4.64a6,6,0,0,1,2.17-8.62c4.54-2.23,12.49,2.2,15.63,5.44.24.26,3.31,4.26,3.81,5-.07-.25-.11-.53-.18-.78a78,78,0,0,0-5-12.72c-1.11-2.27-2.29-4.38-3.49-6.4-1.44.69-8.09,3.76-11.6,3.83s-7.68-.79-9.88-3.58a6,6,0,0,1,1.21-8.81c4.26-2.71,12.66.81,16.13,3.69.19.16,1.93,2,3.18,3.29-.55-.9-1.11-1.85-1.66-2.7-2-3.22-4.12-6.05-6-8.53-1.06-1.41-2.06-2.66-3-3.82-1.77-.06-8.91-.42-12-1.95s-6.45-4.23-7.12-7.73a6,6,0,0,1,5.14-7.26c5-.44,10.86,6.56,12.61,10.71.15.36,1.87,6.25,1.78,6.24h-.11c.93,1.1,1.91,2.29,3,3.61,1.92,2.45,4.06,5.23,6.18,8.42A103.85,103.85,0,0,1,629,358.29a77.71,77.71,0,0,1,5.37,12.77.94.94,0,0,1,0,.16c0-1.48.15-5.62.2-5.93.67-4.46,4.58-12.68,9.56-13.5a6,6,0,0,1,6.78,5.75c.22,3.56-2.42,7.06-5,9.26-2.88,2.47-10.79,4.76-11.42,4.94a107.53,107.53,0,0,1,3.05,13.78c.43,2.71.77,5.46,1.09,8.21,0-1.28.09-2.42.12-2.58.66-4.46,4.57-12.68,9.56-13.5a6,6,0,0,1,6.77,5.75c.22,3.56-2.42,7.06-5,9.26s-9.29,4.31-11.07,4.84c.11,1.06.23,2.12.33,3.17.51,5.08,1,10.15,1.61,15.11.22,1.75.5,3.46.78,5.17,0-1.13.08-2.09.1-2.23.67-4.46,4.58-12.68,9.56-13.5a6,6,0,0,1,6.78,5.75c.22,3.56-2.42,7.06-5,9.26s-8.64,4.1-10.76,4.74c.34,1.75.67,3.5,1.07,5.18.3,1.14.51,2.26.88,3.39s.67,2.23,1,3.34c.72,2.1,1.45,4.27,2.2,6.3.51,1.41,1,2.75,1.54,4.1-.24-1.73-.64-5.14-.64-5.43a23.21,23.21,0,0,1,3.33-11.22,7.2,7.2,0,0,1,.11-1.32,6,6,0,0,1,7.41-4.93c4.85,1.4,7.77,10,7.92,14.53,0,.26-.23,3.16-.4,5,.26-1.05.51-2.08.8-3.17.55-2.14,1.17-4.27,1.82-6.56.36-1.1.72-2.2,1.08-3.32s.83-2.25,1.25-3.39c1-2.62,2.17-5.22,3.4-7.82-1.88-.49-8.53-2.32-11.17-4.44s-5.4-5.51-5.3-9.07a6,6,0,0,1,6.57-6c5,.65,9.2,8.73,10,13.16.05.28.28,3.52.37,5.31.75-1.56,1.49-3.11,2.3-4.66,2.33-4.47,4.83-8.93,7.31-13.38.76-1.37,1.49-2.74,2.24-4.1-.67-.17-8.62-2.18-11.58-4.55-2.63-2.1-5.4-5.51-5.3-9.07a6,6,0,0,1,6.57-6c5,.64,9.21,8.73,10,13.16.06.33.39,5,.42,6.2,1.64-3,3.24-6,4.71-9.07a106.83,106.83,0,0,0,5.18-12.62c-.31-.08-8.62-2.14-11.65-4.57-2.63-2.1-5.4-5.51-5.3-9.07a6,6,0,0,1,6.57-6c5,.65,9.2,8.73,10,13.16.06.35.41,5.38.41,6.29.08-.25.2-.5.28-.75a77.36,77.36,0,0,0,2.82-13.39c.33-2.5.51-4.91.63-7.25-1.59-.23-8.83-1.34-11.8-3.22s-6-4.88-6.26-8.44a6,6,0,0,1,5.87-6.67c5.05.09,10.11,7.66,11.41,12,.07.23.53,2.7.84,4.5,0-1.06.1-2.16.11-3.17.07-3.82-.1-7.32-.28-10.42-.11-1.76-.25-3.35-.4-4.84-1.44-1-7.2-5.27-8.93-8.25s-3-7.08-1.68-10.37a6,6,0,0,1,8.29-3.22c4.44,2.41,5.44,11.46,4.61,15.89-.07.38-1.88,6.24-2,6.19l-.08-.06c.17,1.43.33,3,.48,4.64.24,3.1.49,6.6.51,10.44a107.42,107.42,0,0,1-.54,12.37,78.08,78.08,0,0,1-2.57,13.61s0,.11-.05.16c.82-1.23,3.22-4.6,3.44-4.84,3-3.35,10.81-8.05,15.42-6a6,6,0,0,1,2.48,8.53C718.59,374.87,714.45,376.34,711.11,376.76Z"></path><path d="M625,351.32c-.08.05-1.5-5.92-1.54-6.3-.54-4.48,1.07-13.44,5.65-15.55a6,6,0,0,1,8.06,3.76c1.15,3.37-.47,7.45-2.36,10.24C632.62,346.75,625,351.32,625,351.32Z"></path></g><g style="opacity:0.15"><path d="M147.36,351.15c-3.65,1.51-12.51,1.14-12.52,1.14s2-5.77,2.2-6.11c2-4,8.3-10.62,13.29-9.85a6,6,0,0,1,4.65,7.58C154.08,347.36,150.47,349.86,147.36,351.15Z"></path><path d="M143.79,376.76c-3.76.47-11.63-2-12.25-2.18a107.68,107.68,0,0,1-5.06,13.18c-1.14,2.49-2.36,5-3.62,7.44.74-1,1.41-2,1.52-2.09,3-3.35,10.82-8.05,15.42-6a6,6,0,0,1,2.48,8.54c-1.77,3.09-5.91,4.55-9.26,5s-10.13-1.53-11.91-2.07c-.49.94-1,1.89-1.47,2.83-2.38,4.51-4.77,9-7,13.49-.78,1.58-1.49,3.16-2.21,4.74.66-.93,1.23-1.7,1.33-1.81,3-3.35,10.81-8.05,15.42-6a6,6,0,0,1,2.48,8.54c-1.78,3.08-5.92,4.55-9.26,5s-9.48-1.34-11.59-2c-.69,1.64-1.38,3.29-2,4.91-.38,1.12-.82,2.16-1.14,3.31s-.67,2.23-1,3.34c-.56,2.14-1.15,4.35-1.65,6.46-.35,1.47-.66,2.87-1,4.28.76-1.58,2.31-4.65,2.47-4.89,2.47-3.77,9.47-9.59,14.34-8.25a6,6,0,0,1,3.74,8.07c-1.29,3.32-5.16,5.39-8.4,6.31-3.56,1-11.39-.13-12.37-.28-.52,2.34-1,4.61-1.42,6.77-.31,1.59-.6,3.13-.86,4.6l-3.15-.06q.5-2.46,1.09-5.15c.51-2.37,1.11-4.9,1.75-7.49a64,64,0,0,1-6.84-3.38c-2.64,2.75-9.33,5.89-10.19,6.29.86,2.23,1.71,4.4,2.55,6.42.44,1.08.87,2.09,1.3,3.1l-3.32-.06L82,455.74c-.88-2.26-1.77-4.7-2.67-7.21-1,.18-8.75,1.6-12.36.72-3.26-.81-7.21-2.75-8.61-6A6,6,0,0,1,61.83,435c4.82-1.52,12,4.06,14.62,7.74.15.22,1.55,2.76,2.41,4.38-.36-1-.72-2-1.08-3.09-.72-2.09-1.38-4.21-2.1-6.48q-.45-1.66-.93-3.36c-.33-1.11-.55-2.33-.83-3.51-.6-2.75-1.07-5.56-1.48-8.4-1.84.63-8.39,2.76-11.76,2.46s-7.54-1.62-9.43-4.64a6,6,0,0,1,2.18-8.63c4.53-2.22,12.49,2.21,15.62,5.45.2.2,2.18,2.78,3.25,4.22-.24-1.71-.48-3.42-.66-5.16-.52-5-.89-10.11-1.29-15.19-.12-1.56-.26-3.11-.39-4.66-.65.23-8.39,2.94-12.16,2.6-3.36-.3-7.54-1.62-9.43-4.64a6,6,0,0,1,2.18-8.62c4.53-2.23,12.49,2.2,15.62,5.44.24.24,3.09,4,3.77,4.94-.29-3.42-.62-6.82-1.07-10.16a105,105,0,0,0-2.65-13.39c-.3.11-8.37,3-12.23,2.62-3.35-.3-7.54-1.62-9.43-4.64a6,6,0,0,1,2.18-8.62c4.53-2.23,12.49,2.2,15.62,5.44.25.26,3.31,4.26,3.82,5-.07-.25-.11-.53-.19-.78a76.24,76.24,0,0,0-5-12.72c-1.1-2.27-2.28-4.38-3.48-6.4-1.45.69-8.1,3.76-11.61,3.83s-7.67-.79-9.88-3.58a6,6,0,0,1,1.22-8.81c4.26-2.71,12.66.81,16.13,3.69.18.16,1.93,2,3.17,3.29-.55-.9-1.1-1.85-1.65-2.7-2-3.22-4.12-6.05-6-8.53-1.07-1.41-2.06-2.66-3-3.82-1.77-.06-8.91-.42-12-1.95s-6.45-4.23-7.12-7.73a6,6,0,0,1,5.14-7.26c5-.44,10.86,6.56,12.61,10.71.15.36,1.88,6.25,1.79,6.24h-.11c.93,1.1,1.91,2.29,3,3.61,1.91,2.45,4,5.23,6.18,8.42a107.59,107.59,0,0,1,6.38,10.62,78.58,78.58,0,0,1,5.37,12.77.94.94,0,0,0,0,.16c0-1.48.15-5.62.2-5.93.67-4.46,4.58-12.68,9.56-13.5a6,6,0,0,1,6.78,5.75c.22,3.56-2.43,7.06-5,9.26-2.89,2.47-10.79,4.76-11.42,4.94a107.53,107.53,0,0,1,3,13.78c.42,2.71.77,5.46,1.08,8.21.05-1.28.1-2.42.12-2.58.67-4.46,4.58-12.68,9.56-13.5a6,6,0,0,1,6.78,5.75c.22,3.56-2.42,7.06-5,9.26s-9.3,4.31-11.08,4.84c.11,1.06.23,2.12.34,3.17.5,5.08,1,10.15,1.61,15.11.22,1.75.5,3.46.77,5.17,0-1.13.09-2.09.11-2.23.67-4.46,4.58-12.68,9.56-13.5A6,6,0,0,1,91,411c.22,3.56-2.43,7.06-5,9.26s-8.65,4.1-10.76,4.74c.33,1.75.66,3.5,1.07,5.18.3,1.14.51,2.26.87,3.39s.68,2.23,1,3.34c.72,2.1,1.44,4.27,2.19,6.3.51,1.41,1,2.75,1.54,4.1-.24-1.73-.63-5.14-.63-5.43a23.21,23.21,0,0,1,3.33-11.22,7.2,7.2,0,0,1,.11-1.32,6,6,0,0,1,7.4-4.93c4.86,1.4,7.78,10,7.92,14.53,0,.26-.22,3.16-.4,5,.27-1.05.52-2.08.8-3.17.56-2.14,1.18-4.27,1.83-6.56.35-1.1.71-2.2,1.08-3.32s.83-2.25,1.24-3.39c1-2.62,2.18-5.22,3.4-7.82-1.88-.49-8.53-2.32-11.17-4.44s-5.39-5.51-5.3-9.07a6,6,0,0,1,6.57-6c5,.65,9.21,8.73,10,13.16.05.28.29,3.52.38,5.31.75-1.56,1.49-3.11,2.3-4.66,2.33-4.47,4.83-8.93,7.3-13.38.76-1.37,1.5-2.74,2.25-4.1-.67-.17-8.62-2.18-11.58-4.55-2.63-2.1-5.4-5.51-5.3-9.07a6,6,0,0,1,6.57-6c5,.64,9.2,8.73,10,13.16.06.33.39,5,.41,6.2,1.64-3,3.25-6,4.72-9.07a105.08,105.08,0,0,0,5.17-12.62c-.31-.08-8.61-2.14-11.64-4.57-2.64-2.1-5.4-5.51-5.31-9.07a6,6,0,0,1,6.58-6c5,.65,9.2,8.73,10,13.16.07.35.42,5.38.42,6.29.08-.25.19-.5.27-.75a76.44,76.44,0,0,0,2.82-13.39c.34-2.5.51-4.91.63-7.25-1.58-.23-8.82-1.34-11.79-3.22s-6-4.88-6.27-8.44a6,6,0,0,1,5.88-6.67c5.05.09,10.1,7.66,11.41,12,.07.23.53,2.7.84,4.5,0-1.06.09-2.16.11-3.17.07-3.82-.11-7.32-.28-10.42-.12-1.76-.26-3.35-.4-4.84-1.44-1-7.2-5.27-8.94-8.25s-3-7.08-1.67-10.37a6,6,0,0,1,8.29-3.22c4.44,2.41,5.44,11.46,4.61,15.89-.07.38-1.88,6.24-2,6.19l-.09-.06c.17,1.43.34,3,.48,4.64.25,3.1.5,6.6.51,10.44a105.22,105.22,0,0,1-.54,12.37,78,78,0,0,1-2.56,13.61l-.06.16c.82-1.23,3.23-4.6,3.44-4.84,3-3.35,10.82-8.05,15.42-6a6,6,0,0,1,2.48,8.53C151.27,374.87,147.13,376.34,143.79,376.76Z"></path><path d="M57.7,351.32c-.08.05-1.49-5.92-1.54-6.3-.53-4.48,1.07-13.44,5.66-15.55a6,6,0,0,1,8.06,3.76c1.15,3.37-.48,7.45-2.36,10.24C65.3,346.75,57.71,351.32,57.7,351.32Z"></path></g></g><g id="freepik--Table--inject-19"><path d="M707.17,458.5H43.44a.5.5,0,0,1,0-1H707.17a.5.5,0,1,1,0,1Z" style="fill:#263238"></path></g><g id="freepik--Clouds--inject-19"><path d="M658.17,104.81H459.5a.49.49,0,0,1-.43-.75c.06-.11,6.5-10.93,18.21-11.83,5.44-.42,9.84,1.07,13.73,2.38,4.36,1.47,7.81,2.63,11,.38a23.26,23.26,0,0,0,5.3-5.66c2.33-3.16,4.74-6.43,10.86-8.65,4.44-1.62,8.76-.22,12.58,1,4.95,1.6,9.24,3,13-1.76a60.14,60.14,0,0,0,4.18-6.22c4.92-8,10.51-17.13,28.29-17.13,21.78,0,42.06,23,43.1,24.18,5.65,4.11,7.79,3.63,11,2.91a21.26,21.26,0,0,1,9.21-.36c10.84,1.81,18.76,20,19.09,20.79a.49.49,0,0,1,0,.47A.5.5,0,0,1,658.17,104.81Zm-197.75-1h197c-1.58-3.38-8.88-18-18-19.5a20.22,20.22,0,0,0-8.83.34c-3.25.73-5.82,1.3-11.87-3.1l-.09-.08c-.2-.24-20.6-23.88-42.38-23.88-17.22,0-22.42,8.47-27.44,16.65a64,64,0,0,1-4.24,6.33c-4.24,5.29-9,3.73-14.13,2.08-3.84-1.25-7.81-2.53-11.93-1-5.83,2.11-8.05,5.12-10.39,8.3a24.45,24.45,0,0,1-5.53,5.89c-3.57,2.55-7.41,1.25-11.87-.26-3.79-1.28-8.08-2.73-13.33-2.32C468,94,462.09,101.39,460.42,103.81Z" style="fill:#263238"></path><path d="M503.22,76.3H394.51a.5.5,0,0,1-.43-.25.5.5,0,0,1,0-.5c.15-.25,3.62-6.08,10.14-6.59a18.21,18.21,0,0,1,7.6,1.32c2.33.78,4.17,1.4,5.8.24a12.54,12.54,0,0,0,2.85-3,11.72,11.72,0,0,1,6-4.81c2.5-.91,4.9-.14,7,.55,2.74.89,4.9,1.59,6.88-.88a32.76,32.76,0,0,0,2.27-3.39c2.73-4.44,5.82-9.48,15.67-9.48,12,0,22.89,12.3,23.74,13.3,3,2.16,4.13,1.91,5.83,1.53a12,12,0,0,1,5.13-.2c6.05,1,10.43,11.08,10.61,11.51a.51.51,0,0,1,0,.48A.5.5,0,0,1,503.22,76.3Zm-107.76-1h107c-1.1-2.29-4.89-9.44-9.54-10.22a11,11,0,0,0-4.74.18c-1.84.42-3.29.74-6.68-1.73l-.09-.08c-.11-.13-11.21-13-23-13-9.29,0-12.1,4.58-14.82,9A33,33,0,0,1,441.21,63c-2.41,3-5.24,2.1-8,1.21-2.07-.67-4.2-1.36-6.38-.56a10.74,10.74,0,0,0-5.59,4.46,13.34,13.34,0,0,1-3.07,3.27c-2.05,1.46-4.2.74-6.7-.11A17.6,17.6,0,0,0,404.3,70C399.65,70.32,396.61,73.75,395.46,75.3Z" style="fill:#263238"></path><path d="M252.81,102.94H67.92a.5.5,0,0,1-.44-.25.52.52,0,0,1,0-.5c.06-.1,6.06-10.18,17-11,5.07-.39,9.17,1,12.79,2.21,4,1.37,7.25,2.45,10.17.37a21.56,21.56,0,0,0,4.93-5.27c2.17-2.94,4.42-6,10.12-8.06,4.14-1.51,8.17-.2,11.73,1,4.6,1.49,8.57,2.78,12.09-1.62A56.09,56.09,0,0,0,150.17,74c4.59-7.48,9.8-16,26.36-16,20.26,0,39.14,21.37,40.14,22.52,5.24,3.8,7.23,3.36,10.22,2.69a20,20,0,0,1,8.59-.33c10.1,1.69,17.48,18.65,17.79,19.37a.52.52,0,0,1,0,.47A.51.51,0,0,1,252.81,102.94Zm-184-1H252c-1.51-3.23-8.27-16.66-16.72-18.07a18.7,18.7,0,0,0-8.2.32c-3,.67-5.43,1.21-11.08-2.9l-.08-.08C215.76,81,196.78,59,176.53,59c-16,0-20.83,7.87-25.51,15.48a57.52,57.52,0,0,1-4,5.89c-3.95,4.94-8.43,3.49-13.18,1.95-3.57-1.15-7.26-2.35-11.08-1-5.41,2-7.47,4.76-9.66,7.72A22.78,22.78,0,0,1,108,94.56c-3.34,2.38-6.93,1.17-11.08-.23-3.53-1.19-7.52-2.54-12.39-2.16C75.88,92.83,70.44,99.65,68.84,101.94Z" style="fill:#263238"></path></g><g id="freepik--Characters--inject-19"><path d="M561.54,458h80.65a421.56,421.56,0,0,0-8.4-46.69,131.68,131.68,0,0,0-20.08-43.55s-24.14,12.86-38.58,17.15a193.49,193.49,0,0,1-23.47,5.64s6.77,32.94,8.35,44.9A220.49,220.49,0,0,1,561.54,458Z" style="fill:#828282"></path><path d="M642.19,458.5H561.54a.51.51,0,0,1-.5-.49,220.39,220.39,0,0,0-1.53-22.49c-1.56-11.81-8.27-44.54-8.34-44.87a.49.49,0,0,1,.08-.39.52.52,0,0,1,.33-.21,192.72,192.72,0,0,0,23.4-5.62c14.23-4.23,38.25-17,38.5-17.12a.51.51,0,0,1,.63.14,133.67,133.67,0,0,1,20.17,43.74,420.92,420.92,0,0,1,8.4,46.75.46.46,0,0,1-.12.39A.48.48,0,0,1,642.19,458.5Zm-80.16-1h79.59a424.72,424.72,0,0,0-8.31-46.08,133,133,0,0,0-19.75-43c-3.15,1.66-25,13-38.29,17a203.88,203.88,0,0,1-23,5.58c.87,4.22,6.8,33.4,8.25,44.42A216.34,216.34,0,0,1,562,457.5Z" style="fill:#263238"></path><path d="M603.56,451.6a.48.48,0,0,1-.26-.07.49.49,0,0,1-.17-.68c3.45-5.75,12.86-22.34,18.16-31.71A.49.49,0,0,1,622,419a.49.49,0,0,1,.19.68c-5.3,9.38-14.72,26-18.17,31.73A.5.5,0,0,1,603.56,451.6Z" style="fill:#263238"></path><path d="M623.82,416.18a.57.57,0,0,1-.25-.06.51.51,0,0,1-.19-.68l1.5-2.65a.5.5,0,0,1,.68-.19.51.51,0,0,1,.19.69l-1.49,2.64A.52.52,0,0,1,623.82,416.18Z" style="fill:#263238"></path><path d="M592.68,457a.48.48,0,0,1-.26-.07.49.49,0,0,1-.16-.69l22.29-35.89a.5.5,0,0,1,.85.53l-22.29,35.89A.51.51,0,0,1,592.68,457Z" style="fill:#263238"></path><path d="M602.88,290.36l-5.64,37.23s14.21,35.2,16.7,38.14l2.48,2.93s-10.16,7-28.21,14.89S556,391.67,556,391.67s-8.13-49-10.61-67.92S532,254.26,533.15,247s5.65-11.5,23.47-19.85,30.46,2.25,37.69,16.47S603.33,284.49,602.88,290.36Z" style="fill:#fff"></path><path d="M556,392.17a.5.5,0,0,1-.5-.41c-.08-.49-8.15-49.19-10.61-67.94-1-7.36-3.16-19.34-5.48-32-3.64-19.84-7.4-40.35-6.7-44.84,1.21-7.72,6.31-12.07,23.75-20.23,15.33-7.18,29.3-1.1,38.34,16.69,7.32,14.41,9.09,40.91,8.63,47a0,0,0,0,1,0,0l-5.62,37.1c4.93,12.19,14.65,35.61,16.57,37.87l2.48,2.93a.55.55,0,0,1,.12.39.51.51,0,0,1-.22.35c-.1.07-10.4,7.11-28.29,14.94s-32.31,8.16-32.46,8.16Zm12.91-167.48a28.37,28.37,0,0,0-12,2.94c-17.06,8-22,12.18-23.18,19.48-.68,4.33,3.07,24.75,6.69,44.51,2.33,12.69,4.53,24.68,5.5,32.07,2.32,17.78,9.71,62.56,10.53,67.47,2.5-.12,15.63-1.06,31.64-8.07a193.64,193.64,0,0,0,27.67-14.54l-2.13-2.5c-2.5-3-16.19-36.83-16.78-38.27a.58.58,0,0,1,0-.26l5.64-37.22c.4-5.33-1.28-32.17-8.52-46.42C589.83,236,581.83,224.69,568.86,224.69Zm34,65.67h0Z" style="fill:#263238"></path><path d="M182.46,234.67l5.4,31.62s-5.94,6.48-10.27,7.56-9.19-1.89-10.81-5.94-3.24-31.62-3.24-31.62S176.51,237.1,182.46,234.67Z" style="fill:#263238"></path><path d="M175.77,274.57a10.58,10.58,0,0,1-9.45-6.48c-1.63-4.08-3.21-30.64-3.28-31.77a.51.51,0,0,1,.53-.53c.13,0,12.93.78,18.7-1.58a.5.5,0,0,1,.43,0,.55.55,0,0,1,.25.35l5.4,31.62a.46.46,0,0,1-.12.42c-.25.27-6.1,6.61-10.52,7.72A7.86,7.86,0,0,1,175.77,274.57Zm-11.7-37.75c.24,3.93,1.73,27.29,3.18,30.9,1.61,4,6.3,6.63,10.22,5.65,3.74-.93,8.87-6.2,9.86-7.24l-5.26-30.78C176.57,237.29,166.58,236.94,164.07,236.82Z" style="fill:#263238"></path><path d="M205.28,458,203,418.71l-72.16-13.25s-5.4,8.65-9.73,23.51c-3.12,10.75.39,23,2.57,29Z" style="fill:#263238"></path><path d="M205.28,458.5h-81.6a.5.5,0,0,1-.47-.33c-2.31-6.33-5.71-18.56-2.58-29.34,4.3-14.75,9.73-23.54,9.79-23.63a.49.49,0,0,1,.51-.23l72.16,13.24a.5.5,0,0,1,.4.47L205.78,458a.5.5,0,0,1-.14.37A.48.48,0,0,1,205.28,458.5Zm-81.25-1h80.72l-2.23-38.37L131.09,406a105.34,105.34,0,0,0-9.5,23.09C118.59,439.44,121.77,451.2,124,457.5Z" style="fill:#263238"></path><path d="M116.52,275.75l14.86,45.94,16,50S133.54,397.9,131.92,402s-3,6.76-3,6.76a92,92,0,0,0,39.45,12.7c22.43,1.62,34.6-2.7,34.6-2.7s4.05-23,4.05-40.54-9.73-60.81-13.51-74.86-9.73-34.05-9.73-34.05L137.87,257.1S118.68,250.61,116.52,275.75Z" style="fill:#92E3A9"></path><path d="M178.16,422.27c-3,0-6.28-.11-9.79-.36a93.29,93.29,0,0,1-39.69-12.79.49.49,0,0,1-.18-.64s1.36-2.73,3-6.72,14-27.59,15.33-30.13L130.9,321.84,116,275.9a.44.44,0,0,1,0-.2c.73-8.53,3.49-14.42,8.19-17.49,6.23-4.08,13.51-1.69,13.82-1.59l45.91,12.16a.5.5,0,0,1,.35.34c.06.2,6,20.16,9.73,34.06,3.85,14.3,13.53,57.61,13.53,75s-4,40.39-4.06,40.62a.51.51,0,0,1-.33.39C203.06,419.21,194.25,422.27,178.16,422.27ZM129.6,408.52c2.61,1.6,18.61,10.93,38.84,12.39s32.19-2,34.11-2.59c.47-2.73,4-23.9,4-40.15,0-17.28-9.65-60.46-13.5-74.73-3.5-13-8.92-31.34-9.64-33.77l-45.67-12.09c-.1,0-7.17-2.34-13,1.47-4.41,2.89-7,8.49-7.73,16.64l14.84,45.84,15.94,50a.53.53,0,0,1,0,.39c-.14.26-13.79,26.23-15.38,30.22C131.14,405.26,130,407.61,129.6,408.52Z" style="fill:#263238"></path><path d="M116.52,275.75l11,34c.38,0,.77,0,1.16,0,13.75,0,24.9-13.06,24.9-29.17a31.51,31.51,0,0,0-8.09-21.5l-7.62-2S118.68,250.61,116.52,275.75Z" style="fill:#fff"></path><path d="M128.68,310.29c-.4,0-.79,0-1.19,0a.52.52,0,0,1-.45-.34l-11-34a.44.44,0,0,1,0-.2c.73-8.53,3.49-14.42,8.19-17.49,6.23-4.08,13.51-1.69,13.82-1.59l7.59,2a.61.61,0,0,1,.24.15,32.22,32.22,0,0,1,8.22,21.84C154.08,297,142.68,310.29,128.68,310.29Zm-.79-1,.79,0c13.45,0,24.4-12.86,24.4-28.67a31.24,31.24,0,0,0-7.86-21.06l-7.48-2c-.1,0-7.17-2.34-13,1.47-4.41,2.89-7,8.49-7.73,16.64Z" style="fill:#263238"></path><path d="M166.78,236.56s-1.35,16.76-.54,20.54,7.57,14.59,7,17.84-13.51-4.06-17.3-10.81-7.83-34.06-7.83-34.06Z" style="fill:#fff"></path><path d="M172,276.23c-3.88,0-13.37-6.3-16.48-11.86-3.79-6.76-7.73-33.1-7.9-34.22a.51.51,0,0,1,.18-.46.49.49,0,0,1,.48-.09L167,236.09a.49.49,0,0,1,.33.51c0,.17-1.33,16.73-.55,20.39a43.09,43.09,0,0,0,3.06,7.11c2.12,4.35,4.32,8.85,4,10.92a1.39,1.39,0,0,1-1.24,1.17A2.67,2.67,0,0,1,172,276.23Zm-23.26-45.41c.71,4.59,4.32,27.11,7.65,33.06,3.16,5.65,13.12,11.81,15.93,11.33.36-.07.41-.22.44-.36.29-1.75-1.93-6.3-3.89-10.31a43,43,0,0,1-3.14-7.34c-.75-3.53.3-17.7.5-20.29Z" style="fill:#263238"></path><path d="M179.48,177.92s6.76,19.46,8.65,28.64-.27,18.65-5.67,28.11-13.79,5.94-14.87,5.67-18.64-6.75-20-7.83-13.79-42.43-13.79-42.43,13.25-8.92,23-10.81,20.81-3.51,20.81-3.51Z" style="fill:#fff"></path><path d="M172.39,241.69a15.64,15.64,0,0,1-4.6-.76l-.32-.1c-.95-.24-18.72-6.76-20.19-7.93s-11-32.94-13.95-42.68a.51.51,0,0,1,.2-.56c.55-.36,13.44-9,23.16-10.88s20.72-3.5,20.83-3.52a.51.51,0,0,1,.45.17l1.89,2.16a.54.54,0,0,1,.1.16c.06.2,6.79,19.6,8.66,28.71s-.08,18.56-5.73,28.46C181,238.22,177.75,241.69,172.39,241.69Zm-38-51.4c4.89,16.27,12.46,40.59,13.54,41.85,1.22,1,18.78,7.47,19.78,7.72l.37.11c6.06,1.9,10.74,0,13.93-5.55,5.53-9.67,7.42-19,5.62-27.76s-8.09-27-8.6-28.49l-1.64-1.88c-1.76.26-11.75,1.76-20.52,3.47S136.44,189,134.4,190.29Z" style="fill:#263238"></path><path d="M174.08,214.9a.5.5,0,0,1-.15-1c2.1-.67,5.52-1.82,6.45-2.27-.25-.86-2.29-3.69-3.66-5.6-1.18-1.64-2.3-3.19-2.81-4.11-1.37-2.47-2.95-9.82-3-10.13a.5.5,0,0,1,.38-.6.51.51,0,0,1,.6.39c0,.07,1.62,7.52,2.92,9.86.48.86,1.58,2.39,2.74,4,2.8,3.89,4,5.68,3.87,6.48a.68.68,0,0,1-.29.44,65.49,65.49,0,0,1-6.88,2.5Zm6.33-3.11h0Z" style="fill:#263238"></path><path d="M167.66,223.29c-6.13,0-8.57-4-8.6-4a.49.49,0,0,1,.17-.68.5.5,0,0,1,.69.17c.13.23,3.46,5.56,12.66,2.75a.5.5,0,1,1,.29,1A17.87,17.87,0,0,1,167.66,223.29Z" style="fill:#263238"></path><path d="M151.92,197.88a.54.54,0,0,1-.21,0,.5.5,0,0,1-.24-.67c2.25-4.78,10.05-5.91,10.38-5.95a.48.48,0,0,1,.56.42.5.5,0,0,1-.42.57c-.08,0-7.6,1.09-9.62,5.39A.49.49,0,0,1,151.92,197.88Z" style="fill:#263238"></path><path d="M153.08,196.59a1.5,1.5,0,0,1-1.53-1.46,1.41,1.41,0,0,1,.58-1.13h0a2.1,2.1,0,1,0,2.21,2.1s0-.08,0-.11A1.57,1.57,0,0,1,153.08,196.59Z" style="fill:#fff"></path><path d="M152.12,198.7a2.6,2.6,0,1,1,0-5.2.5.5,0,0,1,.48.34.49.49,0,0,1-.17.56.92.92,0,0,0-.38.73,1,1,0,0,0,1,1,1.06,1.06,0,0,0,.85-.41.5.5,0,0,1,.54-.17.49.49,0,0,1,.35.45.66.66,0,0,1,0,.14A2.66,2.66,0,0,1,152.12,198.7Zm-1.05-3.87a1.57,1.57,0,0,0-.66,1.27,1.66,1.66,0,0,0,1.71,1.6,1.79,1.79,0,0,0,1.38-.65,2.85,2.85,0,0,1-.42,0,2,2,0,0,1-2-2C151.05,195,151.06,194.93,151.07,194.83Z" style="fill:#263238"></path><path d="M173.81,190a.51.51,0,0,1-.34-.14.49.49,0,0,1,0-.7s3.54-3.76,7.88-1.74a.5.5,0,1,1-.43.91c-3.66-1.71-6.59,1.38-6.71,1.51A.54.54,0,0,1,173.81,190Z" style="fill:#263238"></path><path d="M162.19,203.46c0,1.56-.73,2.83-1.62,2.83S159,205,159,203.46s.72-2.84,1.62-2.84S162.19,201.89,162.19,203.46Z" style="fill:#263238"></path><path d="M180.3,198.73c0,1.56-.73,2.83-1.63,2.83s-1.62-1.27-1.62-2.83.73-2.84,1.62-2.84S180.3,197.16,180.3,198.73Z" style="fill:#263238"></path><path d="M141.65,185.48s11.89,60.81,16.49,75.67,4.86,35.4,4.86,35.4-24.59-30.26-33.78-32.42-12.16,8.91-10.81,16.48,13,41.08,13,41.08-12.7.81-22.43-6.22-15.13-16.75-11.89-32.7,8.65-46.21,9.19-59.72.54-18.92.54-18.92S126.79,186.57,141.65,185.48Z" style="fill:#263238"></path><path d="M130.25,322.21c-3.39,0-13.55-.52-21.59-6.33-11.21-8.1-15-18.65-12.09-33.21,3.4-16.71,8.65-46.39,9.18-59.64s.54-18.84.54-18.9a.48.48,0,0,1,.17-.37c.82-.73,20.29-17.69,35.15-18.77a.5.5,0,0,1,.53.4c.12.61,11.94,61,16.47,75.61s4.89,35.34,4.89,35.55a.5.5,0,0,1-.33.47.48.48,0,0,1-.56-.15c-.24-.3-24.59-30.16-33.51-32.26a7,7,0,0,0-6.83,1.61c-3.33,3.15-4.21,9.58-3.37,14.3,1.33,7.44,12.84,40.67,12.95,41a.5.5,0,0,1-.44.67S131,322.21,130.25,322.21Zm-23-117.85c0,1.17-.07,6.85-.54,18.71-.54,13.31-5.79,43.06-9.2,59.8-2.87,14.13.84,24.36,11.69,32.2,8.22,5.93,18.73,6.18,21.45,6.14-1.67-4.81-11.52-33.48-12.77-40.51-.87-4.84-.09-11.66,3.66-15.21a8.08,8.08,0,0,1,7.75-1.85c8.34,2,28.5,25.87,33.13,31.47-.16-4.94-1-21.45-4.8-33.81-4.35-14.05-15.33-69.74-16.41-75.28C127.48,187.32,109.24,202.69,107.29,204.36Z" style="fill:#263238"></path><path d="M176,168.46s-4.59-7.3-19.46-11.62-33.78-3.78-38.1-4.33-10.81-1.89-12.43,2.71,1.35,9.19,1.35,10.54-4.59,15.67-3.78,25.13l.81,9.46s26.75-19.46,40.53-23.24,20.81-6,21.89-6S176,168.46,176,168.46Z" style="fill:#92E3A9"></path><path d="M104.36,200.85a.54.54,0,0,1-.21,0,.47.47,0,0,1-.29-.41l-.81-9.46c-.62-7.21,1.9-17.34,3.11-22.21.36-1.45.67-2.69.67-3a7.34,7.34,0,0,0-.5-1.65c-.77-2.09-2-5.58-.82-9.06,1.61-4.57,7.48-3.77,11.76-3.19l1.2.16c1,.13,3,.19,5.4.28,8,.29,21.46.76,32.78,4.06,14.88,4.33,19.55,11.53,19.74,11.83a.49.49,0,0,1-.26.74c-1.37.46-8.24,2.73-9.35,2.73-.61,0-4,1-9.19,2.42-3.29.93-7.47,2.11-12.56,3.51-13.54,3.71-40.11,23-40.38,23.16A.46.46,0,0,1,104.36,200.85Zm7.86-48.45c-2.63,0-4.94.63-5.77,3-1.11,3.14,0,6.3.82,8.38a7.18,7.18,0,0,1,.56,2,23.41,23.41,0,0,1-.7,3.2c-1.2,4.82-3.69,14.84-3.09,21.89l.74,8.58c4.43-3.18,27.36-19.34,40-22.81,5.1-1.39,9.27-2.57,12.56-3.5,6-1.69,8.71-2.46,9.46-2.46a80.94,80.94,0,0,0,8.38-2.46c-1.38-1.73-6.61-7.34-18.79-10.88-11.2-3.26-24.56-3.74-32.54-4-2.56-.09-4.41-.16-5.48-.29l-1.21-.16A38.44,38.44,0,0,0,112.22,152.4Z" style="fill:#263238"></path><path d="M106.79,213.05s29.46-30,73-32.43c0,0,1.36,1.35,1.9,0s-2.17-7.84-3.52-11.08-1.62-3-4.86-3-25.67,4.59-41.08,11.08-27.29,19.18-27.83,22.7a35.56,35.56,0,0,0-.27,9.19C104.36,212.51,105.17,213.59,106.79,213.05Z" style="fill:#92E3A9"></path><path d="M106.05,213.68a1.84,1.84,0,0,1-1-.29c-.81-.53-1.26-1.7-1.45-3.81a35.72,35.72,0,0,1,.27-9.31c.62-4,13.22-16.8,28.14-23.08,15.15-6.38,37.79-11.12,41.27-11.12H174c2.79,0,3.3.07,4.63,3.29,2.56,6.12,4,10.17,3.52,11.46a1.31,1.31,0,0,1-1,.89,2.07,2.07,0,0,1-1.59-.57c-42.69,2.48-72.13,32-72.42,32.27a.47.47,0,0,1-.2.12A2.76,2.76,0,0,1,106.05,213.68Zm.74-.63h0Zm67.7-46h-1.22c-3.44,0-25.84,4.7-40.88,11-14.89,6.27-27,18.89-27.54,22.31a35.21,35.21,0,0,0-.27,9.07c.16,1.7.5,2.73,1,3.06a1.13,1.13,0,0,0,.94.06c1.85-1.83,31.19-30.14,73.21-32.49a.5.5,0,0,1,.38.15c.21.21.64.5.85.45s.18-.19.22-.29c.47-1.16-2.53-8.34-3.51-10.7S176.52,167.06,174.49,167.06Z" style="fill:#263238"></path><path d="M111.82,203.31a.5.5,0,0,1-.49-.43c-.28-1.92-2.22-8.88-2.24-8.95a.51.51,0,0,1,.34-.62.52.52,0,0,1,.62.35c.08.29,2,7.1,2.27,9.08a.51.51,0,0,1-.43.57Z" style="fill:#263238"></path><path d="M115.76,198.24a.48.48,0,0,1-.48-.4l-1.41-6.76a.49.49,0,0,1,.38-.59.51.51,0,0,1,.6.39l1.4,6.76a.49.49,0,0,1-.38.59Z" style="fill:#263238"></path><path d="M140.27,181.62a.49.49,0,0,1-.47-.34l-1.69-5.07a.5.5,0,0,1,.32-.64.51.51,0,0,1,.63.32l1.69,5.07a.5.5,0,0,1-.32.63A.41.41,0,0,1,140.27,181.62Z" style="fill:#263238"></path><path d="M162,182.46a.49.49,0,0,1-.47-.32l-3.38-9a.5.5,0,0,1,.29-.65.5.5,0,0,1,.64.29l3.38,9a.49.49,0,0,1-.29.64Z" style="fill:#263238"></path><path d="M168.44,173.45a.51.51,0,0,1-.48-.36l-1.12-4a.51.51,0,0,1,.34-.62.51.51,0,0,1,.62.35l1.13,3.94a.51.51,0,0,1-.35.62Z" style="fill:#263238"></path><path d="M203.81,208.46s-7-1.9-6.49,4,5.68,10.27,9.46,12.16l3.78,1.89,6.76,20.81s16.75-1.35,27-1.35h16.49l1.08-17.57s2.43-6.75,2.7-8.37a34.36,34.36,0,0,0,.27-4.33s4.87-10,3.51-15.94-5.4-6.49-7.56-4.87-5.14,6.76-5.14,6.76l-8.1,21.35-20.27,4.86Z" style="fill:#fff"></path><path d="M217.32,247.87a.5.5,0,0,1-.48-.35l-6.69-20.6-3.59-1.8c-4.16-2.08-9.2-6.61-9.74-12.57a4.25,4.25,0,0,1,1.27-3.86c2-1.72,5.69-.76,5.85-.72a.5.5,0,0,1,.19.1l23.31,19.3,19.77-4.75,8-21.1c.15-.28,3.08-5.31,5.3-7a4.48,4.48,0,0,1,4.23-.61c2,.73,3.44,2.78,4.12,5.77,1.32,5.78-2.95,15-3.5,16.17a31.77,31.77,0,0,1-.28,4.29c-.26,1.58-2.43,7.64-2.7,8.4l-1.07,17.49a.51.51,0,0,1-.5.47H244.34c-10.13,0-26.81,1.33-27,1.35Zm-15.86-39.2a4.29,4.29,0,0,0-2.73.78,3.32,3.32,0,0,0-.91,3c.5,5.55,5.26,9.8,9.18,11.76l3.79,1.89a.5.5,0,0,1,.25.3l6.63,20.43c2.6-.2,17.37-1.32,26.67-1.32h16l1.05-17.1a.39.39,0,0,1,0-.14c0-.06,2.42-6.73,2.68-8.29a33.61,33.61,0,0,0,.26-4.24.59.59,0,0,1,.05-.22c.05-.1,4.77-9.91,3.48-15.61-.6-2.65-1.84-4.44-3.49-5a3.49,3.49,0,0,0-3.29.47c-2.06,1.54-5,6.56-5,6.61l-8.08,21.28a.48.48,0,0,1-.35.3l-20.27,4.87a.48.48,0,0,1-.43-.1l-23.42-19.39A10.56,10.56,0,0,0,201.46,208.67Z" style="fill:#263238"></path><path d="M204.89,165.76s-11.62,15.67-9.73,22.43,8.92,24.86,11.35,28.91S220,231.16,221.1,232s22.5-2,23.58-2.58,9.34-4.15,9.34-4.15,7.62-17.6,7.89-21.11,0-16.75,0-16.75-9.19-21.08-16.49-26.76-10.27-6.21-20.26-7-8.38,3.51-8.38,3.51S199.21,155,200,158.46s6.49,4,6.49,4-7.84,1.63-7,2.17S204.89,165.76,204.89,165.76Z" style="fill:#263238"></path><path d="M222.57,232.58a4.16,4.16,0,0,1-1.77-.21c-1.2-.91-12.26-10.91-14.72-15s-9.54-22.39-11.4-29c-1.73-6.17,7.06-19,9.31-22.17-1.46-.2-4.1-.6-4.78-1.06a.6.6,0,0,1-.28-.61c.06-.29.16-.81,5.18-2-1.79-.55-4.05-1.68-4.57-4a1.37,1.37,0,0,1,.33-1.28c2-2.21,13.21-1.11,16.31-.75a2.63,2.63,0,0,1,.54-1.67c1.16-1.54,4-2.13,8.48-1.77,9.85.8,13,1.29,20.53,7.13,7.31,5.69,16.26,26.08,16.64,27a.58.58,0,0,1,0,.19c0,.54.27,13.3,0,16.8s-7.62,20.54-7.93,21.27a.55.55,0,0,1-.26.26c-.09,0-8.26,3.61-9.32,4.13C244,230.29,228.05,232.58,222.57,232.58Zm-22-68.05a42.67,42.67,0,0,0,4.41.73.5.5,0,0,1,.4.3.48.48,0,0,1-.06.49c-.12.16-11.45,15.56-9.65,22s8.86,24.73,11.3,28.8c2.34,3.9,13.31,13.85,14.46,14.72,1.37.53,21.64-2,23.06-2.63,1-.5,7.93-3.54,9.18-4.08.8-1.87,7.52-17.56,7.77-20.77s0-15.38,0-16.6C260.75,186,252,166.36,245.12,161c-7.31-5.69-10.18-6.13-20-6.93-5.38-.43-7.07.68-7.6,1.38a1.6,1.6,0,0,0-.27,1.46.51.51,0,0,1-.08.49.49.49,0,0,1-.45.18c-5.5-.67-14.73-1.17-16.11.36a.38.38,0,0,0-.1.39c.72,3.12,6,3.66,6.05,3.67a.5.5,0,0,1,.05,1A60.48,60.48,0,0,0,200.54,164.53Z" style="fill:#263238"></path><path d="M212.18,244.67l-7.83,13a130.83,130.83,0,0,1,30.8-4.86,249.42,249.42,0,0,1,33.51.81s-4.59-10.81-7.29-11.35S223,238.18,212.18,244.67Z" style="fill:#fff"></path><path d="M204.35,258.14a.53.53,0,0,1-.4-.19.51.51,0,0,1,0-.57l7.84-13a.46.46,0,0,1,.17-.17c11.18-6.71,47.21-3,49.54-2.49,2.87.57,7.17,10.51,7.66,11.64a.53.53,0,0,1-.06.49.49.49,0,0,1-.46.2,255.94,255.94,0,0,0-33.43-.81,131.44,131.44,0,0,0-30.68,4.85Zm8.2-13.11-7.11,11.77a137.64,137.64,0,0,1,29.69-4.52,256.55,256.55,0,0,1,32.74.73c-1.81-4.1-4.93-9.95-6.6-10.28C259.07,242.29,223.41,238.68,212.55,245Z" style="fill:#263238"></path><path d="M161.65,350.6s-35.67-14.86-37-16.48-6.75-14.32-6.75-14.32-5.68-2.44-7.3-4.6-6.48-6.48-7.56-4.32,0,5.13,1.35,6.75S109,323,109,323s-10-3.78-15.4-4.6-13.25,1.09-13.25,3,1.36,2.7,3.25,3.24a19.9,19.9,0,0,1,3.78,1.62l3.78,7.84s11.35,12.7,14.6,13.51,7.56,1.62,10.54,2.7,33.51,23.51,33.51,23.51l7,4.87,7.3-26.21Z" style="fill:#fff"></path><path d="M156.78,379.21a.47.47,0,0,1-.28-.09l-7-4.86c-10.55-7.76-31.1-22.62-33.39-23.46a65.29,65.29,0,0,0-7.36-1.95c-1.1-.25-2.16-.49-3.13-.73-3.3-.83-13.68-12.36-14.85-13.67a.44.44,0,0,1-.08-.11L87,326.64a19.5,19.5,0,0,0-3.54-1.5c-1.68-.48-3.61-1.33-3.61-3.72a1.66,1.66,0,0,1,.68-1.23c1.87-1.61,8.31-3,13.14-2.24,4.06.61,10.57,2.83,13.71,4-1.07-1.24-2.55-3-3.36-4-1.53-1.84-2.55-5-1.41-7.3a1.48,1.48,0,0,1,1.25-.85c2.2-.23,6,3.57,7.16,5.1,1.52,2,7,4.41,7.1,4.44a.51.51,0,0,1,.26.26c1.49,3.51,5.61,12.91,6.68,14.2s22.62,10.42,36.83,16.34l.12.07,2.43,1.89a.49.49,0,0,1,.17.53l-7.29,26.21a.52.52,0,0,1-.32.34A.47.47,0,0,1,156.78,379.21ZM91.53,333.84c3.17,3.54,11.77,12.67,14.3,13.31,1,.24,2,.48,3.12.73a65.28,65.28,0,0,1,7.47,2c3,1.1,32.38,22.66,33.63,23.58l6.44,4.46,7-25.22L161.39,351c-3.94-1.65-35.77-14.94-37.15-16.6s-6.06-12.64-6.75-14.27c-1-.45-5.79-2.63-7.32-4.67s-4.83-4.81-6.27-4.71a.51.51,0,0,0-.45.31c-.94,1.9,0,4.62,1.29,6.21s4.59,5.4,4.59,5.4a.5.5,0,0,1-.56.8c-.1,0-10-3.78-15.3-4.57-4.51-.67-10.66.56-12.34,2-.21.18-.33.35-.33.47,0,1.39.81,2.17,2.89,2.76a20,20,0,0,1,3.89,1.67.45.45,0,0,1,.2.21Z" style="fill:#263238"></path><path d="M87.33,326.28a86.78,86.78,0,0,1,8.92,4.87" style="fill:#fff"></path><path d="M96.25,331.65a.52.52,0,0,1-.29-.09,88.89,88.89,0,0,0-8.84-4.83.5.5,0,0,1-.24-.66.5.5,0,0,1,.67-.24,87,87,0,0,1,9,4.91.5.5,0,0,1,.12.69A.5.5,0,0,1,96.25,331.65Z" style="fill:#263238"></path><path d="M91.11,334.12s6,4.05,8.11,5.13" style="fill:#fff"></path><path d="M99.22,339.75a.44.44,0,0,1-.22-.05c-2.17-1.08-7.92-5-8.17-5.17a.5.5,0,1,1,.57-.82c.06,0,5.94,4,8,5.1a.5.5,0,0,1,.22.67A.51.51,0,0,1,99.22,339.75Z" style="fill:#263238"></path><path d="M161.65,350.6a4.3,4.3,0,0,0-4.6,3c-1.35,3.51-4.86,17.83-4.05,21.62s10.54,13.78,24.05,11.89,16.76-10.54,17.3-13,.27-10,.27-10-10,3.78-15.41,3.24S162.46,353.85,161.65,350.6Z" style="fill:#fff"></path><path d="M173.63,387.83c-12.11,0-20.35-8.94-21.12-12.53-.84-3.91,2.74-18.42,4.08-21.9a4.83,4.83,0,0,1,5.14-3.29.49.49,0,0,1,.4.37c.8,3.21,12.13,15.88,17.13,16.38,5.23.52,15.08-3.17,15.18-3.21a.5.5,0,0,1,.46.05.53.53,0,0,1,.22.4c0,.31.26,7.66-.28,10.12-.26,1.15-2.93,11.29-17.72,13.36A24.72,24.72,0,0,1,173.63,387.83Zm-12.47-36.76a3.79,3.79,0,0,0-3.64,2.69c-1.46,3.8-4.78,17.83-4,21.33s10.32,13.34,23.49,11.5c14.13-2,16.64-11.5,16.88-12.58.43-1.92.33-7.27.28-9.19-2.34.84-10.27,3.51-15,3-5.64-.57-16.45-13.07-17.88-16.79Z" style="fill:#263238"></path><path d="M317.53,458l-5.09-29.84s-22.43,9.73-57.56,11.62-55.94-11.08-55.94-11.08l.75,29.3Z" style="fill:#263238"></path><path d="M317.53,458.5H199.69a.51.51,0,0,1-.5-.49l-.75-29.29a.5.5,0,0,1,.25-.45.51.51,0,0,1,.52,0c.2.13,21.1,12.86,55.65,11S312,427.8,312.25,427.71a.47.47,0,0,1,.43,0,.53.53,0,0,1,.26.36L318,457.92a.52.52,0,0,1-.11.4A.53.53,0,0,1,317.53,458.5Zm-117.35-1H316.94l-4.88-28.64c-3.78,1.52-25.43,9.72-57.15,11.42-31.13,1.68-51.31-8.41-55.45-10.7Z" style="fill:#263238"></path><path d="M542.86,152.71s-9.25,7-12,13.09-3.16,10.16-4.51,12.86-9.71,5.87-9.48,7.9,3.83,5.19,3.83,5.19-.67,11.06-1.12,15.57-1.13,6.32,2.25,7.67,14,.45,14,.45l7.45,16.25L567.9,210s6.77-4.29,6.32-19.41S566.55,161.06,560,157.9,542.86,152.71,542.86,152.71Z" style="fill:#fff"></path><path d="M543.31,232.19h-.1a.51.51,0,0,1-.36-.28L535.55,216c-1.9.15-10.72.74-13.86-.51-3.35-1.34-3.13-3.25-2.73-6.71,0-.46.11-.95.16-1.48.41-4.08,1-13.66,1.11-15.31-.81-.73-3.6-3.39-3.82-5.34-.15-1.37,2-2.68,4.63-4.33,2-1.26,4.31-2.67,4.9-3.85a26.55,26.55,0,0,0,1.49-4.31,64,64,0,0,1,3-8.53c2.73-6.14,11.73-13,12.12-13.29a.53.53,0,0,1,.39-.09c.11,0,10.75,2.08,17.27,5.23s14,17.52,14.5,33.16c.46,15.23-6.26,19.66-6.55,19.84l-24.53,21.62A.5.5,0,0,1,543.31,232.19Zm-7.45-17.25a.51.51,0,0,1,.46.3l7.16,15.63,24.09-21.22c.13-.09,6.59-4.41,6.15-19-.45-15.28-7.71-29.28-13.93-32.29-5.89-2.84-15.26-4.79-16.81-5.1-1.28,1-9.2,7.31-11.62,12.75a62.16,62.16,0,0,0-3,8.41,26.75,26.75,0,0,1-1.56,4.48c-.71,1.43-3,2.86-5.26,4.25-1.79,1.11-4.25,2.63-4.16,3.37.16,1.5,2.7,4,3.66,4.87a.48.48,0,0,1,.17.4c0,.11-.68,11.12-1.13,15.59-.05.53-.11,1-.16,1.49-.39,3.45-.53,4.62,2.11,5.67,3.23,1.29,13.65.42,13.76.42Z" style="fill:#263238"></path><path d="M537.67,145.72s-2.71,12.86,1.13,16.7,9.25,1.12,11.28,4.28-1.13,9.71.45,12.87,5.87,8.12,5.87,8.12-2.49,1.58-1.58,3.16a4.59,4.59,0,0,0,2.48,2,10,10,0,0,1,4.74,7.9c.45,5.64.67,5.86-6.77,12.18s-22.34,22.34-6.09,29.56,18.05-2.25,22.33,4.74-3.15,20.76,3.62,32,20.08,20.54,33.62,14,18.27-10.38,11-23.24S613,255.38,616.19,250s12-8.8,5-29.11-20.76-9-20.76-24.6,1.35-22.56-4.74-35.42-16.92-18.73-31.59-20.76S538.57,136.24,537.67,145.72Z" style="fill:#263238"></path><path d="M599.56,296c-10.26,0-19.56-7.56-24.86-16.39-3.86-6.43-3.21-13.57-2.64-19.87.45-4.95.84-9.21-1-12.17s-3-2.7-5.52-2.18c-3.08.63-7.74,1.58-16.6-2.36-4.46-2-7-4.79-7.5-8.35-1.26-8.78,10-19.1,13.47-22,7.07-6,7-6.19,6.63-11.34l0-.42a9.43,9.43,0,0,0-4.44-7.48,5.11,5.11,0,0,1-2.72-2.24c-.77-1.36.29-2.72,1.28-3.5a50.77,50.77,0,0,1-5.58-7.81c-.82-1.64-.49-3.93-.15-6.36s.69-5-.27-6.46c-.85-1.31-2.39-1.45-4.35-1.63-2.22-.21-4.75-.45-6.87-2.57-3.93-3.93-1.44-16.29-1.27-17.13a7.62,7.62,0,0,1,2.74-5.56c4.15-3.29,12.43-2.14,22.91-.68l1.32.18c16.07,2.23,26.23,8.91,32,21,5.14,10.85,5,17.52,4.86,28.58,0,2.17-.07,4.5-.07,7.06,0,7.2,3,8.34,7,9.9,4.47,1.72,10,3.85,13.7,14.54,5.72,16.59,1,22.08-2.71,26.49a22.14,22.14,0,0,0-2.29,3c-3,5.22-3.5,6.93,3.61,19.59,3.12,5.55,4,9.48,3,12.73-1.34,4.27-5.87,7.13-14.31,11.2A21.38,21.38,0,0,1,599.56,296ZM567.78,244c1.46,0,2.72.64,4.16,3,2,3.24,1.58,7.66,1.12,12.78-.56,6.15-1.19,13.12,2.49,19.26,6.66,11.11,19.83,20.16,33,13.8,8.18-3.95,12.55-6.68,13.79-10.6.93-3,0-6.65-3-11.94-7.35-13.1-6.82-15.08-3.61-20.58a22.22,22.22,0,0,1,2.4-3.17c3.59-4.22,8.05-9.47,2.52-25.53-3.53-10.25-8.84-12.28-13.1-13.92s-7.68-2.95-7.68-10.84c0-2.57,0-4.9.07-7.07.17-10.92.27-17.5-4.76-28.14-5.59-11.8-15.51-18.3-31.21-20.48l-1.32-.18c-10.24-1.42-18.33-2.55-22.15.47a6.67,6.67,0,0,0-2.36,4.91.07.07,0,0,0,0,0c0,.13-2.61,12.64,1,16.24,1.87,1.87,4.1,2.08,6.26,2.28s4,.37,5.09,2.09.79,4.52.42,7.14c-.31,2.17-.62,4.41.06,5.77,1.53,3.07,5.75,8,5.8,8a.52.52,0,0,1,.11.4.51.51,0,0,1-.22.35s-2.06,1.36-1.42,2.49a4.08,4.08,0,0,0,2.19,1.8l.09,0a10.37,10.37,0,0,1,5,8.3l0,.42c.44,5.45.3,6-7,12.18-7,5.91-14.07,14.57-13.13,21.15.46,3.19,2.79,5.74,6.92,7.57,8.57,3.81,13,2.9,16,2.3A12.73,12.73,0,0,1,567.78,244Zm-30.11-98.29h0Z" style="fill:#263238"></path><path d="M553.24,194s4.06-7.22,10.6-5.64,3.39,9,.68,13.08-9.48,3.61-11.51,2" style="fill:#fff"></path><path d="M557.51,205.13a8.33,8.33,0,0,1-4.8-1.25.5.5,0,0,1,.61-.79c1,.76,3.45,1.3,5.93.9a7.06,7.06,0,0,0,4.85-2.81c2-3.06,3.84-7.26,2.81-9.9a4.17,4.17,0,0,0-3.18-2.43c-6.1-1.46-10,5.33-10.06,5.4a.49.49,0,0,1-.68.19.5.5,0,0,1-.19-.68c0-.07,4.33-7.54,11.16-5.88a5.13,5.13,0,0,1,3.88,3c1.48,3.78-1.85,9.24-2.9,10.82a8,8,0,0,1-5.53,3.25A12,12,0,0,1,557.51,205.13Z" style="fill:#263238"></path><path d="M526.3,195.6a5.53,5.53,0,0,1-2.41-.47.51.51,0,0,1-.2-.68.5.5,0,0,1,.67-.21h0c.15.08,3.65,1.78,9.15-2.87a.5.5,0,0,1,.65.76C530.82,195,528.1,195.6,526.3,195.6Z" style="fill:#263238"></path><path d="M530.22,180.07a.49.49,0,0,1-.34-.14.5.5,0,0,1,0-.71,6.37,6.37,0,0,1,4.16-1.93h0a4.81,4.81,0,0,1,3.55,1.71.5.5,0,0,1,0,.71.51.51,0,0,1-.71,0,3.85,3.85,0,0,0-2.82-1.39h0a5.49,5.49,0,0,0-3.44,1.62A.5.5,0,0,1,530.22,180.07Z" style="fill:#263238"></path><path d="M539,175.1a.49.49,0,0,1-.46-.31,4.69,4.69,0,0,0-2.63-2.8,6.21,6.21,0,0,0-4.36.35.5.5,0,1,1-.44-.89,7.07,7.07,0,0,1,5.14-.4,5.68,5.68,0,0,1,3.21,3.36.49.49,0,0,1-.27.65A.41.41,0,0,1,539,175.1Z" style="fill:#263238"></path><polygon points="535.86 215.44 546.24 212.51 539.25 222.44 535.86 215.44" style="fill:#263238"></polygon><path d="M539.25,222.94h0a.5.5,0,0,1-.41-.28l-3.39-7a.51.51,0,0,1,0-.42.47.47,0,0,1,.32-.28L546.11,212a.49.49,0,0,1,.54.19.51.51,0,0,1,0,.58l-7,9.93A.52.52,0,0,1,539.25,222.94Zm-2.68-7.18,2.76,5.7,5.69-8.08Z" style="fill:#263238"></path><path d="M538.57,241.39s5.87-1.8,13.09,14.44,22.56,62.73,22.56,62.73l22.12-2.25,1.58-4.74,3.38-2.93s3.38-4.07,5-2.94a4.67,4.67,0,0,1,1.81,2.94s3.38.45,3.84,2-.91,3.61-.91,3.61a24,24,0,0,1,.45,7.44c-.45,3.61-.9,4.74-5.64,6.55a53,53,0,0,1-8.57,2.48s-13.54,5-21.44,8.35-16.24,5.19-19.4,3.61-5.19-5.87-5.19-5.87-.91-9-.68-12-.23-17.37.23-25.72-3.62-26-5.19-32-7-23.24-7-23.24" style="fill:#92E3A9"></path><path d="M559.63,343.78a8,8,0,0,1-3.46-.62c-3.27-1.64-5.33-5.92-5.42-6.1a.53.53,0,0,1,0-.17c0-.37-.91-9.1-.68-12.05.09-1.18.07-4.41,0-8.16,0-5.61-.08-12.61.19-17.55.42-7.8-3.2-24.27-5.18-31.89-1.56-6-6.93-23-7-23.21a.5.5,0,1,1,1-.3c.05.17,5.43,17.23,7,23.26,2,7.67,5.63,24.27,5.2,32.2-.26,4.91-.21,11.88-.18,17.49,0,3.92,0,7,0,8.24-.21,2.7.57,10.84.66,11.78.29.57,2.19,4.19,4.93,5.56s10.8-.11,19-3.62c7.82-3.35,21.33-8.31,21.47-8.36a53.52,53.52,0,0,0,8.57-2.48c4.59-1.75,4.89-2.72,5.32-6.14a24.16,24.16,0,0,0-.44-7.27.46.46,0,0,1,.07-.39s1.22-1.86.83-3.2c-.29-1-2.62-1.56-3.42-1.67a.51.51,0,0,1-.43-.43,4.11,4.11,0,0,0-1.6-2.59c-.81-.58-3,1.35-4.29,2.85l-3.33,2.9-1.54,4.61a.51.51,0,0,1-.42.34l-22.12,2.25a.48.48,0,0,1-.52-.34c-.16-.46-15.42-46.64-22.55-62.68-6.89-15.51-12.43-14.18-12.49-14.17a.51.51,0,0,1-.62-.34.5.5,0,0,1,.33-.61c.27-.08,6.38-1.74,13.69,14.71,6.81,15.31,21,57.9,22.46,62.4L596,315.84l1.48-4.43a.54.54,0,0,1,.15-.22l3.38-2.93c.56-.68,3.72-4.3,5.59-3a5,5,0,0,1,1.93,2.9c1,.17,3.45.77,3.9,2.33a5.49,5.49,0,0,1-.85,3.84,24.64,24.64,0,0,1,.41,7.42c-.49,3.92-1.14,5.11-6,6.94a52.15,52.15,0,0,1-8.66,2.51c-.05,0-13.54,5-21.33,8.32C570.67,341.84,564.07,343.78,559.63,343.78Z" style="fill:#263238"></path><path d="M581,326c.45,6.32-1.13,9-3.16,11.06l-2,2c7.9-3.39,21.44-8.35,21.44-8.35a53,53,0,0,0,8.57-2.48c4.74-1.81,5.19-2.94,5.64-6.55a24,24,0,0,0-.45-7.44s1.36-2,.91-3.61-3.84-2-3.84-2a4.67,4.67,0,0,0-1.81-2.94c-1.57-1.13-5,2.94-5,2.94l-3.38,2.93-1.58,4.74-22.12,2.25S580.54,319.69,581,326Z" style="fill:#fff"></path><path d="M575.8,339.6a.5.5,0,0,1-.35-.85l2-2c1.83-1.83,3.46-4.39,3-10.66-.41-5.87-6.3-7-6.36-7a.51.51,0,0,1-.41-.51.5.5,0,0,1,.45-.48L596,315.84l1.48-4.43a.54.54,0,0,1,.15-.22l3.38-2.93c.56-.68,3.72-4.3,5.59-3a5,5,0,0,1,1.93,2.9c1,.17,3.45.77,3.9,2.33a5.49,5.49,0,0,1-.85,3.84,24.64,24.64,0,0,1,.41,7.42c-.49,3.92-1.14,5.11-6,6.94a52.15,52.15,0,0,1-8.66,2.51c-.05,0-13.54,5-21.33,8.32A.48.48,0,0,1,575.8,339.6Zm.7-20.77a8.34,8.34,0,0,1,5,7.15c.48,6.67-1.31,9.44-3.3,11.44l-.23.23c7.9-3.25,19-7.32,19.11-7.37a53.52,53.52,0,0,0,8.57-2.48c4.59-1.75,4.89-2.72,5.32-6.14a24.16,24.16,0,0,0-.44-7.27.46.46,0,0,1,.07-.39s1.22-1.86.83-3.2c-.29-1-2.62-1.56-3.42-1.67a.51.51,0,0,1-.43-.43,4.11,4.11,0,0,0-1.6-2.59c-.81-.58-3,1.35-4.29,2.85l-3.33,2.9-1.54,4.61a.51.51,0,0,1-.42.34Z" style="fill:#263238"></path><path d="M574.22,318.56a15.29,15.29,0,0,1,.45,11.06" style="fill:#fff"></path><path d="M574.67,330.12l-.15,0a.5.5,0,0,1-.32-.63,15,15,0,0,0-.42-10.67.51.51,0,0,1,.21-.68.52.52,0,0,1,.68.21,15.72,15.72,0,0,1,.48,11.45A.5.5,0,0,1,574.67,330.12Z" style="fill:#263238"></path><path d="M577.38,322.85s1.81,3.16-.45,9" style="fill:#fff"></path><path d="M576.93,332.38a.39.39,0,0,1-.18,0,.5.5,0,0,1-.29-.64c2.13-5.54.5-8.57.49-8.6a.49.49,0,0,1,.19-.68.5.5,0,0,1,.68.18c.07.14,1.89,3.44-.42,9.46A.51.51,0,0,1,576.93,332.38Z" style="fill:#263238"></path><path d="M566.73,458c-.43-8-1.44-22.46-3.34-30.67-2.71-11.74-7.44-35.66-7.44-35.66s-12.19,9.48-49.2,11.29-52.12-3.39-52.12-3.39l2,58.43Z" style="fill:#263238"></path><path d="M566.73,458.5H456.64a.5.5,0,0,1-.5-.48l-2-58.43a.49.49,0,0,1,.2-.42.51.51,0,0,1,.46-.07c.15,0,15.49,5.13,51.94,3.36s48.79-11.09,48.91-11.18a.49.49,0,0,1,.48-.07.52.52,0,0,1,.32.37c0,.24,4.76,24,7.44,35.63,1.9,8.25,2.92,22.82,3.35,30.76a.5.5,0,0,1-.13.37A.52.52,0,0,1,566.73,458.5Zm-109.61-1H566.2c-.44-8-1.45-22.06-3.3-30.06-2.4-10.44-6.47-30.76-7.3-34.92-3,1.94-16.27,9.35-48.82,10.94s-48.27-2.26-51.63-3.21Z" style="fill:#263238"></path><path d="M453.5,361.44s-3.61,35-2,39,30.24,14.67,53.25,12.19,46.26-8.12,50.1-11.51,5.64-5.87,5.19-8.12-8.35-50.32-8.35-50.32,3.61-41.07-.9-62.28-7.45-36.1-12.19-39-19.63-5-22.79-4.74-48.51,14.67-48.51,14.67l-10.16,3.61s-19.86,9.71-20.31,14,11.06,55.29,11.29,66.12S453.5,361.44,453.5,361.44Z" style="fill:#92E3A9"></path><path d="M497.43,413.53c-21.45,0-44.85-8.82-46.43-12.87s1.74-36.66,2-39.17c-.45-1.38-5.19-16.12-5.4-26.44-.13-5.89-3.62-23.79-6.7-39.58-2.57-13.19-4.8-24.59-4.58-26.6.46-4.43,18.52-13.38,20.58-14.39l10.21-3.63c1.87-.59,45.46-14.47,48.64-14.69s18.16,1.75,23.09,4.81c4.68,2.89,7.48,16.1,11.72,36.09l.69,3.27c4.4,20.65,1.08,60.51.92,62.36.33,2,7.9,48.06,8.34,50.24.46,2.34-1.08,4.83-5.35,8.6s-28.2,9.24-50.37,11.63A68.38,68.38,0,0,1,497.43,413.53Zm18.92-176.39h-.54c-2.45.18-32.72,9.66-48.39,14.65l-10.14,3.6c-7.83,3.83-19.67,10.63-20,13.58-.2,1.86,2.12,13.73,4.57,26.3,3.09,15.83,6.59,33.77,6.72,39.75.22,10.63,5.33,26.09,5.39,26.25a.5.5,0,0,1,0,.21c-1.25,12.05-3.28,35.68-2.06,38.8,1.42,3.67,29.47,14.38,52.73,11.87,23.68-2.55,46.22-8.21,49.82-11.38,3.9-3.45,5.41-5.74,5-7.65-.45-2.24-8-48.38-8.36-50.34v-.12c0-.42,3.55-41.24-.89-62.13l-.7-3.27c-4-19-7-32.78-11.26-35.45S520.26,237.14,516.35,237.14Z" style="fill:#263238"></path><path d="M445.85,458,434.59,412,430,406.83s-24.33,10.14-59.62,8.92-48.27-10.54-48.27-10.54c-2.93,8.79-7.43,40.6-9.09,52.79Z" style="fill:#828282"></path><path d="M445.85,458.5H313a.5.5,0,0,1-.38-.17.52.52,0,0,1-.12-.4c1.77-13,6.19-44.12,9.12-52.88a.49.49,0,0,1,.32-.32.49.49,0,0,1,.44.07c.13.09,13.31,9.26,48,10.45s59.18-8.78,59.42-8.88a.52.52,0,0,1,.57.12l4.61,5.12a.65.65,0,0,1,.11.22l11.25,46.05a.5.5,0,0,1-.48.62Zm-132.28-1H445.21l-11.07-45.31-4.3-4.77c-3,1.19-26.71,10-59.5,8.83-31.44-1.08-45.11-8.48-48-10.26C319.51,415.3,315.34,444.53,313.57,457.5Z" style="fill:#263238"></path><path d="M380.61,456h-.09L375,455a.5.5,0,0,1-.4-.58.49.49,0,0,1,.57-.41l5.52,1a.5.5,0,0,1-.08,1Z" style="fill:#263238"></path><path d="M371.62,454.36h-.09L346.8,450a.5.5,0,0,1-.4-.58A.49.49,0,0,1,347,449l24.72,4.39a.5.5,0,0,1-.08,1Z" style="fill:#263238"></path><path d="M328.39,248.72l-14.59,4.87s-14.6,4.59-15.14,5.94,15.41,54.86,16.49,59.46,11.08,43.5,11.08,43.5l-8.92,47.84s34.59,14.05,62.16,12.7S434.59,412,434.59,412l-6.48-38.65s-.27-50.53-3.51-70.8-9.46-34.86-12.71-39.73-14.32-10.81-20.53-13a87.09,87.09,0,0,0-16.76-3.51C373.52,246.29,328.39,248.72,328.39,248.72Z" style="fill:#263238"></path><path d="M375.68,423.62c-26.66,0-58.23-12.7-58.56-12.83a.49.49,0,0,1-.3-.55l8.9-47.73c-.59-2.27-10-39-11.06-43.41-.36-1.55-2.42-8.65-5-17.65-9.2-31.84-11.77-41.29-11.44-42.1.57-1.42,11-4.84,15.45-6.24l14.58-4.86a.31.31,0,0,1,.13,0c1.85-.1,45.16-2.43,46.24-2.43a87.19,87.19,0,0,1,16.92,3.54c6.39,2.22,17.47,8.19,20.79,13.17s9.57,19.88,12.78,39.92,3.52,70.37,3.52,70.88l6.48,38.57a.5.5,0,0,1-.33.55c-.28.1-27.95,9.77-55.27,11.11C378.24,423.59,377,423.62,375.68,423.62ZM317.88,410c3.84,1.51,36,13.76,61.56,12.52,25.39-1.24,51.11-9.73,54.59-10.92l-6.41-38.22c0-.59-.32-50.81-3.52-70.81s-9.29-34.53-12.62-39.53c-3.08-4.61-13.89-10.55-20.29-12.78a87.64,87.64,0,0,0-16.59-3.48c-1,0-44.13,2.32-46.12,2.43L314,254.06c-6.74,2.12-14,4.78-14.8,5.64.07,2.09,6.91,25.75,11.45,41.48,2.61,9,4.66,16.12,5,17.69,1.07,4.54,11,43.11,11.08,43.5a.54.54,0,0,1,0,.22Z" style="fill:#263238"></path><path d="M431.93,396.1a148,148,0,0,1-61.85,10.55c-28-1.43-43.18-7.77-49.92-11.62l-2.85,15.3s34.59,14.05,62.16,12.7S434.59,412,434.59,412Z" style="fill:#92E3A9"></path><path d="M375.68,423.62c-26.66,0-58.23-12.7-58.56-12.83a.49.49,0,0,1-.3-.55l2.85-15.3a.51.51,0,0,1,.28-.37.53.53,0,0,1,.46,0c6.48,3.7,21.56,10.13,49.7,11.57a148,148,0,0,0,61.64-10.53.54.54,0,0,1,.43,0,.55.55,0,0,1,.25.35l2.66,15.86a.5.5,0,0,1-.33.55c-.28.1-27.95,9.77-55.27,11.11C378.24,423.59,377,423.62,375.68,423.62ZM317.88,410c3.84,1.51,36,13.76,61.56,12.52,25.4-1.25,51.11-9.73,54.59-10.92l-2.49-14.82a149.09,149.09,0,0,1-61.48,10.36c-27.5-1.4-42.66-7.56-49.53-11.35Z" style="fill:#263238"></path><path d="M470.2,306.61l-8.12,68.59s-2.71,4.06-4.52,4.74-24.37,1.81-42.64.45-49.65-6.54-49.65-6.54a82.18,82.18,0,0,1-18.73.68c-9.25-.91-22.79-5.42-22.79-6.1s17.6-29.78,21.21-29.33,8.13,3.38,17.38,10.38,9.25,6.54,10.38,6.54,18.28.68,24.14,0,35-6.54,35-6.54l3.83-66.79s-2-14.67-1.35-18.28,22.79-9.48,22.79-9.48l7.67-1.8,13.77,3.61,2.71,5.19" style="fill:#92E3A9"></path><path d="M434.09,381.53c-6.25,0-13-.18-19.21-.64-17.64-1.31-47.82-6.24-49.61-6.53a83.15,83.15,0,0,1-18.77.66c-7.82-.76-23.25-5.13-23.25-6.59,0-1.2,14.28-24.05,19.58-28.73.92-.82,1.62-1.17,2.2-1.1,3.85.48,8.54,3.62,17.61,10.48,8.57,6.48,9.08,6.46,9.88,6.45h.2l1.77.05c4.77.14,17.46.52,22.32,0,5.41-.63,31.11-5.78,34.55-6.47l3.82-66.4c-.08-.51-2-14.69-1.35-18.34s19.41-8.88,23.15-9.87l7.69-1.81a.49.49,0,0,1,.24,0l13.76,3.61a.49.49,0,0,1,.32.26l2.71,5.19a.5.5,0,0,1-.21.67.51.51,0,0,1-.68-.21l-2.6-5-13.43-3.53-7.55,1.78c-8.42,2.23-22,6.68-22.42,9.08-.65,3.49,1.34,18,1.36,18.12l-3.83,66.89a.51.51,0,0,1-.4.46c-.29.06-29.2,5.88-35,6.55-4.93.57-17.67.19-22.46.05l-1.74-.05h-.18c-1.14,0-1.66,0-10.5-6.65S348.51,340,344.9,339.59h-.06c-3,0-18.91,25.37-20.49,28.7,1.77,1,13.44,4.88,22.24,5.74a83.1,83.1,0,0,0,18.6-.67h.16c.32.05,31.56,5.2,49.6,6.53,18.58,1.38,40.93.15,42.44-.42,1.31-.49,3.42-3.29,4.2-4.45l8.11-68.47a.5.5,0,0,1,1,.11l-8.13,68.6a.45.45,0,0,1-.08.22c-.28.43-2.85,4.22-4.75,4.93C456.5,380.87,446.21,381.53,434.09,381.53Z" style="fill:#263238"></path><path d="M407.49,354.22c-4.74.88-8.8,1.59-10.63,1.8-5.86.68-23,0-24.14,0s-1.13.45-10.38-6.54S348.57,339.55,345,339.1s-21.21,28.66-21.21,29.33,13.54,5.19,22.79,6.1a82.18,82.18,0,0,0,18.73-.68s24.69,4.08,43,5.95C401.71,369.31,404.67,359.64,407.49,354.22Z" style="fill:#fff"></path><path d="M408.3,380.3h-.05c-17.62-1.8-41.4-5.69-43-5.94a83.15,83.15,0,0,1-18.77.66c-7.82-.76-23.25-5.13-23.25-6.59,0-1.2,14.28-24.05,19.58-28.73.92-.82,1.62-1.17,2.2-1.1,3.85.48,8.54,3.62,17.61,10.48,8.57,6.48,9.08,6.46,9.88,6.45h.2l1.77.05c4.77.14,17.46.52,22.32,0,1.61-.19,5.18-.8,10.59-1.8a.49.49,0,0,1,.49.19.51.51,0,0,1,0,.53c-2.53,4.87-5.79,14.6.79,25.08a.51.51,0,0,1,0,.53A.49.49,0,0,1,408.3,380.3Zm-43-6.95h.08c.25,0,24,3.95,42,5.84a25.35,25.35,0,0,1-.76-24.31c-4.88.91-8.13,1.45-9.67,1.63-4.93.57-17.67.19-22.46.05l-1.74-.05h-.18c-1.14,0-1.66,0-10.5-6.65S348.51,340,344.9,339.59h-.06c-3,0-18.91,25.37-20.49,28.7,1.77,1,13.44,4.88,22.24,5.74a83,83,0,0,0,18.6-.67Z" style="fill:#263238"></path><path d="M204.35,257.64s-27.57,8.11-27.57,9.19-17,88.91-17.83,90.53,5.94,14.32,16.48,16.48,17.84-5.4,17.84-5.4l3.51-5.68,4.05,18.38-4.32,50.54s15.94,15.13,54.86,14.05,57.56-10.81,61.34-13.51,5.14-7.84,5.14-7.84l-9.19-49.18s4,4.86,11.89,1.08,70-77.81,72-80S398,290.5,398,290.5s9.73-3.29,13.24-5,8.77-6.14,10-7.07,4.55.64,6-.25-.5-2.25-1.69-3.51-2.86-6.94-4.47-9.08a9.72,9.72,0,0,1-1.85-4.35s-.09-3.28-1.28-4.54-5.09-.71-5.09-.71-13.59,3.57-14.58,4.8S379.62,289,379.62,289l-52,32.88s-22.7-38.34-29.73-48.07-22.7-16.21-22.7-16.21l-6.49-4S230.56,246.83,204.35,257.64Z" style="fill:#fff"></path><path d="M247.48,446.28c-35.88,0-51.16-14.09-51.31-14.24a.52.52,0,0,1-.16-.41l4.32-50.46-3.77-17.09-2.87,4.62-.06.09c-.08.07-7.61,7.73-18.3,5.54-8.24-1.69-14.06-9.63-16-13.6-.59-1.22-1.22-2.84-.84-3.59,1-2.33,17.74-89.75,17.78-90.33,0-.42,0-1.44,27.9-9.64,26-10.73,64.19-4.14,64.57-4.08a.48.48,0,0,1,.18.07l6.49,4.06c.57.22,15.81,6.61,22.84,16.34,6.55,9.07,26.93,43.35,29.48,47.66l51.52-32.55c1.31-2,17.65-27,18.62-28.18s12.55-4.37,14.85-5c.48-.07,4.24-.56,5.57.85s1.41,4.73,1.42,4.87h0a9.29,9.29,0,0,0,1.75,4.06,26.06,26.06,0,0,1,2.5,5.1,18.78,18.78,0,0,0,1.93,3.94c.22.23.46.46.71.7.9.85,1.74,1.66,1.65,2.53a1.42,1.42,0,0,1-.77,1.05c-.9.53-2.19.35-3.44.18-1-.14-2.11-.29-2.55,0l-1,.8c-2.14,1.72-6.13,4.91-9.05,6.32-3.34,1.61-12,4.58-13.19,5-.54.56-3.6,3.73-5.34,5.69-.23.26-1.32,1.54-3.07,3.61-41.18,48.52-64.42,74.26-69.06,76.5-5.72,2.76-9.57,1-11.36-.23l8.93,47.79a.55.55,0,0,1,0,.22c-.05.21-1.44,5.34-5.32,8.11-.71.51-17.84,12.39-61.63,13.61C250.06,446.27,248.75,446.28,247.48,446.28ZM197,431.47c1.84,1.59,18.23,14.77,54.33,13.76,34.79-1,55.16-9.2,61.06-13.42,3.3-2.35,4.7-6.73,4.92-7.45l-9.17-49.07a.5.5,0,0,1,.87-.42c.16.19,3.93,4.51,11.29,1,3.11-1.5,17.55-15.95,68.73-76.25l3.09-3.62c1.93-2.17,5.42-5.78,5.46-5.81a.46.46,0,0,1,.2-.13c.09,0,9.74-3.29,13.18-5,2.83-1.36,6.91-4.63,8.87-6.2.45-.36.81-.65,1-.81.78-.59,2-.42,3.29-.24a5.16,5.16,0,0,0,2.8-.05c.12-.07.27-.18.28-.3,0-.38-.76-1.14-1.34-1.7-.26-.25-.52-.49-.75-.73a17.79,17.79,0,0,1-2.12-4.25,26.47,26.47,0,0,0-2.38-4.88,10.09,10.09,0,0,1-1.95-4.59c0-.9-.28-3.34-1.14-4.26s-3.25-.75-4.66-.55c-6.51,1.71-13.66,3.91-14.26,4.61-.77,1-12.52,18.87-18.63,28.2a.43.43,0,0,1-.15.15l-52,32.88a.5.5,0,0,1-.38.06.46.46,0,0,1-.31-.23c-.23-.38-22.77-38.42-29.7-48s-22.33-16-22.49-16l-6.48-4c-2.12-.36-38.8-6.33-63.94,4l0,0c-9.87,2.9-25.8,7.83-27.24,8.91-.8,4.72-16.85,88.54-17.86,90.55-.08.23.11,1.38,1.26,3.51,2.6,4.78,8,10.86,14.88,12.26,9.77,2,16.79-4.67,17.34-5.22l3.48-5.63a.52.52,0,0,1,.51-.23.53.53,0,0,1,.41.39l4,18.37a.38.38,0,0,1,0,.15ZM177.28,266.83a.43.43,0,0,1,0,.12A.25.25,0,0,0,177.28,266.83Zm27.07-9.19h0Z" style="fill:#263238"></path><path d="M308.66,375.2s-6.85-3.16-17-18.38c-9.14-13.67-27.57-39.19-27.57-39.19" style="fill:#fff"></path><path d="M308.66,375.7a.54.54,0,0,1-.21-.05c-.28-.13-7.09-3.39-17.23-18.55-9-13.51-27.37-38.92-27.55-39.17a.49.49,0,0,1,.11-.7.51.51,0,0,1,.7.11c.18.26,18.53,25.68,27.57,39.2,9.95,14.88,16.75,18.17,16.82,18.2a.5.5,0,0,1,.24.67A.49.49,0,0,1,308.66,375.7Z" style="fill:#263238"></path><path d="M338,346.66a22.64,22.64,0,0,1,.69,3.27" style="fill:#fff"></path><path d="M338.69,350.43a.51.51,0,0,1-.5-.44,22.75,22.75,0,0,0-.67-3.2.5.5,0,0,1,1-.26,23.4,23.4,0,0,1,.71,3.33.5.5,0,0,1-.44.56Z" style="fill:#263238"></path><path d="M328,324.44a161.44,161.44,0,0,1,8.29,17.3" style="fill:#fff"></path><path d="M336.33,342.24a.51.51,0,0,1-.47-.32,162.43,162.43,0,0,0-8.25-17.24.5.5,0,0,1,.19-.68.51.51,0,0,1,.68.19,164.45,164.45,0,0,1,8.32,17.37.5.5,0,0,1-.29.65A.57.57,0,0,1,336.33,342.24Z" style="fill:#263238"></path><path d="M258.67,369.73a59.78,59.78,0,0,0,5.4,2.76" style="fill:#fff"></path><path d="M264.07,373a.45.45,0,0,1-.2,0c-1.77-.79-3.6-1.73-5.45-2.78a.51.51,0,0,1-.18-.69.49.49,0,0,1,.68-.18c1.81,1,3.62,2,5.36,2.74a.5.5,0,0,1,.25.66A.52.52,0,0,1,264.07,373Z" style="fill:#263238"></path><path d="M224.89,339.25s12,15.45,27.3,26.31" style="fill:#fff"></path><path d="M252.19,366.06a.52.52,0,0,1-.29-.09c-15.21-10.78-27.29-26.26-27.41-26.41a.5.5,0,0,1,.79-.61c.12.15,12.11,15.51,27.2,26.21a.5.5,0,0,1,.11.69A.48.48,0,0,1,252.19,366.06Z" style="fill:#263238"></path><line x1="196.78" y1="362.76" x2="190.56" y2="343.85" style="fill:#fff"></line><path d="M196.78,363.26a.5.5,0,0,1-.48-.34L190.09,344a.5.5,0,0,1,.32-.63.51.51,0,0,1,.63.32l6.22,18.92a.51.51,0,0,1-.32.63A.47.47,0,0,1,196.78,363.26Z" style="fill:#263238"></path><path d="M226.51,348.44S240,364.66,248.13,369" style="fill:#fff"></path><path d="M248.13,369.48a.53.53,0,0,1-.24-.06c-8.1-4.32-21.21-20-21.77-20.66a.5.5,0,0,1,.77-.64c.14.16,13.54,16.19,21.47,20.42a.5.5,0,0,1,.21.68A.52.52,0,0,1,248.13,369.48Z" style="fill:#263238"></path><path d="M179.48,307.91S153.54,276,144.89,266.56s-16.75-16.76-25.13-14.06-12.16,14.6-5.67,24.06,49.72,62.69,54.85,66.48,9.73,4,11.08,3.51,75.67-68.1,75.67-68.1,8.65-1.89,10.27-3.51,7.57-11.9,8.65-12.44,4.86-1.08,6.22-1.89.27-3-1.36-3.51a49.69,49.69,0,0,1-5.13-2.43s-1.62-3.52-3.78-3.79-8.65-1.35-8.65-1.35-1.89-4.59-4.05-3.51-5.68,3.24-8.11,9.73-4.33,12.7-5.41,15.4S179.48,307.91,179.48,307.91Z" style="fill:#fff"></path><path d="M178.51,347.26c-2.18,0-5.81-.84-9.86-3.82-5.26-3.87-48.36-56.95-55-66.6a18.25,18.25,0,0,1-2.47-16.09,13.43,13.43,0,0,1,8.41-8.72c9-2.92,17.63,5.41,25.65,14.19s31.61,37.68,34.35,41c25.29-13.51,63-34.19,64.28-36.32.47-1.2,1.12-3.1,1.93-5.51,1-2.82,2.13-6.32,3.46-9.87,2.41-6.42,5.92-8.78,8.35-10a2,2,0,0,1,1.63-.08c1.52.57,2.64,2.79,3,3.59,1.25.21,6.48,1.07,8.36,1.31,2.16.27,3.74,3.19,4.1,3.91a45.8,45.8,0,0,0,4.91,2.32,3.49,3.49,0,0,1,2.3,2.68,1.73,1.73,0,0,1-.85,1.74,16.26,16.26,0,0,1-3.86,1.23,15.08,15.08,0,0,0-2.39.68c-.5.31-2.66,3.68-4.24,6.14a59.64,59.64,0,0,1-4.27,6.2c-1.62,1.61-9,3.32-10.39,3.62-12.65,11.5-74.36,67.56-75.72,68.1A4.68,4.68,0,0,1,178.51,347.26Zm-55.12-94.83a11.39,11.39,0,0,0-3.48.55,12.42,12.42,0,0,0-7.76,8.09,17.24,17.24,0,0,0,2.35,15.2c6,8.83,49.61,62.59,54.74,66.36s9.58,3.86,10.6,3.46c1.65-1,50.12-44.93,75.52-68a.46.46,0,0,1,.23-.12c2.36-.52,8.77-2.13,10-3.38a61.16,61.16,0,0,0,4.14-6c2.74-4.27,4-6.18,4.64-6.49a14.77,14.77,0,0,1,2.6-.76,16.57,16.57,0,0,0,3.58-1.12.73.73,0,0,0,.36-.77,2.49,2.49,0,0,0-1.61-1.84,47.72,47.72,0,0,1-5.22-2.46.52.52,0,0,1-.21-.23c-.42-.91-1.85-3.31-3.4-3.5-2.14-.27-8.6-1.34-8.66-1.35a.5.5,0,0,1-.38-.31c-.32-.77-1.4-2.86-2.55-3.29a.94.94,0,0,0-.82,0c-2.47,1.23-5.6,3.43-7.86,9.45-1.33,3.54-2.51,7-3.45,9.84-.82,2.42-1.47,4.34-2,5.58-1.1,2.73-54.41,31.31-65.09,37a.49.49,0,0,1-.62-.13c-.26-.32-26-32-34.58-41.33C136.44,258.06,129.86,252.43,123.39,252.43Z" style="fill:#263238"></path><path d="M234.09,277.84l9.64,11.47,5.71-5.18-8.15-10.65C239.51,274.63,237,276.12,234.09,277.84Z" style="fill:#263238"></path><path d="M243.73,289.81h0a.5.5,0,0,1-.35-.18l-9.65-11.47a.54.54,0,0,1-.11-.41.53.53,0,0,1,.24-.34c3.08-1.8,5.5-3.26,7.19-4.35a.51.51,0,0,1,.67.11l8.14,10.66a.5.5,0,0,1-.06.67l-5.7,5.18A.51.51,0,0,1,243.73,289.81ZM234.85,278l8.93,10.62,5-4.52-7.59-9.92C239.6,275.15,237.47,276.44,234.85,278Z" style="fill:#263238"></path><path d="M322.44,250.88S300,257.1,296,261.15s-47,44.05-47,44.05-31.62-10.54-37.57-15.13S198.67,279,198.67,279s1.08-13.78,0-15.13-3-4.87-5.94-7.57-6.22-2.16-7.3-.81a10.68,10.68,0,0,0-1.62,3.24s-6.22-1.62-8.65,0S173,263,173,264.67s-3,9.72-3.51,12.7,3,7,7,9.73,11.08,6.21,13.51,7.56,41.62,36.49,41.62,36.49a18.1,18.1,0,0,0,11.89,3.78c3.52-.13,61.89-33.51,61.89-33.51l12.43-4.87" style="fill:#263238"></path><path d="M242.83,335.44a18.34,18.34,0,0,1-11.52-3.92c-13.54-12.14-39.64-35.37-41.53-36.42-.62-.35-1.55-.84-2.66-1.42-3.13-1.65-7.86-4.15-10.89-6.17-4-2.69-7.84-6.9-7.24-10.23.26-1.42,1-3.95,1.81-6.4a42.86,42.86,0,0,0,1.7-6.21v-.44c0-1.71-.05-4.29,2.39-5.93,2.22-1.47,7.07-.52,8.6-.17a10.42,10.42,0,0,1,1.56-3,3.87,3.87,0,0,1,2.76-1.29,7,7,0,0,1,5.26,2A31.5,31.5,0,0,1,198,262c.42.64.79,1.19,1.08,1.55,1.09,1.37.4,11.72.13,15.25,1.09,1,7.15,6.76,12.49,10.88,5.51,4.27,34,13.9,37.13,15,3.32-3.09,42.94-40,46.8-43.83,4.1-4.1,25.78-10.14,26.7-10.4a.5.5,0,1,1,.27,1c-.23.06-22.35,6.22-26.27,10.14s-46.6,43.66-47,44.06a.54.54,0,0,1-.5.11c-1.3-.43-31.77-10.62-37.71-15.22s-12.68-11-12.74-11.11a.5.5,0,0,1-.16-.4c.53-6.66.71-14,.11-14.78-.32-.4-.69-1-1.13-1.62a31.35,31.35,0,0,0-4.76-5.89,5.91,5.91,0,0,0-4.51-1.78,3,3,0,0,0-2.06.91,10.11,10.11,0,0,0-1.53,3.07.49.49,0,0,1-.61.34c-1.67-.43-6.4-1.29-8.24-.06-2,1.33-2,3.49-1.95,5.07v.46a38.58,38.58,0,0,1-1.74,6.51c-.76,2.42-1.54,4.92-1.78,6.28-.52,2.87,3.16,6.79,6.81,9.22,3,2,7.69,4.47,10.8,6.11,1.11.59,2,1.09,2.68,1.44,2.45,1.36,40.1,35.11,41.71,36.54a17.59,17.59,0,0,0,11.53,3.66c2.5-.09,38.24-20.05,61.66-33.44l12.5-4.9a.51.51,0,0,1,.65.28.5.5,0,0,1-.29.65l-12.43,4.86c-5.92,3.4-58.51,33.42-62.05,33.55Z" style="fill:#263238"></path><path d="M211.37,290.07c-5.94-4.6-12.7-11.08-12.7-11.08s1.08-13.78,0-15.13-3-4.87-5.94-7.57-6.22-2.16-7.3-.81a10.68,10.68,0,0,0-1.62,3.24s-6.22-1.62-8.65,0S173,263,173,264.67s-3,9.72-3.51,12.7,3,7,7,9.73,11.08,6.21,13.51,7.56c.93.52,7.23,6,14.65,12.5.56-2,1.39-4.59,2.65-7.9,1.78-4.7,3.61-7.19,5.06-8.51C212,290.51,211.65,290.28,211.37,290.07Z" style="fill:#fff"></path><path d="M204.67,307.66a.5.5,0,0,1-.33-.12c-11.06-9.74-14-12.14-14.56-12.44s-1.55-.84-2.66-1.42c-3.13-1.65-7.86-4.15-10.89-6.17-4-2.69-7.84-6.9-7.24-10.23.26-1.42,1-3.95,1.81-6.4a42.86,42.86,0,0,0,1.7-6.21v-.44c0-1.71-.05-4.29,2.39-5.93,2.22-1.47,7.07-.52,8.6-.17a10.42,10.42,0,0,1,1.56-3,3.87,3.87,0,0,1,2.76-1.29,7,7,0,0,1,5.26,2A31.5,31.5,0,0,1,198,262c.42.64.79,1.19,1.08,1.55,1.09,1.37.4,11.72.13,15.25,1.09,1,7.15,6.76,12.49,10.88a10.08,10.08,0,0,0,1,.66.51.51,0,0,1,.23.38.53.53,0,0,1-.16.41c-1.25,1.13-3.11,3.5-4.93,8.31-1.1,2.91-2,5.56-2.64,7.87a.49.49,0,0,1-.34.34A.32.32,0,0,1,204.67,307.66ZM178.48,258.5a5.73,5.73,0,0,0-3,.64c-2,1.33-2,3.49-1.95,5.07v.46a38.58,38.58,0,0,1-1.74,6.51c-.76,2.42-1.54,4.92-1.78,6.28-.52,2.87,3.16,6.79,6.81,9.22,3,2,7.69,4.47,10.8,6.11,1.11.59,2,1.09,2.68,1.44.31.17,1.24.69,14.14,12,.63-2.15,1.45-4.56,2.44-7.18a24.22,24.22,0,0,1,4.73-8.25l-.51-.36h0c-5.9-4.55-12.68-11-12.74-11.11a.5.5,0,0,1-.16-.4c.53-6.66.71-14,.11-14.78-.32-.4-.69-1-1.13-1.62a31.35,31.35,0,0,0-4.76-5.89,5.91,5.91,0,0,0-4.51-1.78,3,3,0,0,0-2.06.91,10.11,10.11,0,0,0-1.53,3.07.49.49,0,0,1-.61.34A23.64,23.64,0,0,0,178.48,258.5Z" style="fill:#263238"></path><path d="M209.21,286.56s-4.32-.54-8.38,4.86a90.32,90.32,0,0,0-7.29,11.89l14.59,8.11a18.65,18.65,0,0,1,4.05-10.54,25.36,25.36,0,0,1,8.11-7Z" style="fill:#92E3A9"></path><path d="M208.13,311.92a.5.5,0,0,1-.24-.06l-14.6-8.11a.5.5,0,0,1-.2-.66,90.83,90.83,0,0,1,7.34-12c4.18-5.57,8.65-5.09,8.84-5.06a.58.58,0,0,1,.22.08l11.08,7.29a.52.52,0,0,1,.22.46.5.5,0,0,1-.29.42,24.93,24.93,0,0,0-7.92,6.88,18.36,18.36,0,0,0-4,10.23.48.48,0,0,1-.25.43A.52.52,0,0,1,208.13,311.92Zm-13.93-8.81,13.48,7.48a19.46,19.46,0,0,1,4.11-10,27.47,27.47,0,0,1,7.53-6.76L209,287c-.68,0-4.3,0-7.81,4.68A89.87,89.87,0,0,0,194.2,303.11Z" style="fill:#263238"></path><path d="M368.93,163.32s-3.25-8.64-11.35-10.81-9.46-1.89-8.11.55a40,40,0,0,0,5.13,6.21s-12.7-3.78-18.37-1.62-3,5.67-3,5.67-11.35,4.06-18.37,10.81-14.6,19.19-13.79,21.08,6-.81,6-.81-7,17.84-5.41,20.27,5.41-.27,5.41-.27-5.13,26.75.27,31.89,6.22,1.89,6.22,1.89,7.83,9.46,18.37,12.43,12.7-.54,12.7-.54-.81,5.14,2.71,4.6,13.51-6.22,13.51-6.22-.54,5.68,5.4,3.24,14.6-4.05,23.78-14.59,10.81-25.4,10.81-25.4,1.36,5.4,3.25,2.43,4.86-12.43,3.24-19.73-1.89-9.19-1.89-9.19,5.13.54,5.13-2.43-6.48-14.05-16.21-21.08S373,164.14,373,164.14s3.51-4.33,1.08-4.33S368.93,163.32,368.93,163.32Z" style="fill:#525252"></path><path d="M346.81,265.21a2.43,2.43,0,0,1-1.79-.71,4.75,4.75,0,0,1-1-3.27c-1.49.91-4.94,1.93-12.25-.14-9.11-2.57-16.3-10-18.16-12a2,2,0,0,1-.89.57c-1.35.39-3.28-.61-5.75-3-5-4.72-1.54-26.1-.62-31.26a5.57,5.57,0,0,1-3.35.74,2.61,2.61,0,0,1-1.78-1.18c-1.52-2.28,3.12-14.93,4.9-19.56-1.3.57-3.35,1.29-4.56.86a1.5,1.5,0,0,1-.93-.84c-1-2.36,7.31-15.3,13.9-21.64,6.12-5.89,15.59-9.78,18-10.7a3.63,3.63,0,0,1-.29-2.58c.39-1.38,1.68-2.49,3.82-3.31,4.54-1.73,13.21.17,16.94,1.13a31.6,31.6,0,0,1-4-5c-.39-.7-.78-1.59-.29-2.22.71-.91,2.81-.69,9,.95,6.92,1.85,10.35,8.13,11.37,10.35.95-1.06,3-3.07,5-3.07a1.24,1.24,0,0,1,1.24.65c.46,1-.59,2.68-1.37,3.75,3,.31,12.54,1.7,20.69,7.59,9.65,7,16.42,18.1,16.42,21.48a2.44,2.44,0,0,1-.82,1.89c-1.13,1-3.16,1.1-4.21,1.08.18,1,.65,3.48,1.78,8.54,1.63,7.36-1.24,16.86-3.31,20.11-.53.84-1.12,1.21-1.76,1.11s-1.32-.94-1.72-1.78c-.8,4.44-3.42,15.44-10.62,23.7-7.72,8.85-14.94,11.44-20.74,13.52-1.15.41-2.23.8-3.23,1.21-2.05.83-3.63.85-4.71,0a4,4,0,0,1-1.38-2.91c-2.4,1.33-9.9,5.39-12.94,5.86A3.88,3.88,0,0,1,346.81,265.21Zm-2.21-5.63a.57.57,0,0,1,.18,0,.51.51,0,0,1,.32.54c-.12.73-.22,2.79.63,3.65a1.65,1.65,0,0,0,1.5.37c3.38-.52,13.24-6.1,13.34-6.15a.49.49,0,0,1,.52,0,.51.51,0,0,1,.23.47s-.18,2.06,1,2.91c.78.58,2,.52,3.74-.18,1-.42,2.11-.81,3.27-1.22,5.69-2,12.78-4.58,20.33-13.24,9-10.29,10.67-25,10.69-25.13a.5.5,0,0,1,1-.06c.34,1.35,1.05,2.85,1.58,2.94.19,0,.47-.21.76-.66,1.93-3,4.72-12.36,3.17-19.35-1.6-7.23-1.89-9.15-1.9-9.23a.5.5,0,0,1,.55-.56c.8.08,3.1.1,4.09-.8a1.46,1.46,0,0,0,.49-1.14c0-2.7-6.21-13.6-16-20.67-9.49-6.86-21-7.47-21.08-7.48a.5.5,0,0,1-.44-.29.52.52,0,0,1,.07-.52c1.16-1.42,2-3,1.81-3.43,0,0-.13-.08-.34-.08-1.79,0-4,2.4-4.74,3.32a.5.5,0,0,1-.86-.13c0-.08-3.26-8.43-11-10.5-4.91-1.31-7.57-1.75-7.92-1.3,0,0-.14.19.37,1.11a40.46,40.46,0,0,0,5.06,6.11.5.5,0,0,1,.07.61.51.51,0,0,1-.57.22c-.13,0-12.61-3.71-18.06-1.63-1.83.69-2.91,1.58-3.21,2.65a2.82,2.82,0,0,0,.46,2.25.48.48,0,0,1,.08.45.47.47,0,0,1-.31.32c-.11.05-11.33,4.1-18.2,10.7-7.24,7-14.3,19-13.67,20.53a.53.53,0,0,0,.34.29c1,.36,3.56-.64,4.92-1.35a.48.48,0,0,1,.56.07.51.51,0,0,1,.14.56c-2.68,6.8-6.53,18.19-5.46,19.8a1.68,1.68,0,0,0,1.13.76c1.53.29,3.55-1.14,3.57-1.16a.52.52,0,0,1,.56,0,.49.49,0,0,1,.22.51c0,.27-5,26.55.12,31.44,2.87,2.72,4.23,2.87,4.78,2.72a.88.88,0,0,0,.61-.6.49.49,0,0,1,.38-.35.5.5,0,0,1,.49.16c.08.1,7.87,9.38,18.13,12.27,9.93,2.8,12.12-.3,12.14-.33A.52.52,0,0,1,344.6,259.58Z" style="fill:#263238"></path><path d="M402.71,254.94s15.4,9.19,24.86,23.24,34.59,55.94,34.59,55.94l32.43,1.62,2.16,17.57s-44.86,13.78-50,13.24S399.19,309,397.3,307.91" style="fill:#263238"></path><path d="M447.06,367.06a2.06,2.06,0,0,1-.36,0c-3.41-.35-19.95-21.15-38.06-44.27-5.88-7.51-10.95-14-11.6-14.44a.51.51,0,0,1-.15-.68.49.49,0,0,1,.66-.18c.63.36,3.76,4.31,11.87,14.68,11.92,15.22,34.11,43.56,37.39,43.9,4,.44,33.8-8.31,49.39-13.1l-2.06-16.73-32-1.6a.52.52,0,0,1-.4-.24c-.25-.42-25.23-42-34.58-55.92s-24.55-23-24.7-23.09a.5.5,0,0,1-.17-.69.49.49,0,0,1,.68-.17c.16.09,15.61,9.41,25,23.39,9,13.36,32.45,52.37,34.47,55.73l32.16,1.61a.5.5,0,0,1,.48.44l2.16,17.56a.5.5,0,0,1-.35.54C495.1,354.34,453.61,367.06,447.06,367.06Z" style="fill:#263238"></path><path d="M494.59,335.74s7.3-1.08,11.62-3.24a24.63,24.63,0,0,0,8.11-7c1.08-1.35.48-2.16,4-4.32s6.61-4,7.69-5.37,2-1.6,2,1.38-3.94,5.88-4.48,6.69a12.9,12.9,0,0,0-1.09,2.43l17-.54s6.22-.81,6.76-.27-.27,1.89-1.09,2.43-5.28,1.1-5.28,1.1l-4.49.75,1.5,1.38,11.23-.88s.87.63.62,1.37l-.25.75-10.6,2.37a16.21,16.21,0,0,1-1.62.25,17,17,0,0,0,5.86,1.62c2.49,0,5.74,0,5.74.63s.25.87-.63,1.24-6.23.63-8,.75-2.24.25-2.74.25a37.46,37.46,0,0,0,7.23,2.37c1.12,0,1.75,1,1,1.62a4,4,0,0,1-1.87.75s-6-1.12-6.86-1.12-14.72.75-17.47.87l-2.74.13-4-.38-7.86,4.62-2.62,1.5Z" style="fill:#fff"></path><path d="M501.3,350.34l-.15,0a.48.48,0,0,1-.3-.26L494.14,336a.49.49,0,0,1,.38-.71c.07,0,7.26-1.1,11.47-3.2a23.85,23.85,0,0,0,7.81-6.74l.13-.15a5.4,5.4,0,0,0,.6-1c.44-.9.9-1.83,3.52-3.44l.72-.44c3.16-1.94,5.89-3.62,6.84-4.81.48-.6,1.2-1.36,1.94-1.1s.94,1.09.94,2.79c0,2.48-2.36,4.77-3.78,6.15a8.6,8.6,0,0,0-.79.82,8.75,8.75,0,0,0-.77,1.63l16.28-.52c4.24-.55,6.66-.6,7.13-.12a1.16,1.16,0,0,1,.31,1,3.51,3.51,0,0,1-1.47,2.22c-.86.58-4.73,1.08-5.49,1.18l-3.46.58.58.53,11-.86a.63.63,0,0,1,.33.09,1.84,1.84,0,0,1,.8,1.94l-.24.75a.51.51,0,0,1-.37.33c-.1,0-9.44,2.1-10.51,2.35a12.77,12.77,0,0,0,4,.9c4.83,0,6.24.15,6.24,1.13,0,.1,0,.2,0,.29.06.64-.07,1-.94,1.41a39.71,39.71,0,0,1-6.79.71l-1.35.08-.76.06a33.26,33.26,0,0,0,5.21,1.56,1.8,1.8,0,0,1,1.75,1.07,1.26,1.26,0,0,1-.43,1.44,4.59,4.59,0,0,1-2.14.86h-.14c-2.39-.44-6.17-1.11-6.77-1.11s-6.1.29-10.58.52l-6.86.35-2.75.13-3.9-.36-10.34,6A.55.55,0,0,1,501.3,350.34Zm-6-14.21,6.19,13,2.15-1.23,7.86-4.61a.51.51,0,0,1,.3-.06l4,.37,2.67-.13,6.86-.35c5-.25,10.08-.52,10.63-.52.86,0,6,.95,6.87,1.12a3.51,3.51,0,0,0,1.54-.63c.19-.16.15-.28.13-.33a.84.84,0,0,0-.81-.41c-.08,0-7.76-1.93-7.76-2.86a.57.57,0,0,1,.16-.36.54.54,0,0,1,.37-.15,6,6,0,0,0,.75-.06c.42-.05,1-.12,2-.19l1.36-.08A50.5,50.5,0,0,0,547,338c.3-.12.35-.2.35-.2a.74.74,0,0,0,0-.2c0-.07,0-.14,0-.21a25.61,25.61,0,0,0-5.24-.3,17.29,17.29,0,0,1-6.08-1.67.49.49,0,0,1,.16-.94c.3,0,1.17-.15,1.56-.24s8.68-1.94,10.34-2.31l.16-.48c.08-.26-.16-.55-.32-.7l-11,.85a.48.48,0,0,1-.38-.13L535,330.12a.49.49,0,0,1,.25-.86l4.49-.75a24.73,24.73,0,0,0,5.09-1,2.61,2.61,0,0,0,1-1.49s0-.14,0-.18a32.15,32.15,0,0,0-6.34.42l-17.07.54a.52.52,0,0,1-.42-.2.5.5,0,0,1-.07-.46,13.58,13.58,0,0,1,1.14-2.55,8.08,8.08,0,0,1,.93-1c1.3-1.26,3.47-3.38,3.47-5.43,0-1.51-.24-1.82-.28-1.85a2.59,2.59,0,0,0-.82.79c-1.06,1.32-3.86,3-7.1,5l-.72.44c-2.37,1.46-2.75,2.22-3.15,3a5.5,5.5,0,0,1-.71,1.18l-.12.15a24.86,24.86,0,0,1-8.16,7C502.81,334.76,497.24,335.81,495.33,336.13Z" style="fill:#263238"></path><path d="M478.1,334.39s5.95,14.32,5.95,17.84.27,7.83.27,7.83,5.67-1.08,11.35-1.62a21,21,0,0,0,8.65-2.43s0-10.81-3.24-15.95a75.5,75.5,0,0,0-4.6-6.75Z" style="fill:#92E3A9"></path><path d="M484.32,360.56a.5.5,0,0,1-.31-.1.52.52,0,0,1-.19-.37s-.27-4.38-.27-7.86-5.85-17.51-5.91-17.65a.5.5,0,0,1,0-.46.52.52,0,0,1,.4-.23l18.37-1.08a.47.47,0,0,1,.41.18,71.47,71.47,0,0,1,4.64,6.81c3.28,5.19,3.32,15.76,3.32,16.21a.5.5,0,0,1-.23.42c-.13.08-3.14,2-8.87,2.51s-11.25,1.6-11.31,1.61Zm-5.49-25.71c1.18,2.87,5.72,14.2,5.72,17.38,0,2.71.16,5.95.24,7.24,1.57-.29,6.23-1.09,10.83-1.53a21.84,21.84,0,0,0,8.19-2.22c0-1.74-.32-10.9-3.16-15.39-2.58-4.08-4-5.94-4.4-6.51Z" style="fill:#263238"></path><path d="M438.38,176.63s-6.09,13.54-2.71,21.44,2.49,8.12,2,10.6-6.55,9-5.65,10.84,6.32,2.93,6.32,2.93,5.87,14,9.48,17.6a6.11,6.11,0,0,0,7.67.9l5.19-1.58,4.06,9.25,35.43-14-9.48-15.79s5-3.84,3.61-18.28-21.43-30-34.3-30.46S440.64,172.57,438.38,176.63Z" style="fill:#fff"></path><path d="M464.78,249.11a.49.49,0,0,1-.45-.29L460.44,240l-4.7,1.43a6.62,6.62,0,0,1-8.23-1c-3.42-3.42-8.67-15.59-9.49-17.52-1.2-.27-5.51-1.35-6.4-3.14-.6-1.2.71-3.27,2.94-6.55,1.22-1.78,2.48-3.63,2.65-4.6.07-.35.14-.66.21-1,.4-1.69.64-2.72-2.21-9.36-3.43-8,2.46-21.28,2.72-21.84a.05.05,0,0,1,0,0c1.88-3.39,7.24-7.32,22.11-6.8,13.22.46,33.43,16.53,34.78,30.91,1.18,12.54-2.34,17.25-3.47,18.42l9.27,15.45a.49.49,0,0,1,0,.41.47.47,0,0,1-.29.31l-35.42,14A.63.63,0,0,1,464.78,249.11Zm-4.06-10.25a.51.51,0,0,1,.46.3l3.87,8.81,34.43-13.59-9.18-15.29a.51.51,0,0,1,.13-.66s4.72-3.92,3.41-17.83-21-29.56-33.81-30c-11.2-.39-18.72,1.83-21.2,6.27-.25.57-5.9,13.54-2.7,21,3,6.95,2.7,8.16,2.26,10-.06.28-.13.57-.19.9-.22,1.18-1.48,3-2.81,5s-3.26,4.77-2.88,5.53c.58,1.16,4,2.25,6,2.67a.46.46,0,0,1,.36.3c.06.13,5.87,13.94,9.37,17.44a5.57,5.57,0,0,0,7.05.84l.13-.07,5.19-1.58Z" style="fill:#263238"></path><path d="M444.58,224.75h-.13a.49.49,0,0,1-.47-.52.5.5,0,0,1,.52-.48c.19,0,4.7.13,7.43-4.92a.5.5,0,0,1,.68-.21.51.51,0,0,1,.2.68C450,224.5,445.42,224.75,444.58,224.75Z" style="fill:#263238"></path><path d="M444.91,207c.28,1.54,0,2.88-.72,3s-1.44-1-1.73-2.55,0-2.87.72-3S444.62,205.45,444.91,207Z" style="fill:#263238"></path><path d="M439.74,202.4a.44.44,0,0,1-.16,0,.5.5,0,0,1-.32-.63,4.59,4.59,0,0,1,2.4-2.67,4.85,4.85,0,0,1,4.18.58.5.5,0,0,1,.2.68.51.51,0,0,1-.68.2A3.92,3.92,0,0,0,442,200a3.61,3.61,0,0,0-1.83,2.05A.49.49,0,0,1,439.74,202.4Z" style="fill:#263238"></path><path d="M441.09,176.18s-10.15,5.42-7.45,9,13.32-5,13.32-5-4.06,4.52,0,8.35,11.51,6.77,11.51,6.77,2,5.19,3.38,4.51,2.93-5.86,2.93-5.86,8.35-4.06,10.16,5,1.8,12.19-.23,14-6.09,2-6.09,2,2,4.06,7.9,8.35,11.05,4.06,13.76,2.26,6.09-4.06,7.67-5.87,3.39-6.32,3.39-6.32,12-13.31,9.93-28.2-10.16-16.7-10.16-16.7-5.41-16.92-22.56-21.44-25.73-.45-25.5,2.26a4.5,4.5,0,0,0,1.8,3.61s-12.86-.9-21,6.77-9,13.76-6.77,15.57S441.09,176.18,441.09,176.18Z" style="fill:#263238"></path><path d="M485.77,227.32a16.43,16.43,0,0,1-9.55-3.57c-5.89-4.31-8-8.36-8.05-8.53a.51.51,0,0,1,0-.48.5.5,0,0,1,.4-.25s3.92-.24,5.79-1.9,1.84-4.66.07-13.52c-.5-2.49-1.56-4.15-3.14-4.93-2.38-1.19-5.34-.09-6.12.23-.39,1.26-1.74,5.26-3.12,5.95a1.11,1.11,0,0,1-.91,0c-1.33-.51-2.67-3.59-3.08-4.6-1.25-.51-7.71-3.25-11.47-6.79a5.69,5.69,0,0,1-1.4-6.78c-2.65,1.88-7.21,4.74-10,4.38a2.71,2.71,0,0,1-2.4-3.35c.54-2.44,4.06-5,6.28-6.4-3.58.17-10.44.31-12.25-1.14a3.67,3.67,0,0,1-1.25-2.84c-.07-1.72.56-6.47,8-13.48,6.76-6.39,16.56-6.93,20.07-6.95a5.86,5.86,0,0,1-1.05-3,2.57,2.57,0,0,1,1.16-2.18c3.23-2.72,12.21-4,25-.6,16.05,4.22,22,19.34,22.83,21.51,1.5.47,8.4,3.35,10.26,17,2,14.4-9.07,27.48-10,28.54-.26.64-1.92,4.64-3.44,6.38s-5,4.13-7.77,5.95A8.58,8.58,0,0,1,485.77,227.32Zm-16.32-11.91a28.57,28.57,0,0,0,7.36,7.53c5.83,4.26,10.75,3.87,13.19,2.24,2.69-1.79,6-4,7.58-5.78s3.28-6.13,3.29-6.17a.56.56,0,0,1,.1-.15c.11-.13,11.78-13.32,9.8-27.81C508.82,171,501.08,169,501,169a.5.5,0,0,1-.36-.34c-.06-.16-5.55-16.72-22.22-21.1-14.18-3.74-21.8-1.51-24.07.39a1.77,1.77,0,0,0-.8,1.34,4,4,0,0,0,1.56,3.22.5.5,0,0,1,.22.58.52.52,0,0,1-.51.35c-.13,0-12.74-.8-20.61,6.63-4.94,4.67-7.81,9.42-7.67,12.72a2.76,2.76,0,0,0,.87,2.1c1.73,1.38,10.43,1,13.64.79a.51.51,0,0,1,.52.36.49.49,0,0,1-.24.58c-1.92,1-7,4.24-7.59,6.81a1.7,1.7,0,0,0,.3,1.48,1.73,1.73,0,0,0,1.24.66c3.68.46,11.29-5.65,11.36-5.72a.5.5,0,0,1,.69.73c-.15.17-3.68,4.2,0,7.65,3.94,3.72,11.27,6.64,11.35,6.67a.48.48,0,0,1,.28.28c.62,1.58,1.84,3.95,2.59,4.24a.15.15,0,0,0,.11,0c.8-.4,2-3.5,2.67-5.57a.55.55,0,0,1,.26-.3c.17-.08,4-1.91,7.19-.32,1.88.93,3.12,2.83,3.68,5.63,1.88,9.42,1.8,12.52-.39,14.47C473.45,214.75,470.78,215.25,469.45,215.41Z" style="fill:#263238"></path><path d="M545.11,243.2s-3.38-7-5.64-7.9-14.66-5-17.6-5.41-8.35,1.35-10.83,2.7-2.71,4.74-.9,4.74h8.8a18,18,0,0,0,7,6.55c5,2.7,9.26,4.73,9.26,4.73s16.24,69.5,19.18,74,13.76,14.66,16.92,13.31,8.57-19.63,10.6-33.85,5-47.38,1.58-57.54-10.38-16.47-18.72-14-11.29,9.25-11.51,12.86-1.58,12.41-1.58,12.41Z" style="fill:#fff"></path><path d="M570.63,336.56c-4.37,0-14.24-9.9-16.68-13.66-2.89-4.45-18-68.79-19.2-73.94-.93-.45-4.76-2.3-9.06-4.65a18.74,18.74,0,0,1-7-6.48h-8.51a1.61,1.61,0,0,1-1.61-1.31,4.27,4.27,0,0,1,2.27-4.37c2.62-1.42,8.1-3.23,11.15-2.76s15.55,4.58,17.71,5.45c2.36.94,5.53,7.37,5.9,8.13l5.83,11.26c.4-2.68,1.18-8.19,1.35-10.84.21-3.44,3-10.66,11.86-13.31,8-2.39,15.65,3.22,19.35,14.31,3.31,9.94.62,42.53-1.56,57.77-1.81,12.68-7.19,32.65-10.9,34.24A2.16,2.16,0,0,1,570.63,336.56ZM520.85,230.31a24.61,24.61,0,0,0-9.57,2.72,3.27,3.27,0,0,0-1.78,3.25c.14.55.52.55.64.55h8.8a.5.5,0,0,1,.44.27,17.8,17.8,0,0,0,6.79,6.34c4.9,2.67,9.19,4.7,9.23,4.72a.49.49,0,0,1,.27.34c.17.69,16.26,69.46,19.11,73.85,3.21,4.94,13.7,14.27,16.31,13.13,2.81-1.2,8.2-18.71,10.31-33.46,2.17-15.16,4.86-47.53,1.6-57.31C579.44,234,572.49,228.78,564.89,231c-8.36,2.49-10.95,9.21-11.15,12.42-.23,3.59-1.53,12.09-1.59,12.45a.51.51,0,0,1-.41.42.49.49,0,0,1-.53-.27l-6.54-12.63h0c-.91-1.9-3.67-7-5.37-7.65-2.14-.86-14.53-4.93-17.49-5.39A5.65,5.65,0,0,0,520.85,230.31Z" style="fill:#263238"></path><path d="M578.32,306.48a.51.51,0,0,1-.49-.4,63,63,0,0,0-1.9-6.47c-1.5-4.51-24.47-43.13-24.7-43.52a.49.49,0,0,1,.17-.68.5.5,0,0,1,.69.17c.95,1.59,23.25,39.1,24.79,43.71a60.11,60.11,0,0,1,1.93,6.59.5.5,0,0,1-.39.59Z" style="fill:#263238"></path><path d="M545.11,243.2s-.7-1.46-1.68-3.13l0,.25,2.21,3.8Z" style="fill:#92E3A9"></path><path d="M545.59,244.62a.49.49,0,0,1-.43-.24L543,240.57a.5.5,0,0,1-.06-.34l0-.25a.51.51,0,0,1,.41-.4.5.5,0,0,1,.52.24c.94,1.61,1.65,3.05,1.7,3.15l.48.93a.5.5,0,0,1-.21.66A.48.48,0,0,1,545.59,244.62Z" style="fill:#263238"></path><path d="M564.75,230.56c-8.35,2.48-11.29,9.25-11.51,12.86-.12,1.83-.52,5-.89,7.65,5.74-2.92,22.23-9.17,32.67,8.67,0-6.48-.48-12-1.55-15.19C580.09,234.4,573.09,228.08,564.75,230.56Z" style="fill:#fff"></path><path d="M585,260.24a.48.48,0,0,1-.43-.25c-10.08-17.22-25.75-11.67-32-8.48a.5.5,0,0,1-.72-.51c.33-2.44.76-5.73.88-7.61.21-3.44,3-10.66,11.86-13.31h0c8-2.39,15.65,3.22,19.35,14.31,1,3,1.53,8.17,1.57,15.35a.5.5,0,0,1-.37.48Zm-19.24-13.1c6.2,0,13.2,2.4,18.72,10.81-.11-6.14-.62-10.59-1.5-13.24C579.44,234,572.49,228.78,564.89,231h0c-8.36,2.49-10.95,9.21-11.15,12.42-.11,1.67-.45,4.43-.77,6.74A31.1,31.1,0,0,1,565.78,247.14Zm-1-16.58h0Z" style="fill:#263238"></path><path d="M463,244.33s-6.77,9-5.87,10.6,15.35,1.36,15.35,1.36,27.75,32,31.36,32.94,18.73-8.57,21-11.73,4.73-7.67,1.8-19.63-7.9-25.28-10.38-27.76-12-1.8-13.76-.45a20.89,20.89,0,0,0-3.39,3.38s-28.66,10.16-29.33,10.38S463,244.33,463,244.33Z" style="fill:#92E3A9"></path><path d="M504.34,289.79a3.06,3.06,0,0,1-.64-.07c-3.6-.9-28-28.9-31.47-32.93-4.55.06-14.62,0-15.55-1.61s3.8-8.36,5.9-11.15a.49.49,0,0,1,.34-.2c2.34-.26,6.21-.73,6.67-.88.64-.21,27.05-9.57,29.19-10.33a21.3,21.3,0,0,1,3.39-3.36c2-1.52,11.76-2.15,14.42.5s7.53,15.87,10.51,28c2.93,11.95.56,16.61-1.89,20C523.14,280.69,509.12,289.79,504.34,289.79Zm-31.88-34a.48.48,0,0,1,.37.17c11.12,12.83,28.58,32.15,31.11,32.79,3.32.83,18.27-8.49,20.46-11.54,2.32-3.25,4.56-7.68,1.73-19.23-2.89-11.76-7.87-25.13-10.25-27.52-2.23-2.22-11.46-1.64-13.11-.4a20.56,20.56,0,0,0-3.29,3.29.55.55,0,0,1-.23.17L469.91,243.9c-.66.22-5.27.74-6.66.9-3.48,4.66-6.08,9.16-5.7,9.88.63.82,8.22,1.21,14.9,1.11Z" style="fill:#263238"></path><path d="M517.49,278.47a1.9,1.9,0,0,1-1.08-.33c-.81-.54-4.36-4.14-10.07-10-7.61-7.76-17.08-17.43-19.48-18.89-3.94-2.41-17.09-5.33-17.22-5.36a.49.49,0,0,1-.38-.59.5.5,0,0,1,.6-.38c.54.12,13.44,3,17.52,5.47,2.51,1.53,12,11.25,19.67,19,4.7,4.8,9.15,9.34,9.91,9.85,1.33.88,3.92-2.14,4.73-3.26a.5.5,0,0,1,.7-.12.51.51,0,0,1,.12.7C522.18,275.08,519.69,278.47,517.49,278.47Z" style="fill:#263238"></path><path d="M509.69,263.56a.56.56,0,0,1-.27-.08.51.51,0,0,1-.16-.69c.05-.08,5.13-8.32,5.57-14.66s-4-13.4-5.43-14.45c-.95-.68-5.86.42-9,1.42a.49.49,0,0,1-.63-.33.5.5,0,0,1,.33-.62c1.36-.43,8.22-2.5,9.92-1.29s6.32,8.48,5.85,15.34c-.46,6.59-5.5,14.77-5.72,15.12A.5.5,0,0,1,509.69,263.56Z" style="fill:#263238"></path><path d="M502.15,253.07a66.5,66.5,0,0,1-11.29-1.26.49.49,0,0,1-.39-.59.5.5,0,0,1,.59-.39c.12,0,12.07,2.43,16.16.49s4.9-7,4.91-7.08a.5.5,0,0,1,.57-.41.5.5,0,0,1,.41.58c0,.23-1,5.7-5.47,7.82A13.87,13.87,0,0,1,502.15,253.07Z" style="fill:#263238"></path><path d="M425.54,274.68c-1.19-1.25-2.86-6.94-4.47-9.08a9.72,9.72,0,0,1-1.85-4.35s-.09-3.28-1.28-4.54-5.09-.71-5.09-.71-13.59,3.57-14.58,4.8S379.62,289,379.62,289l-42,26.56c3.55,4.08,9.35,10.89,11.77,14.53,2,3.05,4.89,6.76,6,9.25,18.59-20.3,36.15-41.93,37.17-43.09,1.94-2.19,5.45-5.79,5.45-5.79s9.73-3.29,13.24-5,8.77-6.14,10-7.07,4.55.64,6-.25S426.73,275.94,425.54,274.68Z" style="fill:#fff"></path><path d="M355.35,339.88h-.08a.52.52,0,0,1-.38-.29,46.5,46.5,0,0,0-4.07-6.47c-.66-.93-1.3-1.85-1.88-2.72-2.44-3.65-8.4-10.64-11.74-14.47a.49.49,0,0,1-.12-.4.52.52,0,0,1,.23-.36l41.95-26.5c1.31-2,17.65-27,18.62-28.18s12.55-4.37,14.85-5c.48-.07,4.24-.56,5.57.85s1.41,4.73,1.42,4.87h0a9.29,9.29,0,0,0,1.75,4.06,26.06,26.06,0,0,1,2.5,5.1,18.78,18.78,0,0,0,1.93,3.94c.22.23.46.46.71.7.9.85,1.74,1.66,1.65,2.53a1.42,1.42,0,0,1-.77,1.05c-.9.53-2.19.35-3.44.18-1-.14-2.11-.29-2.55,0l-1,.8c-2,1.6-6.14,4.91-9.06,6.32-3.34,1.61-12,4.58-13.19,5-.54.56-3.6,3.73-5.34,5.69-.17.19-.78.93-1.77,2.12-4.92,5.94-19.87,24-35.41,41A.49.49,0,0,1,355.35,339.88Zm-17-24.17c3.4,3.93,9.05,10.57,11.43,14.14.57.86,1.22,1.78,1.86,2.7a57.86,57.86,0,0,1,3.85,5.95c15.34-16.8,30-34.53,34.88-40.39,1-1.21,1.62-2,1.79-2.15,1.93-2.17,5.42-5.78,5.46-5.81a.46.46,0,0,1,.2-.13c.09,0,9.74-3.29,13.18-5,2.83-1.36,6.91-4.63,8.87-6.2.46-.36.81-.65,1-.81.78-.59,2-.42,3.29-.24a5.15,5.15,0,0,0,2.8-.05c.12-.07.27-.18.28-.3,0-.38-.76-1.14-1.34-1.7-.26-.25-.52-.49-.75-.73a17.79,17.79,0,0,1-2.12-4.25,26.47,26.47,0,0,0-2.38-4.88,10.09,10.09,0,0,1-1.95-4.59c0-.9-.28-3.34-1.14-4.26s-3.25-.75-4.66-.55c-6.51,1.71-13.66,3.91-14.26,4.61-.77,1-12.52,18.87-18.63,28.2a.43.43,0,0,1-.15.15Z" style="fill:#263238"></path><path d="M332.11,318.73s14.78,15.65,19.83,26.45L362,333.48s-8.2-13.92-12.84-17.84-6.44-4.41-6.44-4.41Z" style="fill:#fff"></path><path d="M351.94,345.67h-.07a.52.52,0,0,1-.39-.28c-5-10.6-19.59-26.16-19.73-26.32a.52.52,0,0,1-.14-.39.5.5,0,0,1,.21-.36l10.63-7.49a.49.49,0,0,1,.42-.08c.08,0,2,.56,6.64,4.51s12.6,17.39,12.94,18a.5.5,0,0,1-.05.58L352.32,345.5A.52.52,0,0,1,351.94,345.67ZM332.87,318.8c2.33,2.52,14.37,15.77,19.19,25.47l9.34-10.84c-1.23-2.07-8.4-13.91-12.54-17.41-3.6-3-5.46-4-6.05-4.22Z" style="fill:#263238"></path><path d="M419.22,261.25s-3.68-1.05-5.39-.47" style="fill:#fff"></path><path d="M419.22,261.75a.34.34,0,0,1-.14,0c-1-.28-3.81-.91-5.09-.48a.51.51,0,0,1-.64-.31.52.52,0,0,1,.32-.64c1.84-.62,5.53.43,5.69.47a.51.51,0,0,1,.34.62A.49.49,0,0,1,419.22,261.75Z" style="fill:#263238"></path><path d="M425.54,274.68s-3.45-2.66-5.74-1.89" style="fill:#fff"></path><path d="M425.54,275.18a.5.5,0,0,1-.31-.1c-.9-.7-3.61-2.37-5.27-1.81a.52.52,0,0,1-.64-.32.51.51,0,0,1,.32-.63c2.52-.85,6.05,1.85,6.2,2a.5.5,0,0,1-.3.89Z" style="fill:#263238"></path></g><g id="freepik--speech-bubble--inject-19"><path d="M329.27,76.86H249.1a8.47,8.47,0,0,0-8.47,8.47v44.53a8.47,8.47,0,0,0,8.47,8.47h23.26l-6.78,19.6,18.87-19.6h44.82a8.47,8.47,0,0,0,8.47-8.47V85.33A8.47,8.47,0,0,0,329.27,76.86Z" style="fill:#263238"></path><path d="M265.58,158.43a.51.51,0,0,1-.47-.67l6.55-18.93H249.1a9,9,0,0,1-9-9V85.33a9,9,0,0,1,9-9h80.17a9,9,0,0,1,9,9v44.53a9,9,0,0,1-9,9h-44.6l-18.73,19.44A.48.48,0,0,1,265.58,158.43ZM249.1,77.36a8,8,0,0,0-8,8v44.53a8,8,0,0,0,8,8h23.26a.51.51,0,0,1,.41.21.52.52,0,0,1,.07.45l-6,17.45,17.3-18a.51.51,0,0,1,.36-.15h44.82a8,8,0,0,0,8-8V85.33a8,8,0,0,0-8-8Z" style="fill:#263238"></path><path d="M327.49,73.29H247.32a8.47,8.47,0,0,0-8.47,8.47v44.53a8.47,8.47,0,0,0,8.47,8.47h23.26l-6.78,19.6,18.87-19.6h44.82a8.47,8.47,0,0,0,8.47-8.47V81.76A8.47,8.47,0,0,0,327.49,73.29Z" style="fill:#fff"></path><path d="M263.8,154.86a.48.48,0,0,1-.26-.07.51.51,0,0,1-.22-.59l6.56-18.94H247.32a9,9,0,0,1-9-9V81.76a9,9,0,0,1,9-9h80.17a9,9,0,0,1,9,9v44.53a9,9,0,0,1-9,9H282.88l-18.72,19.45A.51.51,0,0,1,263.8,154.86ZM247.32,73.79a8,8,0,0,0-8,8v44.53a8,8,0,0,0,8,8h23.26a.52.52,0,0,1,.41.21.51.51,0,0,1,.06.46l-6,17.45,17.3-18a.48.48,0,0,1,.36-.16h44.82a8,8,0,0,0,8-8V81.76a8,8,0,0,0-8-8Z" style="fill:#263238"></path><path d="M272.26,104.47a4.46,4.46,0,1,1-4.45-4.45A4.46,4.46,0,0,1,272.26,104.47Z" style="fill:#263238"></path><path d="M291.86,104.47a4.46,4.46,0,1,1-4.45-4.45A4.46,4.46,0,0,1,291.86,104.47Z" style="fill:#263238"></path><path d="M311.46,104.47A4.46,4.46,0,1,1,307,100,4.46,4.46,0,0,1,311.46,104.47Z" style="fill:#263238"></path></g></svg>