<svg xmlns="http://www.w3.org/2000/svg" viewBox="0 0 750 500"><g id="freepik--background-complete--inject-17"><path d="M82.87,83.26,97.33,83l7.33-.11c2.44-.05,4.9,0,7.36-.05h.44v.45l.06,12.32v.5H112L97.44,96c-4.85,0-9.71-.12-14.57-.17h-.28v-.27c0-2.09.08-4.16.13-6.22Zm0,0L83,89.48c0,2,.11,4.08.13,6.1l-.27-.27c4.86-.06,9.72-.16,14.57-.17L112,95.08l-.5.5,0-12.32.45.45c-2.41,0-4.8,0-7.21-.06l-7.25-.11Z" style="fill:#ebebeb"></path><path d="M99.13,67.73l14.46-.28,7.33-.11c2.44,0,4.9,0,7.36-.06h.44v.45l.06,12.32v.5h-.5l-14.58-.07c-4.85,0-9.71-.11-14.57-.16h-.28v-.27c0-2.09.08-4.17.13-6.22Zm0,0L99.27,74c0,2,.11,4.08.13,6.1l-.27-.28c4.86,0,9.72-.15,14.57-.16l14.58-.06-.5.5,0-12.32.45.45c-2.41,0-4.8,0-7.21-.06L113.82,68Z" style="fill:#ebebeb"></path><path d="M66.61,67.73l14.46-.28,7.33-.11c2.44,0,4.9,0,7.36-.06h.44v.45l.06,12.32v.5h-.5l-14.58-.07c-4.85,0-9.71-.11-14.57-.16h-.28v-.27c0-2.09.08-4.17.13-6.22Zm0,0L66.75,74c0,2,.11,4.08.13,6.1l-.27-.28c4.86,0,9.72-.15,14.57-.16l14.58-.06-.5.5,0-12.32.45.45c-2.41,0-4.8,0-7.21-.06L81.3,68Z" style="fill:#ebebeb"></path><path d="M444.07,168.39l14.46-.27,7.33-.12c2.45,0,4.91,0,7.36-.05h.44v.44l.05,12.32v.5h-.5l-14.57-.06c-4.86,0-9.72-.11-14.58-.16h-.27v-.27c0-2.08.08-4.16.13-6.22Zm0,0,.14,6.22c.05,2,.12,4.08.13,6.1l-.27-.27c4.86-.05,9.72-.16,14.58-.16l14.57-.07-.5.5,0-12.32.45.45c-2.4,0-4.8,0-7.21-.05l-7.25-.12Z" style="fill:#ebebeb"></path><path d="M460.33,152.86l14.46-.28,7.33-.11c2.45,0,4.91,0,7.36-.05h.44v.45l.05,12.32v.5h-.5l-14.57-.06c-4.86,0-9.72-.12-14.58-.17h-.27v-.27c0-2.09.08-4.16.13-6.22Zm0,0,.14,6.22c0,2,.12,4.08.13,6.1l-.27-.27c4.86,0,9.72-.16,14.58-.17l14.57-.06-.5.5,0-12.32.45.45c-2.4,0-4.8,0-7.21-.06l-7.25-.11Z" style="fill:#ebebeb"></path><path d="M427.81,152.86l14.46-.28,7.33-.11c2.45,0,4.91,0,7.36-.05h.44v.45l0,12.32v.5H457l-14.57-.06c-4.86,0-9.72-.12-14.58-.17h-.27v-.27c0-2.09.08-4.16.13-6.22Zm0,0,.14,6.22c.05,2,.12,4.08.13,6.1l-.27-.27c4.86,0,9.72-.16,14.58-.17l14.57-.06-.5.5.05-12.32.45.45c-2.4,0-4.8,0-7.21-.06l-7.25-.11Z" style="fill:#ebebeb"></path><path d="M613.38,77.1l14.46-.28,7.33-.11c2.45,0,4.91,0,7.36,0H643v.45l0,12.32v.5h-.5L628,89.86c-4.86,0-9.72-.12-14.58-.17h-.27v-.27c0-2.09.09-4.16.13-6.22Zm0,0,.14,6.22c.05,2.05.12,4.08.14,6.1l-.28-.27C618.24,89.1,623.1,89,628,89l14.57-.06-.5.5.06-12.32.44.45c-2.4,0-4.8,0-7.21-.06l-7.25-.11Z" style="fill:#ebebeb"></path><path d="M254.88,261.26l14.46-.28,7.33-.11c2.45-.05,4.91,0,7.36-.06h.44v.45l.06,12.32v.5H284L269.45,274c-4.85,0-9.71-.11-14.57-.16h-.28v-.27c0-2.09.08-4.17.13-6.22Zm0,0,.14,6.22c0,2,.11,4.08.13,6.1l-.27-.28c4.86-.05,9.72-.16,14.57-.16l14.58-.06-.5.5.05-12.32.45.44c-2.4,0-4.8,0-7.21-.05l-7.25-.11Z" style="fill:#ebebeb"></path><path d="M66.61,314l14.46-.28,7.33-.11c2.44-.05,4.9,0,7.36-.06h.44V314l.06,12.31v.5h-.5l-14.58-.06c-4.85,0-9.71-.11-14.57-.16h-.28v-.27c0-2.08.08-4.16.13-6.21Zm0,0,.14,6.21c0,2,.11,4.08.13,6.1l-.27-.27c4.86-.05,9.72-.16,14.57-.16l14.58-.07-.5.5,0-12.31.45.44c-2.41,0-4.8,0-7.21-.05l-7.25-.12Z" style="fill:#ebebeb"></path><path d="M654.24,319.48l14.46-.28,7.33-.11c2.45,0,4.91,0,7.36-.06h.44v.45l0,12.31v.51h-.5l-14.57-.06c-4.86,0-9.72-.11-14.58-.16H654v-.27c0-2.08.08-4.16.13-6.21Zm0,0,.14,6.21c0,2.05.12,4.08.13,6.1l-.27-.27c4.86,0,9.72-.16,14.58-.16l14.57-.07-.5.5.06-12.31.44.44c-2.4,0-4.8,0-7.21-.05l-7.25-.11Z" style="fill:#ebebeb"></path><path d="M638,304l14.46-.28,7.33-.12c2.45,0,4.91,0,7.36-.05h.44V304l0,12.31v.5h-.5l-14.57-.06c-4.86,0-9.72-.11-14.58-.16h-.27v-.27c0-2.08.08-4.16.13-6.22Zm0,0,.14,6.21c0,2,.12,4.08.13,6.1L638,316c4.86-.05,9.72-.16,14.58-.16l14.57-.07-.5.5.06-12.31.44.44c-2.4,0-4.8,0-7.21-.05l-7.25-.12Z" style="fill:#ebebeb"></path><path d="M669,280.55l5.5-8.87L671.77,270a2.48,2.48,0,0,1-1.16-2.33,11.62,11.62,0,0,0,0-1.56,2.48,2.48,0,0,1,1.3-2.26l2.82-1.51-4.94-9.2L667,254.64a2.49,2.49,0,0,1-2.59-.17,14,14,0,0,0-1.33-.82,2.51,2.51,0,0,1-1.31-2.26l.1-3.19-10.43-.33-.1,3.21a2.49,2.49,0,0,1-1.46,2.16l-.68.35c-.23.12-.45.25-.67.38a2.49,2.49,0,0,1-2.59,0l-2.74-1.7-5.51,8.88,2.73,1.69a2.47,2.47,0,0,1,1.15,2.33,11.62,11.62,0,0,0-.05,1.56,2.48,2.48,0,0,1-1.3,2.25l-2.82,1.51,4.94,9.21,2.82-1.52a2.49,2.49,0,0,1,2.59.17,15.19,15.19,0,0,0,1.32.82,2.47,2.47,0,0,1,1.31,2.25l-.1,3.2,10.44.33.1-3.21a2.5,2.5,0,0,1,1.45-2.15l.7-.35.66-.38a2.5,2.5,0,0,1,2.61,0ZM660.14,274a8.55,8.55,0,1,1,3.5-11.58A8.54,8.54,0,0,1,660.14,274Z" style="fill:#ebebeb"></path><path d="M300.49,210.89l-3.65-6.34-1.94,1.12a1.75,1.75,0,0,1-1.83-.06c-.3-.2-.62-.38-.94-.55a1.73,1.73,0,0,1-1-1.54v-2.24h-7.31v2.24a1.73,1.73,0,0,1-1,1.54c-.32.17-.64.35-.94.55a1.75,1.75,0,0,1-1.83.06l-1.94-1.12-3.65,6.34,2,1.12a1.75,1.75,0,0,1,.85,1.61c0,.18,0,.36,0,.54s0,.36,0,.54a1.74,1.74,0,0,1-.85,1.61l-2,1.13,3.65,6.33,1.95-1.12a1.73,1.73,0,0,1,1.82.07c.31.19.62.38.95.54a1.75,1.75,0,0,1,1,1.55v2.24h7.31v-2.24a1.75,1.75,0,0,1,1-1.55c.33-.16.64-.35.95-.54a1.73,1.73,0,0,1,1.82-.07l1.95,1.12,3.65-6.33-1.94-1.12a1.75,1.75,0,0,1-.85-1.61c0-.18,0-.36,0-.55s0-.36,0-.54a1.73,1.73,0,0,1,.85-1.61Zm-7,3.27a6,6,0,1,1-6-6A6,6,0,0,1,293.5,214.16Z" style="fill:#ebebeb"></path><path d="M103.5,109.73A28.5,28.5,0,1,0,132,138.22,28.49,28.49,0,0,0,103.5,109.73Zm0,41.8a13.31,13.31,0,1,1,13.31-13.31A13.3,13.3,0,0,1,103.5,151.53Z" style="fill:#ebebeb"></path><polygon points="108.98 110.91 98.03 110.91 98.63 103.16 108.38 103.16 108.98 110.91" style="fill:#ebebeb"></polygon><polygon points="88.13 114.61 80.38 122.35 75.32 116.44 82.22 109.55 88.13 114.61" style="fill:#ebebeb"></polygon><polygon points="75.99 131.96 75.99 142.92 68.23 142.31 68.23 132.57 75.99 131.96" style="fill:#ebebeb"></polygon><polygon points="79.68 152.82 87.43 160.56 81.52 165.62 74.63 158.73 79.68 152.82" style="fill:#ebebeb"></polygon><polygon points="97.04 164.95 108 164.95 107.39 172.71 97.65 172.71 97.04 164.95" style="fill:#ebebeb"></polygon><polygon points="117.89 161.26 125.64 153.51 130.7 159.43 123.81 166.32 117.89 161.26" style="fill:#ebebeb"></polygon><polygon points="130.03 143.9 130.03 132.95 137.79 133.55 137.79 143.3 130.03 143.9" style="fill:#ebebeb"></polygon><polygon points="126.34 123.05 118.59 115.3 124.5 110.25 131.4 117.14 126.34 123.05" style="fill:#ebebeb"></polygon><path d="M495,45.47A28.5,28.5,0,1,0,523.44,74,28.49,28.49,0,0,0,495,45.47Zm0,41.8A13.31,13.31,0,1,1,508.26,74,13.3,13.3,0,0,1,495,87.27Z" style="fill:#ebebeb"></path><polygon points="500.43 46.66 489.47 46.66 490.08 38.9 499.82 38.9 500.43 46.66" style="fill:#ebebeb"></polygon><polygon points="479.57 50.35 471.82 58.09 466.77 52.18 473.66 45.29 479.57 50.35" style="fill:#ebebeb"></polygon><polygon points="467.44 67.7 467.44 78.66 459.68 78.06 459.68 68.31 467.44 67.7" style="fill:#ebebeb"></polygon><polygon points="471.13 88.56 478.88 96.31 472.96 101.36 466.07 94.47 471.13 88.56" style="fill:#ebebeb"></polygon><polygon points="488.49 100.7 499.44 100.7 498.84 108.45 489.09 108.45 488.49 100.7" style="fill:#ebebeb"></polygon><polygon points="509.34 97 517.09 89.26 522.14 95.17 515.25 102.06 509.34 97" style="fill:#ebebeb"></polygon><polygon points="521.48 79.65 521.48 68.69 529.23 69.3 529.23 79.04 521.48 79.65" style="fill:#ebebeb"></polygon><polygon points="517.78 58.79 510.04 51.05 515.95 45.99 522.84 52.88 517.78 58.79" style="fill:#ebebeb"></polygon></g><g id="freepik--Chairs--inject-17"><polygon points="694.2 426.35 582.25 426.35 604.57 296.5 688.28 296.5 694.2 426.35" style="fill:#dbdbdb"></polygon><polygon points="694.2 426.35 684.38 426.35 678.88 296.5 688.28 296.5 694.2 426.35" style="fill:#a6a6a6"></polygon><polygon points="434.45 426.35 322.49 426.35 344.81 296.5 428.53 296.5 434.45 426.35" style="fill:#dbdbdb"></polygon><polygon points="434.45 426.35 424.63 426.35 419.12 296.5 428.53 296.5 434.45 426.35" style="fill:#a6a6a6"></polygon><polygon points="60.91 426.35 172.86 426.35 150.54 296.5 66.82 296.5 60.91 426.35" style="fill:#dbdbdb"></polygon><polygon points="60.91 426.35 70.72 426.35 76.23 296.5 66.82 296.5 60.91 426.35" style="fill:#a6a6a6"></polygon></g><g id="freepik--Table--inject-17"><polygon points="55.82 426.35 135.62 426.11 215.41 426.02 375 425.85 534.59 426.02 614.38 426.1 694.18 426.35 614.38 426.59 534.59 426.68 375 426.85 215.41 426.68 135.62 426.59 55.82 426.35" style="fill:#263238"></polygon></g><g id="freepik--character-1--inject-17"><path d="M89.13,289.26C85.2,304.8,77.86,322.8,81.45,339c2.84,12.71,12.2,22.8,22.51,30.17,22.71,16.18,57.38,24.81,80,3.61,9-8.47,14.45-28.85,4.42-38.78-5.16-5.09-12-7.44-18.4-10.64-8.38-4.2-13.76-10.49-16.17-19.6-4.71-17.73-.69-29.19,1.35-46.91.37-3.29.27-6.63-2.36-10a22.54,22.54,0,0,0-9.15-7.86,22.51,22.51,0,0,0-10.21-3.92c-7.88-.78-16.74,4.81-23.61,8S99.1,250.47,97.08,258C94.28,268.34,91.78,278.82,89.13,289.26Z" style="fill:#263238"></path><path d="M85.67,296.25c4.52-14,9.32-27.92,14-41.88a.07.07,0,0,1,.14,0c-3.54,11.59-6.91,23.22-10.61,34.77-3.61,11.32-8.11,22.71-10.72,34.3-5.86,26,18.82,42.19,41.31,45.48,1,.15.66,1.76-.37,1.58-19.65-3.51-41.6-15-43.13-37.43C75.47,320.83,82,307.71,85.67,296.25Z" style="fill:#263238"></path><path d="M154.16,255.25c.06-.28.47-.18.43.1-2.3,14.5-6.34,31.2-.73,45.4a37.23,37.23,0,0,0,13.82,17.18c4.94,3.31,10.63,4.68,16,6.94,21.17,8.87,15.26,38.71-3.16,47-.38.18-.7-.48-.32-.67,13.14-6.68,20.22-22.26,13.48-36.15-5.4-11.15-20.22-11-29.22-18.28C145.85,301.74,149.43,276,154.16,255.25Z" style="fill:#263238"></path><path d="M140.14,329.52c21.24,18.78,53.68,33.42,62.17,27.27,9.83-7.13,34.61-50.29,42.39-74.55,1.7-5.3-39.28-15.09-40.08-11.25-2.73,13.15-17.91,47.75-19.19,49.46-1.48,2-25.93-6.75-39.42-9.21C124.18,307.25,126.07,317.08,140.14,329.52Z" style="fill:#d3766a"></path><path d="M212.18,278c-.91-4.8-4.82-31.6-4.71-38,.19-11.79,3-23.93,7.84-24.93,3.86-.8,5.72,6,5.72,6s2.71-7.43,7.67-6.88,3.73,8.91,3.73,8.91,3.34-7.43,8.25-6.53,2.26,9.11,2.26,9.11,2.74-6.93,6.47-4.49c4.49,2.93-2,15.15-2.32,22.24-.05,1.08,1.87,17.82,1.16,28.82a18.79,18.79,0,0,1-3.6,9.52Z" style="fill:#d3766a"></path><path d="M243.5,225.48c-4.75,9-5.27,13.74-4.5,23.73,0,.19-.27.26-.31.06-1.64-9.71-1.85-15.77,4.38-24.05C243.38,224.82,243.72,225.05,243.5,225.48Z" style="fill:#263238"></path><path d="M232.83,222.68c-3.3,10.07-3.49,15.26-2.59,25.73,0,.15-.23.19-.26,0-1.74-10.2-2.3-16.23,2.32-25.86C232.51,222.15,233,222.22,232.83,222.68Z" style="fill:#263238"></path><path d="M221.06,221.42c-2.23,10.05-2.53,15.73-.09,25.73a.19.19,0,0,1-.36.11c-3.48-9.95-3.16-17,.14-25.88C221,220.78,221.2,220.79,221.06,221.42Z" style="fill:#263238"></path><path d="M207.34,279.62s-7.68-10.17-10.07-15.38-4.14-27.91.74-28.57c6.3-.85,9.89,12.06,10.83,18.61,0,0,14.57-2,19.16,6.72S207.34,279.62,207.34,279.62Z" style="fill:#d3766a"></path><path d="M207.92,249.61c.22.76.42,1.53.61,2.3s.4,1.54.57,2.31l-.28-.22a31.08,31.08,0,0,1,13.38,2.17,25,25,0,0,1,6,3.28,23.65,23.65,0,0,1,4.87,4.71,34.5,34.5,0,0,0-5.25-4.14l-.7-.45-.73-.4c-.5-.25-1-.54-1.47-.78-1-.47-2-.94-3-1.32a39.14,39.14,0,0,0-6.39-1.81,37.65,37.65,0,0,0-6.61-.71h-.24l0-.22c-.14-.78-.23-1.57-.34-2.36S208,250.4,207.92,249.61Z" style="fill:#263238"></path><path d="M167.73,353.17l13-35s-24.62-8.57-40.31-9.31-14.2,8.61-3.24,19.3S167.73,353.17,167.73,353.17Z" style="fill:#FFC727"></path><path d="M168.42,351.33l-.44,1.19h0l-.55.43-.53-.4C167.41,352.16,167.92,351.75,168.42,351.33Z" style="fill:#fff"></path><path d="M171.59,342.82l-.09.23c-.74-.4-1.46-.83-2.18-1.26-3.88-2.36-7.52-5.07-11.32-7.52a46.6,46.6,0,0,0-5.9-3.28,21,21,0,0,0-6.42-1.86,16.12,16.12,0,0,0-3.33,0c-.56.06-1.1.17-1.65.26l-1.63.41-.15,0-.49-.46.49-.14,1.66-.41c.57-.08,1.14-.19,1.71-.25a16.48,16.48,0,0,1,3.44.05,21.85,21.85,0,0,1,6.55,2A47.37,47.37,0,0,1,158.2,334c3.8,2.48,7.4,5.22,11.25,7.6C170.15,342,170.87,342.43,171.59,342.82Z" style="fill:#fff"></path><path d="M173.78,317.65c-2.34,5.29-8.25,19.83-10.8,29.81,0,.06.22.15.24.09,3.43-7.95,9.06-24.28,10.91-29.76C174.16,317.68,173.83,317.55,173.78,317.65Z" style="fill:#263238"></path><path d="M173,339.14l-5.23,14s-19.56-14.29-30.53-25c-7.07-6.9-10.21-13.24-7.31-16.67Z" style="opacity:0.1"></path><path d="M170.88,426.35H69S87.7,341.07,109.06,316c.48-.58,1-1.13,1.47-1.64l.28-.31a23,23,0,0,1,5.71-4.41c.38-.2.75-.39,1.14-.56,8.23-3.78,16.92-.65,23.19,4.72,2,1.7,24.52,31,26.51,42.18,1.72,9.87-4.94,20.46-4.94,20.46Z" style="fill:#FFC727"></path><path d="M146.47,372.6a93.69,93.69,0,0,0-13.42,2.33c-2.19.58-4.33,1.26-6.47,2-1.07.36-2.14.68-3.22,1a14.64,14.64,0,0,1-3.46.69c-.1,0-.1.16,0,.16a19.52,19.52,0,0,0,6.51-.72c2.22-.57,4.41-1.24,6.63-1.83,4.47-1.19,8.93-2.38,13.48-3.24C146.74,372.94,146.68,372.58,146.47,372.6Z" style="fill:#263238"></path><path d="M157.7,376.52a98.15,98.15,0,0,0-11.24-.44c-1.88,0-3.74.18-5.6.38-.89.09-1.78.2-2.67.32s-1.94.4-2.92.52c-.1,0-.1.17,0,.16.92-.08,1.87,0,2.8,0l2.8-.1c1.87-.06,3.74-.11,5.61-.19,3.74-.15,7.47-.28,11.21-.31A.15.15,0,1,0,157.7,376.52Z" style="fill:#263238"></path><path d="M166.69,353.48c-.63.46-1.29.9-2,1.3a25.23,25.23,0,0,1-6.28,2.73l-1.67.41c-.57.08-1.13.19-1.7.25a16.57,16.57,0,0,1-3.45-.05,21.88,21.88,0,0,1-6.54-2,47.37,47.37,0,0,1-5.92-3.38c-3.8-2.48-7.41-5.22-11.25-7.6a51.64,51.64,0,0,0-5.67-3.06l-.3-.14-.36-.15a29.48,29.48,0,0,0-6.07-1.9,26.2,26.2,0,0,0-6.73-.4l-1.67.18-1.67.31c-1.09.24-2.18.57-3.27.86A26.08,26.08,0,0,0,99,342c-.52.21-1.06.37-1.57.62l-1.52.74c-.5.25-1,.47-1.5.76l-1,.57c.09-.24.19-.49.29-.73a39.27,39.27,0,0,1,8.34-3.4c1.11-.27,2.2-.6,3.31-.82l1.68-.29,1.7-.15a26.21,26.21,0,0,1,6.79.44,31.07,31.07,0,0,1,6.18,2c.22.09.45.18.66.29a49.19,49.19,0,0,1,5.65,3c3.88,2.36,7.51,5.07,11.31,7.52a47.43,47.43,0,0,0,5.91,3.28,21,21,0,0,0,6.42,1.86,16.11,16.11,0,0,0,3.33,0c.55-.06,1.1-.17,1.65-.26l1.62-.41a25.38,25.38,0,0,0,6.12-2.71c.71-.43,1.4-.89,2.08-1.38C166.55,353.08,166.63,353.28,166.69,353.48Z" style="fill:#fff"></path><path d="M154.81,332.35c-.89-.49-1.79-1-2.71-1.36a21,21,0,0,0-6.42-1.86,16.12,16.12,0,0,0-3.33,0c-.56.06-1.1.17-1.65.26l-1.63.41A25.31,25.31,0,0,0,133,332.5c-3.85,2.32-7,5.6-10.07,8.91l-.5.55-.15.16a65.91,65.91,0,0,1-9.12,8.78,25.43,25.43,0,0,1-12.62,5,46.34,46.34,0,0,1-11.23-.46l.18-.49a44.84,44.84,0,0,0,11,.33,26.7,26.7,0,0,0,6.48-1.65,25.11,25.11,0,0,0,5.81-3.3,65.55,65.55,0,0,0,8.87-8.53l.15-.16.66-.72c3.08-3.31,6.3-6.62,10.25-9a25.23,25.23,0,0,1,6.28-2.73l1.66-.41c.57-.08,1.14-.19,1.71-.25a16.48,16.48,0,0,1,3.44.05,21.85,21.85,0,0,1,6.55,2c.69.32,1.36.66,2,1Z" style="fill:#fff"></path><path d="M170.17,422.16a42.49,42.49,0,0,1-11.81-.3c-1.16-.24-2.34-.42-3.49-.71l-1.72-.48-1.68-.61a27,27,0,0,1-6.22-3.45,32.83,32.83,0,0,1-5-4.6l-.5-.57a53,53,0,0,1-4-5.37c-2.61-4-4.84-8.15-7.34-12.16a48.75,48.75,0,0,0-4.12-5.74,22,22,0,0,0-5.24-4.62,17.53,17.53,0,0,0-3.15-1.51c-.55-.18-1.11-.32-1.67-.48l-1.72-.34a26.47,26.47,0,0,0-7-.17c-4.68.48-9.13,2.16-13.5,3.94l-.71.29-.21.09a69.23,69.23,0,0,1-12.56,4.23l-.21,0c.07-.26.15-.51.22-.77a69.53,69.53,0,0,0,12.05-4.08l.22-.08.94-.38c4.38-1.76,8.91-3.45,13.69-3.92a26.42,26.42,0,0,1,7.16.22c.59.12,1.18.23,1.76.36s1.16.32,1.73.52a17.3,17.3,0,0,1,3.23,1.59,22.65,22.65,0,0,1,5.32,4.78,48.85,48.85,0,0,1,4.09,5.83c2.48,4,4.67,8.25,7.25,12.21a50.87,50.87,0,0,0,4,5.43l.22.26a4.12,4.12,0,0,0,.28.31,30.23,30.23,0,0,0,4.89,4.5,26.89,26.89,0,0,0,6.18,3.38l1.67.58,1.71.45c1.14.27,2.31.43,3.47.65a29.67,29.67,0,0,0,3.51.39c.59,0,1.17.13,1.76.11l1.77,0c.58,0,1.17,0,1.76,0l1.76-.17c.36,0,.73-.06,1.1-.11Z" style="fill:#fff"></path><path d="M168,409.13c-.48-.19-1-.36-1.44-.51a27.79,27.79,0,0,0-6.86-1.34,26.33,26.33,0,0,0-7,.53,68,68,0,0,0-12.19,4.11l-.22.09-.94.38c-4.39,1.75-8.92,3.45-13.7,3.91a26.83,26.83,0,0,1-7.16-.21l-1.76-.37c-.58-.17-1.16-.32-1.73-.52a18.23,18.23,0,0,1-3.23-1.58,23.1,23.1,0,0,1-5.32-4.78,52.29,52.29,0,0,1-4.09-5.84c-2.48-4-4.67-8.24-7.25-12.21a50.3,50.3,0,0,0-4-5.42l-.22-.27a4.12,4.12,0,0,0-.28-.31,31.2,31.2,0,0,0-4.9-4.5,26.84,26.84,0,0,0-3.91-2.38l.07-.25a27,27,0,0,1,4,2.44,33.49,33.49,0,0,1,5,4.61c.17.19.34.38.49.57a51.82,51.82,0,0,1,4,5.36c2.61,4,4.84,8.16,7.34,12.16a48.86,48.86,0,0,0,4.12,5.75,22.39,22.39,0,0,0,5.24,4.62,16.84,16.84,0,0,0,3.15,1.5c.55.19,1.12.32,1.67.48s1.15.23,1.73.34a26.39,26.39,0,0,0,7,.17c4.68-.47,9.13-2.16,13.5-3.93l.71-.29.22-.09a68.37,68.37,0,0,1,12.55-4.23,26.51,26.51,0,0,1,14.18.88c.37.12.75.26,1.11.4Z" style="fill:#fff"></path><path d="M103,321.15c-20,28.15-45.95,77-32.6,86,21.94,14.77,82.33,18.74,96.13,19.09,6,.15,14.09-39.46,9.69-44.07s-67.62-2.14-68.43-6C107.32,374,115.06,354,119,330.1,123.51,302.49,108.63,313.21,103,321.15Z" style="fill:#d3766a"></path><path d="M165.6,379.93s18-1.85,29.88-2.51c6.61-.37,18,0,23,2,7.45,2.92,36.73,19.89,32.77,27.08-3.58,6.5-26.89-11.27-26.89-11.27s25.1,15.85,19.34,22.9-29.42-16.54-29.42-16.54,25.43,16.86,18.34,23.19c-5.35,4.77-28-15.38-28-15.38s21.76,14.65,16.46,19.8c-5.85,5.7-27.91-11.59-27.91-11.59-15.67,10.82-27.55,9.57-35.91,7.67C155.23,424.79,165.6,379.93,165.6,379.93Z" style="fill:#d3766a"></path><path d="M216,389.16c3,1.76,6.08,3.51,8.93,5.53s5.63,4.14,8.28,6.41a60.35,60.35,0,0,1,9.47,9.83c-5.39-6.08-15.48-13.46-18.33-15.48s-5.59-4.17-8.43-6.18C215.85,389.22,215.93,389.12,216,389.16Z" style="fill:#263238"></path><path d="M208.53,399.32c3.76,2.41,7.57,4.66,11.22,7.24s8.6,6.32,12.05,9.13c.26.21.06.69-.21.48-3.56-2.67-8.8-6.27-12.38-8.9s-7.08-5.38-10.74-7.87C208.41,399.37,208.48,399.28,208.53,399.32Z" style="fill:#263238"></path><path d="M200.55,406.88c5.93,3.39,11.22,7.87,16.31,12.38.25.23,0,.29-.29.08-5.34-4.22-9.51-7.57-16.14-12.25C200.33,407,200.43,406.81,200.55,406.88Z" style="fill:#263238"></path><path d="M163,379.61c8.23-.84,32.4-3.21,40.67-3.36,7.29-.13,13.46.87,19.95,4.32,13.9,7.41,23.3,16.77,25.68,19.59,1.44,1.71,3.57,4.45,2.07,6.65-1.82,2.67-9.64,1-18.33-5.51-.32-.23-.15-.41.17-.2,12.1,8,16.48,6.56,17.5,4.89.67-1.08-.23-2.75-1-4a26.16,26.16,0,0,0-4.48-4.92,111.88,111.88,0,0,0-18.42-13.28,43.78,43.78,0,0,0-23.56-6.38c-8.47.11-31.73,2.54-40.21,2.53C162.83,379.92,162.83,379.62,163,379.61Z" style="fill:#263238"></path><path d="M244.68,414.35c-.68-2.2-2.49-4.09-4-5.83a42,42,0,0,0-5.95-6c-.09-.07-.23.05-.14.14a66.12,66.12,0,0,1,5.31,5.79,37.07,37.07,0,0,1,2.44,3.5c.71,1.17,1.54,2.53,1.37,3.95-.33,2.73-3.74,3-5.81,2.46a22.5,22.5,0,0,1-3.92-1.46,38.34,38.34,0,0,1-4.93-3c-.13-.1-.45,0-.31.08,3.27,2.57,9.51,8,13.93,5.35A4.22,4.22,0,0,0,244.68,414.35Z" style="fill:#263238"></path><path d="M78.05,350.47l35.11,12.65s8.3-24.71,8.87-40.41-8.76-14.1-19.33-3S78.05,350.47,78.05,350.47Z" style="fill:#FFC727"></path><path d="M119.34,340.75a1.18,1.18,0,0,1,0,.2,27.91,27.91,0,0,0-3.79-1,26.2,26.2,0,0,0-6.73-.4l-1.67.18-1.67.31c-1.09.24-2.18.57-3.27.86A26.08,26.08,0,0,0,99,342c-.52.21-1.06.37-1.57.62l-1.52.74c-.5.25-1,.47-1.5.76l-1.45.86c-.48.29-1,.56-1.44.88l-1.4,1c-2.47,1.7-4.82,3.58-7.21,5.42l-.65-.23c2.49-1.91,5-3.86,7.56-5.64a40.91,40.91,0,0,1,12.27-5.81c1.11-.27,2.2-.6,3.31-.82l1.68-.29,1.7-.15a26.21,26.21,0,0,1,6.79.44A29.09,29.09,0,0,1,119.34,340.75Z" style="fill:#fff"></path><path d="M118.26,345.37l-.33,1.31h0a41.81,41.81,0,0,1-4.8,4.21,25.43,25.43,0,0,1-12.62,5,33.62,33.62,0,0,1-7.37,0h0l-2.05-.74a39,39,0,0,0,9.35.15,26.7,26.7,0,0,0,6.48-1.65,25.11,25.11,0,0,0,5.81-3.3A43.75,43.75,0,0,0,118.26,345.37Z" style="fill:#fff"></path><path d="M113.63,356.15c-5.31-2.29-19.91-8-29.91-10.49-.06,0-.15.22-.1.24,8,3.35,24.38,8.8,29.88,10.59C113.61,356.53,113.73,356.19,113.63,356.15Z" style="fill:#263238"></path><path d="M120.42,342.85c0-.05-.07-.08-.09,0-.63,1.21-1.19,2.44-1.73,3.69.62-2.74,1.16-5.5,1.64-8.26,0-.1-.12-.12-.15,0-2.35,8.1-4.91,16.15-7.09,24.29-.9,0-1.8-.1-2.69-.22a.12.12,0,0,0,0,.23c1,.24,1.92.55,2.87.87a.45.45,0,0,0,.6-.2A119.66,119.66,0,0,0,118,349c.37-.73.73-1.47,1-2.22A28,28,0,0,0,120.42,342.85Z" style="fill:#263238"></path><path d="M122.06,310.3c.17,1.9,7.23,15.09,15.69,15.9,2.76.26,4.84-14.72,4.84-14.72l.41-1.07,5.68-15-16.51-14.28-2.41-1.92s-1.28,4.2-2.83,9.45c-.07.25-.15.49-.22.75s-.19.57-.27.85c-.24.78-.48,1.58-.71,2.38-.17.61-.34,1.2-.5,1.85s-.34,1.27-.51,1.92A102,102,0,0,0,122.06,310.3Z" style="fill:#d3766a"></path><path d="M126.93,288.67A32.13,32.13,0,0,0,143,310.41l5.68-15-16.51-14.28-2.41-1.92S128.48,283.42,126.93,288.67Z" style="fill:#263238"></path><path d="M166,265.12c6.85,27.28-8.71,34.47-14.6,35.94-5.34,1.34-23.7,5.21-33.34-21.22S119,241.6,131,237.9,159.18,237.83,166,265.12Z" style="fill:#d3766a"></path><path d="M161,261.38c-.66.07-1.28,0-1.94,0a3.17,3.17,0,0,1-2-.35,1,1,0,0,1-.27-1.19,2.48,2.48,0,0,1,2.26-1.11,3.69,3.69,0,0,1,2.52.75A1.07,1.07,0,0,1,161,261.38Z" style="fill:#263238"></path><path d="M143.47,265.5a17.58,17.58,0,0,0,1.76-.81,3.13,3.13,0,0,0,1.65-1.17,1,1,0,0,0-.28-1.19,2.48,2.48,0,0,0-2.51,0,3.71,3.71,0,0,0-2,1.77A1.07,1.07,0,0,0,143.47,265.5Z" style="fill:#263238"></path><path d="M148.24,271.31c0-.07-.12.12-.1.2.53,1.84.82,4-.7,5.08-.05,0,0,.13,0,.1C149.46,275.89,149,273,148.24,271.31Z" style="fill:#263238"></path><path d="M146.09,269.79c-3,.53-1.76,6.58,1.06,6.09S148.64,269.35,146.09,269.79Z" style="fill:#263238"></path><path d="M145,270.36c-.45.46-.84,1.17-1.47,1.37s-1.41-.29-2-.8c-.06-.05-.11,0-.09.09.23,1.17.93,2.26,2.2,2.17s1.77-1.28,1.81-2.51C145.41,270.46,145.15,270.18,145,270.36Z" style="fill:#263238"></path><path d="M158.4,268.75c0-.08.16.06.17.13.33,1.89,1,4,2.84,4.28a.06.06,0,0,1,0,.11C159.28,273.4,158.4,270.59,158.4,268.75Z" style="fill:#263238"></path><path d="M159.67,266.44c3-.84,4.44,5.17,1.69,5.95S157.18,267.15,159.67,266.44Z" style="fill:#263238"></path><path d="M161,266.53c.55.21,1.17.67,1.74.57s1-.89,1.26-1.61c0-.08.09,0,.11,0,.32,1.14.23,2.43-.82,2.92s-1.94-.36-2.49-1.44C160.72,266.82,160.8,266.45,161,266.53Z" style="fill:#263238"></path><path d="M151.47,286.58c.44.46.88,1.1,1.57,1.18a5,5,0,0,0,2.07-.39c.07,0,.12,0,.08.1a2.58,2.58,0,0,1-2.47.94,2,2,0,0,1-1.43-1.76C151.26,286.54,151.41,286.51,151.47,286.58Z" style="fill:#263238"></path><path d="M157.4,278.27a42.2,42.2,0,0,1,1.31,4c0,.12-4.55,2.19-7.37-.58a.14.14,0,0,1,.15-.23,9.71,9.71,0,0,0,6.09.36c0-.39-1.89-4.58-1.69-4.64a11.87,11.87,0,0,1,3.15,0c-1.95-5.7-4.79-11-6.64-16.74-.06-.2.23-.33.33-.16,3.37,5.38,5.75,11.89,7.91,17.72C160.91,278.76,158,278.37,157.4,278.27Z" style="fill:#263238"></path><path d="M158.07,282.31a7.89,7.89,0,0,1-2.19,3.33,3.57,3.57,0,0,1-2,.83c-1.61.11-2.11-1.23-2.23-2.47a8.41,8.41,0,0,1,.05-2A10.17,10.17,0,0,0,158.07,282.31Z" style="fill:#263238"></path><path d="M155.88,285.64a3.57,3.57,0,0,1-2,.83c-1.61.11-2.11-1.23-2.23-2.47C153.29,283.62,155.22,284.15,155.88,285.64Z" style="fill:#ff99ba"></path><path d="M144.48,241.25s1.6,4.07.51,7.27c-2.24,6.59-9.94,5.84-12.22,8.61-2.13,2.6-.72,7.28-2.63,9.85-2.64,3.56-6.89,2.81-7.13,5s-.86,9.25-3.5,10.45-20.67-42.93,15.41-45.76c0,0,4.69-2.6,12.78.34,8.94,3.25,14.26,16.69,14.26,16.69s-.2-.17-1.56-1.11c-1.91-1.32-2.75-2.65-4.14-3.49-2.18-1.32-3.2-.6-5.46-1.87A23.7,23.7,0,0,1,144.48,241.25Z" style="fill:#263238"></path><path d="M143.7,239.33a24.84,24.84,0,0,1,1.7,5.37,10.05,10.05,0,0,1-.14,5.42,7.45,7.45,0,0,1-3.74,3.7c-1.63.83-3.49,1.23-5.24,2.18a5.65,5.65,0,0,0-2.19,2.1,7.43,7.43,0,0,0-.73,2.88c-.16,1.89-.34,3.75-1.4,5.21a6.3,6.3,0,0,1-4.58,2.59c-1.8.22-3.86,0-5.53,1,1.74-.87,3.66-.44,5.57-.52a6.84,6.84,0,0,0,5.09-2.61c1.3-1.59,1.46-3.71,1.65-5.53a7,7,0,0,1,.67-2.56,4.8,4.8,0,0,1,1.89-1.73c1.56-.89,3.44-1.34,5.17-2.24a9.8,9.8,0,0,0,2.39-1.7,5.82,5.82,0,0,0,1.63-2.49,10.59,10.59,0,0,0-.09-5.75A24.42,24.42,0,0,0,143.7,239.33Z" style="fill:#263238"></path><path d="M144.58,240.88a19.55,19.55,0,0,0,2.32,4.75,9.25,9.25,0,0,0,4.07,3.52,13.47,13.47,0,0,0,2.6.67,4.35,4.35,0,0,1,2.09,1.07,13.71,13.71,0,0,0,1.82,1.94,5.78,5.78,0,0,0,2.43,1,6.48,6.48,0,0,1-2.15-1.39,13.9,13.9,0,0,1-1.57-2,4.54,4.54,0,0,0-2.42-1.44,14.1,14.1,0,0,1-2.45-.67,9.86,9.86,0,0,1-3.84-3.14A38.3,38.3,0,0,1,144.58,240.88Z" style="fill:#263238"></path><path d="M145,282.65a9,9,0,1,1,7.14-12.27h0a9,9,0,0,1-5,11.69A8.84,8.84,0,0,1,145,282.65ZM142.72,266a7.79,7.79,0,1,0,8.26,4.81A7.85,7.85,0,0,0,142.72,266Z" style="fill:#FFC727"></path><path d="M164.91,277.44c-3.41.46-7-2.62-8.13-7.17a10.67,10.67,0,0,1,.28-6.55,5.6,5.6,0,0,1,9.29-2.38,10.73,10.73,0,0,1,3.39,5.62c1.23,4.8-.68,9.45-4.25,10.37ZM161.78,261a3.54,3.54,0,0,0-.45.08,4.81,4.81,0,0,0-3.15,3.09,9.54,9.54,0,0,0-.24,5.82c1.07,4.16,4.31,6.94,7.25,6.18s4.45-4.74,3.39-8.9a9.51,9.51,0,0,0-3-5A4.92,4.92,0,0,0,161.78,261Z" style="fill:#FFC727"></path><path d="M152.06,271.47l-1-.7c1-1.45,3.71-3.72,6.42-2l-.65,1C154.43,268.24,152.15,271.34,152.06,271.47Z" style="fill:#FFC727"></path><path d="M113.83,283.63l-1.17-.27c.12-.55,1.3-5.37,3.79-6.46,2.33-1,18.31-3.53,19-3.64l.19,1.19c-4.58.72-16.9,2.77-18.7,3.56C115.29,278.72,114.13,282.31,113.83,283.63Z" style="fill:#FFC727"></path><path d="M122.54,278.79s-7.46-7.7-11-4.9,3,14.63,7.89,15.6a4.76,4.76,0,0,0,5.89-3.54Z" style="fill:#d3766a"></path><path d="M113.47,277.24c-.07,0-.07.11,0,.12,3.45.79,5.63,3.52,7.33,6.44-1.16-1-2.57-1.49-4-.08-.08.07,0,.19.11.16a2.91,2.91,0,0,1,3.34.49,13.56,13.56,0,0,1,1.94,2.33c.2.26.7,0,.53-.29a.25.25,0,0,0,0-.07C122.11,282.2,118,276.94,113.47,277.24Z" style="fill:#263238"></path></g><g id="freepik--character-2--inject-17"><path d="M348.5,324c-22.3,19.72-56.35,35.09-65.27,28.63-10.32-7.49-36.61-36.24-46.86-58.37-2.45-5.3,34.87-26.3,36.82-22.68,6.19,11.54,26.42,41.11,27.77,42.91,1.54,2.05,27.21-7.1,41.38-9.68C365.26,300.65,363.27,311,348.5,324Z" style="fill:#ad6359"></path><path d="M239.56,297.26c-.6-.53-8.83-8.07-12.82-13.18-3-3.81-11.26-15-7.39-18.7,2.63-2.52,8.28,3.49,12.36,7.65,2.16,2.19,6.21,4.33,7.59,2.87,2.42-2.54-3.27-8.13-7.65-11.54-8.46-6.61-22.08-14.47-19.82-21.49.85-2.65,4.79-1.54,9.09.65-5.64-4.1-10.8-8.82-10-11.8.47-1.71,1.81-2.32,3.66-2.22-1.23-1.47-1.72-3-1-4.49,1.15-2.54,4.25-2.77,7.85-2a2.29,2.29,0,0,1,.42-2c4.24-6.09,28.34,6.17,32.51,12.09,12.29,17.39,18.83,38.5,18.83,38.5C270.19,281.58,239.58,297.27,239.56,297.26Z" style="fill:#ad6359"></path><path d="M243.3,258.88a28.35,28.35,0,0,0-9-9.22c-4.37-2.74-9.43-4.28-14-6.58a.11.11,0,1,0-.1.19c2.31,1,4.53,2.28,6.8,3.39s4.48,2.12,6.61,3.35a28.27,28.27,0,0,1,9.62,8.91S243.33,258.92,243.3,258.88Z" style="fill:#263238"></path><path d="M248.44,250.8c-3-3.84-6.09-7.78-9.9-10.94-4.16-3.46-9.44-5.37-14.54-7.28-3.07-1.14-6.16-2.23-9.28-3.24-.13,0-.23.14-.1.19q7.88,2.86,15.54,6.19a38.42,38.42,0,0,1,12.53,8.58c2,2.09,3.84,4.32,5.67,6.55C248.4,250.89,248.47,250.84,248.44,250.8Z" style="fill:#263238"></path><path d="M253.81,243.08c-2.63-3.85-4.91-7.21-8.81-10-5.17-3.68-12.44-6.33-15-7.26-2.84-1-5.71-1.94-8.6-2.83-.12,0-.19.16-.08.2a157.93,157.93,0,0,1,18.7,7.51,30.16,30.16,0,0,1,7.86,5.22,53.23,53.23,0,0,1,5.91,7.17S253.82,243.1,253.81,243.08Z" style="fill:#263238"></path><path d="M319.53,348.86l-13.66-36.72s25.84-9,42.32-9.77,14.9,9.05,3.39,20.26S319.53,348.86,319.53,348.86Z" style="fill:#a6a6a6"></path><path d="M313.18,311.57c2.46,5.55,8.67,20.81,11.34,31.28,0,.07-.23.16-.25.1-3.6-8.34-9.51-25.49-11.45-31.24C312.78,311.6,313.13,311.46,313.18,311.57Z" style="fill:#263238"></path><path d="M314,334.12l5.49,14.73s20.54-15,32.06-26.22c7.42-7.24,10.71-13.89,7.67-17.5Z" style="opacity:0.1"></path><path d="M319.49,426.35h111c1.22-2.24-17-99.43-54.38-126.8-8.31-6.07-23-2.17-27.13,3.74C328.35,333,319.49,426.35,319.49,426.35Z" style="fill:#a6a6a6"></path><path d="M429.42,418h-109c.32-2.77.73-6.13,1.22-9.94H427.42C428.26,411.84,428.93,415.2,429.42,418Z" style="fill:#dbdbdb"></path><path d="M426.17,402.53H322.34c.22-1.6.45-3.26.7-5H425Q425.61,400.13,426.17,402.53Z" style="fill:#dbdbdb"></path><path d="M382.93,321.82c22.3,19.72,56.35,35.09,65.26,28.63,10.33-7.49,36.34-52.8,44.51-78.26,1.78-5.57-41.24-15.85-42.08-11.81-2.87,13.8-18.8,50.13-20.15,51.92-1.54,2.06-27.21-7.09-41.38-9.67C366.17,298.45,368.15,308.76,382.93,321.82Z" style="fill:#ad6359"></path><path d="M458.74,266.88c.16-4.86,2.2-31.7,3.7-37.89,2.75-11.39,8.12-22.55,13-22.47,3.91.06,4.24,7.06,4.24,7.06s4.25-6.62,8.94-5,1.68,9.45,1.68,9.45,4.85-6.47,9.41-4.54.22,9.33.22,9.33,4.16-6.13,7.25-2.95c3.71,3.82-5.24,14.26-7.09,21.06-.28,1-2.06,17.68-5.14,28.2a18.62,18.62,0,0,1-5.57,8.45Z" style="fill:#ad6359"></path><path d="M500.54,222.74c-6.56,7.69-8.1,12.19-9.53,22,0,.2-.32.2-.31,0,.52-9.77,1.64-15.7,9.48-22.37C500.57,222.08,500.85,222.37,500.54,222.74Z" style="fill:#263238"></path><path d="M490.81,217.71c-5.4,9-6.71,14-8.12,24.39,0,.15-.27.13-.26,0,.53-10.27,1.3-16.24,7.88-24.57C490.6,217.13,491.05,217.29,490.81,217.71Z" style="fill:#263238"></path><path d="M479.66,213.92c-4.34,9.26-5.87,14.71-5.68,24.94a.19.19,0,0,1-.37,0c-1.22-10.41.64-17.22,5.76-25.07C479.72,213.29,479.94,213.34,479.66,213.92Z" style="fill:#263238"></path><path d="M453.7,267.38s-5.24-11.53-6.42-17.1,2.05-28,6.93-27.55c6.29.55,7,13.85,6.45,20.4,0,0,14.57,1.25,17.12,10.69S453.7,267.38,453.7,267.38Z" style="fill:#ad6359"></path><path d="M460.79,238.4q.06,1.18.09,2.37c0,.79.06,1.58.06,2.37l-.23-.28a31,31,0,0,1,12.5,5,24.93,24.93,0,0,1,5.08,4.48A23.39,23.39,0,0,1,482,258a34.35,34.35,0,0,0-4.19-5.16l-.58-.59-.63-.54c-.42-.35-.81-.74-1.24-1.08-.88-.67-1.74-1.34-2.67-1.94a39.57,39.57,0,0,0-5.8-3.14,37.44,37.44,0,0,0-6.25-2.13l-.24-.05v-.23c0-.78.12-1.57.18-2.36S460.7,239.19,460.79,238.4Z" style="fill:#263238"></path><path d="M411.9,346.66l13.66-36.72s-25.84-9-42.32-9.77-14.9,9.05-3.4,20.26S411.9,346.66,411.9,346.66Z" style="fill:#a6a6a6"></path><path d="M418.25,309.36c-2.46,5.56-8.67,20.82-11.34,31.29,0,.07.23.16.25.1,3.6-8.34,9.51-25.49,11.45-31.24C418.65,309.4,418.3,309.26,418.25,309.36Z" style="fill:#263238"></path><path d="M413.25,342.38c-.19.13-1.64,3.21-1.64,3.22-.42-.4-11.09-8.54-12.75-9.75-3.4-2.46-6.94-4.73-10.44-7a.11.11,0,0,0-.13.17c2.75,2.16,5.47,4.39,8.25,6.53-.53-.21-1.05-.42-1.57-.65-1.06-.47-2.08-1-3.12-1.52-.09,0-.17.09-.09.15a17.15,17.15,0,0,0,3.89,2.14,14.75,14.75,0,0,0,1.81.6c.24.17.47.35.7.53,1.64,1.24,13.6,10,13.74,9.9a43.41,43.41,0,0,0,1.54-4.15A.12.12,0,0,0,413.25,342.38Z" style="fill:#263238"></path><path d="M349.71,300.38c-2.89,2.41-5.79,11.45-4.2,17.42s4.76,9.81,10.19,9.32,15.86-4.63,22.66-16.81S363.92,288.48,349.71,300.38Z" style="fill:#dbdbdb"></path><path d="M356.15,320.13c6.68.4,16-11.31,19-20,.2-.59-5.85-22-6.61-26.35l-26.21,11.41s4.28,8.68,5.55,16.29C347.93,302.1,349.69,319.74,356.15,320.13Z" style="fill:#ad6359"></path><path d="M371.55,286.05c-4.88,15.17-18.11,18.56-23.16,19.31-.37-2.15-.53-3.72-.56-3.9-1.28-7.61-5.56-16.3-5.56-16.3l26.22-11.41C368.82,275.66,370.16,280.8,371.55,286.05Z" style="fill:#263238"></path><path d="M373.84,242.36c4.11,9.44,2.18,38.31-4,45.41-9.05,10.3-25.47,13.06-34.63,1.82-8.87-10.89-5.69-48.47,1.43-55.09C347.07,224.75,367.78,228.41,373.84,242.36Z" style="fill:#ad6359"></path><path d="M347.73,262.69c0-.07.14.11.14.18-.18,1.95-.07,4.2,1.65,4.95.06,0,0,.12,0,.11C347.37,267.5,347.24,264.5,347.73,262.69Z" style="fill:#263238"></path><path d="M349.59,260.77c3.14,0,3,6.24.09,6.29S347,260.81,349.59,260.77Z" style="fill:#263238"></path><path d="M337,262.74c0-.07-.15.09-.15.17,0,1.95-.29,4.18-2.07,4.79-.05,0-.05.12,0,.11C336.91,267.56,337.29,264.58,337,262.74Z" style="fill:#263238"></path><path d="M335.27,260.67c-3.13-.31-3.52,6-.62,6.25S337.89,260.93,335.27,260.67Z" style="fill:#263238"></path><path d="M352.14,258a23.52,23.52,0,0,1-2.42-.91,4.15,4.15,0,0,1-2.28-1.4,1.32,1.32,0,0,1,.25-1.61,3.3,3.3,0,0,1,3.33-.26,4.84,4.84,0,0,1,2.74,2.16A1.42,1.42,0,0,1,352.14,258Z" style="fill:#263238"></path><path d="M332.91,257.44a24.06,24.06,0,0,0,2.51-.59,4.06,4.06,0,0,0,2.45-1.09,1.31,1.31,0,0,0,0-1.62,3.3,3.3,0,0,0-3.27-.7,4.86,4.86,0,0,0-3,1.79A1.42,1.42,0,0,0,332.91,257.44Z" style="fill:#263238"></path><path d="M349.64,280.8c-.48.45-1,1.06-1.67,1.11a5.06,5.06,0,0,1-2.08-.54c-.06,0-.13,0-.09.1a2.61,2.61,0,0,0,2.45,1.11,2.05,2.05,0,0,0,1.57-1.69C349.85,280.78,349.71,280.74,349.64,280.8Z" style="fill:#263238"></path><path d="M347.72,274.92a6.59,6.59,0,0,1-4.49,2.85,8.32,8.32,0,0,1-2.39.06,3.2,3.2,0,0,1-.46-.06c-.14,0-.27,0-.42-.08a.48.48,0,0,1-.38-.45h0a.68.68,0,0,1,0-.2h0v-.17c0-1.5.19-3.78.19-3.78-.55.26-3.38,1.45-3.32.67.54-6.48,1.13-13.68,3-20a.18.18,0,0,1,.35.06c-.27,6.25-1.63,12.41-2,18.68a11.37,11.37,0,0,1,3.15-.88c.21.06-.46,4.39-.4,5.07a.32.32,0,0,0,0,.07c2.51.38,4.43-.34,6.91-2C347.69,274.64,347.84,274.77,347.72,274.92Z" style="fill:#263238"></path><path d="M341.74,277.09a7.89,7.89,0,0,0,3.1,2.51,3.45,3.45,0,0,0,2.14.18c1.57-.37,1.64-1.8,1.38-3a8.77,8.77,0,0,0-.65-1.89A10.17,10.17,0,0,1,341.74,277.09Z" style="fill:#263238"></path><path d="M344.84,279.6a3.45,3.45,0,0,0,2.14.18c1.57-.37,1.64-1.8,1.38-3C346.69,276.89,345,278,344.84,279.6Z" style="fill:#ff99ba"></path><path d="M375.89,262.83c-1.92-.45-6.1-7.34-7.89-10.09s-1.95-16.83-1.91-20a21.09,21.09,0,0,1,7.57,8.93C375.58,246,376.27,254.29,375.89,262.83Z" style="fill:#263238;opacity:0.2"></path><path d="M341.2,242.59a10.07,10.07,0,0,0,9,3.75,10.24,10.24,0,0,0,8.12-5.81.08.08,0,0,1,.15.07,10.15,10.15,0,0,1-8.16,6.55,10.34,10.34,0,0,1-9.34-4.41C340.92,242.61,341.1,242.46,341.2,242.59Z" style="fill:#263238"></path><path d="M352.54,218.21c5.81.35,11,3.77,13,7.82a11.3,11.3,0,0,1,.82,7.38c0,.1-.23.07-.21,0a12.38,12.38,0,0,0-5.41-11.4,16,16,0,0,0-14-2.24,10.09,10.09,0,0,0-5.58,4.14c-.12.21-.55.06-.45-.16C342.4,220.15,347.28,217.89,352.54,218.21Z" style="fill:#263238"></path><path d="M318.27,229.52a12.88,12.88,0,0,1,5.73-6.69c3.66-2.07,7.68-1.59,11.67-1,.11,0,.08.19,0,.17-3.4-.46-6.87-.74-10.07.75a12.58,12.58,0,0,0-6.07,5.91A12.3,12.3,0,0,0,324,244.09a12.51,12.51,0,0,0,9.81,1.38c.13,0,.21.15.08.19a12.56,12.56,0,0,1-15.64-16.14Z" style="fill:#263238"></path><path d="M375.36,247.51s5.88-10.22,1.47-16.4c-2.51-3.5-11.2-3.35-11.2-3.35s-2.63-5.08-9.77-7-16,2-16,2-6.77-4.18-13.36-.7c-9.19,4.84-8.52,18.61.4,23.33,6.27,3.32,15.11-2,15.11-2,.83.14,9.18,5.56,15.87-1.82,0,0,5.08,4.83,9.89,1.72A7.58,7.58,0,0,0,375.36,247.51Z" style="fill:#263238"></path><path d="M370.44,266.09s5.54-9.76,9.92-7.87.81,15.63-3.9,17.9a5,5,0,0,1-6.91-2Z" style="fill:#ad6359"></path><path d="M379.24,262.13a.07.07,0,0,1,0,.13c-3.3,1.71-4.8,5.05-5.75,8.46.9-1.36,2.22-2.19,4-1.14.09.06,0,.21-.08.2a3.07,3.07,0,0,0-3.26,1.38,15.67,15.67,0,0,0-1.35,2.87c-.13.32-.7.21-.61-.16a.31.31,0,0,1,0-.08C371.78,269.44,374.59,263,379.24,262.13Z" style="fill:#263238"></path></g><g id="freepik--character-3--inject-17"><path d="M565.48,363.78l6.43-.68a18.1,18.1,0,0,1,1-5c2.25-6.33,7.17-11.57,10.93-16.78,0,0,0,0,0,0a59.56,59.56,0,0,0-8.42,17.57,16.08,16.08,0,0,0-.55,3.89l4-.42a24,24,0,0,1,2.62-11.11c0-.1.21,0,.17.12a23,23,0,0,0-1.34,10.84l34.79-3.67a59,59,0,0,0,.39-9.62.26.26,0,1,1,.51,0,81.89,81.89,0,0,1,0,9.53l2.9-.32a64.71,64.71,0,0,0-1.64-16.38.13.13,0,1,1,.25-.07A76.46,76.46,0,0,1,620.4,358l24.09-2.53A68,68,0,0,1,640.4,345a.23.23,0,1,1,.44-.12,50.79,50.79,0,0,0,5,10.48l3.57-.37a56.68,56.68,0,0,1-6.54-18.73c0-.27.38-.32.44,0,1.35,7.09,5.24,12.78,9.12,18.46l9.06-.95c-3.52-5.31-9.32-10-10.51-16.42-1.32-7.25,5.15-11.16,6.77-17.44,2.72-10.51-3-17.8-10-24.43-6.43-6.12-6.28-13.62-8.28-21.82-1.45-6-3.63-12.69-7.19-17.79-11-15.78-28.54-12.34-28.53-12.1a22.29,22.29,0,0,0-11.37,4.22.05.05,0,0,0-.05,0,6.48,6.48,0,0,0-.67.53,29.51,29.51,0,0,0-8.55,11.66l0,.05a45.08,45.08,0,0,0-1.66,4.47c-.85,2.76-.83,6.5-1.42,10.84a1,1,0,0,1,0,.25,31.22,31.22,0,0,1-10.76,20.15c-9.18,8.13-5.82,20,2.72,31.65,3.62,4.92,3.93,8.23,2.79,11.15,0,0,0,0,0,.05-.17.39-.33.74-.52,1.12-1.7,3.24-5,6.18-7,10.6C565.26,354.51,565,359.15,565.48,363.78Z" style="fill:#263238"></path><path d="M619.3,245a31.26,31.26,0,0,1,16.28,17.47c2.38,6.19,3,13,6,19,2.85,5.62,7.52,9.7,11.36,14.47,5.07,6.3,8.52,14.19,5.08,21.95-2.13,4.8-7.21,9.75-6.59,15.67.73,6.91,7.13,13.25,10.68,18.79.18.27-.2.59-.4.33-4.76-6.21-12.94-14.28-10.82-22.93,1-4,3.38-7.08,5.24-10.52,3.61-6.67,2.39-13.52-1.91-19.9-5.82-8.63-13.17-14-16.14-24.6-1.7-6.08-2.64-12.37-6.06-17.76a31.32,31.32,0,0,0-12.88-11.52C618.93,245.32,619.08,244.91,619.3,245Z" style="fill:#263238"></path><path d="M569.94,348.56c2.45-3.81,5.56-6.69,3.85-12.12-1.2-3.78-4-6.9-6-10.19-5-8.22-8.18-18.74-4.15-27.75,2.27-5.07,6.54-6.54,10-10.35,4.19-4.64,5.47-11.46,6.57-17.74,1.66-9.42,3.82-20.17,13.36-22.88.08,0,.11.12,0,.14-12.1,4.25-11.23,20-14.2,31a24.78,24.78,0,0,1-5.06,10.21c-4,4.42-9,6.12-10.89,12.7-1.73,6.18-.5,12.83,2.07,18.76,2.23,5.14,6.1,9.32,8.23,14.45,1.28,3.07,1.72,6.29.3,9.24-1.1,2.31-3.11,3.93-4.31,6.17a17.91,17.91,0,0,0-1.82,10c0,.36-.47.34-.51,0A17.93,17.93,0,0,1,569.94,348.56Z" style="fill:#263238"></path><path d="M602.94,335.55c-26.68,13.21-74.29,23.37-86.77,11.26-9.15-8.87-19.52-34.09-25-60.25-1.21-5.72,37.07-25.32,38.12-21.34,3.65,13.69,13.26,51,14.42,52.95,1.32,2.21,29.67,1.06,44.06.48C612.52,317.64,621.64,326.29,602.94,335.55Z" style="fill:#f7a9a0"></path><path d="M493.5,289.85c-.53-.59-7.82-9-11.19-14.58-2.52-4.13-9.44-16.21-5.16-19.43,2.91-2.2,7.81,4.42,11.39,9,1.88,2.43,5.66,5,7.2,3.74,2.69-2.24-2.31-8.45-6.25-12.35-7.64-7.55-20.25-16.95-17.19-23.65,1.16-2.54,4.94-1,9,1.7-5.12-4.73-9.7-10-8.53-12.89.67-1.64,2.07-2.09,3.9-1.77-1.05-1.6-1.36-3.19-.51-4.59,1.44-2.38,4.55-2.25,8-1a2.26,2.26,0,0,1,.65-2c4.92-5.55,27.43,9.44,30.88,15.8,10.17,18.7,14.21,40.44,14.21,40.44C525.75,277.85,493.52,289.87,493.5,289.85Z" style="fill:#f7a9a0"></path><path d="M501.7,252.17a28.5,28.5,0,0,0-7.82-10.2c-4-3.23-8.87-5.35-13.18-8.17a.11.11,0,0,0-.12.18c2.18,1.28,4.23,2.79,6.36,4.16s4.21,2.62,6.18,4.1a28.42,28.42,0,0,1,8.51,10S501.72,252.22,501.7,252.17Z" style="fill:#263238"></path><path d="M507.74,244.75c-2.55-4.16-5.14-8.43-8.55-12-3.74-3.92-8.75-6.43-13.6-8.93q-4.36-2.24-8.83-4.3c-.13-.06-.25.12-.13.18q7.49,3.76,14.72,8a38.31,38.31,0,0,1,11.44,10c1.75,2.3,3.31,4.73,4.87,7.16C507.69,244.83,507.77,244.79,507.74,244.75Z" style="fill:#263238"></path><path d="M514,237.71c-2.16-4.13-4-7.73-7.58-11-4.71-4.26-11.61-7.74-14.06-9-2.7-1.34-5.44-2.6-8.21-3.81-.11-.05-.21.13-.1.18a158.15,158.15,0,0,1,17.69,9.64,30.24,30.24,0,0,1,7.2,6.1,51.51,51.51,0,0,1,5,7.82S514,237.73,514,237.71Z" style="fill:#263238"></path><path d="M544.74,318.06l28.79,32.61s21.71-7.42,38.4-17.2,1.09-18.12-25.07-17.7S544.74,318.06,544.74,318.06Z" style="fill:#FFC727"></path><path d="M581.8,345.89c-5.73-7.46-12-14.53-18.38-21.45-1.8-2-3.66-3.88-5.55-5.75-.06-.05-.15,0-.1.07,2.94,3.67,6,7.21,9.1,10.77s6.19,7.12,9.37,10.6c1.79,2,3.58,3.93,5.42,5.86C581.74,346.08,581.87,346,581.8,345.89Z" style="fill:#263238"></path><path d="M611.93,333.47c-16.69,9.78-38.4,17.2-38.4,17.2l-15-17.05s42.49-14,55.36-13.74C620.52,323.17,621.08,328.11,611.93,333.47Z" style="opacity:0.1"></path><path d="M680.06,426.35l-109-.26,6-37.47s-8.62-10.46-7-21.81c1.79-12.44,24.21-43.95,26.1-45.72,7.58-7.12,15.62-8.4,23.34-5.83h0C655.19,337.66,680.06,426.35,680.06,426.35Z" style="fill:#FFC727"></path><path d="M573.29,412.29a2.28,2.28,0,0,0,1.48.56,2.22,2.22,0,1,0,0-4.44,2,2,0,0,0-.89.19l-.08.47a1.84,1.84,0,0,1,2.82,1.57,1.84,1.84,0,0,1-3.25,1.17Zm19.86-9.71a2.21,2.21,0,1,0,2.22-2.23A2.21,2.21,0,0,0,593.15,402.58Zm.38,0a1.83,1.83,0,1,1,1.84,1.83A1.84,1.84,0,0,1,593.53,402.58Zm-17.77-36.07a2.22,2.22,0,1,0,2.23-2.22A2.22,2.22,0,0,0,575.76,366.51Zm.38,0a1.84,1.84,0,1,1,1.85,1.84A1.84,1.84,0,0,1,576.14,366.51Zm79.54,56.13a2.22,2.22,0,0,0,4.44,0,2.22,2.22,0,1,0-4.44,0Zm.38,0a1.84,1.84,0,1,1,1.83,1.82A1.84,1.84,0,0,1,656.06,422.64Zm-23-7.3a2.22,2.22,0,1,0,2.21-2.23A2.22,2.22,0,0,0,633.09,415.34Zm.38,0a1.84,1.84,0,1,1,1.83,1.82A1.84,1.84,0,0,1,633.47,415.34Zm16.69-56.13a2.21,2.21,0,0,0,4.18,1c-.07-.15-.15-.29-.23-.45a1.82,1.82,0,1,1-1.74-2.39,2,2,0,0,1,.55.08l-.23-.44-.32,0A2.21,2.21,0,0,0,650.16,359.21Zm-6.24,17a2.22,2.22,0,1,0,2.21-2.21A2.22,2.22,0,0,0,643.92,376.19Zm.38,0a1.84,1.84,0,1,1,1.83,1.83A1.84,1.84,0,0,1,644.3,376.19Zm-18.65-46.14a2.22,2.22,0,1,0,4.44,0,2.22,2.22,0,0,0-4.44,0Zm.38,0a1.84,1.84,0,1,1,1.85,1.85A1.84,1.84,0,0,1,626,330.05Zm-2.59,38.48a2.22,2.22,0,1,0,2.22-2.21A2.22,2.22,0,0,0,623.44,368.53Zm.38,0a1.84,1.84,0,1,1,1.84,1.85A1.83,1.83,0,0,1,623.82,368.53Zm-19.29-43.44a2.21,2.21,0,1,0,2.21-2.22A2.2,2.2,0,0,0,604.53,325.09Zm.38,0a1.83,1.83,0,1,1,1.83,1.83A1.83,1.83,0,0,1,604.91,325.09Zm-17.41,9.29a2.22,2.22,0,1,0,2.21-2.21A2.22,2.22,0,0,0,587.5,334.38Zm.38,0a1.84,1.84,0,1,1,1.83,1.85A1.84,1.84,0,0,1,587.88,334.38Zm7.1,86a2.22,2.22,0,1,0,2.21-2.21A2.23,2.23,0,0,0,595,420.4Zm.39,0a1.83,1.83,0,1,1,1.82,1.85A1.84,1.84,0,0,1,595.37,420.4Zm19.89-14.46a2.21,2.21,0,1,0,2.21-2.21A2.21,2.21,0,0,0,615.26,405.94Zm.38,0a1.83,1.83,0,1,1,1.83,1.83A1.83,1.83,0,0,1,615.64,405.94Zm-24.32-26.68a2.22,2.22,0,1,0,2.21-2.21A2.22,2.22,0,0,0,591.32,379.26Zm.38,0a1.84,1.84,0,1,1,1.83,1.84A1.83,1.83,0,0,1,591.7,379.26Zm-2.59-27.16a2.21,2.21,0,1,0,2.21-2.21A2.21,2.21,0,0,0,589.11,352.1Zm.38,0a1.83,1.83,0,1,1,1.83,1.83A1.84,1.84,0,0,1,589.49,352.1Zm-14.19,34,.22.34a1.61,1.61,0,0,1,.44-.05,1.84,1.84,0,0,1,1.83,1.82,1.87,1.87,0,0,1-.88,1.57l-.07.47A2.21,2.21,0,0,0,576,386,2.39,2.39,0,0,0,575.3,386.08Zm27.38-21.59a2.22,2.22,0,0,0,4.44,0,2.22,2.22,0,1,0-4.44,0Zm.38,0a1.84,1.84,0,1,1,1.83,1.83A1.83,1.83,0,0,1,603.06,364.49Zm56.56,23.7a2.22,2.22,0,1,0,2.21-2.2A2.21,2.21,0,0,0,659.62,388.19Zm.38,0a1.83,1.83,0,1,1,1.83,1.84A1.83,1.83,0,0,1,660,388.19Zm-44.74,38h.39a1.82,1.82,0,0,1,1.82-1.73,1.84,1.84,0,0,1,1.82,1.74h.39a2.21,2.21,0,0,0-4.42,0Zm17.11-34.56a2.22,2.22,0,1,0,2.22-2.21A2.23,2.23,0,0,0,632.37,391.64Zm.38,0a1.84,1.84,0,1,1,1.84,1.84A1.85,1.85,0,0,1,632.75,391.64ZM631.26,351a2.22,2.22,0,1,0,2.23-2.22A2.23,2.23,0,0,0,631.26,351Zm.38,0a1.84,1.84,0,1,1,1.85,1.83A1.84,1.84,0,0,1,631.64,351Zm39,56.39a2.23,2.23,0,0,0,2.23,2.23,2.21,2.21,0,0,0,1.68-.79l-.15-.43a1.79,1.79,0,0,1-1.53.84,1.84,1.84,0,1,1,0-3.68,1.79,1.79,0,0,1,.57.09l-.15-.43a2.72,2.72,0,0,0-.42,0A2.23,2.23,0,0,0,670.59,407.37Zm-24.11-3.67a2.22,2.22,0,1,0,2.22-2.21A2.23,2.23,0,0,0,646.48,403.7Zm.38,0a1.84,1.84,0,1,1,1.84,1.84A1.84,1.84,0,0,1,646.86,403.7Zm-35.65-17.33a2.22,2.22,0,1,0,2.21-2.22A2.21,2.21,0,0,0,611.21,386.37Zm.38,0a1.84,1.84,0,1,1,1.83,1.82A1.84,1.84,0,0,1,611.59,386.37Zm7-71.41a2.2,2.2,0,0,0,2,1.29,1.54,1.54,0,0,0,.38,0l-.51-.35h0a1.83,1.83,0,0,1-1.33-.73Zm-8.54,27a2.22,2.22,0,1,0,4.44,0,2.22,2.22,0,0,0-4.44,0Zm.38,0a1.84,1.84,0,1,1,1.86,1.86A1.84,1.84,0,0,1,610.46,342Z" style="fill:#fff"></path><path d="M594.34,385.75a90.94,90.94,0,0,1,13.24,2.18c2.16.55,4.27,1.2,6.38,1.89,1.06.35,2.12.66,3.18,1a14.66,14.66,0,0,0,3.41.64.08.08,0,0,1,0,.16,19.29,19.29,0,0,1-6.42-.65c-2.19-.54-4.35-1.18-6.54-1.74-4.41-1.14-8.82-2.27-13.3-3.08A.19.19,0,0,1,594.34,385.75Z" style="fill:#263238"></path><path d="M583.33,389.7a97.1,97.1,0,0,1,11-.53c1.85,0,3.68.15,5.52.33.88.08,1.76.18,2.63.3s1.91.37,2.88.48c.1,0,.1.17,0,.16-.92-.08-1.85,0-2.76,0l-2.76-.08c-1.84,0-3.68-.07-5.52-.13-3.69-.12-7.36-.21-11-.21C583.12,390,583.14,389.72,583.33,389.7Z" style="fill:#263238"></path><path d="M614.44,321.54c-.53,1.85-10.09,13.51-18.61,12.66-2.77-.29-1.91-15.5-1.91-15.5l-.2-1.14L591,301.64l19.12-10.89,2.75-1.43s.45,4.41,1,9.9c0,.25,0,.51.08.78s.07.6.09.89c.09.82.17,1.66.24,2.49,0,.64.11,1.26.14,1.93s.08,1.32.13,2A102.73,102.73,0,0,1,614.44,321.54Z" style="fill:#f7a9a0"></path><path d="M613.85,299.22a32.32,32.32,0,0,1-20.13,18.34L591,301.64l19.12-10.89,2.75-1.43S613.35,293.73,613.85,299.22Z" style="fill:#263238"></path><path d="M570.49,274C564.94,301.84,581,308.3,587,309.5c5.45,1.08,24.11,4.07,32.51-23s-2.77-38.44-15.08-41.58S576.05,246.25,570.49,274Z" style="fill:#f7a9a0"></path><path d="M576,269.32a18.39,18.39,0,0,0,2,.11,3.15,3.15,0,0,0,2-.26,1,1,0,0,0,.32-1.19,2.49,2.49,0,0,0-2.22-1.21,3.71,3.71,0,0,0-2.57.65A1.08,1.08,0,0,0,576,269.32Z" style="fill:#263238"></path><path d="M596,275.21c-.61-.28-1.13-.63-1.7-1s-1.21-.61-1.55-1.32a1,1,0,0,1,.37-1.17,2.49,2.49,0,0,1,2.52.18,3.69,3.69,0,0,1,1.81,1.94A1.08,1.08,0,0,1,596,275.21Z" style="fill:#263238"></path><path d="M590.67,278.7c0-.07.13.13.11.2-.51,1.87-.78,4.08.77,5.11.05,0,0,.13,0,.1C589.51,283.33,589.89,280.39,590.67,278.7Z" style="fill:#263238"></path><path d="M592.81,277.14c3.08.49,1.87,6.6-1,6.15S590.24,276.73,592.81,277.14Z" style="fill:#263238"></path><path d="M594,277.7c.47.45.87,1.16,1.5,1.36s1.42-.31,2-.83c.06-.06.1,0,.09.09-.22,1.17-.9,2.29-2.19,2.21s-1.8-1.26-1.86-2.5C593.51,277.8,593.76,277.52,594,277.7Z" style="fill:#263238"></path><path d="M579.2,276.2c0-.08-.17.06-.18.14-.3,1.91-1,4-2.8,4.35-.06,0-.07.1,0,.1C578.37,280.9,579.22,278.05,579.2,276.2Z" style="fill:#263238"></path><path d="M577.88,273.9c-3-.81-4.41,5.26-1.62,6S580.4,274.58,577.88,273.9Z" style="fill:#263238"></path><path d="M576.52,274c-.56.21-1.16.68-1.75.59s-1-.88-1.29-1.61c0-.07-.09,0-.11.05-.3,1.15-.19,2.45.87,2.93s2-.39,2.49-1.48C576.83,274.28,576.74,273.92,576.52,274Z" style="fill:#263238"></path><path d="M586.94,295.4c-.42.49-.82,1.15-1.52,1.27a5,5,0,0,1-2.1-.3c-.07,0-.12.05-.08.1a2.59,2.59,0,0,0,2.53.84,2.07,2.07,0,0,0,1.37-1.83C587.16,295.36,587,295.33,586.94,295.4Z" style="fill:#263238"></path><path d="M580.07,287.07s-1,2.74-1.26,4.07c0,.13.28.26.73.38,0,0,0,0,.05,0a6.46,6.46,0,0,0,6.64-1.08c.12-.11,0-.28-.16-.22a9.77,9.77,0,0,1-6.13.44c0-.39,1.84-4.63,1.63-4.69a11.64,11.64,0,0,0-3.16,0c1.88-5.77,4.66-11.19,6.45-16.95.06-.21-.23-.34-.33-.16-3.33,5.47-5.63,12.06-7.72,18C576.54,287.61,579.49,287.19,580.07,287.07Z" style="fill:#263238"></path><path d="M579.9,291.23a7.84,7.84,0,0,0,2.47,3.12,3.46,3.46,0,0,0,2.06.65c1.6,0,2-1.4,2-2.65a8.6,8.6,0,0,0-.22-2A10.23,10.23,0,0,1,579.9,291.23Z" style="fill:#263238"></path><path d="M582.37,294.35a3.46,3.46,0,0,0,2.06.65c1.6,0,2-1.4,2-2.65C584.77,292.11,582.9,292.81,582.37,294.35Z" style="fill:#ff99ba"></path><path d="M612.68,244.85c.47,2.37,12.66,6.5,19.94-.78s2.15-18.92-8.82-16.13C616.87,229.7,611.66,239.82,612.68,244.85Z" style="fill:#263238"></path><path d="M635.2,232.68a14.22,14.22,0,0,0-7.18-6,8.58,8.58,0,0,0-8.47,1.21,17.27,17.27,0,0,0-5.31,7.54,26.16,26.16,0,0,0-1.33,4.61,12.86,12.86,0,0,0-.23,4.83,11.44,11.44,0,0,1-.65-4.93,21.58,21.58,0,0,1,.87-5,16.75,16.75,0,0,1,5.55-8.52,9.56,9.56,0,0,1,10.1-1.07A12.52,12.52,0,0,1,635.2,232.68Z" style="fill:#263238"></path><path d="M616,289c-5.78-1.47-2.84-14.82-2.84-14.82s-9.36-4.19-11.82-11.83c0,0,1.32,6.42,4.6,9.72.54.56-18.89-6.26-17.09-22,0,0-6.56,14.36-16.39,15.25-.47,0,4.64-13.4,8.34-15.91a29.93,29.93,0,0,1,6.89-3.53,29.3,29.3,0,0,1,22.19-.37c11.81,4.73,16.72,19.51,16.37,25C625.57,281.34,618.74,289.67,616,289Z" style="fill:#263238"></path><path d="M605.21,272.23c-10.75-3.1-17.72-12.11-16-23.43,0-.28-.38-.38-.48-.12-4.19,10.9,6,22.09,16.48,23.77C605.52,272.49,605.46,272.3,605.21,272.23Z" style="fill:#263238"></path><path d="M616.12,288.36c-5.16-4.44-4.67-10.58-3.66-16.69,0-.18-.27-.26-.32-.08-1.51,5.87-2.18,13.34,3.65,17.21A.28.28,0,0,0,616.12,288.36Z" style="fill:#263238"></path><path d="M589.3,247.76c0-.06-.09-.08-.12,0-2.82,5.9-5.62,16.33-14,16a.17.17,0,0,0,0,.34C583.16,265.11,588.59,254.4,589.3,247.76Z" style="fill:#263238"></path><path d="M615,273.9l3.33,5.88,8.43-7.2L625.17,270Zm2.53,1,6.74-3,.34.61-5.87,4.46Z" style="fill:#FFC727"></path><path d="M613.5,265l.86,6.69,10.52-3.49-.44-3Zm2,1.86,7.38-.26.09.7-7.12,1.92Z" style="fill:#FFC727"></path><path d="M614.62,287.75s7.12-8.11,10.87-5.48-2.3,14.87-7.17,16.1a4.8,4.8,0,0,1-6.1-3.27Z" style="fill:#f7a9a0"></path><path d="M623.67,285.74c.08,0,.08.11,0,.13-3.43,1-5.5,3.81-7.06,6.84,1.11-1.11,2.51-1.63,4-.28.08.07,0,.19-.11.16a2.93,2.93,0,0,0-3.33.67,14.11,14.11,0,0,0-1.84,2.43c-.18.28-.7.06-.55-.26,0,0,0-.05,0-.08C615.22,291.16,619.13,285.66,623.67,285.74Z" style="fill:#263238"></path><path d="M632.24,322.22c19.92,17.09,70.24,83.94,58,98.66s-90.45,5.44-113-2.38c-6.7-2.32,13.08-44.71,20.46-46.47,6.15-1.47,39.62,9.56,40.34,7.63.81-2.19-7.9-14.68-18.64-41.5C607,307.23,623.43,314.67,632.24,322.22Z" style="fill:#f7a9a0"></path><path d="M564.62,362.73c-15.72-.43-19.82,1.87-32.89-5.54-8.57-4.86-15.36-1.47-9.81,7.15,9.06,14.11,29.22,18.93,36.69,18.59Z" style="fill:#f7a9a0"></path><path d="M607.39,373.06s-18.47-7.72-35.17-9.84c-11.55-1.47-37-1.86-58.32,25.61-5,6.52-7.62,19.38,4.49,11.74,8.6-5.43,12.41-11.48,18-13.73,0,0-1.33,16.76,5.4,21.56a151.79,151.79,0,0,0,18.46,11.3,32.12,32.12,0,0,0,2.43-3.27s6.7,3.9,18.24,1.49Z" style="fill:#f7a9a0"></path><path d="M561,363.58c-5.06,3.4-15.68,10.79-22.26,19.86-7.31,10.07-18.68,31.44-11.19,36.76,5.49,3.9,10.55-3.88,10.55-3.88s-2.84,9.82,2.9,12.26c5.22,2.22,8.77-4,8.77-4s-.7,6.26,4.75,7.43c6.54,1.41,6.93-11.93,14.79-16.23C571.05,414.78,561,363.58,561,363.58Z" style="fill:#f7a9a0"></path><path d="M550.64,389.39c-4.24,4-11.55,15.49-12.68,26.7,0,.25.15.41.23.18a121.89,121.89,0,0,1,12.54-26.81A.06.06,0,0,0,550.64,389.39Z" style="fill:#263238"></path><path d="M560.59,397.06c-3.31,3.81-10.31,16-11.06,27.41,0,.25.17.4.23.17a131.48,131.48,0,0,1,10.93-27.52C560.72,397.07,560.63,397,560.59,397.06Z" style="fill:#263238"></path><path d="M536.37,386.74c-4.88,2.05-7.88,4.89-11.81,8.32a70.2,70.2,0,0,1-6,4.83c-1.93,1.34-4.78,3.36-7.16,1.86-1.32-.83-1.5-2.59-1.38-4a11.16,11.16,0,0,1,1.34-4.56c0-.07-.09-.15-.13-.08a15.42,15.42,0,0,0-1.67,4,6.83,6.83,0,0,0,0,4c1.06,2.7,4.38,2.7,6.61,1.68a22.59,22.59,0,0,0,3.76-2.36c1.14-.84,2.25-1.73,3.33-2.65,2.21-1.89,4.32-3.9,6.52-5.81a66.11,66.11,0,0,1,6.74-5A.09.09,0,0,0,536.37,386.74Z" style="fill:#263238"></path><path d="M527.78,405.66c1-3,6.72-15.78,8.71-18.81a.08.08,0,0,0-.12-.09c-3.52,4.17-8.73,14.77-9.85,18.1s-2.34,7.49-1.95,11c.58,5.27,4.19,5.88,5.51,6a6.84,6.84,0,0,0,4.4-1.24,13.73,13.73,0,0,0,3.64-4.27c0-.08-.06-.16-.11-.09-1.59,2.28-4.4,4.67-7.31,4.61a4.8,4.8,0,0,1-3.45-1.39,6.26,6.26,0,0,1-1.32-4.16A29.24,29.24,0,0,1,527.78,405.66Z" style="fill:#263238"></path><path d="M549.53,424.47c-.67.71-1.94,3.06-4.28,3.8a5.49,5.49,0,0,1-5.07-.56,6.88,6.88,0,0,1-2.43-4.58,43.42,43.42,0,0,1,.37-6.75c0-.11-.12-.14-.14,0a24.75,24.75,0,0,0-.79,7.31,7.21,7.21,0,0,0,2.6,5,5.42,5.42,0,0,0,5.64.53c.9-.46,3.66-2.69,4.31-4.66C549.75,424.51,549.56,424.44,549.53,424.47Z" style="fill:#263238"></path><path d="M568.68,414.86a12.74,12.74,0,0,0-2,2.13c-.66.79-1.3,1.61-1.91,2.44a30.41,30.41,0,0,0-3.09,5.4c-.86,1.91-1.62,4-3.22,5.45a5,5,0,0,1-5.75.78,4.84,4.84,0,0,1-2.1-2.47,9.3,9.3,0,0,1-.74-3.56c0-.1-.14-.1-.14,0a17.32,17.32,0,0,0,.1,3.3,6,6,0,0,0,1.34,2.66,5.55,5.55,0,0,0,5.61,1.41,8.16,8.16,0,0,0,4.58-4.41c1.11-2.14,2-4.39,3.18-6.48.63-1.1,1.25-2.22,2-3.27s1.67-2.11,2.34-3.25C568.87,414.9,568.78,414.78,568.68,414.86Z" style="fill:#263238"></path><path d="M575.35,418.66a45.36,45.36,0,0,1-8.69-.81c-.09,0-.18.24-.1.28a20.09,20.09,0,0,0,4.34.91,15,15,0,0,0,4.44-.22C575.42,418.8,575.44,418.66,575.35,418.66Z" style="fill:#263238"></path><path d="M668.39,390.37a112.24,112.24,0,0,0-14.9-6.45A109.35,109.35,0,0,0,638,379.81c-3-.59-6-1-9-1.51-.09,0-.11.12,0,.14a140.62,140.62,0,0,1,15.65,4q7.66,2.34,15.24,5c2.86,1,5.67,2.11,8.49,3.2A.11.11,0,0,0,668.39,390.37Z" style="fill:#263238"></path><path d="M673.71,363.14l-43.38,3.38s-10.42-20.44-15.59-39.08,11-14.57,29.5,3.94S673.71,363.14,673.71,363.14Z" style="fill:#FFC727"></path><path d="M632.09,366.17c-.23,0-1.78-.07-1.79-.07-.17-.55-3.63-9.19-4.49-11.06-1.76-3.81-3.75-7.52-5.68-11.25a.11.11,0,0,0-.19.09c1.35,3.23,2.64,6.5,4,9.73-.36-.44-.71-.89-1.05-1.34-.69-.92-1.32-1.9-2-2.85a.09.09,0,0,0-.15.09,17.12,17.12,0,0,0,2.35,3.77,13.13,13.13,0,0,0,1.29,1.4l.35.81c.83,1.88,5.07,11.18,5.23,11.17l2.09-.19C632.2,366.46,632.21,366.16,632.09,366.17Z" style="fill:#263238"></path><path d="M665.78,355.55c-9.4.34-18.79,1.34-28.13,2.52-2.64.34-5.28.73-7.91,1.19a.06.06,0,0,0,0,.12c4.69-.27,9.36-.73,14-1.16s9.39-.91,14.07-1.48c2.65-.32,5.29-.64,7.92-1C665.9,355.71,665.9,355.55,665.78,355.55Z" style="fill:#263238"></path></g><g id="freepik--Devices--inject-17"><rect x="139.55" y="429.75" width="111.19" height="4.99" style="fill:#455a64"></rect><rect x="139.55" y="429.75" width="55.97" height="4.99" style="fill:#263238"></rect><polygon points="194.22 434.73 302.58 434.73 317.9 361.13 209.53 361.13 194.22 434.73" style="fill:#37474f"></polygon><path d="M247.66,399.57a6.38,6.38,0,0,0,6.46,7.22,8.21,8.21,0,0,0,8-7.22,6.38,6.38,0,0,0-6.46-7.22A8.21,8.21,0,0,0,247.66,399.57Z" style="fill:#fff"></path><rect x="488.13" y="428.84" width="111.19" height="4.99" style="fill:#455a64"></rect><rect x="543.36" y="428.84" width="55.97" height="4.99" style="fill:#263238"></rect><polygon points="544.66 433.82 436.29 433.82 420.98 360.22 529.35 360.22 544.66 433.82" style="fill:#37474f"></polygon><path d="M491.22,398.66a6.39,6.39,0,0,1-6.47,7.23,8.23,8.23,0,0,1-8-7.23,6.38,6.38,0,0,1,6.47-7.22A8.22,8.22,0,0,1,491.22,398.66Z" style="fill:#fff"></path></g><g id="freepik--speech-bubbles--inject-17"><path d="M245.14,151.14A52.48,52.48,0,0,1,181.43,220l-21.79,15.16,1.64-26.18a52.5,52.5,0,1,1,83.86-57.8Z" style="fill:#fff"></path><path d="M245.14,151.14a52.88,52.88,0,0,1,2.38,28.54,57.13,57.13,0,0,1-1.82,7,60.28,60.28,0,0,1-2.86,6.67A52,52,0,0,1,217,218a46.22,46.22,0,0,1-6.85,2.56,52.88,52.88,0,0,1-29,.1l.64-.11-21.69,15.31L158.59,237l.12-1.93,1.55-26.19.35.83a53.1,53.1,0,0,1-18-43.33,53.67,53.67,0,0,1,6.91-23,53.39,53.39,0,0,1,38.54-26.14,53.69,53.69,0,0,1,23.66,2.09A52.82,52.82,0,0,1,245.14,151.14Zm0,0a51.94,51.94,0,0,0-78.62-24.32,51.5,51.5,0,0,0-15.59,17.33,54,54,0,0,0-6.42,22.34,51.9,51.9,0,0,0,3.93,22.86A52.46,52.46,0,0,0,162,208.17l.38.34,0,.5-1.73,26.17-1.45-.82,21.89-15,.3-.21.34.1a51.63,51.63,0,0,0,28.27.38,43.93,43.93,0,0,0,6.77-2.4A50.59,50.59,0,0,0,223.1,214a51.9,51.9,0,0,0,11.18-9,48.93,48.93,0,0,0,8.29-11.76,47.16,47.16,0,0,0,4.76-13.6A52.74,52.74,0,0,0,245.14,151.14Z" style="fill:#263238"></path><path d="M231.29,170.78a6.51,6.51,0,0,1-11.54,4.13,3.21,3.21,0,0,0-2.47-1.22,3.11,3.11,0,0,0-3.12,3.12v16.32H197.85a3.11,3.11,0,0,1-1.91-5.57,6.51,6.51,0,1,0-8.24,0,3.18,3.18,0,0,1,1.21,2.45,3.13,3.13,0,0,1-.91,2.21,3.17,3.17,0,0,1-2.21.91h-16.3V148.44h16.3a3.12,3.12,0,0,1,3.12,3.12A3.21,3.21,0,0,1,187.7,154a6.5,6.5,0,1,0,8.24,0,3.18,3.18,0,0,1-1.21-2.46,3.12,3.12,0,0,1,3.12-3.12h16.31v16.31a3.12,3.12,0,0,0,3.12,3.12,3.19,3.19,0,0,0,2.47-1.2,6.5,6.5,0,0,1,11.54,4.11Z" style="fill:#FFC727"></path><path d="M493.73,151.14A52.48,52.48,0,0,0,557.45,220l21.79,15.16-1.64-26.18a52.5,52.5,0,1,0-83.87-57.8Z" style="fill:#fff"></path><path d="M527.13,119.33A52.39,52.39,0,0,1,573,125.86a52.91,52.91,0,0,1,16.31,17.52,53.68,53.68,0,0,1,6.92,23,53.1,53.1,0,0,1-18,43.33l.35-.83,1.55,26.19.11,1.93-1.57-1.11L557,220.58l.64.11a52.91,52.91,0,0,1-29-.1,46.53,46.53,0,0,1-6.84-2.56,53,53,0,0,1-6.47-3.38A53.17,53.17,0,0,1,496,193.38a60.35,60.35,0,0,1-2.87-6.67,61,61,0,0,1-1.82-7,52.81,52.81,0,0,1,35.78-60.35Zm-35.58,60.31a47.16,47.16,0,0,0,4.76,13.6A48.65,48.65,0,0,0,504.6,205a51.84,51.84,0,0,0,11.17,9,50.72,50.72,0,0,0,6.43,3.21,44.19,44.19,0,0,0,6.76,2.4,51.67,51.67,0,0,0,28.28-.38l.34-.1.3.21,21.89,15-1.46.82L576.58,209l0-.5.38-.34a52.44,52.44,0,0,0,13.5-18.82,51.76,51.76,0,0,0,3.94-22.86A54.19,54.19,0,0,0,588,144.15a51.6,51.6,0,0,0-15.59-17.33A52.25,52.25,0,0,0,550.67,118a51.88,51.88,0,0,0-59.12,61.66Z" style="fill:#263238"></path><path d="M507.24,170.79a6.5,6.5,0,0,1,11.54-4.12,3.19,3.19,0,0,0,2.47,1.21,3.12,3.12,0,0,0,3.12-3.12V148.44h16.3a3.12,3.12,0,0,1,3.12,3.12,3.17,3.17,0,0,1-1.2,2.46,6.51,6.51,0,1,0,8.24,0,3.18,3.18,0,0,1-1.21-2.46,3.12,3.12,0,0,1,3.12-3.12H569v44.69H552.74a3.11,3.11,0,0,1-1.91-5.57,6.5,6.5,0,1,0-8.24,0,3.11,3.11,0,0,1-1.92,5.57h-16.3v-16.3a3.13,3.13,0,0,0-3.12-3.13,3.19,3.19,0,0,0-2.47,1.21,6.51,6.51,0,0,1-11.54-4.12Z" style="fill:#FFC727"></path><path d="M336.6,90.6a52.49,52.49,0,0,0,19.32,91.78l10.92,24.2,12-23.31A52.51,52.51,0,1,0,336.6,90.6Z" style="fill:#fff"></path><path d="M381.59,80.46a52.45,52.45,0,0,1,36,29.17,53,53,0,0,1,5,23.4,53.74,53.74,0,0,1-5.89,23.29,53.07,53.07,0,0,1-37.66,28l.72-.53L367.66,207l-.89,1.71L366,207l-10.75-24.27.49.42a53,53,0,0,1-24.8-15,46.21,46.21,0,0,1-4.56-5.71A52.72,52.72,0,0,1,316.89,128a60,60,0,0,1,1-7.19,59.9,59.9,0,0,1,2-7,52.8,52.8,0,0,1,61.69-33.41Zm-61.5,33.48a57.49,57.49,0,0,0-2,7,59.37,59.37,0,0,0-.91,7.16,49,49,0,0,0,1.08,14.35,52.18,52.18,0,0,0,5,13.47,49.78,49.78,0,0,0,3.87,6.06,44.73,44.73,0,0,0,4.57,5.53,51.77,51.77,0,0,0,24.46,14.19l.34.09.15.33,11.08,24.13-1.68,0,12-23.35.23-.44.49-.09A52.62,52.62,0,0,0,400,173.05a52.05,52.05,0,0,0,15.12-17.59A54.25,54.25,0,0,0,421,133a51.54,51.54,0,0,0-4.48-22.88,52.48,52.48,0,0,0-14.06-18.72,51.89,51.89,0,0,0-82.4,22.55Z" style="fill:#263238"></path><path d="M391,109.77v16.32a3.12,3.12,0,0,1-3.12,3.11h0a3.2,3.2,0,0,1-2.46-1.2,6.5,6.5,0,1,0,0,8.24,3.18,3.18,0,0,1,2.46-1.21h0a3.12,3.12,0,0,1,3.12,3.12v16.31H374.65a3.12,3.12,0,0,0-3.12,3.12h0a3.18,3.18,0,0,0,1.21,2.46,6.51,6.51,0,1,1-8.24,0,3.2,3.2,0,0,0,1.2-2.46h0a3.12,3.12,0,0,0-3.11-3.12H346.27V138.15a3.12,3.12,0,0,1,3.12-3.12h0a3.18,3.18,0,0,1,2.46,1.21,6.51,6.51,0,1,0,0-8.24,3.2,3.2,0,0,1-2.46,1.2h0a3.12,3.12,0,0,1-3.12-3.11V109.77h16.32a3.12,3.12,0,0,0,3.11-3.12h0a3.2,3.2,0,0,0-1.2-2.46,6.5,6.5,0,1,1,8.24,0,3.18,3.18,0,0,0-1.21,2.46h0a3.12,3.12,0,0,0,3.12,3.12Z" style="fill:#37474f"></path></g><g id="freepik--Plant--inject-17"><path d="M426.17,346.9c-12,16.24-24.5,35.1-27.55,55.47,0,.31.46.41.53.1a120.86,120.86,0,0,1,5.31-16.31c7.88-2.17,15.62-4,19.76-11.78,4.23-8.05,3.69-18.54,2.89-27.3C427.05,346.61,426.41,346.59,426.17,346.9Z" style="fill:#FFC727"></path><path d="M404.57,386c5.39-12.09,12.31-24.24,21.1-34.18.06-.07.15,0,.1.1-5.76,7.08-10.13,14.79-14.4,22.64,4-4,8.32-7.65,12.08-11.92.08-.08.19,0,.12.12-3.73,4.48-7.81,9.35-12.68,12.67q-2,3.62-3.95,7.24c.32-.18.66-.35,1-.51.05,0,.11.06.05.09-.37.18-.74.38-1.12.54-.64,1.15-1.26,2.29-1.91,3.43C404.81,386.48,404.46,386.26,404.57,386Z" style="fill:#263238"></path><path d="M408.58,381.79a71.32,71.32,0,0,0,9.21-6.15c.08-.06.19.05.11.11a48.5,48.5,0,0,1-9.18,6.26C408.57,382.09,408.44,381.87,408.58,381.79Z" style="fill:#263238"></path><path d="M397.24,399.34c0,.25.44.24.43,0,.07-6.71,0-13.45.11-20.19,1.72-3.47,5.41-5.39,8-8.17a35.65,35.65,0,0,0,4.79-6.66,47.81,47.81,0,0,0,5.55-18.5c.71-7.18-2-30.86-5-30-1.57.43-6.65,12.16-8,16a111.32,111.32,0,0,0-4.78,19.65C395.83,367.24,396,383.45,397.24,399.34Z" style="fill:#FFC727"></path><path d="M397.19,370.4l0,0c.36-8.49,2.28-17.06,4.07-25.29,1.93-8.87,4.18-17.22,8.74-25.13a.13.13,0,0,1,.23.13,93.15,93.15,0,0,0-7,19.29c.31-.48.68-.93,1-1.38.12-.18.42,0,.29.17a11.93,11.93,0,0,1-1.42,2l-.06,0c-1.57,6.34-2.7,12.82-3.67,19.29.08-.08.15-.17.22-.25s.13,0,.1.08-.26.43-.39.64c-.48,3.28-.93,6.56-1.39,9.81,5.85-5,10.84-10.89,13.66-18.14,0,0,.07,0,.05,0-2.76,7.53-7.1,14.22-13.8,18.79-.12.87-.24,1.75-.37,2.62,0,.18-.31.13-.31-.05,0-.77,0-1.54.07-2.32A.18.18,0,0,1,397.19,370.4Z" style="fill:#263238"></path><path d="M399.94,358.1c4.47-6.67,8.64-13.14,11.91-20.51,0-.08.18,0,.15.06-2.76,7.32-6.62,14.74-11.84,20.62C400.06,358.39,399.85,358.24,399.94,358.1Z" style="fill:#263238"></path><path d="M405.88,335.94c1.85-3.27,3.8-6.46,5.54-9.8.05-.09.18,0,.14.08a51,51,0,0,1-5.4,9.89A.16.16,0,0,1,405.88,335.94Z" style="fill:#263238"></path><path d="M405.15,337.37s0,.05,0,.05A0,0,0,0,1,405.15,337.37Z" style="fill:#263238"></path><path d="M392.69,379.94a68.29,68.29,0,0,1-1.56,13.22c.07.47.13.95.2,1.44a62.47,62.47,0,0,0,2.37-14.73.44.44,0,0,0,0-.46h0a98.33,98.33,0,0,0-1.48-20c-2.08-12.33-6.62-24.16-15.22-33.4a.61.61,0,0,0-.95.19c-3.47,8.82-2.26,19.35.7,28.15a51.31,51.31,0,0,0,6.82,13.37C386.54,371.9,390.3,375.41,392.69,379.94Z" style="fill:#FFC727"></path><path d="M378,330.17c8.15,13.22,13.82,28.9,14.51,44.52,0,.28-.45.35-.49.07-.19-1.4-.41-2.79-.63-4.18h0c-3.37-3.22-6.83-6.63-9.24-10.67,0-.07.06-.15.11-.09a112.5,112.5,0,0,0,9,9.78c-.58-3.46-1.27-6.85-2.09-10.2-.22-.25-.43-.51-.64-.76s.09-.41.24-.24l.19.21a115.86,115.86,0,0,0-4.26-13.52c-2.07-2.48-4.39-4.62-5.9-7.6a.06.06,0,0,1,.11-.06c1.21,1.7,2.39,3.42,3.77,5,.54.63,1.15,1.22,1.72,1.84a105.33,105.33,0,0,0-6.67-13.91A.18.18,0,0,1,378,330.17Z" style="fill:#263238"></path><path d="M379.69,346.48c2.63,3.54,5.63,6.93,8.08,10.59.07.11-.08.21-.17.13a54.11,54.11,0,0,1-8.09-10.62C379.44,346.47,379.61,346.38,379.69,346.48Z" style="fill:#263238"></path><path d="M388.14,357.89l.11.11a.08.08,0,0,1-.12.12L388,358A.08.08,0,0,1,388.14,357.89Z" style="fill:#263238"></path><path d="M365.27,355.59a40.67,40.67,0,0,0,8.6,20.17,21.44,21.44,0,0,0,7,5.45c3,1.49,6.18,3.21,9.3,4.44a61.38,61.38,0,0,1,3.3,11.7l.3-1c-2-17.23-13.15-32-27.41-41.41A.7.7,0,0,0,365.27,355.59Z" style="fill:#FFC727"></path><path d="M370.2,360.68c-.1-.09,0-.27.14-.19a58.3,58.3,0,0,1,18.17,22.39c.11.24-.22.45-.35.21-.66-1.16-1.34-2.29-2-3.4h0c-3.25-.61-6.33-2.9-8.75-5.08-.06-.06,0-.15.1-.09a19.71,19.71,0,0,0,4.12,2.89c1.32.67,2.75,1.1,4.13,1.64-1.2-1.92-2.46-3.75-3.77-5.53a38.33,38.33,0,0,1-9.79-5.5.09.09,0,0,1,.1-.16,98.14,98.14,0,0,0,9.09,4.86,82.34,82.34,0,0,0-6.42-7.48c-1.11-.59-2.23-1.17-3.3-1.8a.09.09,0,0,1,.07-.17,12.39,12.39,0,0,1,2.53,1.25C372.94,363.22,371.62,361.93,370.2,360.68Z" style="fill:#263238"></path><path d="M370.5,366.63a3.63,3.63,0,0,1,.55.39c.05,0,0,.11-.07.09a3.25,3.25,0,0,1-.57-.33C370.31,366.72,370.4,366.56,370.5,366.63Z" style="fill:#263238"></path><polygon points="416 434.66 376.93 434.66 380.08 399.08 380.77 391.23 412.15 391.23 412.85 399.08 416 434.66" style="fill:#455a64"></polygon><polygon points="412.85 399.08 380.08 399.08 380.77 391.23 412.15 391.23 412.85 399.08" style="fill:#263238"></polygon><rect x="378.91" y="385.74" width="35.12" height="7.77" style="fill:#455a64"></rect></g></svg>
