<svg xmlns="http://www.w3.org/2000/svg" viewBox="0 0 500 500"><g id="freepik--background-complete--inject-51"><rect y="382.4" width="500" height="0.25" style="fill:#ebebeb"></rect><rect x="416.78" y="398.49" width="33.12" height="0.25" style="fill:#ebebeb"></rect><rect x="322.53" y="401.21" width="8.69" height="0.25" style="fill:#ebebeb"></rect><rect x="396.59" y="389.21" width="19.19" height="0.25" style="fill:#ebebeb"></rect><rect x="52.46" y="390.89" width="43.19" height="0.25" style="fill:#ebebeb"></rect><rect x="104.56" y="390.89" width="6.33" height="0.25" style="fill:#ebebeb"></rect><rect x="131.47" y="395.11" width="93.68" height="0.25" style="fill:#ebebeb"></rect><path d="M237,337.8H43.91a5.71,5.71,0,0,1-5.7-5.71V60.66A5.71,5.71,0,0,1,43.91,55H237a5.71,5.71,0,0,1,5.71,5.71V332.09A5.71,5.71,0,0,1,237,337.8ZM43.91,55.2a5.46,5.46,0,0,0-5.45,5.46V332.09a5.46,5.46,0,0,0,5.45,5.46H237a5.47,5.47,0,0,0,5.46-5.46V60.66A5.47,5.47,0,0,0,237,55.2Z" style="fill:#ebebeb"></path><path d="M453.31,337.8H260.21a5.72,5.72,0,0,1-5.71-5.71V60.66A5.72,5.72,0,0,1,260.21,55h193.1A5.71,5.71,0,0,1,459,60.66V332.09A5.71,5.71,0,0,1,453.31,337.8ZM260.21,55.2a5.47,5.47,0,0,0-5.46,5.46V332.09a5.47,5.47,0,0,0,5.46,5.46h193.1a5.47,5.47,0,0,0,5.46-5.46V60.66a5.47,5.47,0,0,0-5.46-5.46Z" style="fill:#ebebeb"></path><rect x="149.42" y="114.91" width="5.24" height="140.19" transform="translate(304.07 370.02) rotate(180)" style="fill:#e0e0e0"></rect><rect x="152.44" y="114.91" width="59.59" height="140.19" style="fill:#e0e0e0"></rect><rect x="151.92" y="114.91" width="63.3" height="140.19" style="fill:#f0f0f0"></rect><rect x="156.12" y="118.43" width="54.72" height="131.62" style="fill:#fff"></rect><rect x="208.11" y="118.43" width="2.74" height="131.62" style="fill:#e0e0e0"></rect><rect x="180.77" y="196.62" width="2.74" height="52.52" transform="translate(-40.74 405.02) rotate(-90)" style="fill:#e0e0e0"></rect><rect x="154.66" y="216.91" width="56.19" height="4.6" style="fill:#f0f0f0"></rect><rect x="267.72" y="184.27" width="156.54" height="198.22" transform="translate(691.97 566.75) rotate(180)" style="fill:#f0f0f0"></rect><rect x="273.25" y="191.49" width="145.47" height="42.39" transform="translate(691.97 425.37) rotate(180)" style="fill:#e0e0e0"></rect><rect x="410.45" y="198.35" width="8.26" height="35.52" transform="translate(829.17 432.23) rotate(180)" style="fill:#ebebeb"></rect><rect x="370.5" y="198.35" width="8.26" height="35.52" transform="translate(749.26 432.23) rotate(180)" style="fill:#ebebeb"></rect><rect x="322.06" y="197.91" width="8.26" height="35.52" transform="translate(611.01 483.61) rotate(-170.22)" style="fill:#ebebeb"></rect><rect x="400.21" y="203.03" width="8.26" height="30.84" transform="translate(808.69 436.91) rotate(180)" style="fill:#ebebeb"></rect><rect x="381.22" y="203.03" width="8.26" height="30.84" transform="translate(770.71 436.91) rotate(180)" style="fill:#ebebeb"></rect><rect x="333.28" y="203.03" width="8.26" height="30.84" transform="translate(674.82 436.91) rotate(180)" style="fill:#ebebeb"></rect><rect x="356.2" y="202.5" width="8.26" height="30.84" transform="translate(664.81 508.83) rotate(-167.47)" style="fill:#ebebeb"></rect><rect x="393.07" y="196.59" width="4.13" height="37.29" transform="translate(790.27 430.47) rotate(180)" style="fill:#ebebeb"></rect><rect x="343.92" y="196.59" width="4.13" height="37.29" transform="translate(691.97 430.47) rotate(180)" style="fill:#ebebeb"></rect><rect x="273.25" y="240.59" width="145.47" height="42.39" style="fill:#e0e0e0"></rect><rect x="273.25" y="247.45" width="8.26" height="35.52" style="fill:#ebebeb"></rect><rect x="313.21" y="247.45" width="8.26" height="35.52" style="fill:#ebebeb"></rect><rect x="361.64" y="247.01" width="8.26" height="35.52" transform="translate(-39.65 65.97) rotate(-9.78)" style="fill:#ebebeb"></rect><rect x="283.49" y="252.13" width="8.26" height="30.84" style="fill:#ebebeb"></rect><rect x="302.48" y="252.13" width="8.26" height="30.84" style="fill:#ebebeb"></rect><rect x="350.42" y="252.13" width="8.26" height="30.84" style="fill:#ebebeb"></rect><rect x="327.5" y="251.6" width="8.26" height="30.84" transform="translate(-50.03 78.29) rotate(-12.53)" style="fill:#ebebeb"></rect><rect x="294.76" y="245.69" width="4.13" height="37.29" style="fill:#ebebeb"></rect><rect x="343.92" y="245.69" width="4.13" height="37.29" style="fill:#ebebeb"></rect><rect x="410.45" y="247.45" width="8.26" height="35.52" transform="translate(829.17 530.43) rotate(180)" style="fill:#ebebeb"></rect><rect x="400.21" y="252.13" width="8.26" height="30.84" transform="translate(808.69 535.11) rotate(180)" style="fill:#ebebeb"></rect><rect x="381.22" y="252.13" width="8.26" height="30.84" transform="translate(770.71 535.11) rotate(180)" style="fill:#ebebeb"></rect><rect x="393.07" y="245.69" width="4.13" height="37.29" transform="translate(790.27 528.66) rotate(180)" style="fill:#ebebeb"></rect><rect x="273.25" y="289.69" width="145.47" height="42.39" transform="translate(691.97 621.76) rotate(180)" style="fill:#e0e0e0"></rect><rect x="326.96" y="296.55" width="8.26" height="35.52" transform="translate(662.18 628.62) rotate(180)" style="fill:#ebebeb"></rect><rect x="278.52" y="296.11" width="8.26" height="35.52" transform="matrix(-0.99, -0.17, 0.17, -0.99, 507.89, 671.18)" style="fill:#ebebeb"></rect><rect x="356.68" y="301.23" width="8.26" height="30.84" transform="translate(721.62 633.3) rotate(180)" style="fill:#ebebeb"></rect><rect x="337.68" y="301.23" width="8.26" height="30.84" transform="translate(683.63 633.3) rotate(180)" style="fill:#ebebeb"></rect><rect x="289.74" y="301.23" width="8.26" height="30.84" transform="translate(587.75 633.3) rotate(180)" style="fill:#ebebeb"></rect><rect x="312.66" y="300.7" width="8.26" height="30.84" transform="translate(557.47 693.44) rotate(-167.47)" style="fill:#ebebeb"></rect><rect x="349.53" y="294.79" width="4.13" height="37.29" transform="translate(703.2 626.86) rotate(180)" style="fill:#ebebeb"></rect><rect x="300.38" y="294.79" width="4.13" height="37.29" transform="translate(604.89 626.86) rotate(180)" style="fill:#ebebeb"></rect><rect x="373.59" y="296.11" width="8.26" height="35.52" transform="translate(696.65 687.33) rotate(-170.22)" style="fill:#ebebeb"></rect><rect x="384.81" y="301.23" width="8.26" height="30.84" transform="translate(777.89 633.3) rotate(180)" style="fill:#ebebeb"></rect><rect x="407.73" y="300.7" width="8.26" height="30.84" transform="translate(745.35 714.06) rotate(-167.47)" style="fill:#ebebeb"></rect><rect x="395.45" y="294.79" width="4.13" height="37.29" transform="translate(795.03 626.86) rotate(180)" style="fill:#ebebeb"></rect><circle cx="343.92" cy="137.93" r="23.55" transform="translate(152.67 455.32) rotate(-80.78)" style="fill:#e0e0e0"></circle><circle cx="343.92" cy="137.93" r="20.03" transform="translate(152.67 455.32) rotate(-80.78)" style="fill:#f0f0f0"></circle><polyline points="344.86 151.67 344.86 137.67 354.14 142.92" style="fill:#f0f0f0"></polyline><path d="M344.86,152.67a1,1,0,0,1-1-1v-14a1,1,0,0,1,1.49-.87l9.28,5.25a1,1,0,0,1,.38,1.37,1,1,0,0,1-1.36.37l-7.79-4.4v12.28A1,1,0,0,1,344.86,152.67Z" style="fill:#e0e0e0"></path><rect x="72.39" y="114.91" width="59.59" height="140.19" style="fill:#e0e0e0"></rect><rect x="71.87" y="114.91" width="63.3" height="140.19" style="fill:#f0f0f0"></rect><rect x="76.08" y="118.43" width="54.72" height="131.62" style="fill:#fff"></rect><rect x="128.06" y="118.43" width="2.74" height="131.62" style="fill:#e0e0e0"></rect><rect x="100.72" y="196.62" width="2.74" height="52.52" transform="translate(-120.78 324.97) rotate(-90)" style="fill:#e0e0e0"></rect><rect x="74.61" y="216.91" width="56.19" height="4.6" style="fill:#f0f0f0"></rect></g><g id="freepik--Shadow--inject-51"><ellipse id="freepik--path--inject-51" cx="250" cy="416.24" rx="193.89" ry="11.32" style="fill:#f5f5f5"></ellipse></g><g id="freepik--Books--inject-51"><path d="M251.63,176.53V413.84a2,2,0,0,1-2,2H136.87a2,2,0,0,1-2-2V176.53a2,2,0,0,1,2-2H249.62A2,2,0,0,1,251.63,176.53Z" style="fill:#407BFF"></path><path d="M248.67,176.53V413.84a2,2,0,0,1-2,2H136.87a2,2,0,0,1-2-2V176.53a2,2,0,0,1,2-2H246.66A2,2,0,0,1,248.67,176.53Z" style="isolation:isolate;opacity:0.2"></path><rect x="141.82" y="178.05" width="103.85" height="234.26" style="fill:#407BFF"></rect><rect x="141.82" y="178.05" width="103.85" height="234.26" style="fill:#fff;isolation:isolate;opacity:0.7000000000000001"></rect><g style="opacity:0.2"><polygon points="242.04 177.83 241.06 366.01 240.07 177.83 242.04 177.83"></polygon><polygon points="235.55 412.56 236.54 206.51 237.52 412.56 235.55 412.56"></polygon><polygon points="233.76 177.83 232.78 393.94 231.79 177.83 233.76 177.83"></polygon><polygon points="227.12 412.31 228.1 223.18 229.09 412.31 227.12 412.31"></polygon></g><path d="M224,176.53V413.84a2,2,0,0,1-2,2H133.91a2,2,0,0,1-2-2V176.53a2,2,0,0,1,2-2H222A2,2,0,0,1,224,176.53Z" style="fill:#407BFF"></path><path d="M221.08,176.53V413.84a2,2,0,0,1-2,2H133.91a2,2,0,0,1-2-2V176.53a2,2,0,0,1,2-2h85.15A2,2,0,0,1,221.08,176.53Z" style="fill:#fff;isolation:isolate;opacity:0.2"></path><g style="isolation:isolate;opacity:0.2"><rect x="142.7" y="198.33" width="66.24" height="19.48"></rect><rect x="164.67" y="188.59" width="22.3" height="2.73"></rect><rect x="148.41" y="226.61" width="54.81" height="3.25"></rect><rect x="145.92" y="385.23" width="59.79" height="9.31"></rect><rect x="165.43" y="401.64" width="20.77" height="1.64"></rect></g><polygon points="219.19 186.39 206.32 415.76 159.21 415.76 169.01 255.34 219.19 186.39" style="opacity:0.1"></polygon><path d="M219.19,186.39,192.72,413.91a2.29,2.29,0,0,1-2.24,1.95H107.31c-15.44,0-34.28-3.17-34.12-8.84l29.24-220.63a2.26,2.26,0,0,1,2.23-1.93H217.4A1.72,1.72,0,0,1,219.19,186.39Z" style="fill:#263238"></path><path d="M219.19,186.39,192.72,413.91a2.29,2.29,0,0,1-2.24,1.95H107.31c-15.44,0-34.28-3.17-34.12-8.84l29.24-220.63a2.26,2.26,0,0,1,2.23-1.93H217.4A1.72,1.72,0,0,1,219.19,186.39Z" style="fill:#fff;isolation:isolate;opacity:0.30000000000000004"></path><path d="M216.23,186.39,189.77,413.91a2.29,2.29,0,0,1-2.24,1.95H107.31c-15.44,0-34.28-3.17-34.12-8.84l29.24-220.63a2.26,2.26,0,0,1,2.23-1.93H214.44A1.72,1.72,0,0,1,216.23,186.39Z" style="isolation:isolate;opacity:0.2"></path><polygon points="186.93 412.46 91.67 412.46 109.21 187.85 189.85 182.1 213.06 187.85 186.93 412.46" style="fill:#407BFF"></polygon><polygon points="213.06 187.86 186.93 412.46 91.67 412.46 84.55 399.86 109.21 187.86 189.85 182.1 199.55 184.51 201.51 184.99 207.61 186.51 209.54 186.98 213.06 187.86" style="fill:#fff;isolation:isolate;opacity:0.7000000000000001"></polygon><path d="M186.93,412.46H91.67l-7.12-12.6c16.48-.14,74,4.25,74,4.25Z" style="isolation:isolate;opacity:0.2"></path><path d="M80.79,407.9a18.28,18.28,0,0,0,11.51,5.16s1.29-4.27-1.27-5.63S80.79,407.9,80.79,407.9Z" style="fill:#263238"></path><g style="opacity:0.2"><polygon points="209.54 186.98 187.49 368.06 207.61 186.51 209.54 186.98"></polygon><polygon points="200.75 215.14 179.05 410.13 177.17 409.58 200.75 215.14"></polygon><polygon points="201.51 184.99 175.99 395.77 199.55 184.51 201.51 184.99"></polygon><polygon points="190.46 231.13 170.87 407.73 169.01 407.18 190.46 231.13"></polygon></g><path d="M191.79,179.49,165.32,407a2.28,2.28,0,0,1-2.23,1.94H75A1.74,1.74,0,0,1,73.18,407L99.65,179.49a2.29,2.29,0,0,1,2.24-1.94H190A1.73,1.73,0,0,1,191.79,179.49Z" style="fill:#263238"></path><path d="M191.79,179.49,165.32,407a2.28,2.28,0,0,1-2.23,1.94H75A1.74,1.74,0,0,1,73.18,407L99.65,179.49a2.29,2.29,0,0,1,2.24-1.94H190A1.73,1.73,0,0,1,191.79,179.49Z" style="fill:#fff;isolation:isolate;opacity:0.30000000000000004"></path><path d="M188.84,179.49,162.37,407a2.29,2.29,0,0,1-2.25,1.94H75A1.74,1.74,0,0,1,73.18,407L99.65,179.49a2.29,2.29,0,0,1,2.24-1.94H187A1.74,1.74,0,0,1,188.84,179.49Z" style="fill:#fff;isolation:isolate;opacity:0.2"></path><g style="isolation:isolate;opacity:0.2"><polygon points="172.08 219.07 105.84 219.07 108.02 200.39 174.26 200.39 172.08 219.07"></polygon><polygon points="153.07 193.66 130.77 193.66 131.07 191.05 153.37 191.05 153.07 193.66"></polygon><polygon points="165.03 230.63 110.21 230.63 110.58 227.51 165.39 227.51 165.03 230.63"></polygon><polygon points="149.15 388.52 89.36 388.52 90.4 379.59 150.18 379.59 149.15 388.52"></polygon><polygon points="128.66 396.89 107.89 396.89 108.08 395.32 128.85 395.32 128.66 396.89"></polygon></g></g><g id="freepik--character-1--inject-51"><path d="M129.54,185.74s2.78-.5,6.15,3.44,1.69,9.63,1.68,12.16-2.38,5.33,3.23,7.82,9.37,5.65,6.46,10.48,2,6.83-2.87,11-26.36,4.76-30.29-.23-1.82-10-2.05-11.72-4.1-2.61-6.27-7.88,2-7.5,2-10.15-3.53-5.15-2.62-11S127.27,177.54,129.54,185.74Z" style="fill:#2e353a"></path><path d="M114.21,230.16c-4.11,6.82-8,13.44-13.15,19.61-9,10.3-14.6-10.61-16.58-16.76a2.09,2.09,0,0,1,3.94-1.39,110.12,110.12,0,0,0,5,9.95c1.1,1.77,2.1,3.56,3.51,4.61.11.1.11-.11-.65-.19a2.09,2.09,0,0,0-1.05.24c-.15.08-.08,0,0,0,2.41-2.92,4.38-6.69,6.3-10.08s3.59-6.66,5.29-10c2.77-5,10.14-1,7.39,4.06Z" style="fill:#b97864"></path><path d="M112.94,226.73s-.17.94-.44,2.4q0,.13-.06.3c0,.14,0,.28-.08.43s0,.18,0,.28c-.1.54-.21,1.12-.32,1.74s-.23,1.26-.36,1.93l-.18,1c-.08.44-.17.88-.25,1.32,0,.14,0,.29-.08.44s-.07.43-.12.64c-.23,1.25-.46,2.46-.66,3.56,0,.26-.09.51-.14.75s-.09.46-.12.67,0,.26-.07.37-.08.43-.12.64-.07.39-.1.56-.06.34-.09.5-.06.3-.08.43a.55.55,0,0,0,0,.17,2.73,2.73,0,0,0-.06.31.2.2,0,0,0,0,.1,0,0,0,0,0,0,0l0,.19-1.85-1.58-6.19-5.25-3.78-3.22s7.64-12.35,11.71-12.33C109.36,223.09,112.94,226.7,112.94,226.73Z" style="fill:#407BFF"></path><path d="M112.94,226.73s-.17.94-.44,2.4q0,.13-.06.3c0,.14,0,.28-.08.43s0,.18,0,.28c-.1.54-.21,1.12-.32,1.74s-.23,1.26-.36,1.93l-.18,1c-.08.44-.17.88-.25,1.32,0,.14,0,.29-.08.44s-.07.43-.12.64c-.23,1.25-.46,2.46-.66,3.56,0,.26-.09.51-.14.75s-.09.46-.12.67,0,.26-.07.37-.08.43-.12.64-.07.39-.1.56-.06.34-.09.5-.06.3-.08.43a.55.55,0,0,0,0,.17,2.73,2.73,0,0,0-.06.31.2.2,0,0,0,0,.1,0,0,0,0,0,0,0l0,.19-1.85-1.58-6.19-5.25-3.78-3.22s7.64-12.35,11.71-12.33C109.36,223.09,112.94,226.7,112.94,226.73Z" style="fill:#fff;isolation:isolate;opacity:0.7000000000000001"></path><path d="M112.5,229.13q0,.13-.06.3c0,.14,0,.28-.08.43s0,.18,0,.28c-.1.54-.21,1.12-.32,1.74s-.23,1.26-.36,1.93l-.18,1c-.08.44-.17.88-.25,1.32,0,.14,0,.29-.08.44s-.07.43-.12.64c-.23,1.25-.46,2.46-.66,3.56,0,.26-.09.51-.14.75s-.09.46-.12.67,0,.26-.07.37-.08.43-.12.64-.07.39-.1.56-.07.35-.09.5-.06.3-.08.43a.55.55,0,0,0,0,.17,2.73,2.73,0,0,0-.06.31.2.2,0,0,0,0,.1,0,0,0,0,0,0,0l0,.19-1.85-1.59h0l-6.19-5.25C103.8,230.57,111.38,229.89,112.5,229.13Z" style="opacity:0.1"></path><path d="M125.89,355.35l-2.61,4.28s-1.92-1.19-5-3.13l-2.88-1.84c-2.88-1.84-6.34-4.08-10-6.48l-2.39-1.58c-12.65-8.42-23-16.36-22.7-20.31.44-6.63,6.08-18.91,13.7-31.07,5.09-8.12,9.31-14.65,9.31-14.65l15.45,10.93s-6,7-12.13,14.67c-7.18,9-14.61,18.95-13.14,20.09,1.13.87,6.8,5.95,13.08,11.63.38.33.76.68,1.14,1,3.39,3.06,6.89,6.23,9.9,9l2.43,2.21Z" style="fill:#263238"></path><path d="M120.11,350.1l-1.79,6.4c-3.82-2.43-9.4-6-15.25-9.9,1.24-3.07,2.66-6.52,3.57-8.71C111.33,342.12,116.37,346.69,120.11,350.1Z" style="isolation:isolate;opacity:0.2"></path><path d="M136.64,300.91l-3.73,9.25-.77,1.9-5.69,14.09-.64,1.61-3.76,9.3-4.37,10.83-2,5c-.06.58-.13,1.17-.22,1.76-3.21,24.35-18.07,55.47-18.07,55.47l-4.47-1.54c2.89-19.1,7.83-41.26,12.56-60.41.78-3.18,1.56-6.28,2.32-9.26.43-1.68.86-3.33,1.27-4.93.89-3.39,1.72-6.6,2.53-9.59.39-1.42.76-2.78,1.11-4.1.88-3.25,1.68-6.16,2.39-8.65s1.26-4.55,1.71-6.12c.66-2.3,1-3.57,1-3.57Z" style="fill:#263238"></path><path d="M120.72,350.24c-.59,0-.72,7.25-.72,7.25s4.17,4.83,4.84,9.24,3.46,2.2,3.85-2.63.7-8.54,1-12S126.85,350.6,120.72,350.24Z" style="fill:#407BFF"></path><path d="M121.32,362.08a.72.72,0,0,1-.79.11.76.76,0,0,1-.45-.43,3,3,0,0,1,0-1.64c-.36.57-.79,1.05-1.17,1s-.44-.18-.57-.52a1.14,1.14,0,0,1,0-.94c.49-.95,2.23-1.42,2.31-1.44a.14.14,0,0,1,.14,0l0,0h0a.16.16,0,0,1,0,.07,9.1,9.1,0,0,1,.68,3.07A1,1,0,0,1,121.32,362.08Zm-.9-.48a.45.45,0,0,0,.24.23c.28.09.36,0,.39,0,.3-.32,0-1.68-.35-2.78A4.79,4.79,0,0,0,120.42,361.6Zm-1.77-1.1c0,.1.12.28.22.28.33,0,1-1,1.47-2a3.21,3.21,0,0,0-1.66,1.11.79.79,0,0,0-.08.29A.8.8,0,0,0,118.65,360.5Z" style="fill:#407BFF"></path><path d="M99.36,406.79c0-.6-7.29-.13-7.29-.13s-4.47,4.55-8.81,5.57-1.92,3.63,2.94,3.63h12C101.66,415.86,99.5,412.92,99.36,406.79Z" style="fill:#407BFF"></path><path d="M87.61,408.34a.69.69,0,0,1-.18-.77.76.76,0,0,1,.39-.49,2.91,2.91,0,0,1,1.63-.18c-.59-.32-1.11-.7-1.13-1.08s.15-.46.48-.61a1.11,1.11,0,0,1,.94,0c1,.41,1.59,2.11,1.62,2.18a.2.2,0,0,1,0,.15l0,0h0l-.07.05a9.18,9.18,0,0,1-3,.92A1,1,0,0,1,87.61,408.34Zm.4-.93a.42.42,0,0,0-.21.25c-.07.29,0,.36,0,.39.34.28,1.68-.12,2.75-.58A4.78,4.78,0,0,0,88,407.41Zm.95-1.86c-.1.05-.26.14-.26.25,0,.32,1.06.89,2.14,1.3a3.23,3.23,0,0,0-1.25-1.57.79.79,0,0,0-.29-.06A.84.84,0,0,0,89,405.55Z" style="fill:#407BFF"></path><path d="M110.89,304.46l-1.11.92-15-11.66,2.3-4.7a15.7,15.7,0,0,0,.4,5.06C98.25,296.16,108.24,302.74,110.89,304.46Z" style="fill:#fff;isolation:isolate;opacity:0.7000000000000001"></path><path d="M82,320l11.58,6.27s11.24-11.92,15-16.91c1.17-1.55,6.11-8,6.11-8l-8.57,44.2,11.57,2.34c25.59-56.82,22.84-65.65,21.92-73.14a40,40,0,0,0-2.8-10.94,0,0,0,0,0,0,0L136.7,261l-29.47,1.1-.41,1.9-2,9.35s-8.72,15.11-11.59,20.52C83.87,311.45,82,320,82,320Z" style="fill:#263238"></path><path d="M137.41,265.31l-30.83-.21S102.1,239.82,108,223a32.13,32.13,0,0,1,4.67-1.62,50.21,50.21,0,0,1,22.71-.85,51.14,51.14,0,0,1,6,1.55S137.1,251.27,137.41,265.31Z" style="fill:#407BFF"></path><path d="M137.41,265.31l-30.83-.21S102.1,239.82,108,223a32.13,32.13,0,0,1,4.67-1.62,50.21,50.21,0,0,1,22.71-.85,51.14,51.14,0,0,1,6,1.55S137.1,251.27,137.41,265.31Z" style="fill:#fff;isolation:isolate;opacity:0.7000000000000001"></path><path d="M76.73,208.92l2.83-1.38,9.83,3.39,13.8-2.64,2.41,10.47s-.09,11.49-.75,11.58-15.53-.09-15.53-.09L82.09,225Z" style="fill:#e0e0e0"></path><polygon points="106.74 209.3 111.19 233.37 92.59 234.25 80.07 229.91 75.01 207.25 89.33 211.97 106.74 209.3" style="fill:#407BFF"></polygon><polygon points="89.33 211.97 92.59 234.25 111.19 233.38 106.74 209.3 89.33 211.97" style="fill:#fff;isolation:isolate;opacity:0.2"></polygon><path d="M84.13,232.35l1.43-8,4.86,6.47s.79,5.31-4,4.65Z" style="fill:#b97964"></path><polygon points="90.79 223.12 92.13 229.19 90.42 230.77 85.56 224.3 90.79 223.12" style="fill:#b97964"></polygon><path d="M135.39,220.53c0,1.39-1.85,3-4.36,4.31-.56.31-1.15.59-1.78.87-3.47,1.52-7.69,2.54-10.65,2.2a11.87,11.87,0,0,1-4.34-1.27,6.2,6.2,0,0,1-1.41-1c-1.43-1.35-1.56-3-.17-4.26.68-.18,1.41-.37,2.21-.54.54-.13,1.11-.25,1.71-.35a49.92,49.92,0,0,1,14.2-.63l1.39.16C133.24,220.15,134.3,220.32,135.39,220.53Z" style="fill:#b97964"></path><path d="M132.19,220a26.24,26.24,0,0,0-1.16,4.82c-.56.31-1.15.59-1.78.87a27.93,27.93,0,0,1,1.55-5.85Z" style="fill:#fff"></path><path d="M116.6,220.49a26.1,26.1,0,0,0-2.34,6.15,6.2,6.2,0,0,1-1.41-1,25.87,25.87,0,0,1,2-4.8C115.43,220.71,116,220.59,116.6,220.49Z" style="fill:#fff"></path><path d="M129.23,206.64c-1,4.31-2,12.18.89,14.89a116.81,116.81,0,0,1-12.39,5.27c-2.64-3.44-.85-4.66-.85-4.66,4.78-1.35,4.76-4.88,4-8.17Z" style="fill:#b97964"></path><path d="M125.84,209.63,120.91,214a12.7,12.7,0,0,1,.34,2.34c1.82-.35,4.37-2.46,4.62-4.38A6.49,6.49,0,0,0,125.84,209.63Z" style="opacity:0.2"></path><path d="M118,188.49c-7.33,1.33-9,5.69-8.15,13.35,1,9.57,4.35,15.91,13.16,12.22C134.94,209.06,130.15,186.28,118,188.49Z" style="fill:#b97964"></path><path d="M114.48,200.57a15.64,15.64,0,0,1-1.59,3.43,2.07,2.07,0,0,0,2.09.48Z" style="fill:#a24e3f"></path><path d="M118.86,199.15c.1.61.5,1,.9,1s.66-.6.56-1.21-.5-1-.9-1S118.77,198.55,118.86,199.15Z" style="fill:#2e353a"></path><path d="M119.59,198l-1.39-.31S119,198.64,119.59,198Z" style="fill:#2e353a"></path><path d="M111.32,200.21c.09.61.5,1,.9,1s.65-.6.56-1.21-.5-1-.91-1S111.22,199.6,111.32,200.21Z" style="fill:#2e353a"></path><path d="M112.05,199l-1.4-.31S111.48,199.7,112.05,199Z" style="fill:#2e353a"></path><path d="M121.4,194.92a.33.33,0,0,1-.21-.07,3.59,3.59,0,0,0-3.08-.48.3.3,0,0,1-.39-.2.31.31,0,0,1,.2-.4,4.18,4.18,0,0,1,3.69.59.32.32,0,0,1-.21.56Z" style="fill:#2e353a"></path><path d="M109.81,196.18a.32.32,0,0,1-.22-.55,3.77,3.77,0,0,1,3.09-1.21.31.31,0,1,1-.11.62h0a3.16,3.16,0,0,0-2.54,1.05A.31.31,0,0,1,109.81,196.18Z" style="fill:#2e353a"></path><path d="M116.57,207.17a18.44,18.44,0,0,1,1.32,2.39l.47-.12c2.09-.61,2.87-1.58,3.09-2.48a2.68,2.68,0,0,0,0-1.33,2.65,2.65,0,0,0-.27-.71,10.19,10.19,0,0,1-3.87,2C116.85,207.1,116.57,207.17,116.57,207.17Z" style="fill:#2e353a"></path><path d="M117.28,207l.41.7c2-.57,3.29-1.24,3.73-2a2.65,2.65,0,0,0-.27-.71A10.19,10.19,0,0,1,117.28,207Z" style="fill:#fff"></path><path d="M118.36,209.44c2.09-.61,2.87-1.58,3.09-2.48a7.12,7.12,0,0,0-2.2,1.14A2.59,2.59,0,0,0,118.36,209.44Z" style="fill:#de5753"></path><path d="M128.23,199.41s-4.53-5.41-4.85-10.16c0,0-15.62-3.31-13.66,11.58,0,0-3.8-12.85,8.76-15.42s15.86,15.88,10.34,22.56C128.82,208,131,202.79,128.23,199.41Z" style="fill:#2e353a"></path><path d="M127.31,201.17a3.27,3.27,0,0,1,2.93-3.57c2.32-.16,4.25,4.31-1.2,6.46C128.26,204.37,127.65,203.66,127.31,201.17Z" style="fill:#b97964"></path><path d="M134.86,264.2c-1.23,3,.33,8.9.33,8.9l6.89-1.92s.16-5.78-4.23-7.63C137.85,263.55,135.2,263.4,134.86,264.2Z" style="fill:#b97964"></path><polygon points="138.48 277.91 143.27 275.25 142.08 271.18 135.19 273.1 138.48 277.91" style="fill:#b97964"></polygon><path d="M144.55,225.89a99.45,99.45,0,0,1,15.84,20.52c2.16,4.56-2.36,8.09-5.38,10.48a99.11,99.11,0,0,1-17.33,10,2.1,2.1,0,0,1-2.1-3.61c3.44-2.54,6.9-5.14,10.21-7.75,2.66-2.24,6-4.64,7.71-7.36a2.51,2.51,0,0,0,.29,2l-.19-.26a160,160,0,0,0-15-18.1c-3.65-4,2-9.62,6-5.94Z" style="fill:#b97864"></path><path d="M140,221.65s6.49,1.47,12.09,10.22l-8.35,12L137,238.9S132.24,228.11,140,221.65Z" style="fill:#407BFF"></path><path d="M140,221.65s6.49,1.47,12.09,10.22l-8.35,12L137,238.9S132.24,228.11,140,221.65Z" style="fill:#fff;isolation:isolate;opacity:0.7000000000000001"></path><path d="M99.36,406.79c0-.6-7.29-.13-7.29-.13s-4.47,4.55-8.81,5.57-1.92,3.63,2.94,3.63h12C101.66,415.86,99.5,412.92,99.36,406.79Z" style="fill:#fff;isolation:isolate;opacity:0.7000000000000001"></path><path d="M120.72,350.24c-.59,0-.72,7.25-.72,7.25s4.17,4.83,4.84,9.24,3.46,2.2,3.85-2.63.7-8.54,1-12S126.85,350.6,120.72,350.24Z" style="fill:#fff;isolation:isolate;opacity:0.7000000000000001"></path></g><g id="freepik--character-2--inject-51"><polygon points="280.79 393.11 286.65 415.86 282.17 415.86 271.89 393.11 280.79 393.11" style="fill:#263238"></polygon><polygon points="103.55 393.11 97.69 415.86 102.17 415.86 112.46 393.11 103.55 393.11" style="fill:#263238"></polygon><polygon points="298.02 393.11 301.88 401.63 308.31 415.86 312.79 415.86 309.12 401.63 306.93 393.11 298.02 393.11" style="fill:#263238"></polygon><polygon points="309.12 401.63 301.88 401.63 308.31 415.86 312.79 415.86 309.12 401.63" style="fill:#fff;isolation:isolate;opacity:0.1"></polygon><polygon points="123.83 415.86 128.31 415.86 134.75 401.63 138.6 393.11 129.69 393.11 127.49 401.63 123.83 415.86" style="fill:#263238"></polygon><polygon points="123.83 415.86 128.31 415.86 134.75 401.63 127.49 401.63 123.83 415.86" style="fill:#fff;isolation:isolate;opacity:0.1"></polygon><path d="M84.19,368.05v7.83a22.16,22.16,0,0,0,22.17,22.17h196.9a22.18,22.18,0,0,0,22.18-22.17V331.05a14,14,0,0,0-14-14H294a14,14,0,0,0-14,14V353.9a5,5,0,0,1-5,5H93.39A9.2,9.2,0,0,0,84.19,368.05Z" style="fill:#407BFF"></path><path d="M84.19,368.05v7.83a22.16,22.16,0,0,0,22.17,22.17h196.9a22.18,22.18,0,0,0,22.18-22.17V331.05a14,14,0,0,0-14-14H294a14,14,0,0,0-14,14V353.9a5,5,0,0,1-5,5H93.39A9.2,9.2,0,0,0,84.19,368.05Z" style="isolation:isolate;opacity:0.30000000000000004"></path><path d="M110.81,358.86H292.5a5,5,0,0,0,5-5V331.05a14,14,0,0,1,14-14h0a14,14,0,0,1,14,14v44.83a22.17,22.17,0,0,1-22.17,22.17H123.79a22.18,22.18,0,0,1-22.18-22.17v-7.82A9.2,9.2,0,0,1,110.81,358.86Z" style="fill:#fff;isolation:isolate;opacity:0.1"></path><path d="M81.55,361.89v6.5a5.3,5.3,0,0,0,5.31,5.3h201.5a5.31,5.31,0,0,0,5.31-5.3v-6.5a5.32,5.32,0,0,0-5.31-5.32H86.86A5.31,5.31,0,0,0,81.55,361.89Z" style="fill:#407BFF"></path><path d="M81.55,361.89v6.5a5.3,5.3,0,0,0,5.31,5.3h201.5a5.31,5.31,0,0,0,5.31-5.3v-6.5a5.32,5.32,0,0,0-5.31-5.32H86.86A5.31,5.31,0,0,0,81.55,361.89Z" style="isolation:isolate;opacity:0.30000000000000004"></path><path d="M99,361.89v3.8a5.31,5.31,0,0,0,5.31,5.3H288.36a5.31,5.31,0,0,0,5.31-5.3v-3.8a5.32,5.32,0,0,0-5.31-5.32H104.28A5.32,5.32,0,0,0,99,361.89Z" style="fill:#fff;isolation:isolate;opacity:0.1"></path><path d="M102.44,356.91c-.83,9.22,6.61,4.49,14.87,4.59,9.34.13,26.27,0,26.27,0,21.18,3,28.22-1.22,28.22-1.22,32.39,5.88,86,.58,86,.58s38.57,3.2,42.25-.6-1.24-24.68-1.24-24.68-7.14.28-18.73.8V353.9a5,5,0,0,1-5,5Z" style="isolation:isolate;opacity:0.1"></path><path d="M302.12,309.65c6.25.33,3.12,3.55,3.12,3.55s-2.48,21.07-10.43,32.62-37.05,15-37.05,15-4,2-5.51,1.52-1.56-1.52-1.56-1.52a70.07,70.07,0,0,1-8.79-2.47c-2.37-1.07,7.7-21,21.82-28C263.72,330.35,278.46,308.41,302.12,309.65Z" style="fill:#407BFF"></path><path d="M241.9,358.38a35,35,0,0,0,4.55,1.44l1.81.46c1.39.35,2.43.58,2.43.58s0,1,1.56,1.51,5.51-1.51,5.51-1.51,26.48-3.17,35.82-13.49a13.7,13.7,0,0,0,1.23-1.55,40.25,40.25,0,0,0,3.55-6.46c5.16-11.55,6.88-26.16,6.88-26.16s3.13-3.22-3.12-3.55c-.81,0-1.6-.06-2.39,0A36.76,36.76,0,0,0,290.1,311c-16.53,4.67-26.39,19.33-26.39,19.33C249.6,337.42,239.53,357.31,241.9,358.38Z" style="fill:#fff;isolation:isolate;opacity:0.7000000000000001"></path><path d="M241.9,358.38a35,35,0,0,0,4.55,1.44l1.81.46c1.3-2.33,4.65-7.43,10.19-10.08,0,0,24.7-12.78,28.07-15.55a41.62,41.62,0,0,1,7.06,12.72,13.7,13.7,0,0,0,1.23-1.55,40.25,40.25,0,0,0,3.55-6.46c.36-9-.58-22.28-8.26-28.34-16.53,4.67-26.39,19.33-26.39,19.33C249.6,337.42,239.53,357.31,241.9,358.38Z" style="isolation:isolate;opacity:0.1"></path><path d="M263.06,308.81c-8.46,2.35-17.17,4.47-25.23,8-.38.17-.52.22-.46.14a2.9,2.9,0,0,0,.6-2.11c-.06-.65-.65-1.48-1-1.53,0,0,0,.06.08.11a25.39,25.39,0,0,0,6,1.94,2.12,2.12,0,0,1-.31,4.19,34.59,34.59,0,0,1-5.08-.09c-1.82-.26-3.86-.38-5.26-2.2-1.8-2.51.16-5.32,2.3-6.33,8.29-4.37,17.17-7.27,26-10.25,5.55-1.6,7.92,6.52,2.35,8.15Z" style="fill:#ebc0bb"></path><path d="M266.4,301.6c-2.55-2.82-15.89-.32-15.89-.32l.52,14.48,15.11-9.4S266.4,301.6,266.4,301.6Z" style="fill:#263238"></path><path d="M250.51,301.29l.26,7.21.18,5,.08,2.28,13.18-8.2,1.93-1.2s.25-4.76.25-4.76c-2.1-2.33-11.58-1-14.8-.5Z" style="fill:#fff;opacity:0.5"></path><polygon points="251.51 300.5 249.04 300.38 249.38 313.7 252.94 313.2 251.51 300.5" style="fill:#263238"></polygon><polygon points="249.04 300.39 249.27 309.21 249.39 313.7 250.95 313.48 252.94 313.2 252.35 307.93 251.59 301.1 251.52 300.5 249.04 300.39" style="fill:#fff;opacity:0.8"></polygon><path d="M249.21,306.74l.18,7,1.56-.22.08,2.28,13.18-8.2C262.89,307.26,257,301.8,249.21,306.74Z" style="opacity:0.1"></path><path d="M242.09,314.5a25.73,25.73,0,0,0-4.47-1.34s4.27-1,5.06,0S242.09,314.5,242.09,314.5Z" style="opacity:0.2"></path><path d="M158.2,358.24l4.61,2,4.45-6.47c.58-.84,1.21-1.77,1.85-2.73,2.21-3.19,4.72-6.89,7.19-10.49l.4-.59.86-1.27c4.8-7,9.08-13.38,9.78-14.62.89-1.56,11,3.91,20.55,9.57l1.26.75c4.94,3,9.64,5.87,12.69,7.79,2.22,1.4,3.58,2.28,3.58,2.28l8.78-16.89s-3.73-1.74-9.13-4.2c-2-.94-4.33-2-6.75-3.06-1.45-.65-2.91-1.29-4.36-1.89-11.6-4.85-22.53-7.9-28.45-7.49-4,.29-10.47,11.64-17.1,25.39l-1.26,2.6c-.82,1.72-1.62,3.4-2.37,5-1,2.09-1.9,4.06-2.71,5.82-.52,1.12-1,2.17-1.44,3.11C159.12,356.18,158.2,358.24,158.2,358.24Z" style="fill:#eec1bb"></path><path d="M158.2,358.24l4.61,2,4.45-6.47c.58-.84,1.21-1.77,1.85-2.73,2.21-3.19,4.72-6.89,7.19-10.49a41.31,41.31,0,0,0-11.52,3.38c-1,2.09-1.9,4.06-2.71,5.82-.52,1.12-1,2.17-1.44,3.11C159.12,356.18,158.2,358.24,158.2,358.24Z" style="isolation:isolate;opacity:0.2"></path><path d="M207.89,333.65l1.26.75c4.94,3,9.64,5.87,12.69,7.79l3.23-18.81c-2-.94-4.33-2-6.75-3.06-1.45-.65-2.91-1.29-4.36-1.89C212.48,321.69,210,327.44,207.89,333.65Z" style="isolation:isolate;opacity:0.2"></path><path d="M151.16,361.85c5.07.11,5.59-.2,8.46-.23,2.45,0,2.73.51,5.2.57,1.64,0,2.3-1.81,2-3.21-.17-.84-.49-1.81-.63-2.86a1.11,1.11,0,0,0-1.1-1l-5.26-.14a1.54,1.54,0,0,0-1.12.47,11,11,0,0,1-7.83,3.48C148.12,359.08,149.14,361.8,151.16,361.85Z" style="fill:#eec1bb"></path><path d="M151.16,361.85c5.07.11,5.59-.2,8.46-.23,2.45,0,2.73.51,5.2.57,1.64,0,2.3-1.81,2-3.21-.17-.84-.49-1.81-.63-2.86a1.11,1.11,0,0,0-1.1-1l-5.26-.14a1.54,1.54,0,0,0-1.12.47,11,11,0,0,1-7.83,3.48C148.12,359.08,149.14,361.8,151.16,361.85Z" style="isolation:isolate;opacity:0.2"></path><path d="M221.78,360.27l-10-.53-2.06-.12-15.25-.83-1.74-.09-10.07-.55-11.72-.64-5.41-.29c-.58.12-1.16.25-1.75.36-24.2,4.85-58.64.84-58.64.84l0-4.75c19.11-3.46,41.79-6,61.54-7.69,3.28-.28,6.47-.56,9.56-.8l5.1-.39c3.51-.26,6.84-.51,9.94-.71l4.26-.28c3.39-.22,6.41-.4,9-.54s4.73-.28,6.37-.36l3.74-.18Z" style="fill:#eec1bb"></path><path d="M210,337l-1.23-.77,6.23-18,5.22.66a15.71,15.71,0,0,0-4.68,2C213.82,322.23,210.81,333.86,210,337Z" style="fill:#fff;isolation:isolate;opacity:0.7000000000000001"></path><path d="M221.78,360.27l-10-.53c-4.22-7.8-6.31-13-7.21-16.48,2.58-.15,4.73-.28,6.37-.36l3.74-.18Z" style="isolation:isolate;opacity:0.2"></path><path d="M215,318.18l-6.23,18L210,337l4.2,2.58-8.17,2.2,9.43,20c15-.6,25.31-3.82,32.13-7.13a40.91,40.91,0,0,0,9.5-6.22,0,0,0,0,0,0,0l2.6-1L249.12,319.7l-1.94.23-9.56,1.1-17.37-2.19Z" style="fill:#263238"></path><path d="M214.23,339.53l9.08-2.45s-7.89-2.23-13.28-.13Z" style="isolation:isolate;opacity:0.2"></path><polygon points="210.22 337.64 217.64 318.21 215.01 317.44 207.96 336.89 210.22 337.64" style="fill:#407BFF"></polygon><polygon points="210.22 337.64 217.64 318.21 215.01 317.44 207.96 336.89 210.22 337.64" style="fill:#fff;isolation:isolate;opacity:0.7000000000000001"></polygon><polygon points="217.57 362.13 207.61 340.85 205.42 341.44 214.76 362.16 217.57 362.13" style="fill:#407BFF"></polygon><polygon points="217.57 362.13 207.61 340.85 205.42 341.44 214.76 362.16 217.57 362.13" style="fill:#fff;isolation:isolate;opacity:0.7000000000000001"></polygon><path d="M254.73,342.56s-7.15,4.16-7.11,12a40.91,40.91,0,0,0,9.5-6.22,0,0,0,0,0,0,0Z" style="isolation:isolate;opacity:0.2"></path><path d="M237.62,321c3.35,2,10.13,1,10.13,1l-.57-2.12Z" style="isolation:isolate;opacity:0.2"></path><path d="M250.1,328.93a.92.92,0,1,0,1.14.65A.92.92,0,0,0,250.1,328.93Z" style="isolation:isolate;opacity:0.2"></path><path d="M97.83,349.09c2.36,4.47,2.89,4.78,4.31,7.27,1.23,2.13.9,2.63,2,4.82.76,1.45,2.7,1.12,3.79.2.65-.55,1.34-1.3,2.19-1.94a1.11,1.11,0,0,0,.32-1.44L108,353.34a1.51,1.51,0,0,0-1-.75,11,11,0,0,1-6.85-5.14C98.76,345.08,96.89,347.29,97.83,349.09Z" style="fill:#eec1bb"></path><path d="M294.3,317.43s-12.43-10.72-27.91-16c0,0-8.4,15.28-17.45,18.27l10.8,30.45S286.22,336.61,294.3,317.43Z" style="fill:#263238"></path><path d="M248.94,319.74l10.8,30.45s14.12-7.24,24.89-18.62a56.47,56.47,0,0,0,6.68-8.46,39.44,39.44,0,0,0,3-5.67s-12.43-10.73-27.9-16C266.4,301.48,258,316.76,248.94,319.74Z" style="fill:#fff;opacity:0.5"></path><path d="M290.13,276.77s-2.44-3.29-8.34-3.22-13.29,4.07-13.45,13.11-2.14,14.22-2.14,14.22,19.36,2.76,24.44.38S301.6,278,290.13,276.77Z" style="fill:#263238"></path><path d="M287.66,297.79c-2,4-4.87,11.42-2.69,14.76a115.87,115.87,0,0,1-13.35,2.19c-1.76-4,.28-4.76.28-4.76,5-.18,5.82-3.63,5.88-7Z" style="fill:#eec1bb"></path><path d="M283.64,299.91,277.79,303a12.26,12.26,0,0,1-.23,2.36c1.86.1,4.86-1.36,5.56-3.17A6.47,6.47,0,0,0,283.64,299.91Z" style="opacity:0.2"></path><path d="M290.13,286.87c-.75,7-.91,10-4.59,13.59-5.52,5.45-13.87,3.47-15.21-3.5-1.2-6.27.22-16.67,7.15-19.52A9,9,0,0,1,290.13,286.87Z" style="fill:#eec1bb"></path><path d="M281.41,288.72c0,.59-.37,1.07-.75,1.07s-.65-.47-.61-1.06.37-1.07.75-1.07S281.45,288.13,281.41,288.72Z" style="fill:#263238"></path><path d="M274.09,288.54c0,.59-.37,1.07-.75,1.07s-.65-.47-.61-1.06.37-1.07.74-1.07S274.12,288,274.09,288.54Z" style="fill:#263238"></path><path d="M273.64,287.51l-1.36-.4S272.92,288.21,273.64,287.51Z" style="fill:#263238"></path><path d="M276.24,289.82a17.2,17.2,0,0,1-2.29,3.79,2.37,2.37,0,0,0,2,.38Z" style="fill:#d4827d"></path><path d="M279.15,296.15a5,5,0,0,1-1,.09.17.17,0,0,1-.16-.17.2.2,0,0,1,.18-.18A4.89,4.89,0,0,0,282,294a.18.18,0,0,1,.24-.05.17.17,0,0,1,0,.24A5.15,5.15,0,0,1,279.15,296.15Z" style="fill:#263238"></path><path d="M282.72,285a.29.29,0,0,1-.25-.08,2.53,2.53,0,0,0-2.3-.68.31.31,0,0,1-.4-.24.38.38,0,0,1,.27-.43,3.18,3.18,0,0,1,2.91.83.34.34,0,0,1,0,.49A.3.3,0,0,1,282.72,285Z" style="fill:#263238"></path><path d="M271.33,284.67a.29.29,0,0,1-.24,0,.34.34,0,0,1-.09-.47,3.62,3.62,0,0,1,2.7-1.73.32.32,0,0,1,.33.34.37.37,0,0,1-.35.36,2.87,2.87,0,0,0-2.12,1.38A.36.36,0,0,1,271.33,284.67Z" style="fill:#263238"></path><path d="M281,287.69l-1.36-.4S280.24,288.39,281,287.69Z" style="fill:#263238"></path><path d="M287.08,291.22s-3.92-4.5-2.19-12c0,0-8-2.82-13.12,3.46,0,0,4.28-10,16-6.78s4.49,14.91,3.21,16S287.08,291.22,287.08,291.22Z" style="fill:#263238"></path><path d="M292.17,292.61a5.63,5.63,0,0,1-3.45,2.6c-1.86.44-2.62-1.4-2-3.25.59-1.67,2.28-3.9,4.08-3.51S293.14,291,292.17,292.61Z" style="fill:#eec1bb"></path><path d="M246.22,298l2.78-.12,6.8,6.2,12.12,2.72-1.73,9.34s-4.11,9.29-4.67,9.13-12.58-5.53-12.58-5.53l-4-6.85Z" style="fill:#e0e0e0"></path><polygon points="270.44 308.86 265.59 329.96 250.19 324.13 241.55 316.21 245.41 296.04 255.38 304.9 270.44 308.86" style="fill:#407BFF"></polygon><polygon points="270.44 308.86 265.59 329.96 250.19 324.13 241.55 316.21 245.41 296.04 255.38 304.9 270.44 308.86" style="opacity:0.5"></polygon><polygon points="255.38 304.9 250.19 324.14 265.59 329.97 270.44 308.86 255.38 304.9" style="fill:#fff;isolation:isolate;opacity:0.2"></polygon><path d="M242.09,314.5l7.15-1.52.3,6.38s-4.84,1.76-7.65-1.44Z" style="fill:#eec1bb"></path><polygon points="254.23 314.42 253.33 319.23 249.54 319.36 249.24 312.98 254.23 314.42" style="fill:#eec1bb"></polygon><polygon points="242.68 314.37 239.78 314.37 239.78 319.36 243.91 319.36 242.68 314.37" style="fill:#eec1bb"></polygon><path d="M284.63,331.57a56.47,56.47,0,0,0,6.68-8.46L288,321.8A11.35,11.35,0,0,0,284.63,331.57Z" style="opacity:0.1"></path><path d="M274.4,354.16l-7.19,1.33,2.15,6s5.16-.23,6.53-4.25Z" style="fill:#eec1bb"></path><polygon points="263.14 358.73 265.82 362.83 269.36 361.51 267.21 355.49 263.14 358.73" style="fill:#eec1bb"></polygon><path d="M296.3,322.76a160.23,160.23,0,0,1,6,27.84c.05.48.2,2,.24,2.49a5.1,5.1,0,0,1-1.16,3.87c-4.3,5-21,2.13-27.1,1.14a2.11,2.11,0,0,1,.31-4.18c4.59-.18,9.24-.31,13.71-.71,2.72-.32,5.43-.39,7.65-1.42-.2,0-.7.64-.84,1a3.12,3.12,0,0,0-.18,1.07c0,.27,0,.08,0,0s-.08-.49-.1-.62a257.42,257.42,0,0,0-6.65-28.09,4.24,4.24,0,0,1,8.12-2.47Z" style="fill:#ebc0bb"></path><path d="M288.53,317.25c3.5-3.05,9.17.18,13.43,17.11l-11.77,6.8-4.4-10.85C285.1,326.12,285.18,320.16,288.53,317.25Z" style="fill:#263238"></path><path d="M288.53,317.25c3.5-3.05,9.17.18,13.43,17.11l-11.77,6.8-4.4-10.85C285.1,326.12,285.18,320.16,288.53,317.25Z" style="fill:#fff;opacity:0.5"></path><polygon points="301.26 331.91 289.2 340.56 290.16 342.44 302.87 335.56 301.26 331.91" style="fill:#263238"></polygon><polygon points="301.26 331.91 289.2 340.56 290.16 342.44 302.87 335.56 301.26 331.91" style="fill:#fff;opacity:0.8"></polygon></g><g id="freepik--character-3--inject-51"><g id="freepik--group--inject-51"><path d="M352.06,342.38c.26,1.06.5,2.16.75,3.29.18.81.34,1.63.52,2.46.84,4,1.66,8,2.66,11.12.91,2.79,2,4.8,3.33,5.3,5.83,2.18,21.82-4.85,21.82-4.85V353l-11.18.65-6,.35s-.23-5.23-.91-11c-.76-6.49-2.06-13.69-4.21-15,0,0-4.31,6-6.07,10.58A7.2,7.2,0,0,0,352.06,342.38Z" style="fill:#263238"></path><path d="M352.81,345.67c1,4.75,2,9.86,3.18,13.58l14-5.59-6,.35s-.23-5.23-.91-11C359.64,343.84,355.54,344.94,352.81,345.67Z" style="fill:#fff;isolation:isolate;opacity:0.6000000000000001"></path><path d="M352.06,342.38c.26,1.06.5,2.16.75,3.29.18.81.34,1.63.52,2.46a40.11,40.11,0,0,0,.91-10.51s-.59.33-1.51.91A7.2,7.2,0,0,0,352.06,342.38Z" style="isolation:isolate;opacity:0.2"></path><path d="M305.59,373.9h40.27c.73-4.18,1.62-8.83,2.74-13.75,1-4.28,2.11-8.77,3.46-13.34A160.19,160.19,0,0,1,358.8,328a82.44,82.44,0,0,0-11.26-3.82,154.21,154.21,0,0,0-17-3.58,78.26,78.26,0,0,0-12-.32,59.21,59.21,0,0,0-3.06,7.39c-.81,2.23-1.71,5-2.68,8.34l-.49,1.75c-.29,1-.57,2.12-.86,3.24-.1.38-.19.77-.28,1.15-.33,1.31-.65,2.68-1,4.11-.65,2.87-1.3,6-1.92,9.4-.38,2.13-.76,4.36-1.12,6.69C306.6,365.92,306.06,369.78,305.59,373.9Z" style="fill:#263238"></path><path d="M340,306.2c-1.52,5.5-5.13,15.16-10.31,16.75,0,0,3.82,6.23,9.52,6.76,3.63.33,5.64-3.77,5.64-3.77-3.71-.69-2.29-3.4.63-6.81Z" style="fill:#e4897b"></path><path d="M342.23,311.47l3.24,7.66a19,19,0,0,0-1.86,2.52c-3.64.28-6.25-5.49-5.36-7.83C338.57,312.85,341.58,312.26,342.23,311.47Z" style="isolation:isolate;opacity:0.2"></path><path d="M354.61,299.05c-3.59,1.07-3.32,4.91,1.69,12.36,3.83-2.67,6.46-9.38,4.84-11.78S357.75,298.13,354.61,299.05Z" style="fill:#263238"></path><path d="M340.13,300.53c-2,7.34-3.49,11.53-1.11,16.45,3.6,7.38,13.58,7.07,17.71.46,3.7-5.93,6.31-16.94.23-22.16a10.37,10.37,0,0,0-16.83,5.25Z" style="fill:#e4897b"></path><path d="M350.21,306.11c-.2.59,0,1.17.34,1.29s.84-.24,1-.82.05-1.16-.33-1.3S350.44,305.55,350.21,306.11Z" style="fill:#263238"></path><path d="M356.85,308.35c-.19.59,0,1.17.34,1.29s.86-.23,1.06-.82,0-1.17-.34-1.29S357.05,307.77,356.85,308.35Z" style="fill:#263238"></path><path d="M354.59,307.9a22,22,0,0,0,1.12,6,3.58,3.58,0,0,1-3-.42Z" style="fill:#de5753"></path><path d="M349.09,303.4a.32.32,0,0,1-.2-.12.38.38,0,0,1,.09-.51,3.57,3.57,0,0,1,3.27-.47.34.34,0,0,1,.21.45v0a.38.38,0,0,1-.47.2h0a2.86,2.86,0,0,0-2.58.4A.38.38,0,0,1,349.09,303.4Z" style="fill:#263238"></path><path d="M360.64,307.13a.38.38,0,0,1-.25-.3,2.91,2.91,0,0,0-1.41-2.21.36.36,0,0,1-.17-.48.37.37,0,0,1,.48-.18,3.65,3.65,0,0,1,1.82,2.78.37.37,0,0,1-.31.4h0A.38.38,0,0,1,360.64,307.13Z" style="fill:#263238"></path><path d="M345.13,295.12c3,2.28,1.35,5.77-6,10.93-2.63-3.87-2.67-11.08-.29-12.74S342.53,293.14,345.13,295.12Z" style="fill:#263238"></path><path d="M334.77,305.14a7.3,7.3,0,0,0,1.88,5.19c1.73,1.85,3.91.62,4.53-1.69.56-2.09.34-5.57-1.92-6.56S334.89,302.79,334.77,305.14Z" style="fill:#e4897b"></path><path d="M351.07,315a18.54,18.54,0,0,0-2.08,1.76c-.13-.09-.27-.19-.39-.29-1.74-1.31-2.11-2.49-2-3.41a2.7,2.7,0,0,1,.5-1.23,3.17,3.17,0,0,1,.5-.57,10.19,10.19,0,0,0,2.89,3.28C350.84,314.78,351.07,315,351.07,315Z" style="fill:#263238"></path><path d="M350.49,314.49l-.63.51c-1.64-1.24-2.62-2.34-2.76-3.22a3.17,3.17,0,0,1,.5-.57A10.19,10.19,0,0,0,350.49,314.49Z" style="fill:#fff"></path><path d="M348.6,316.42c-1.74-1.31-2.11-2.49-2-3.41a6.82,6.82,0,0,1,1.64,1.84A2.62,2.62,0,0,1,348.6,316.42Z" style="fill:#a24e3f"></path><path d="M345.24,296.69s9.8-1.91,13.79,5a7.52,7.52,0,0,0-3.1-4.54s4.32,1,4.7,4.31l.51-1.82,2.44,1.25s.33-6.13-4.27-7.58a4.57,4.57,0,0,1,3.11,1.52s-1-6.1-8.81-7.37-13.42,4.29-13.54,6.59S345.24,296.69,345.24,296.69Z" style="fill:#263238"></path><path d="M349.39,386.79s61.29-8.8,64.52,4.65c3.42,14.22-45.78,23.81-75.19,24.81s-37.85-6-33.13-42.34h40.27Z" style="fill:#407BFF"></path><path d="M349.39,386.79s61.29-8.8,64.52,4.65c3.42,14.22-45.78,23.81-75.19,24.81s-37.85-6-33.13-42.34h40.27Z" style="fill:#fff;isolation:isolate;opacity:0.6000000000000001"></path><polygon points="383.52 414.83 396.36 414.84 402.53 414.85 403.26 408.36 397.56 407.59 383.63 405.73 383.52 414.83" style="fill:#e4897b"></polygon><path d="M401.87,407.54,400.31,415a.75.75,0,0,0,.6.89l3.69.66s4.9,1.25,6.28.37c4-2.57,7.9-18.87,6.26-20.07-.6-.45-1.64.22-2.16.75-1.64,1.69-5.17,6.39-6.56,7.79-1.63,1.62-4.52,1.67-5.79,1.61A.74.74,0,0,0,401.87,407.54Z" style="fill:#263238"></path><polygon points="383.52 414.83 396.36 414.84 397.56 407.59 383.63 405.73 383.52 414.83" style="isolation:isolate;opacity:0.2"></polygon><polygon points="364.75 403.37 352.57 407.42 346.71 409.37 348.07 415.76 353.72 414.68 367.52 412.04 364.75 403.37" style="fill:#e4897b"></polygon><path d="M349.65,416.09l-.86-7.52a.76.76,0,0,0-.85-.66l-3.72.54s-5,.37-6.07,1.64c-3,3.71-1.53,20.4.41,21,.7.23,1.48-.73,1.8-1.4,1-2.12,2.89-7.7,3.77-9.46,1-2.06,3.76-3,5-3.35A.75.75,0,0,0,349.65,416.09Z" style="fill:#263238"></path><polygon points="364.75 403.37 352.57 407.42 353.72 414.68 367.52 412.04 364.75 403.37" style="isolation:isolate;opacity:0.2"></polygon><polygon points="355.84 415.81 359.31 416.13 357.24 404.12 353.25 406.22 355.84 415.81" style="fill:#407BFF"></polygon><polygon points="355.84 415.81 359.31 416.13 357.24 404.12 353.25 406.22 355.84 415.81" style="fill:#fff;isolation:isolate;opacity:0.6000000000000001"></polygon><path d="M344.7,418.06a.2.2,0,0,1,.17-.14.14.14,0,0,1,.16.1c.15.3,1.38,3,.86,3.92a.61.61,0,0,1-.55.28,1,1,0,0,1-.9-.46,2.59,2.59,0,0,1-.24-1.6A11.67,11.67,0,0,1,344.7,418.06Zm.19.57a4.2,4.2,0,0,0-.15,2.9.63.63,0,0,0,.62.31.22.22,0,0,0,.22-.11.55.55,0,0,0,.07-.25A8.25,8.25,0,0,0,344.89,418.63Z" style="fill:#407BFF"></path><path d="M344.72,418a.15.15,0,0,1,.17-.09c.12,0,2.28.32,2.91,1.32a1.08,1.08,0,0,1,.14.84.63.63,0,0,1-.52.58c-.86.12-2.37-1.61-2.71-2.48l0-.08A.13.13,0,0,1,344.72,418Zm2.86,1.92a.83.83,0,0,0-.11-.46,4,4,0,0,0-2.28-1.1c.51.87,1.66,2,2.16,1.92,0,0,.16,0,.21-.27l0-.09Z" style="fill:#407BFF"></path><path d="M395.19,406.65s-57-22.14-74.47-18.44S303.18,401,312,409.56s22.07,5.24,22.07,5.24-10.39-6.23-9.66-10.07,7.33,4.94,7.33,4.94,34.45,8.43,62.9,6.21Z" style="fill:#407BFF"></path><path d="M308.29,355.62l40.31,4.54c1-4.29,2.11-8.78,3.46-13.35L311.46,341c-.1.39-.19.77-.28,1.15C310.2,346,309.23,350.52,308.29,355.62Z" style="fill:#fff;isolation:isolate;opacity:0.6000000000000001"></path><path d="M406.61,407.09a.19.19,0,0,1-.21.05.14.14,0,0,1-.1-.16c0-.34.18-3.33,1.05-3.88a.61.61,0,0,1,.61,0,1,1,0,0,1,.59.82,2.58,2.58,0,0,1-.53,1.53A9.94,9.94,0,0,1,406.61,407.09Zm.1-.59a4.21,4.21,0,0,0,1.47-2.51.64.64,0,0,0-.41-.55.23.23,0,0,0-.24,0,.69.69,0,0,0-.19.19A8.18,8.18,0,0,0,406.71,406.5Z" style="fill:#407BFF"></path><path d="M406.57,407.14a.17.17,0,0,1-.19,0c-.11-.05-1.88-1.33-2-2.51a1.15,1.15,0,0,1,.26-.81.64.64,0,0,1,.74-.28c.82.29,1.35,2.52,1.25,3.45v.09A.16.16,0,0,1,406.57,407.14Zm-1.65-3a.66.66,0,0,0-.11.46c.06.74,1,1.61,1.51,2-.05-1-.56-2.53-1-2.7,0,0-.15,0-.31.15l-.05.07Z" style="fill:#407BFF"></path><path d="M385.81,344l-2.73-1.56-10,2.73-13.59-3.55-3.1,10.29s-.67,11.47,0,11.6,15.5.94,15.5.94l7.57-4.81Z" style="fill:#e0e0e0"></path><polygon points="355.84 342.37 349.81 366.1 368.31 368.2 381.09 364.71 387.64 342.43 373.04 346.19 355.84 342.37" style="fill:#407BFF"></polygon><polygon points="355.84 342.37 349.81 366.1 368.31 368.2 381.09 364.71 387.64 342.43 373.04 346.19 355.84 342.37" style="fill:#fff;opacity:0.30000000000000004"></polygon><polygon points="373.04 346.19 368.31 368.21 349.81 366.1 355.84 342.37 373.04 346.19" style="fill:#fff;isolation:isolate;opacity:0.2"></polygon><path d="M395.19,406.65s-57-22.14-74.47-18.44S303.18,401,312,409.56s22.07,5.24,22.07,5.24-10.39-6.23-9.66-10.07,7.33,4.94,7.33,4.94,34.45,8.43,62.9,6.21Z" style="fill:#fff;isolation:isolate;opacity:0.7000000000000001"></path><polygon points="395.89 406.48 392.68 405.01 390.84 417.01 395.29 416.28 395.89 406.48" style="fill:#407BFF"></polygon><polygon points="395.89 406.48 392.68 405.01 390.84 417.01 395.29 416.28 395.89 406.48" style="fill:#fff;isolation:isolate;opacity:0.6000000000000001"></polygon><path d="M342.34,356.41l8.5-3.82,2.12,7.87s-5.57,3.51-9.93.28Z" style="fill:#e4897b"></path><polygon points="357.46 353.03 357.63 359.27 352.95 360.46 350.84 352.59 357.46 353.03" style="fill:#e4897b"></polygon><path d="M310.21,346.21c.54,5.84,1.54,12.57,3.31,13.94,3.24,2.54,26.75,2,26.75,2l-1-6.81-14.82-5.68a86.76,86.76,0,0,0-2.08-16.92L312.81,336l-.49,1.75c-.29,1-.57,2.12-.86,3.24-.1.38-.19.77-.28,1.15C310.85,343.41,310.53,344.78,310.21,346.21Z" style="isolation:isolate;opacity:0.2"></path><path d="M312.58,343a61.19,61.19,0,0,0,1.25,12.35,6.3,6.3,0,0,0,.6,1.67c2.57,4.36,28.82,5.5,28.82,5.5l.92-7.57-20.08-4.1-1.22-.25-.26-8.83-.27-9c-.52-10.24-3.79-12.46-3.79-12.46C313.8,321.32,312.43,333,312.58,343Z" style="fill:#263238"></path><path d="M312.58,343a61.19,61.19,0,0,0,1.25,12.35c3.18-1.46,7.15-3.24,10.26-4.5l-1.22-.25-.26-8.83A72.62,72.62,0,0,0,312.58,343Z" style="fill:#fff;isolation:isolate;opacity:0.6000000000000001"></path><path d="M381.3,351.88l-.87,6.29,2.75.7a2,2,0,0,0,2.44-1.44l.87-3.22a2,2,0,0,0-2.08-2.54Z" style="fill:#e4897b"></path></g></g></svg>
