<svg xmlns="http://www.w3.org/2000/svg" viewBox="0 0 500 500"><g id="freepik--background-complete--inject-23"><rect y="382.4" width="500" height="0.25" style="fill:#ebebeb"></rect><rect x="416.78" y="398.49" width="33.12" height="0.25" style="fill:#ebebeb"></rect><rect x="322.53" y="401.21" width="8.69" height="0.25" style="fill:#ebebeb"></rect><rect x="396.59" y="389.21" width="19.19" height="0.25" style="fill:#ebebeb"></rect><rect x="52.46" y="390.89" width="43.19" height="0.25" style="fill:#ebebeb"></rect><rect x="104.56" y="390.89" width="6.33" height="0.25" style="fill:#ebebeb"></rect><rect x="131.47" y="395.11" width="93.68" height="0.25" style="fill:#ebebeb"></rect><path d="M237,337.8H43.91a5.71,5.71,0,0,1-5.7-5.71V60.66A5.71,5.71,0,0,1,43.91,55H237a5.71,5.71,0,0,1,5.71,5.71V332.09A5.71,5.71,0,0,1,237,337.8ZM43.91,55.2a5.46,5.46,0,0,0-5.45,5.46V332.09a5.46,5.46,0,0,0,5.45,5.46H237a5.47,5.47,0,0,0,5.46-5.46V60.66A5.47,5.47,0,0,0,237,55.2Z" style="fill:#ebebeb"></path><path d="M453.31,337.8H260.21a5.72,5.72,0,0,1-5.71-5.71V60.66A5.72,5.72,0,0,1,260.21,55h193.1A5.71,5.71,0,0,1,459,60.66V332.09A5.71,5.71,0,0,1,453.31,337.8ZM260.21,55.2a5.47,5.47,0,0,0-5.46,5.46V332.09a5.47,5.47,0,0,0,5.46,5.46h193.1a5.47,5.47,0,0,0,5.46-5.46V60.66a5.47,5.47,0,0,0-5.46-5.46Z" style="fill:#ebebeb"></path><rect x="257" y="167.15" width="146.47" height="214.75" transform="translate(660.48 549.05) rotate(180)" style="fill:#f0f0f0"></rect><rect x="262.18" y="173.91" width="136.12" height="39.66" transform="translate(660.48 387.48) rotate(180)" style="fill:#e0e0e0"></rect><rect x="390.57" y="180.33" width="7.73" height="33.24" transform="translate(788.86 393.91) rotate(180)" style="fill:#ebebeb"></rect><rect x="353.18" y="180.33" width="7.73" height="33.24" transform="translate(714.08 393.91) rotate(180)" style="fill:#ebebeb"></rect><rect x="307.85" y="179.92" width="7.73" height="33.24" transform="translate(585.53 443.16) rotate(-170.22)" style="fill:#ebebeb"></rect><rect x="380.98" y="184.71" width="7.73" height="28.86" transform="translate(769.7 398.29) rotate(180)" style="fill:#ebebeb"></rect><rect x="363.21" y="184.71" width="7.73" height="28.86" transform="translate(734.15 398.29) rotate(180)" style="fill:#ebebeb"></rect><rect x="318.35" y="184.71" width="7.73" height="28.86" transform="translate(644.43 398.29) rotate(180)" style="fill:#ebebeb"></rect><rect x="339.8" y="184.22" width="7.73" height="28.86" transform="translate(636.06 467.11) rotate(-167.47)" style="fill:#ebebeb"></rect><rect x="374.3" y="178.68" width="3.87" height="34.89" transform="translate(752.46 392.26) rotate(180)" style="fill:#ebebeb"></rect><rect x="328.31" y="178.68" width="3.87" height="34.89" transform="translate(660.48 392.26) rotate(180)" style="fill:#ebebeb"></rect><rect x="262.18" y="219.85" width="136.12" height="39.66" style="fill:#e0e0e0"></rect><rect x="262.18" y="226.27" width="7.73" height="33.24" style="fill:#ebebeb"></rect><rect x="299.57" y="226.27" width="7.73" height="33.24" style="fill:#ebebeb"></rect><rect x="344.89" y="225.86" width="7.73" height="33.24" transform="translate(-36.11 62.75) rotate(-9.78)" style="fill:#ebebeb"></rect><rect x="271.76" y="230.65" width="7.73" height="28.86" style="fill:#ebebeb"></rect><rect x="289.53" y="230.65" width="7.73" height="28.86" style="fill:#ebebeb"></rect><rect x="334.39" y="230.65" width="7.73" height="28.86" style="fill:#ebebeb"></rect><rect x="312.95" y="230.16" width="7.73" height="28.86" transform="translate(-45.51 74.54) rotate(-12.53)" style="fill:#ebebeb"></rect><rect x="282.31" y="224.62" width="3.87" height="34.89" style="fill:#ebebeb"></rect><rect x="328.31" y="224.62" width="3.87" height="34.89" style="fill:#ebebeb"></rect><rect x="390.57" y="226.27" width="7.73" height="33.24" transform="translate(788.86 485.79) rotate(180)" style="fill:#ebebeb"></rect><rect x="380.98" y="230.65" width="7.73" height="28.86" transform="translate(769.7 490.17) rotate(180)" style="fill:#ebebeb"></rect><rect x="363.21" y="230.65" width="7.73" height="28.86" transform="translate(734.15 490.17) rotate(180)" style="fill:#ebebeb"></rect><rect x="374.3" y="224.62" width="3.87" height="34.89" transform="translate(752.46 484.14) rotate(180)" style="fill:#ebebeb"></rect><rect x="262.18" y="265.79" width="136.12" height="39.66" transform="translate(660.48 571.25) rotate(180)" style="fill:#e0e0e0"></rect><rect x="312.44" y="272.22" width="7.73" height="33.24" transform="translate(632.61 577.67) rotate(180)" style="fill:#ebebeb"></rect><rect x="267.11" y="271.8" width="7.73" height="33.24" transform="translate(489.04 618.67) rotate(-170.22)" style="fill:#ebebeb"></rect><rect x="340.25" y="276.6" width="7.73" height="28.86" transform="translate(688.22 582.05) rotate(180)" style="fill:#ebebeb"></rect><rect x="322.47" y="276.6" width="7.73" height="28.86" transform="translate(652.68 582.05) rotate(180)" style="fill:#ebebeb"></rect><rect x="277.61" y="276.6" width="7.73" height="28.86" transform="translate(562.96 582.05) rotate(180)" style="fill:#ebebeb"></rect><rect x="299.06" y="276.1" width="7.73" height="28.86" transform="translate(535.62 639.85) rotate(-167.47)" style="fill:#ebebeb"></rect><rect x="333.56" y="270.57" width="3.87" height="34.89" transform="translate(670.99 576.02) rotate(180)" style="fill:#ebebeb"></rect><rect x="287.57" y="270.57" width="3.87" height="34.89" transform="translate(579 576.02) rotate(180)" style="fill:#ebebeb"></rect><rect x="356.07" y="271.8" width="7.73" height="33.24" transform="translate(665.66 633.78) rotate(-170.22)" style="fill:#ebebeb"></rect><rect x="366.57" y="276.6" width="7.73" height="28.86" transform="translate(740.87 582.05) rotate(180)" style="fill:#ebebeb"></rect><rect x="388.02" y="276.1" width="7.73" height="28.86" transform="translate(711.42 659.15) rotate(-167.47)" style="fill:#ebebeb"></rect><rect x="376.53" y="270.57" width="3.87" height="34.89" transform="translate(756.92 576.02) rotate(180)" style="fill:#ebebeb"></rect><rect x="403.47" y="167.15" width="25.27" height="215.31" style="fill:#e0e0e0"></rect><circle cx="338.62" cy="123.38" r="17.21" transform="translate(-12.54 42.3) rotate(-7.02)" style="fill:#e0e0e0"></circle><circle cx="338.62" cy="123.38" r="14.63" transform="translate(-10.51 33.97) rotate(-5.65)" style="fill:#f0f0f0"></circle><polyline points="339.31 113.35 339.31 123.58 346.09 119.74" style="fill:#f0f0f0"></polyline><path d="M339.31,124.58a1,1,0,0,1-1-1V113.35a1,1,0,1,1,2,0v8.51l5.29-3a1,1,0,0,1,1,1.74l-6.77,3.84A1.13,1.13,0,0,1,339.31,124.58Z" style="fill:#e0e0e0"></path><path d="M190.36,143.92s1.34-8.86-5.12-14.54-5.9-9.07-4.05-9.51,3.55,5.24,6.39,6.81c0,0,.09-8.1-2.79-11.09s-4.4-10.66-1.66-10.8,3,4.57,3.6,7.9,3.63,8,3.63,8,.6-7.25,2.46-10.23-3.1-9.8-1.19-12.79,5.33,2.7,5.05,9.1-4.55,13.21-3.55,19.89c0,0,1.88-4.69,3.56-5.12s3.4-3.53,4.53-4.67,2.56,2.82,0,6.52S192.13,137,193.13,145Z" style="fill:#e6e6e6"></path><path d="M186.5,139.89l-2.12,13.28a6.76,6.76,0,0,0,6.67,7.82h2.26a6.76,6.76,0,0,0,6.67-7.82l-2.12-13.28Z" style="fill:#e6e6e6"></path><rect x="68.88" y="156.09" width="149.63" height="7.69" style="fill:#e0e0e0"></rect><rect x="75.77" y="127.75" width="6.59" height="28.34" style="fill:#ebebeb"></rect><rect x="107.65" y="127.75" width="6.59" height="28.34" style="fill:#ebebeb"></rect><rect x="146.29" y="127.4" width="6.59" height="28.34" transform="translate(-21.87 27.46) rotate(-9.78)" style="fill:#ebebeb"></rect><rect x="83.94" y="131.48" width="6.59" height="24.6" style="fill:#ebebeb"></rect><rect x="99.09" y="131.48" width="6.59" height="24.6" style="fill:#ebebeb"></rect><rect x="137.33" y="131.48" width="6.59" height="24.6" style="fill:#ebebeb"></rect><rect x="119.05" y="131.06" width="6.59" height="24.6" transform="translate(-28.18 29.95) rotate(-12.53)" style="fill:#ebebeb"></rect><rect x="92.93" y="126.34" width="3.3" height="29.75" style="fill:#ebebeb"></rect><rect x="132.14" y="126.34" width="3.3" height="29.75" style="fill:#ebebeb"></rect><rect x="68.88" y="213.48" width="149.63" height="7.69" transform="translate(287.4 434.65) rotate(180)" style="fill:#e0e0e0"></rect><rect x="205.03" y="185.14" width="6.59" height="28.34" transform="translate(416.66 398.62) rotate(180)" style="fill:#ebebeb"></rect><rect x="173.16" y="185.14" width="6.59" height="28.34" transform="translate(352.91 398.62) rotate(180)" style="fill:#ebebeb"></rect><rect x="134.52" y="184.79" width="6.59" height="28.34" transform="translate(239.83 418.43) rotate(-170.22)" style="fill:#ebebeb"></rect><rect x="196.87" y="188.88" width="6.59" height="24.6" transform="translate(400.32 402.36) rotate(180)" style="fill:#ebebeb"></rect><rect x="181.71" y="188.88" width="6.59" height="24.6" transform="translate(370.02 402.36) rotate(180)" style="fill:#ebebeb"></rect><rect x="143.47" y="188.88" width="6.59" height="24.6" transform="translate(293.53 402.36) rotate(180)" style="fill:#ebebeb"></rect><rect x="161.75" y="188.45" width="6.59" height="24.6" transform="translate(282.63 432.53) rotate(-167.47)" style="fill:#ebebeb"></rect><rect x="191.17" y="183.73" width="3.3" height="29.75" transform="translate(385.63 397.21) rotate(180)" style="fill:#ebebeb"></rect><rect x="151.96" y="183.73" width="3.3" height="29.75" transform="translate(307.21 397.21) rotate(180)" style="fill:#ebebeb"></rect><rect x="83.24" y="191.05" width="32.12" height="22.18" transform="translate(198.6 404.28) rotate(180)" style="fill:#ebebeb"></rect></g><g id="freepik--Shadow--inject-23"><ellipse id="freepik--path--inject-23" cx="250" cy="416.24" rx="193.89" ry="11.32" style="fill:#f5f5f5"></ellipse></g><g id="freepik--Book--inject-23"><path d="M293.15,206.56V411.67h-219V188.27s54.41-1.5,104.44,19.57q2.76,1.16,5.51,2.42Z" style="fill:#263238"></path><path d="M293.15,206.56V411.67h-219V188.27s54.41-1.5,104.44,19.57q2.76,1.16,5.51,2.42Z" style="fill:#fff;opacity:0.6000000000000001"></path><path d="M293.15,206.56V411.67H178.59V207.84q2.76,1.16,5.51,2.42Z" style="opacity:0.2"></path><path d="M78.1,186.86V408.31l42.79.46,19.28-174.6S115.69,183.74,78.1,186.86Z" style="fill:#407BFF"></path><path d="M78.1,186.86V408.31l42.79.46,19.28-174.6S115.69,183.74,78.1,186.86Z" style="fill:#fff;opacity:0.8"></path><path d="M86,186.87s71.83-1,98.95,20.9c0,0,26.63-4.71,105.19-4.71V408.67H86Z" style="fill:#407BFF"></path><path d="M290.12,203.06V408.67H86V186.87s71.83-1,98.95,20.9c0,0,2.56-.45,8.44-1.08h.14C206.64,205.29,236.1,203.06,290.12,203.06Z" style="fill:#fff;opacity:0.9"></path><path d="M290.12,203.06V408.67H184.92V207.77l8.44-1.08h.14C206.64,205.29,236.1,203.06,290.12,203.06Z" style="fill:#407BFF;opacity:0.1"></path><path d="M82.46,408.36c1.18,0,.79-215.8.79-215.8L86,408.67Z" style="opacity:0.1"></path><polygon points="79.49 186.86 80.68 371.37 81.27 186.86 79.49 186.86" style="opacity:0.1"></polygon><path d="M234.1,219.6c21.13-4.73,43.84,11.68,43.23,33.56s-19.62,29.2-37.93,21.92-16,12-32.88,6S191.92,229.06,234.1,219.6Z" style="fill:#407BFF"></path><path d="M277.34,252.68c0,.16,0,.32,0,.48a32.73,32.73,0,0,1-.52,5.11c-3.21,17.88-20.61,23.49-37.41,16.81-18.31-7.27-16,12-32.88,6-6.9-2.46-10.6-11.62-9.66-22.25A42.25,42.25,0,0,1,205.51,237c6-7.82,15.34-14.41,28.59-17.38C255.07,214.9,277.61,231,277.34,252.68Z" style="fill:#fff;opacity:0.5"></path><path d="M277.34,252.68c0,.16,0,.32,0,.48a32.73,32.73,0,0,1-.52,5.11c-6.55,3.8-15.46,7.89-20.31,5.44-8.27-4.18,2.82-8.61-14.59-3.63s-31.53,10.6-36.67,7.46c-4.64-2.83-.47-11.24-8.38-8.67A42.25,42.25,0,0,1,205.51,237c3.55-1.08,7.35-1.65,9.64-.23,5.26,3.26-2.26,14.6,4.6,18.89s33.23-8.57,41.14-8,4.36,4.88,5.16,6.79C266.5,255.52,272.39,254.09,277.34,252.68Z" style="fill:#fff;opacity:0.2"></path><path d="M212.35,264.94a3.87,3.87,0,1,1-1,5.38A3.89,3.89,0,0,1,212.35,264.94Z" style="fill:#407BFF;isolation:isolate"></path><path d="M212.35,264.94a3.87,3.87,0,1,1-1,5.38A3.89,3.89,0,0,1,212.35,264.94Z" style="fill:#fff;opacity:0.2"></path><path d="M217.13,265.28c0,.13-.14,0-.32.22a2,2,0,0,1-.65.46v.12c0,.12-.52.13-.59,0s0,0,.3-.24,0,0-.06-.26-.15-.09-.36-.21a.24.24,0,0,0-.34.08c-.08.1,0,.22-.11.28s0,.11-.05.16-.11.06-.18.06a.13.13,0,0,0-.17.06.34.34,0,0,0,0,.1.21.21,0,0,1-.11,0,.08.08,0,0,1-.08,0,.09.09,0,0,1,0-.05.58.58,0,0,1,0-.14.12.12,0,0,1,.11-.09.11.11,0,0,0-.08-.1l.14-.06a1.26,1.26,0,0,0,0-.39.08.08,0,0,0-.08-.07c-.05,0-.09,0-.14,0s-.21-.08-.29,0a.34.34,0,0,0-.06.06l-.07.12,0,.05s0,.05,0,.08a.07.07,0,0,1,0,.06c.08,0,0,.09,0,.11a1.44,1.44,0,0,1-.37.1h-.06l0,0-.14-.16c-.09-.1-.18-.26-.1-.36s.22-.12.22-.22,0,0,0-.05.08,0,.09.06a.78.78,0,0,0,.09.21c.05,0,.17.06.2,0s0-.13,0-.16.14,0,.19-.07a.14.14,0,0,0,0-.17.53.53,0,0,0-.13-.13.24.24,0,0,1-.24.06c-.07,0-.15-.06-.2,0a.93.93,0,0,0,0-.13h-.15a.1.1,0,0,1-.1-.08.08.08,0,0,1,0,0h0a2.91,2.91,0,0,1,.72-.17c0,.16.06.41.43.39.55,0,0,0,.36-.41h0a3.76,3.76,0,0,1,1.19.28l-.14.21c-.14.22.15.18.15.18l.28-.1c.15-.06.13-.06.13-.09A3.66,3.66,0,0,1,217.13,265.28Z" style="opacity:0.1"></path><path d="M211.83,267.65s0,0,0,.05-.14.13-.22.19,0,.45-.14.61-.2.08-.28.16a.74.74,0,0,0-.1.22.47.47,0,0,1-.33.25,3.78,3.78,0,0,1,.06-2.16l.11,0a.21.21,0,0,1,.19.11.51.51,0,0,1,.06.22,1.4,1.4,0,0,0,.1-.16.14.14,0,0,1,.11.18c0,.08-.1.12-.17.17s-.15.12-.12.2.09.1.15.13a.17.17,0,0,1,.11.16l.24-.3a.1.1,0,0,1,0-.05A.13.13,0,0,1,211.83,267.65Z" style="opacity:0.2"></path><path d="M211.85,267.09v.09a.35.35,0,0,0,.24-.1.18.18,0,0,0,0-.07.22.22,0,0,0,0-.16.66.66,0,0,0-.06-.2.26.26,0,0,0-.17-.12c-.07,0-.15,0-.15.11s.05.14,0,.2-.06.11-.06.16A.1.1,0,0,0,211.85,267.09Z" style="opacity:0.2"></path><path d="M212.81,265c-.08.13-.3.08-.41.19s-.06.17-.12.21a.33.33,0,0,1-.13,0,.09.09,0,0,0-.05.11.05.05,0,0,0,.05,0l.15.06,0,0a.1.1,0,0,1,0,.14.27.27,0,0,1-.14.07h-.1s-.06,0-.05-.07v-.05a.11.11,0,0,0,0-.11.08.08,0,0,0-.11,0l-.05,0-.14.19a.34.34,0,0,1-.27.17h0s0,0,0-.06a.15.15,0,0,0,0-.07,3.9,3.9,0,0,1,1-.94l.38-.23h0C212.8,264.8,212.86,264.91,212.81,265Z" style="opacity:0.2"></path><path d="M212.43,266.2a.1.1,0,0,0-.08.11l.08.06v-.05c0,.05.08.06.1,0a.09.09,0,0,0-.06-.11Z" style="opacity:0.2"></path><path d="M214.43,266.61c-.09,0-.18,0-.26.06s-.21.05-.24,0,0-.14.12-.17a.23.23,0,0,0-.32-.14.25.25,0,0,1,.1.21.14.14,0,0,1-.16.14c-.14,0-.09-.31-.23-.36a.21.21,0,0,0-.18.06c-.19.13-.4.3-.4.53,0,0-.17.07-.22.1a.43.43,0,0,0,0,.25.16.16,0,0,0,.05.1s.08,0,.08.09,0,0,0,.07.2.17.25.18.16-.08.26-.06a.23.23,0,0,1,.16.17l-.08,0a.27.27,0,0,1,0,.33.4.4,0,0,1,.35,0,.1.1,0,0,0,.09,0l0,0a.42.42,0,0,0,.08-.3l.08-.06c0-.05-.06-.12-.1-.08l0,0c0,.05-.12,0-.15,0a.37.37,0,0,1,0-.18l0-.11a.34.34,0,0,1,.12-.22c.13-.09.29,0,.41.11s.09.12,0,.15-.07,0-.09,0,0,.08,0,.11,0,0-.07,0,0,.12.05.16,0-.06.08-.1.18,0,.24-.09,0-.09.06-.13.2-.2.17-.32-.09-.1-.13-.16S214.54,266.66,214.43,266.61Z" style="opacity:0.2"></path><path d="M212.18,268.49a.25.25,0,0,0,.11,0c.06,0,.25,0,.21.08s-.22,0-.29.06.09.08.08.14,0,.14,0,.17.16,0,.24,0,.18-.13.29-.15l0-.12s.06-.06.08-.1.06-.09.1-.08,0-.09-.06-.12a.75.75,0,0,1-.13-.06.1.1,0,0,1,0-.13s.09,0,.12,0,0-.07,0-.11l0-.09-.09,0a.07.07,0,0,1,0,.1l-.11,0a.73.73,0,0,0-.15-.29l-.12.05s0,.09-.06.1a.29.29,0,0,1-.13,0,.17.17,0,0,0-.1,0s0,.09,0,.13,0,.14,0,.25A.19.19,0,0,0,212.18,268.49Z" style="opacity:0.1"></path><path d="M212.85,270a.52.52,0,0,1-.27.07.13.13,0,0,0-.13,0,.11.11,0,0,0,0,.12l.1.09a.39.39,0,0,1,.13.32.64.64,0,0,1-.54.08l0,0c-.06-.06,0-.17-.05-.24s-.19-.06-.18-.14.07-.06.11-.1a.1.1,0,0,0,0-.14.25.25,0,0,0-.26.2c-.08,0-.14-.07-.18-.14s-.12-.15-.18-.1a.14.14,0,0,0,0,.09c0,.19.22.29.38.37a.19.19,0,0,1,.11.08.07.07,0,0,1,0,.11l.22.11a.1.1,0,0,1,.05,0,.09.09,0,0,1,0,.05c0,.08,0,.15-.05.23a3.88,3.88,0,0,1-.65-.74,4.45,4.45,0,0,1-.42-.81.24.24,0,0,1,.07-.12s.1-.05.14-.09.09-.23.18-.32a.22.22,0,0,1,.27,0,.32.32,0,0,1,.16.24.44.44,0,0,0,.06.23c.09.11.26.06.38,0a.19.19,0,0,0,.18.16.14.14,0,0,0,.13-.18c.09,0,.21,0,.24.07s0,.11,0,.17,0,.14,0,.16.16,0,.21,0S212.91,269.94,212.85,270Z" style="opacity:0.1"></path><path d="M216.7,271.35l-.1.07a.25.25,0,0,1-.06-.22c0-.09.08-.17.09-.27s0-.12,0-.18.21-.21.36-.24a.13.13,0,0,1,0-.2.47.47,0,0,1,.2-.12.28.28,0,0,0,.18-.15.2.2,0,0,1,0-.08l.06,0,.41-.11c0-.09-.16-.1-.26-.07s-.2.06-.28,0a.46.46,0,0,1-.42.39h0c-.06,0,0-.16,0-.18h-.21a.13.13,0,0,1-.09,0s0-.11,0-.16-.1-.18-.16-.27-.09-.24,0-.28.05,0,.07,0,0-.08,0-.13a.54.54,0,0,1,.14-.35.54.54,0,0,0,.05-.11.58.58,0,0,0,0-.41.76.76,0,0,0-.14.3c0,.1-.12.21-.22.19a.29.29,0,0,1-.07.36.27.27,0,0,1-.36,0,.11.11,0,0,1,0-.12s.07-.05.1-.06a.31.31,0,0,0,.23-.26.43.43,0,0,1-.41,0,.28.28,0,0,1-.05-.39l-.08.06a.32.32,0,0,1,.14-.31.71.71,0,0,0,.15-.08c.05,0,.09-.09.06-.14a.23.23,0,0,1-.16-.16.21.21,0,0,1,.06-.18.07.07,0,0,1-.09,0s0-.09,0-.12a.24.24,0,0,1,.14-.05.47.47,0,0,1,.37,0,.57.57,0,0,1,.15.23c0,.12.08.23.13.35a.4.4,0,0,0,.22.27.42.42,0,0,0,.19,0,1.39,1.39,0,0,0,.49-.32.44.44,0,0,0,.15-.26.58.58,0,0,0-.06-.29c-.07-.18-.15-.49-.39-.53a.19.19,0,0,0-.18.07.29.29,0,0,1-.07.12c-.05,0-.13,0-.17.07s0,.08,0,.12,0,.09-.08.08-.05-.07-.07-.12-.14-.16-.17-.27.05-.19.09-.28a.88.88,0,0,0,.06-.27s.13,0,.19,0,.15,0,.2,0,0,.19.13.21h0s0,0,.05.06.11.18.21.17l0,0v0a.54.54,0,0,0-.2-.31l-.06-.05a.15.15,0,0,1,0-.07v-.14s.07,0,.11,0,0-.06.08-.08a.16.16,0,0,1,.14-.06l.22.29A3.88,3.88,0,0,1,216.7,271.35Z" style="opacity:0.2"></path><path d="M215.7,270.44a.68.68,0,0,0,.1.21.38.38,0,0,1-.26.16.43.43,0,0,0,.39.41.25.25,0,0,1-.19.12.64.64,0,0,1-.24,0l-.55-.17c-.06.05,0,.15.11.15s.17,0,.23,0,.06.21.14.25.1,0,.14,0a.21.21,0,0,1,.17.18v.06A3.58,3.58,0,0,1,214,272v0s0,0,0-.08a.55.55,0,0,1,.1-.39.43.43,0,0,0,.07-.39c-.15.11-.13.35-.24.5l-.1.11a1.16,1.16,0,0,0-.16.21,3.79,3.79,0,0,1-1.26-.54.53.53,0,0,0,0-.37c0-.06.12,0,.18,0s.06-.13.13-.16.16.15.28.15.11-.11.17-.15.18,0,.25-.06-.07-.36-.09-.53.07-.12.11-.18a.34.34,0,0,0,0-.31,1.07,1.07,0,0,0-.16-.27.33.33,0,0,1-.09-.28c0-.14.26-.14.36-.26s.05-.24.12-.35a.54.54,0,0,1,.25-.19l.08,0c.06,0,.08.08.09.14a2.59,2.59,0,0,1,0,.48c.13,0,.31,0,.35-.13a.32.32,0,0,1,0-.09.17.17,0,0,1,.14-.08l.23.2a.55.55,0,0,0-.38.54.33.33,0,0,1,0,.1.19.19,0,0,1-.1.1,1.47,1.47,0,0,1-.47,0c-.16,0-.34.11-.32.27.09-.09.24,0,.36,0a.65.65,0,0,0,.21,0,1.6,1.6,0,0,1,.53-.06.37.37,0,0,0,.09-.36.62.62,0,0,0,.56.07.8.8,0,0,0,.18.43c.1.09.24.14.28.26A.2.2,0,0,0,215.7,270.44Z" style="opacity:0.2"></path><path d="M252.92,255c-8.09,4.16-13.57,9.65-12.22,12.27s9,1.36,17.09-2.79,13.57-9.65,12.23-12.27S261,250.88,252.92,255Zm4.28,8.32c-7.08,3.64-13.71,4.86-14.81,2.72s3.76-6.81,10.84-10.45,13.71-4.85,14.8-2.72S264.28,259.73,257.2,263.36Z" style="fill:#fff"></path><path d="M255.31,270.36a9.75,9.75,0,1,1,10.22-9.25A9.74,9.74,0,0,1,255.31,270.36Z" style="fill:#407BFF;isolation:isolate"></path><path d="M255.31,270.36a9.75,9.75,0,1,1,10.22-9.25A9.74,9.74,0,0,1,255.31,270.36Z" style="fill:#fff;opacity:0.1"></path><g style="opacity:0.2"><path d="M264.08,265.76a9.74,9.74,0,0,1-8.76,4.61,9.54,9.54,0,0,1-2.8-.56C255.62,269.47,260.18,268.75,264.08,265.76Z" style="fill:#fff"></path><path d="M255.9,258.71c2-.88,6.21-2,8-3.43a3.14,3.14,0,0,1,.24.39,21.66,21.66,0,0,0-2.83,2.55c-2,2-3,3.8-6.44,4.08S253.63,259.71,255.9,258.71Z" style="fill:#fff"></path><path d="M250.2,268.62c3-.52,10.34-2.14,15.21-6.34-.06.36-.15.7-.24,1-3.13,1.77-9,5.17-14,5.9A6.89,6.89,0,0,1,250.2,268.62Z" style="fill:#fff"></path><path d="M247.76,266.15a46.87,46.87,0,0,0,5.8-1.46,39.38,39.38,0,0,0,11.64-6.61,8.79,8.79,0,0,1,.29,1.69c-3,2.23-10.43,7.15-16.73,7.6A8.88,8.88,0,0,1,247.76,266.15Z" style="fill:#fff"></path><path d="M247.19,256.06a4.9,4.9,0,0,1,.42-.73c2.91-1,8.51-2.6,11-4a8.13,8.13,0,0,1,1.16.44C256.62,252.62,250.05,255.26,247.19,256.06Z" style="fill:#fff"></path><path d="M246.5,257.66a30.11,30.11,0,0,1,6.83-1.66,19.37,19.37,0,0,0,7.75-3.56,3.88,3.88,0,0,1,.38.27c-4,1.87-8.71,6.29-10.94,7.61a24.57,24.57,0,0,1-4.31,2.05,8.59,8.59,0,0,1-.16-2.22A9.7,9.7,0,0,1,246.5,257.66Z" style="fill:#fff"></path></g><path d="M246.37,263.1c.59-.17,1.3-.39,2.07-.69,2.63-1,7.28-5.12,11.45-7.08,1.57-.74,2.47-1.16,3-1.39.17.19.34.37.5.57a31.14,31.14,0,0,1-3.71,2.05,31.76,31.76,0,0,0-7.1,4.38,25.62,25.62,0,0,1-5.87,3.21A8,8,0,0,1,246.37,263.1Z" style="opacity:0.2"></path><path d="M247,264.77a66,66,0,0,1,7.4-1.69c4.2-.66,5.72-2.6,7.38-4.46a11.43,11.43,0,0,1,2.82-2.2,6.42,6.42,0,0,1,.45,1.09,29.55,29.55,0,0,1-6.21,4.34,46,46,0,0,1-11.5,3.58A4.12,4.12,0,0,1,247,264.77Z" style="opacity:0.2"></path><path d="M249.32,267.91a34.12,34.12,0,0,0,10.41-3.61c2.66-1.45,4.55-2.59,5.81-3.38a.59.59,0,0,1,0,.19,7.71,7.71,0,0,1-.08.84c-3,1.76-9.89,5.42-16,6C249.37,268,249.35,267.94,249.32,267.91Z" style="opacity:0.2"></path><path d="M248.43,254.23a9.77,9.77,0,0,1,7.85-3.34c.23,0,.47,0,.69.07A35.72,35.72,0,0,1,248.43,254.23Z" style="opacity:0.2"></path><path d="M252,269.58c2.41-.68,8.59-2.51,11.18-4.08a12.53,12.53,0,0,1,1.5-.8,10.46,10.46,0,0,1-.49.94,42.56,42.56,0,0,1-7.53,3c-1.81.37-3.44.78-4.41,1h0A1,1,0,0,1,252,269.58Z" style="opacity:0.2"></path><path d="M259.5,252.54s-3.48,2.36-5.07,2.7a20.13,20.13,0,0,1-2.94.4S256.53,252.79,259.5,252.54Z" style="opacity:0.2"></path><path d="M267.55,252.38a1.42,1.42,0,0,1,.48.53c1.1,2.14-3.75,6.82-10.83,10.45s-13.71,4.86-14.81,2.72a1.6,1.6,0,0,1-.15-.7l-1.74.89a2,2,0,0,0,.2,1c1.34,2.61,9,1.36,17.09-2.79s13.57-9.65,12.23-12.27a2,2,0,0,0-.73-.76Z" style="fill:#fff"></path><path d="M231.79,229.06a8.81,8.81,0,1,1-6.68,10.52A8.81,8.81,0,0,1,231.79,229.06Z" style="fill:#407BFF;isolation:isolate"></path><path d="M231.79,229.06a8.81,8.81,0,1,1-6.68,10.52A8.81,8.81,0,0,1,231.79,229.06Z" style="fill:#fff;opacity:0.30000000000000004"></path><path d="M240.22,235.09a.91.91,0,0,0,0-1.81.91.91,0,1,0,0,1.81Z" style="opacity:0.2"></path><path d="M237.25,230.7a.91.91,0,1,0,1.81,0s0,0,0,0a8.79,8.79,0,0,0-1.23-.78A.89.89,0,0,0,237.25,230.7Z" style="opacity:0.2"></path><path d="M227.49,239.1a1.4,1.4,0,1,0,1.39,1.4A1.4,1.4,0,0,0,227.49,239.1Z" style="opacity:0.2"></path><path d="M242.11,235a8.77,8.77,0,0,0-.52-1.26c0,.06,0,.11,0,.17A1.37,1.37,0,0,0,242.11,235Z" style="opacity:0.2"></path><path d="M226.89,234.89a1.37,1.37,0,0,0-1-1.32,8.81,8.81,0,0,0-.88,2.62,1.23,1.23,0,0,0,.47.09A1.39,1.39,0,0,0,226.89,234.89Z" style="opacity:0.2"></path><path d="M241.13,238.77a1.39,1.39,0,0,0,1,1.34,8.57,8.57,0,0,0,.35-2.73A1.4,1.4,0,0,0,241.13,238.77Z" style="opacity:0.2"></path><path d="M232.47,233a1.39,1.39,0,1,0-1.39,1.39A1.39,1.39,0,0,0,232.47,233Z" style="opacity:0.2"></path><circle cx="237.14" cy="241.14" r="0.9" style="opacity:0.2"></circle><path d="M240.47,241.61a.89.89,0,0,0,.63.85,9.23,9.23,0,0,0,.81-1.56.88.88,0,0,0-1.44.71Z" style="opacity:0.2"></path><path d="M238.16,245a2.11,2.11,0,0,0,0,.25,8.81,8.81,0,0,0,2.53-2.25,2.63,2.63,0,0,0-.49-.06A2.06,2.06,0,0,0,238.16,245Z" style="opacity:0.2"></path><path d="M225.86,238.33a2,2,0,0,0-.89-1.69,8.88,8.88,0,0,0,.14,2.94c0,.09.06.18.08.27A2.07,2.07,0,0,0,225.86,238.33Z" style="opacity:0.2"></path><path d="M230,229.8s0-.08,0-.11a8.71,8.71,0,0,0-3.62,3.14,3.19,3.19,0,0,0,.54.06A3.09,3.09,0,0,0,230,229.8Z" style="opacity:0.2"></path><path d="M234.17,230.24a2,2,0,0,0,1.81-1.09,8.56,8.56,0,0,0-3.71-.17A2.06,2.06,0,0,0,234.17,230.24Z" style="opacity:0.2"></path><path d="M233.71,244.09a.91.91,0,1,0,.91.91A.9.9,0,0,0,233.71,244.09Z" style="opacity:0.2"></path><path d="M231.77,245.74a.89.89,0,0,0-.68.32,7.87,7.87,0,0,0,1.53.33A.89.89,0,0,0,231.77,245.74Z" style="opacity:0.2"></path><path d="M228.2,243.62a.89.89,0,0,0-.67.31,9.27,9.27,0,0,0,1.39,1.11.84.84,0,0,0,.18-.52A.9.9,0,0,0,228.2,243.62Z" style="opacity:0.2"></path><path d="M238.56,236.11a.21.21,0,0,0,.21-.21.2.2,0,0,0-.21-.2.2.2,0,0,0-.2.2A.2.2,0,0,0,238.56,236.11Z" style="opacity:0.2"></path><path d="M239.79,232.73a.2.2,0,0,0,.2-.21.2.2,0,0,0-.2-.2.2.2,0,0,0-.21.2A.21.21,0,0,0,239.79,232.73Z" style="opacity:0.2"></path><path d="M241.37,236.11a.21.21,0,1,0-.21-.21A.21.21,0,0,0,241.37,236.11Z" style="opacity:0.2"></path><path d="M234.14,230.93a.21.21,0,1,0,0-.42.21.21,0,1,0,0,.42Z" style="opacity:0.2"></path><path d="M231.56,234.68a.21.21,0,1,0,.21.21A.21.21,0,0,0,231.56,234.68Z" style="opacity:0.2"></path><path d="M230.1,240.5a.2.2,0,0,0-.2-.21.21.21,0,0,0-.21.21.2.2,0,0,0,.21.2A.2.2,0,0,0,230.1,240.5Z" style="opacity:0.2"></path><path d="M226.69,238.13a.2.2,0,0,0,.2.21.21.21,0,0,0,.21-.21.2.2,0,0,0-.21-.2A.2.2,0,0,0,226.69,238.13Z" style="opacity:0.2"></path><path d="M235.76,239.12a.2.2,0,0,0,.2.21.21.21,0,0,0,.21-.21.2.2,0,0,0-.21-.2A.2.2,0,0,0,235.76,239.12Z" style="opacity:0.2"></path><circle cx="235.76" cy="236.58" r="0.21" style="opacity:0.2"></circle><path d="M237.63,242.93a.21.21,0,1,0,.2.21A.21.21,0,0,0,237.63,242.93Z" style="opacity:0.2"></path><path d="M228.41,233.49a.2.2,0,0,0,.2-.21.2.2,0,0,0-.2-.2.2.2,0,0,0-.21.2A.21.21,0,0,0,228.41,233.49Z" style="opacity:0.2"></path><path d="M232.81,233.21a.21.21,0,1,0-.21-.21A.21.21,0,0,0,232.81,233.21Z" style="opacity:0.2"></path><path d="M232.6,243.62a.2.2,0,0,0-.2.2.2.2,0,0,0,.2.21.21.21,0,0,0,.21-.21A.2.2,0,0,0,232.6,243.62Z" style="opacity:0.2"></path><path d="M232.11,241.14a.2.2,0,0,0-.2.21.2.2,0,0,0,.2.2.2.2,0,0,0,.21-.2A.21.21,0,0,0,232.11,241.14Z" style="opacity:0.2"></path><path d="M227.1,242.31a.2.2,0,0,0-.21.2.21.21,0,0,0,.21.21.21.21,0,1,0,0-.41Z" style="opacity:0.2"></path><path d="M235.09,245.7a.2.2,0,0,0-.2.2.2.2,0,0,0,.2.21.21.21,0,0,0,.21-.21A.2.2,0,0,0,235.09,245.7Z" style="opacity:0.2"></path><path d="M236.23,233.48a.48.48,0,1,0,0-1,.48.48,0,0,0,0,1Z" style="opacity:0.2"></path><path d="M236.23,231.2a.48.48,0,1,0,0-1,.48.48,0,0,0,0,1Z" style="opacity:0.2"></path><path d="M231.08,231.2a.48.48,0,1,0-.47-.48A.48.48,0,0,0,231.08,231.2Z" style="opacity:0.2"></path><path d="M235.09,243.62a.48.48,0,1,0-.47.47A.47.47,0,0,0,235.09,243.62Z" style="opacity:0.2"></path><path d="M230.1,244.05a.47.47,0,0,0-.47.47.48.48,0,1,0,1,0A.47.47,0,0,0,230.1,244.05Z" style="opacity:0.2"></path><circle cx="228.41" cy="242.72" r="0.48" style="opacity:0.2"></circle><path d="M236.23,244.52a.48.48,0,0,0,0,.95.48.48,0,1,0,0-.95Z" style="opacity:0.2"></path><path d="M233,238.61a.48.48,0,1,0-.47-.48A.47.47,0,0,0,233,238.61Z" style="opacity:0.2"></path><path d="M239.79,240.08a.48.48,0,1,0-.48-.48A.48.48,0,0,0,239.79,240.08Z" style="opacity:0.2"></path><path d="M228.88,237.38a.48.48,0,1,0,.48.48A.47.47,0,0,0,228.88,237.38Z" style="opacity:0.2"></path><circle cx="226.89" cy="236.75" r="0.48" style="opacity:0.2"></circle><path d="M193.89,303.73a.75.75,0,0,1,0-1.5c.35,0,35.72-1.61,86.3-1.61a.75.75,0,0,1,0,1.5c-50.54,0-85.88,1.59-86.23,1.61Z" style="opacity:0.2"></path><path d="M193.89,315.56a.75.75,0,0,1-.75-.72.76.76,0,0,1,.72-.78c.35,0,35.72-1.48,86.3-1.48a.75.75,0,0,1,0,1.5c-50.55,0-85.88,1.46-86.23,1.48Z" style="opacity:0.2"></path><path d="M193.89,327.39a.75.75,0,0,1-.75-.72.76.76,0,0,1,.73-.78c.35,0,35.71-1.36,86.29-1.36a.75.75,0,1,1,0,1.5c-50.55,0-85.89,1.35-86.24,1.36Z" style="opacity:0.2"></path><path d="M193.89,339.22a.75.75,0,0,1-.75-.72.76.76,0,0,1,.73-.78c.35,0,35.71-1.23,86.29-1.23a.75.75,0,1,1,0,1.5c-50.55,0-85.89,1.22-86.24,1.23Z" style="opacity:0.2"></path><path d="M193.89,351.06a.75.75,0,0,1,0-1.5c.35,0,35.72-1.11,86.29-1.11a.75.75,0,0,1,0,1.5c-50.55,0-85.89,1.09-86.24,1.11Z" style="opacity:0.2"></path><path d="M193.89,362.89a.76.76,0,0,1-.75-.73.75.75,0,0,1,.73-.77c.35,0,35.72-1,86.29-1a.75.75,0,0,1,0,1.5c-50.55,0-85.89,1-86.24,1Z" style="opacity:0.2"></path><path d="M193.89,374.72a.75.75,0,0,1,0-1.5c.35,0,35.71-.86,86.28-.86a.75.75,0,0,1,0,1.5c-50.55,0-85.9.85-86.25.86Z" style="opacity:0.2"></path><path d="M193.89,386.55a.75.75,0,0,1,0-1.5c.35,0,35.71-.73,86.28-.73a.75.75,0,0,1,0,1.5c-50.55,0-85.9.72-86.25.73Z" style="opacity:0.2"></path><path d="M193.89,398.38a.75.75,0,0,1-.75-.73.76.76,0,0,1,.74-.77c.35,0,35.71-.6,86.28-.6a.75.75,0,1,1,0,1.5c-50.55,0-85.9.6-86.25.6Z" style="opacity:0.2"></path><path d="M178.1,219.68a.7.7,0,0,1-.31-.07c-.28-.12-28.58-12.55-78.95-12.55a.75.75,0,1,1,0-1.5c50.72,0,79.28,12.56,79.57,12.68a.75.75,0,0,1,.37,1A.74.74,0,0,1,178.1,219.68Z" style="opacity:0.2"></path><path d="M178.1,231.51a.72.72,0,0,1-.29-.06c-.29-.12-28.6-11.93-79-11.93a.75.75,0,0,1,0-1.5c50.71,0,79.27,11.93,79.55,12a.75.75,0,0,1-.29,1.44Z" style="opacity:0.2"></path><path d="M178.1,243.34a.92.92,0,0,1-.28-.05c-.28-.12-28.6-11.31-79-11.31a.75.75,0,0,1,0-1.5c50.7,0,79.26,11.3,79.54,11.42a.74.74,0,0,1,.41,1A.72.72,0,0,1,178.1,243.34Z" style="opacity:0.2"></path><path d="M178.1,255.17a.65.65,0,0,1-.27,0c-.28-.1-28.6-10.69-79-10.69a.75.75,0,1,1,0-1.5c50.7,0,79.24,10.69,79.53,10.79a.75.75,0,0,1,.43,1A.74.74,0,0,1,178.1,255.17Z" style="opacity:0.2"></path><path d="M178.1,267a.7.7,0,0,1-.25-.05c-.29-.1-28.61-10.07-79-10.07a.75.75,0,0,1,0-1.5c50.69,0,79.23,10.06,79.51,10.16a.75.75,0,0,1,.45,1A.74.74,0,0,1,178.1,267Z" style="opacity:0.2"></path><path d="M178.1,278.84a.67.67,0,0,1-.24,0c-.28-.1-28.61-9.45-79-9.45a.75.75,0,0,1,0-1.5c50.68,0,79.22,9.43,79.5,9.53a.75.75,0,0,1-.24,1.46Z" style="opacity:0.2"></path><path d="M178.1,290.67a.62.62,0,0,1-.23,0c-.28-.08-28.61-8.82-79-8.82a.75.75,0,1,1,0-1.5c50.67,0,79.2,8.8,79.48,8.89a.75.75,0,0,1-.22,1.47Z" style="opacity:0.2"></path><path d="M178.1,302.5l-.21,0c-.28-.08-28.62-8.21-79-8.21a.75.75,0,0,1,0-1.5c50.67,0,79.19,8.19,79.47,8.27a.75.75,0,0,1,.51.93A.76.76,0,0,1,178.1,302.5Z" style="opacity:0.2"></path><path d="M178.1,314.33a.68.68,0,0,1-.2,0c-.28-.08-28.62-7.59-79.06-7.59a.75.75,0,0,1,0-1.5c50.66,0,79.17,7.56,79.45,7.64a.75.75,0,0,1-.19,1.47Z" style="opacity:0.2"></path><path d="M107,324.79c14.19-15.08,60.42,2.66,67.08,24.15,5.66,18.26-33.73,59.16-54.47,37.92S98.18,334.17,107,324.79Z" style="fill:#407BFF"></path><path d="M169.72,367.62a56.79,56.79,0,0,1-5.6,7.76,56.2,56.2,0,0,1-18.48,14.53c-5.63,2.59-11.44,3.67-16.78,2.36a19.2,19.2,0,0,1-9.24-5.41,62.88,62.88,0,0,1-10.77-14.92,65.19,65.19,0,0,1-5.13-13.28,59.7,59.7,0,0,1-2.06-16.33,36.23,36.23,0,0,1,2.23-12.39,16.47,16.47,0,0,1,3.12-5.15c14.19-15.08,60.42,2.66,67.08,24.15C175.66,354,173.75,360.86,169.72,367.62Z" style="fill:#fff;opacity:0.5"></path><path d="M169.72,367.62a56.79,56.79,0,0,1-5.6,7.76,4.43,4.43,0,0,0-.58-.48c-4.77-3.29-7.77,7-15.61.49s-11.71-21-16.46-22.52-6,6-15.69,3.21c-4.07-1.17-9.35-7.17-14.12-13.75a36.23,36.23,0,0,1,2.23-12.39c4.59,6.82,10.6,14.31,15.57,15.52,9.43,2.3,9.42-4.88,18.85-2.75s14.56,21.87,19.78,24.27C161.81,368.68,164.24,363.67,169.72,367.62Z" style="fill:#fff;opacity:0.2"></path><path d="M140.14,389.73s1.61-3.05,0-5.76-3.7-3.71-1.8-6.59-3.09-3.54-3.56-6.25,2.31-2.94,0-5.4-3.73-5.69-1.37-7.87c0,0-4.54,2.73-3.41,4.31s1.71,3.39.95,4.23-3.39,5.08-1.13,6.59,2.36,5,1,7.23.28,4.17,2.08,5,1.42,5.93,1.42,5.93Z" style="fill:#407BFF"></path><path d="M140.14,389.73s1.61-3.05,0-5.76-3.7-3.71-1.8-6.59-3.09-3.54-3.56-6.25,2.31-2.94,0-5.4-3.73-5.69-1.37-7.87c0,0-4.54,2.73-3.41,4.31s1.71,3.39.95,4.23-3.39,5.08-1.13,6.59,2.36,5,1,7.23.28,4.17,2.08,5,1.42,5.93,1.42,5.93Z" style="fill:#fff;opacity:0.2"></path><path d="M137.77,389.73a5.47,5.47,0,0,0-.18-4.88,6.87,6.87,0,0,1-2.16-4.67,21.26,21.26,0,0,0,0-3.4c-.19-1.15-1.1-1.85-1.85-2.7a4.33,4.33,0,0,1-1.33-3.23c.12-1.18.6-2.22.65-3.39a6.43,6.43,0,0,0-.53-3.34,6.61,6.61,0,0,1,.77,3.35c0,1.15-.45,2.29-.52,3.4a4,4,0,0,0,1.29,2.92c.77.84,1.79,1.68,2,2.89a22.49,22.49,0,0,1,0,3.48,6.8,6.8,0,0,0,2,4.52c1,1.52.62,3.51-.07,5.05Z" style="fill:#407BFF"></path><path d="M143.36,389.73s4.51-2.41,3.72-4.4-3.94-3.31-1.51-5.39,3.14-2.18,2.36-4.55-3.37-3.69-.85-5.11,1.15-4.55,1.15-4.55,0,2.08-1.15,2.37-4.42,1.74-3,4.07-3.14,3.6-3.2,6.06,3.36,4.68,1.56,5.74-2.72,4.33-2.07,5.31S143.36,389.73,143.36,389.73Z" style="fill:#407BFF"></path><path d="M143.36,389.73s4.51-2.41,3.72-4.4-3.94-3.31-1.51-5.39,3.14-2.18,2.36-4.55-3.37-3.69-.85-5.11,1.15-4.55,1.15-4.55,0,2.08-1.15,2.37-4.42,1.74-3,4.07-3.14,3.6-3.2,6.06,3.36,4.68,1.56,5.74-2.72,4.33-2.07,5.31S143.36,389.73,143.36,389.73Z" style="fill:#fff;opacity:0.30000000000000004"></path><path d="M142.7,388.72c3-2.31,1.91-4.15.61-7.05a3.61,3.61,0,0,1-.24-2.82,7,7,0,0,1,1.89-2c1.88-1.69-.46-4.33.53-6.35a1.79,1.79,0,0,1,1.06-.85,1.82,1.82,0,0,0-1,.9c-.74,2.12,1.72,4.84-.34,6.61a6.91,6.91,0,0,0-1.76,1.93,3.24,3.24,0,0,0,.21,2.46c1.31,2.93,2.28,5.18-1,7.21Z" style="fill:#407BFF"></path><path d="M134.36,391.17s1-5.21-2.56-5.33-6.63.65-6.34-1.87,0-4.56-2-4.75-3.88-1.56-3.6-2.55-3.41-2.15-3.41-2.15,2.18,1.25,2.08,2.76.38,2.76,2.75,3.89,0,3.12,1.14,5.4,2.57,2.17,5.26,2.55a3.91,3.91,0,0,1,3.26,2.82Z" style="fill:#407BFF"></path><path d="M134.36,391.17s1-5.21-2.56-5.33-6.63.65-6.34-1.87,0-4.56-2-4.75-3.88-1.56-3.6-2.55-3.41-2.15-3.41-2.15,2.18,1.25,2.08,2.76.38,2.76,2.75,3.89,0,3.12,1.14,5.4,2.57,2.17,5.26,2.55a3.91,3.91,0,0,1,3.26,2.82Z" style="fill:#fff;opacity:0.30000000000000004"></path><path d="M132.33,390.48a1.52,1.52,0,0,0-.45-2.26c-2-1.27-4.41-.59-6.62-1a1.71,1.71,0,0,1-1.1-1c-.59-1.83-.35-3.7-.83-5.38-.24-.92-1.11-1.21-2-1.35s-2-.62-1.9-1.67c.25,2.29,3.5.58,4.22,2.9.59,1.73.33,3.64.92,5.32a1.23,1.23,0,0,0,.8.77c2.18.37,4.67-.16,6.61,1.24a1.62,1.62,0,0,1,.32,2.45Z" style="fill:#407BFF"></path><path d="M145.64,389.91c-5.63,2.59-11.44,3.67-16.78,2.36.54-.37,1.13-.76,1.76-1.13a21.33,21.33,0,0,1,1.93-1h0a9.2,9.2,0,0,1,1.82-.63l.12,0a2.84,2.84,0,0,1,1.31,0,3.37,3.37,0,0,0,2.08-.07,10.2,10.2,0,0,0,2.24-1.12c.21-.12.41-.25.61-.38.88-.55,1.61-1,2.1-.87a2.68,2.68,0,0,1,1,.71c.3.29.63.67,1,1.08S145.36,389.54,145.64,389.91Z" style="fill:#407BFF"></path><path d="M145.64,389.91c-5.63,2.59-11.44,3.67-16.78,2.36.54-.37,1.13-.76,1.76-1.13a21.33,21.33,0,0,1,1.93-1h0a9.2,9.2,0,0,1,1.82-.63l.12,0a2.84,2.84,0,0,1,1.31,0,3.37,3.37,0,0,0,2.08-.07,10.2,10.2,0,0,0,2.24-1.12c.21-.12.41-.25.61-.38.88-.55,1.61-1,2.1-.87a2.68,2.68,0,0,1,1,.71c.3.29.63.67,1,1.08S145.36,389.54,145.64,389.91Z" style="fill:#fff;opacity:0.6000000000000001"></path><path d="M110.58,355.23s3.44-5.62,4.26-5.8,1.81-1.09,1.59-1.33-.47-.64-1.17,0-1.71,1.94-2,1.55.51-1.82.75-2.61,1.52-1.58,1.19-2.14a.73.73,0,0,0-.83-.41,14.47,14.47,0,0,0-.73,1.65,10,10,0,0,1-1.07,2.66c-.35.28-.75-.24-.88-1.09s.38-2.09,0-2.23-1.58,0-1.35.49,1.23,1,1,2.09a16.06,16.06,0,0,0-.39,2,1.19,1.19,0,0,1-1.15-1.26,4.09,4.09,0,0,0-.6-2.18s-2.61-.56-1,.81a2.84,2.84,0,0,1,1.08,2.94,15.55,15.55,0,0,1-.35,2.7,9.34,9.34,0,0,1-.46,1.32Z" style="fill:#407BFF"></path><path d="M115.78,356.08c-.21,2.07-2.14.3-2.68,3.11s-3.77,6.27-3.74,10.46a5.61,5.61,0,0,1-.51,2.29,65.19,65.19,0,0,1-5.13-13.28,7.14,7.14,0,0,0,.74-4c-.46-3.7-.94-5.69,2.16-5.08a12.28,12.28,0,0,1,2.62.91,23.65,23.65,0,0,1,3.22,1.77C114.38,353.59,115.89,355,115.78,356.08Z" style="fill:#407BFF"></path><path d="M115.78,356.08c-.21,2.07-2.14.3-2.68,3.11s-3.77,6.27-3.74,10.46a5.61,5.61,0,0,1-.51,2.29,65.19,65.19,0,0,1-5.13-13.28,7.14,7.14,0,0,0,.74-4c-.46-3.7-.94-5.69,2.16-5.08a12.28,12.28,0,0,1,2.62.91,23.65,23.65,0,0,1,3.22,1.77C114.38,353.59,115.89,355,115.78,356.08Z" style="fill:#fff;opacity:0.30000000000000004"></path><path d="M132,348.29a13.57,13.57,0,0,0,7,9.2s-1.11-5.11,0-7.39S132,348.29,132,348.29Z" style="fill:#407BFF"></path><path d="M132,348.29a13.57,13.57,0,0,0,7,9.2s-1.11-5.11,0-7.39S132,348.29,132,348.29Z" style="fill:#fff;opacity:0.2"></path><path d="M137.89,332.18s3-4.33,7.94-3.23c0,0-2.59,5-2.35,7.87S137.89,332.18,137.89,332.18Z" style="fill:#407BFF"></path><path d="M137.89,332.18s3-4.33,7.94-3.23c0,0-2.59,5-2.35,7.87S137.89,332.18,137.89,332.18Z" style="fill:#fff;opacity:0.2"></path><path d="M162.58,342.76a16.69,16.69,0,0,0-10.06,4.67s-5.12-6.52-8-10.38c-4.9-6.52-11.56-8.78-16.67-7.37a13.28,13.28,0,0,0-7.18,4.49s1.08,9.76,9.76,14.52,21.52,2.13,21.52,2.13,1.41,6.65,5.11,8.34c0,0-.47-5.78.65-7.31S162.58,342.76,162.58,342.76Z" style="fill:#407BFF"></path><path d="M136.06,338.36c-.75,5.4-4.05,8.7-7.17,9.4-7.29-5-8.24-13.59-8.24-13.59a13.28,13.28,0,0,1,7.18-4.49,12.53,12.53,0,0,1,7,.21A15.61,15.61,0,0,1,136.06,338.36Z" style="fill:#fff;opacity:0.2"></path><path d="M130.28,334c0,.49-.28.89-.64.89s-.63-.4-.63-.89.28-.89.63-.89S130.28,333.53,130.28,334Z" style="fill:#263238;isolation:isolate"></path><path d="M136.48,338.52s2.14.21,2.62.73.21,3.1-.79,3.46-2.46-1.88-2.46-1.88A11.43,11.43,0,0,0,136.48,338.52Z" style="isolation:isolate;opacity:0.2"></path><path d="M157.69,351.85c-1.12,1.53-.65,7.31-.65,7.31-1.71-1.42-5.62-7.22-4-10.58s9.54-5.82,9.54-5.82S158.81,350.31,157.69,351.85Z" style="isolation:isolate;opacity:0.2"></path></g><g id="freepik--speech-bubble--inject-23"><path d="M360,178.9H331.31a8.84,8.84,0,0,0-8.84,8.85v25a8.85,8.85,0,0,0,8.84,8.85h11.36l3,7.89,3-7.89H360a8.85,8.85,0,0,0,8.85-8.85v-25A8.85,8.85,0,0,0,360,178.9Z" style="fill:#407BFF"></path><circle cx="345.68" cy="200.14" r="14.26" transform="translate(-40.27 303.05) rotate(-45)" style="fill:#fff"></circle><path d="M344.18,206.51a1.31,1.31,0,0,1-1-.46l-5.59-6.59a1.31,1.31,0,1,1,2-1.7l4.6,5.41,7.59-8.94a1.31,1.31,0,0,1,2,1.7l-8.59,10.12A1.33,1.33,0,0,1,344.18,206.51Z" style="fill:#407BFF"></path></g><g id="freepik--character-3--inject-23"><rect x="331.09" y="360.54" width="74.96" height="16.01" style="fill:#407BFF"></rect><rect x="331.09" y="360.54" width="74.96" height="16.01" style="fill:#fff;opacity:0.9"></rect><polygon points="406.05 373.76 351.65 372.73 406.05 372.73 406.05 373.76" style="opacity:0.2"></polygon><polygon points="406.05 367.43 374.2 366.4 406.05 366.4 406.05 367.43" style="opacity:0.2"></polygon><polygon points="406.05 363.96 351.65 362.92 406.05 362.92 406.05 363.96" style="opacity:0.2"></polygon><path d="M348.71,365.61a13.56,13.56,0,0,1,.37,2.93l52.22.69-52.48.66a16.48,16.48,0,0,1-1.32,5s-2.64-12.92-.53-12a3.32,3.32,0,0,1,1.56,2.1l31.61.59Z" style="opacity:0.2"></path><path d="M368.42,375.62h40v2H307.25l-.51-1.23a20.39,20.39,0,0,1,0-15.68l.51-1.24H408.44v2H348.61a18.46,18.46,0,0,0,0,14.15Z" style="fill:#407BFF"></path><path d="M368.42,375.62h40v2H307.25l-.51-1.23a20.39,20.39,0,0,1,0-15.68l.51-1.24H408.44v2H348.61a18.46,18.46,0,0,0,0,14.15Z" style="fill:#fff;opacity:0.4"></path><path d="M348.61,375.62a18.46,18.46,0,0,1,0-14.15h59.83v-2H347.27l-.51,1.24a20.39,20.39,0,0,0,0,15.68l.51,1.23h61.17v-2Z" style="opacity:0.2"></path><ellipse cx="338.2" cy="368.54" rx="3.63" ry="5.18" style="fill:#fff;opacity:0.4"></ellipse><rect x="315.9" y="378.69" width="64.96" height="16.01" transform="translate(696.76 773.39) rotate(180)" style="fill:#407BFF"></rect><rect x="315.9" y="378.69" width="64.96" height="16.01" transform="translate(696.76 773.39) rotate(180)" style="fill:#fff;opacity:0.9"></rect><polygon points="315.9 391.91 360.29 390.88 315.9 390.88 315.9 391.91" style="opacity:0.2"></polygon><polygon points="315.9 385.58 347.75 384.55 315.9 384.55 315.9 385.58" style="opacity:0.2"></polygon><polygon points="315.9 382.11 360.29 381.08 315.9 381.08 315.9 382.11" style="opacity:0.2"></polygon><path d="M363.23,383.76a13.62,13.62,0,0,0-.37,2.94l-42.21.69,42.47.66a16.58,16.58,0,0,0,1.32,5s2.64-12.93.53-12a3.33,3.33,0,0,0-1.56,2.09l-21.6.59Z" style="opacity:0.2"></path><path d="M353.53,393.77h-40v2H414.7l.51-1.23a20.39,20.39,0,0,0,0-15.68l-.51-1.24H313.51v2h49.82a18.46,18.46,0,0,1,0,14.15Z" style="fill:#263238"></path><path d="M353.53,393.77h-40v2H414.7l.51-1.23a20.39,20.39,0,0,0,0-15.68l-.51-1.24H313.51v2h49.82a18.46,18.46,0,0,1,0,14.15Z" style="fill:#fff;opacity:0.4"></path><path d="M363.33,393.77a18.46,18.46,0,0,0,0-14.15H313.51v-2h51.16l.51,1.24a20.39,20.39,0,0,1,0,15.68l-.51,1.23H313.51v-2Z" style="opacity:0.2"></path><rect x="372.83" y="383.73" width="39.46" height="5.93" transform="translate(785.11 773.39) rotate(180)" style="opacity:0.2"></rect><rect x="338.07" y="396.84" width="64.96" height="16.01" style="fill:#407BFF"></rect><rect x="338.07" y="396.84" width="64.96" height="16.01" style="fill:#fff;opacity:0.9"></rect><polygon points="403.02 399.63 358.64 400.66 403.02 400.66 403.02 399.63" style="opacity:0.2"></polygon><polygon points="403.02 405.95 371.18 406.99 403.02 406.99 403.02 405.95" style="opacity:0.2"></polygon><polygon points="403.02 409.43 358.64 410.46 403.02 410.46 403.02 409.43" style="opacity:0.2"></polygon><path d="M355.69,407.78a13.62,13.62,0,0,0,.37-2.94l42.22-.69-42.48-.66a16.48,16.48,0,0,0-1.32-5s-2.64,12.92-.53,12a3.29,3.29,0,0,0,1.56-2.09l21.6-.59Z" style="opacity:0.2"></path><path d="M365.39,397.77h40v-2H304.22l-.51,1.23a20.39,20.39,0,0,0,0,15.68l.51,1.24h101.2v-2H355.59a18.46,18.46,0,0,1,0-14.15Z" style="fill:#407BFF"></path><path d="M314.72,397l.51-1.23h-11l-.51,1.23a20.39,20.39,0,0,0,0,15.68l.51,1.24h11l-.51-1.24A20.39,20.39,0,0,1,314.72,397Z" style="fill:#fff;opacity:0.4"></path><path d="M355.59,397.77a18.46,18.46,0,0,0,0,14.15h49.83v2H354.25l-.51-1.24a20.39,20.39,0,0,1,0-15.68l.51-1.23h51.17v2Z" style="opacity:0.2"></path><rect x="348.58" y="342.32" width="64.96" height="16.01" style="fill:#407BFF"></rect><rect x="348.58" y="342.32" width="64.96" height="16.01" style="fill:#fff;opacity:0.9"></rect><polygon points="413.54 345.11 369.15 346.15 413.54 346.15 413.54 345.11" style="opacity:0.2"></polygon><polygon points="413.54 351.44 381.69 352.48 413.54 352.48 413.54 351.44" style="opacity:0.2"></polygon><polygon points="413.54 354.92 369.15 355.95 413.54 355.95 413.54 354.92" style="opacity:0.2"></polygon><path d="M366.2,353.27a13.62,13.62,0,0,0,.37-2.94l42.22-.69L366.31,349a16.48,16.48,0,0,0-1.32-5s-2.64,12.92-.53,12a3.33,3.33,0,0,0,1.57-2.1l21.59-.58Z" style="opacity:0.2"></path><path d="M375.9,343.25h40v-2H314.73l-.51,1.24a20.39,20.39,0,0,0,0,15.68l.51,1.24h101.2v-2H366.1a18.48,18.48,0,0,1,0-14.16Z" style="fill:#263238"></path><path d="M366.1,343.25a18.48,18.48,0,0,0,0,14.16h49.83v2H364.76l-.51-1.24a20.39,20.39,0,0,1,0-15.68l.51-1.24h51.17v2Z" style="fill:#fff;opacity:0.2"></path><g id="freepik--group--inject-23"><path d="M305.29,305,298,301.37l-2.1,6.82s4.76,3.24,8.68.55Z" style="fill:#e4897b"></path><polygon points="292.17 301.55 291.83 307 295.88 308.19 297.98 301.37 292.17 301.55" style="fill:#e4897b"></polygon><path d="M342.9,296.79a96.21,96.21,0,0,1-8.23,6.66c-4.06,2.83-8.65,6-13.71,7.31-6.06,1.31-12.14.47-18-1.09a2.46,2.46,0,0,1,.55-4.82c5-.57,10.25-.82,14.92-2.49,3.78-1.58,6.92-4.13,10.36-6.72,2.58-2,5.19-4.15,7.65-6.22,5-3.95,11,3,6.43,7.37Z" style="fill:#dc897c"></path><path d="M349.36,247.67s-1.61-4.74-7.73-5.14l-1,2.57a20,20,0,0,0-11.48,0l.83,2.57a3.64,3.64,0,0,1,2.35,0s-5,1.06-7.53,3.7a9.9,9.9,0,0,1-5.8,2.9v3.29s3.86.33,5-.56a11.94,11.94,0,0,1-4.05,5.73c-2.9,2-3.12,6.82-3.12,6.82l3,.26-.13,6,2.66.28S323,273,324,272c0,0-.88,5.35.7,8.21a6.94,6.94,0,0,1,.13,5.88l3.11.55a4.81,4.81,0,0,0,1.89-5.29s1.71,3.83.2,6.2l3.9.79s2.08-1.85,2.43-3.56c0,0,1.63,4,3.3,4.35s17.16-2,19.3-4.09c0,0-.53-3.6-.65-4.83a4.1,4.1,0,0,0,3.45,1.66l3-3.77s-2.64-1.92-2.77-2.9l3.82-1.46s-1.18-7.46-2.37-9.42a9,9,0,0,1,2.37,3.08l3-1.52s-3.56-7.34-6.86-9.58a13.65,13.65,0,0,1,4.09,2.87l1.45-4.72s-3.69-4-7.52-4.09l.27-2.9s-6.2-.92-9.37.92c0,0,1.91-2.5,3.86-3.16l-3.23-1.45A5.92,5.92,0,0,0,349.36,247.67Z" style="fill:#263238"></path><path d="M338.22,319.83a56,56,0,0,0,.11-9.47,99,99,0,0,0-2.62-17.67,3.57,3.57,0,0,1,1.8-4.06c2.34-1.23,6.55-2.78,13.54-3.36a52.25,52.25,0,0,1,15.06.68,4.85,4.85,0,0,1,3.78,3.88c.33,1.8.76,4.34,1.22,7.4a212.84,212.84,0,0,1,2.24,23.68Z" style="fill:#407BFF"></path><path d="M338.21,319.83l35.14,1.08c-.12-3.89-.39-7.72-.74-11.33-.28-3.07-.63-6-1-8.64-.17-1.3-.35-2.54-.52-3.71-.46-3.07-.89-5.61-1.22-7.41A4.81,4.81,0,0,0,366.2,286a51.74,51.74,0,0,0-15.15-.7c-7,.58-11.2,2.12-13.54,3.36a3.57,3.57,0,0,0-1.8,4.06,99,99,0,0,1,2.62,17.67A54.9,54.9,0,0,1,338.21,319.83Z" style="fill:#fff;opacity:0.6000000000000001"></path><path d="M323,343.67a6.71,6.71,0,0,0,2.77,1.7l8.51,8.47,5.09-1.95,4.78,4.06,3.69-5,3.7,2.75,11.21-8.54c5.13-.93,9.11-2.11,10.56-3.33,5.33-4.48,0-21.89,0-21.89l-35.14-.12-.83,1.55-.07.14a107.74,107.74,0,0,0-12.66,3.67,12.63,12.63,0,0,0-3.25,1.67h0C321.26,327.23,317.55,337.24,323,343.67Z" style="fill:#407BFF"></path><path d="M323,343.67a6.71,6.71,0,0,0,2.77,1.7l8.51,8.47,5.09-1.95,4.78,4.06,3.69-5,3.7,2.75-5.94-7,3-1.45-8.5-5.49v-8l-6.1-.92-5.19-4.62-3.88,1.31-3.54-.73h0C321.26,327.23,317.55,337.24,323,343.67Z" style="isolation:isolate;opacity:0.2"></path><path d="M317.3,348.6C324,360.91,336,376.19,336,376.19l6.64-3.17s-16.69-25.86-15.44-29,6.73-6.74,6.73-6.74.26-5.91-3.88-9.73a10.71,10.71,0,0,0-2.78-1.86s-10.07,1.74-14,9C311.89,337.12,314,342.5,317.3,348.6Z" style="fill:#e4897b"></path><path d="M331.4,377.86a.92.92,0,0,1-.73-.68.64.64,0,0,1,.05-.64c.56-.82,3.14-.84,3.43-.84a.21.21,0,0,1,.16.11.15.15,0,0,1,0,.18,9.28,9.28,0,0,1-1.5,1.37A2,2,0,0,1,331.4,377.86Zm-.37-1.1a.33.33,0,0,0,0,.32.68.68,0,0,0,.46.44c.49.08,1.33-.45,2.29-1.43-1,0-2.43.23-2.72.67Z" style="fill:#407BFF"></path><path d="M331.21,375.08a.94.94,0,0,1,.13-1,.63.63,0,0,1,.55-.33c1,0,2.51,2.07,2.68,2.31a.21.21,0,0,1,0,.19.16.16,0,0,1-.17.08,9.06,9.06,0,0,1-2-.43A2,2,0,0,1,331.21,375.08Zm.68-.94a.3.3,0,0,0-.27.16.65.65,0,0,0-.1.63c.22.45,1.14.83,2.5,1-.64-.82-1.6-1.84-2.13-1.82Z" style="fill:#407BFF"></path><path d="M334.25,374.78,341.2,370a.54.54,0,0,1,.75.1h0l4.15,5.27a1.34,1.34,0,0,1-.32,1.85c-2.46,1.64-3.71,2.3-6.79,4.39a68.63,68.63,0,0,1-8.33,5.4c-2.85,1.37-4.13-1.49-3-2.31,2.57-2,5-6.22,5.8-8.8A2.09,2.09,0,0,1,334.25,374.78Z" style="fill:#263238"></path><path d="M358.41,285.55s-6.26,5.1-8.82,5.55c-1,.17-3.93-.88-3.93-.88a6.72,6.72,0,0,0,.69-1.91c.87-4.36-3.72-6.94-3.72-6.94l3.63-2.39,8-5.26C352.68,282.06,358.41,285.55,358.41,285.55Z" style="fill:#e4897b"></path><path d="M353.78,277.27s-1.6,9-7.43,11c.87-4.36-3.72-6.94-3.72-6.94l3.63-2.39Z" style="isolation:isolate;opacity:0.2"></path><path d="M327.54,259.12s-5.86,11.18,7.5,14.95C350.12,278.34,327.54,259.12,327.54,259.12Z" style="fill:#263238"></path><path d="M354.46,262.15c2.43,7.14,1.76,16.45-3.54,19.92-9.74,6.36-14.71,6.08-19.18-1.25-4.05-6.58-6.26-18.76,1.58-24.5S351.08,252.25,354.46,262.15Z" style="fill:#e4897b"></path><path d="M328.43,264.18a20.9,20.9,0,0,0,10.48-3.7s8.78-.16,9.88,5,3.41,4.45,6.27,10.64c0,0,6.23-3.56,1.42-17.76-3.5-10.34-13.85-10.54-22.72-6.59C326.34,255.06,323.33,262.68,328.43,264.18Z" style="fill:#263238"></path><path d="M339.48,270.83c.34.89.14,1.81-.45,2s-1.33-.33-1.67-1.23-.13-1.79.45-2S339.14,269.94,339.48,270.83Z" style="fill:#263238"></path><path d="M332.19,273.18c.32.85.13,1.72-.43,1.93s-1.28-.32-1.6-1.17-.13-1.72.43-1.94S331.87,272.32,332.19,273.18Z" style="fill:#263238"></path><path d="M335.21,267.3a.46.46,0,0,1-.22-.15.44.44,0,0,1,.15-.59,4.21,4.21,0,0,1,3.91-.36.43.43,0,0,1,.21.57h0a.44.44,0,0,1-.58.2h0a3.35,3.35,0,0,0-3.11.36A.45.45,0,0,1,335.21,267.3Z" style="fill:#263238"></path><path d="M328.4,270.29a.58.58,0,0,1-.26,0,.45.45,0,0,1-.16-.59,4.24,4.24,0,0,1,3.27-2.19.43.43,0,0,1,.45.41h0a.44.44,0,0,1-.4.45h0a3.38,3.38,0,0,0-2.57,1.79A.46.46,0,0,1,328.4,270.29Z" style="fill:#263238"></path><path d="M334,273.69l2.37,3.44a5.18,5.18,0,0,1-2.91.92A12,12,0,0,0,334,273.69Z" style="fill:#de5753"></path><path d="M348.43,269.65s.12-5,2.87-4.57,5.2,7.79,1.91,9.11S347.86,272.55,348.43,269.65Z" style="fill:#e4897b"></path><path d="M337.41,280.24a24.2,24.2,0,0,1,2.84,2l.46-.41c2.05-1.86,2.38-3.41,2.13-4.55a3.44,3.44,0,0,0-.77-1.5,3.27,3.27,0,0,0-.71-.67c-.49,1.64-2.27,3.53-3.27,4.49C337.68,280,337.41,280.24,337.41,280.24Z" style="fill:#263238"></path><path d="M338.09,279.59l.86.57c1.93-1.76,3.05-3.26,3.12-4.39a3.27,3.27,0,0,0-.71-.67C340.87,276.74,339.09,278.63,338.09,279.59Z" style="fill:#fff"></path><path d="M340.71,281.82c2.05-1.86,2.38-3.41,2.13-4.55a8.83,8.83,0,0,0-1.86,2.52A3.28,3.28,0,0,0,340.71,281.82Z" style="fill:#de5753"></path><path d="M326.14,259.41s-1.6,4.22,5,7.2l2.86-1.48-1-1,5.39.91h3.36l-3.36-2.32s5.74,1.45,7.24,5.13h3.7l-.29-1.3s3.77,4.55,6.74,6.34,3.14-4.11,3.14-4.11-8-13.47-18.3-13.48S326.14,259.41,326.14,259.41Z" style="fill:#263238"></path><path d="M317.3,348.6C324,360.91,336,376.19,336,376.19l6.64-3.17s-16.69-25.86-15.44-29,6.73-6.74,6.73-6.74.26-5.91-3.88-9.73c-3,1.43-9.73,5.2-11.63,10.93C317.76,340.4,317.43,344.11,317.3,348.6Z" style="isolation:isolate;opacity:0.2"></path><path d="M344.67,326.28s-12.13.87-18.71,5.87,6.41,47,6.41,47l7.35-.19s-4.68-30.41-2.27-32.73,8.89-3.41,8.89-3.41S349.73,332.16,344.67,326.28Z" style="fill:#e4897b"></path><path d="M327.51,378.76a1,1,0,0,1-.39-.93.68.68,0,0,1,.31-.56c.84-.52,3.21.51,3.48.63a.21.21,0,0,1,.1.17.15.15,0,0,1-.11.15,8.75,8.75,0,0,1-1.93.64A2,2,0,0,1,327.51,378.76Zm.11-1.16a.31.31,0,0,0-.15.28.64.64,0,0,0,.24.59c.41.27,1.39.13,2.67-.38-1-.38-2.31-.77-2.76-.49Z" style="fill:#407BFF"></path><path d="M328.47,376.14a1,1,0,0,1,.52-.85.64.64,0,0,1,.64-.08c.92.38,1.45,2.91,1.5,3.2a.2.2,0,0,1-.07.18.17.17,0,0,1-.19,0,9.21,9.21,0,0,1-1.64-1.2A2,2,0,0,1,328.47,376.14Zm1-.59a.36.36,0,0,0-.32,0,.66.66,0,0,0-.34.54c0,.5.7,1.22,1.85,2-.24-1-.71-2.33-1.19-2.54Z" style="fill:#407BFF"></path><path d="M331.37,377.11l8.31-1.56a.52.52,0,0,1,.64.4h0l1.63,6.51a1.33,1.33,0,0,1-1,1.55c-2.91.49-4.33.59-8,1.24a68.81,68.81,0,0,1-9.81,1.53c-3.16.09-3.16-3-1.83-3.35,3.15-.76,7.1-3.64,8.88-5.67A2.11,2.11,0,0,1,331.37,377.11Z" style="fill:#263238"></path><path d="M321.4,326.86l3.54.73,3.88-1.31L334,330.9l6.1.92v8l8.5,5.49-3,1.45,5.94,7,11.21-8.54s.54-11.29-7.32-19.44c-4.27-4.43-11.16-5.34-18.09-4.35a46.16,46.16,0,0,0-12.73,3.81C323.5,325.71,322.41,326.28,321.4,326.86Z" style="fill:#407BFF"></path><polygon points="340.11 339.78 359.04 334.72 341.99 337.25 340.11 339.78" style="isolation:isolate;opacity:0.2"></polygon><path d="M328.82,326.28,344.2,321s-15,2.47-19.26,6.57Z" style="isolation:isolate;opacity:0.2"></path><polygon points="334.01 330.9 355.48 326.81 335.04 329.45 334.01 330.9" style="isolation:isolate;opacity:0.2"></polygon><path d="M362.79,345.17s7.65-3.73,6.46-4.05-12.13,5.21-12.13,5.21Z" style="isolation:isolate;opacity:0.2"></path><path d="M308.14,296.25l4.56,9.53,14.14,18.74s28.41.23,28-8.07c-.4-7.44-3.88-19.16-4.6-21.52-.08-.28-.13-.42-.13-.42-15.4,3.58-24.58,10.7-24.58,10.7C319.62,298.07,308.14,296.25,308.14,296.25Z" style="fill:#fff;opacity:0.9"></path><path d="M308.14,296.25l4.56,9.53,14.14,18.74s28.41.23,28-8.07c-.4-7.44-3.88-19.16-4.6-21.52-11.24,2.55-24.57,11.34-24.57,11.34C323.4,301.51,308.14,296.25,308.14,296.25Z" style="opacity:0.1"></path><path d="M316,328.69s5.48,1.72,15.18,7.44a5,5,0,0,0,1.82.65,5,5,0,0,0,2.54-.26,167.33,167.33,0,0,1,22.36-6.85s-1.53-19.13-5.43-33c0,0-15.44,3.42-26.87,9.62h0c-.39-.24-12.67-7.75-19.9-8C305.72,298.25,317,315.36,316,328.69Z" style="fill:#263238"></path><path d="M316,328.69s5.48,1.72,15.18,7.44a5,5,0,0,0,1.82.65c-1.54-7.66-5.63-27.47-7.4-30.51h0c-.39-.24-12.67-7.75-19.9-8C305.72,298.25,317,315.36,316,328.69Z" style="fill:#fff;opacity:0.1"></path><path d="M326.62,305.74a3.22,3.22,0,0,1-2.34-.26s3.44,14.11,7.12,30.77a2.31,2.31,0,0,0,3.13.66S330.07,315.61,326.62,305.74Z" style="fill:#263238"></path><path d="M326.62,305.74a3.22,3.22,0,0,1-2.34-.26s3.44,14.11,7.12,30.77a2.31,2.31,0,0,0,3.13.66S330.07,315.61,326.62,305.74Z" style="fill:#fff;isolation:isolate;opacity:0.2"></path><path d="M328.39,329.78l-.31-2.31-.82-.44-.06,1.46-.81-1.74-1.21-.28s-.74-1.21-.66-.57a14.59,14.59,0,0,1-.24,2.59L323,325.92s.34-1.25-.73-1.1a5.17,5.17,0,0,1-2.16-.26l.53,1.64s-1.07.28-1.09-.44a21.67,21.67,0,0,0-.29-2.15c-.28-.1-1.9-.84-2-.56a.5.5,0,0,0,0,.27,4.27,4.27,0,0,1,.1,1.07c0,.09-.05.21-.14.19a.17.17,0,0,1-.08-.06,2.92,2.92,0,0,1-.37-.61c-.26.33-.08.81,0,1.21a4.46,4.46,0,0,1,.22,1.2c0,.06,0,.14.08.15l.07,0a3.49,3.49,0,0,0,.35-.32A.47.47,0,0,1,318,326s.51,1.28.54,1.43a2.61,2.61,0,0,0,1.39-.11c.27-.19.38-.71.85-.33s.89.78.89.78l.71-.1s.36-.07.42.43.55,1.9,1,1.7,1.86-.76,1.86-.76l1.2,1.3,1.72.37Z" style="fill:#fff;opacity:0.2"></path><path d="M319.47,310c-2.27-2.33-3.05,2.48-3.05,2.48s-1.15-1.3-1.62-.35,1.83,6.05,1.83,6.05a2,2,0,0,0-.54,1c-.11.65,1.13,1.79,1.13,1.79l1.68.15s.28,1.08.57,1,2.61.27,2.61.27l1.43,1,.16.78.5-.79.79.61.36,0a18.59,18.59,0,0,0,0-4.63c-.36-1.7-1.44-1.24-1.44-1.24a10.09,10.09,0,0,0-.57-4.15c-.75-1.49-2.25-.18-2.25-.18S320.65,311.18,319.47,310Z" style="fill:#263238"></path><path d="M323.1,309.12s.1,1.83-.21,1.68a2.1,2.1,0,0,1-.61-.57l-.21-1.61-.48,1.22-.6-.54-.77-2.08-.3,1.35s-1.91-2.15-2.34-2.21-2.12-.31-2.26.09a3.7,3.7,0,0,0-.14,1l-.79-.65.2,1.49-.25,0-.72.82-2.07-3.13.68-1.16.88,1.2-.34-1.51a10.59,10.59,0,0,1,1.43-1.31,4.48,4.48,0,0,1,2.15-.28l.84.57.43,1.2s.05-1.7.46-1.52a19.58,19.58,0,0,1,2.21,2.34l-.26.37.61.13c.25.05.54-.38.54-.38l.85.57.85,1.3-.12.94.22-.18Z" style="fill:#fff;opacity:0.2"></path><path d="M342.39,308.26c-6,1.77-3.07,12.23,2,9.55S346.84,307,342.39,308.26Z" style="fill:#fff;opacity:0.1"></path><path d="M351.86,321.41s-10.95,2.94-13.68,4.35l1.23,3.44s10.42-3.06,13-3.79Z" style="fill:#fff;opacity:0.1"></path><path d="M362.57,317.33l-7.87-2.12L354,322.3s5.29,2.26,8.62-1.13Z" style="fill:#e4897b"></path><polygon points="349.03 316.5 349.75 321.92 353.96 322.3 354.69 315.2 349.03 316.5" style="fill:#e4897b"></polygon><path d="M370.27,288.58c4,6.86,11.84,21.31,4.75,28.19a7.37,7.37,0,0,1-2,1.3,97.34,97.34,0,0,1-10.85,3.83,2.51,2.51,0,0,1-2.51-4.14,59.65,59.65,0,0,1,9.22-7.47c-.32.22-.28.44-.27-.21-.57-5.5-4.12-11.51-6.79-16.53-2.91-5.59,4.92-10.21,8.42-5Z" style="fill:#dc897c"></path></g></g><g id="freepik--character-2--inject-23"><g id="freepik--group--inject-23"><path d="M259.68,335.78l5.26-6.23,4.65,5.41s-3.07,4.87-7.73,4Z" style="fill:#ebb376"></path><path d="M224.5,347c4.92-.29,10.09-.65,15-1.38a27.41,27.41,0,0,0,7.22-1.81c4.76-2.71,9.25-6,14-8.82a2.47,2.47,0,0,1,3.28,3.57,70.9,70.9,0,0,1-11.36,11.81,18.78,18.78,0,0,1-5.81,3.11c-7.46,2.39-14.42,3-22.05,3.3-6.42-.05-6.7-9.34-.29-9.78Z" style="fill:#ffb573"></path><path d="M217.65,352.17c.3,4.13,5.47,10.19,24.59,4.21l-.19-11.79s-10.35,1-14.6,1.12A11.36,11.36,0,0,0,217.65,352.17Z" style="fill:#263238"></path><path d="M238.6,395.14l-43.67,2.68c-.69-5.37-1.07-10.82-1.24-16-.14-3.89-.16-7.62-.1-11.07,0-.78,0-1.54,0-2.28.12-5.33.39-9.81.61-12.8a6.46,6.46,0,0,1,4.58-5.72,57.47,57.47,0,0,1,15.1-2.2c5.13-.15,9.37-2.55,12.11-1.9,3.31.8,5.19,6.68,5.17,10.07C231.09,370.14,238.6,395.14,238.6,395.14Z" style="fill:#263238"></path><path d="M216.21,345a6,6,0,0,0,.44,4.62,7,7,0,0,0,.44.72,8.56,8.56,0,0,0,.86,1h0a7.48,7.48,0,0,1-8.59,1.85L204.47,351l-1.07-.48a11.18,11.18,0,0,0,2.13-8.9,15.24,15.24,0,0,0-1.57-4.55l9.85,2.9,4.48,1.32A10,10,0,0,0,216.21,345Z" style="fill:#ebb376"></path><path d="M216.21,345a6,6,0,0,0,.44,4.62,7,7,0,0,0,.44.72c-5.49-.59-9.51-5.52-11.56-8.69a15.24,15.24,0,0,0-1.57-4.55l9.85,2.9,4.48,1.32A10,10,0,0,0,216.21,345Z" style="isolation:isolate;opacity:0.2"></path><path d="M212,311.36s12.53,5.15,4.16,17.48C206.69,342.77,212,311.36,212,311.36Z" style="fill:#263238"></path><path d="M192,332.44c2.93,7.55,9.91,14.76,16.67,13.94,12.39-1.49,16.29-5.16,14.9-14.27-1.2-8.21-7.8-19.76-18.22-19.06S187.88,322,192,332.44Z" style="fill:#ebb376"></path><path d="M214.75,316.13a22.39,22.39,0,0,1-11.17,4.2s-4.46,2.2-1.81,7.18-2.61,9.75-.69,16.82c0,0-7.58,1.36-13.43-13.63-4.27-10.93,4.11-18.25,14.13-21.11C210.17,307.18,217.92,311.38,214.75,316.13Z" style="fill:#263238"></path><path d="M210.26,329.24c.34,1,1.13,1.58,1.77,1.35s.86-1.2.52-2.17-1.13-1.57-1.76-1.35S209.92,328.27,210.26,329.24Z" style="fill:#263238"></path><path d="M217.88,326.13c.32.93,1.08,1.52,1.69,1.29s.82-1.14.5-2.07-1.08-1.5-1.69-1.29S217.55,325.21,217.88,326.13Z" style="fill:#263238"></path><path d="M211.34,323.39a.53.53,0,0,0,.07-.28.48.48,0,0,0-.53-.39,4.57,4.57,0,0,0-3.47,2.41.46.46,0,0,0,.23.61h0a.47.47,0,0,0,.61-.23h0a3.64,3.64,0,0,1,2.81-1.86A.51.51,0,0,0,211.34,323.39Z" style="fill:#263238"></path><path d="M219,321.14a.45.45,0,0,0,.2-.21.46.46,0,0,0-.28-.59,4.52,4.52,0,0,0-4.2.46.46.46,0,0,0-.09.64h0a.47.47,0,0,0,.65.09h0a3.62,3.62,0,0,1,3.35-.29A.49.49,0,0,0,219,321.14Z" style="fill:#263238"></path><path d="M216.29,328.14l1.55,4.21a5.5,5.5,0,0,0,2.61-2A12.8,12.8,0,0,1,216.29,328.14Z" style="fill:#d58745"></path><path d="M202.09,334.44s-3.58-4.05-5.53-1.77,1.11,10,4.73,8.81S204.55,336.44,202.09,334.44Z" style="fill:#ebb376"></path><path d="M219,334.28a26.89,26.89,0,0,0-.67,3.67c-.21,0-.43,0-.65,0-3,.13-4.4-.79-5.07-1.86a3.75,3.75,0,0,1-.55-1.73,4,4,0,0,1,0-1c1.62.88,4.4,1,5.89,1C218.58,334.31,219,334.28,219,334.28Z" style="fill:#263238"></path><path d="M218,334.31l-.23,1.08c-2.8.11-4.79-.19-5.7-1a4,4,0,0,1,0-1C213.69,334.23,216.47,334.32,218,334.31Z" style="fill:#fff"></path><path d="M217.65,338c-3,.13-4.4-.79-5.07-1.86a9.7,9.7,0,0,1,3.33.52A3.66,3.66,0,0,1,217.65,338Z" style="fill:#de5753"></path><path d="M185.57,329.14c.66,1.81,6,9.08,6,9.08s1.59-7.6,4.17-11.84C206.26,309,215.51,313.81,216,314.07c-.28-.43-4.91-7.2-6.51-7.88s-11.41,1-17.1,6a1.22,1.22,0,0,0-.17.15C186.53,317.39,184.91,327.32,185.57,329.14Z" style="fill:#407BFF"></path><path d="M195.7,326.38C206.26,309,215.51,313.81,216,314.07c-.28-.43-4.91-7.2-6.51-7.88s-11.41,1-17.1,6a12,12,0,0,0-1.27,4.34C190.94,318,195.7,326.38,195.7,326.38Z" style="fill:#fff;opacity:0.6000000000000001"></path><path d="M216.23,314.07s3.88-11.15-.66-13.21c-4.35-2-17.91,6.37-19.53,10.71s-.35,14.81-.35,14.81S205.94,311.59,216.23,314.07Z" style="fill:#407BFF"></path><path d="M216.23,314.07s3.88-11.15-.66-13.21c-4.35-2-17.91,6.37-19.53,10.71s-.35,14.81-.35,14.81S205.94,311.59,216.23,314.07Z" style="isolation:isolate;opacity:0.2"></path><path d="M202.73,390s-8.4-10.33-17.63-4.47,6.72,36.23,42.82,31.64,35.9-33.53,29.18-37.64-21.37,7.66-21.37,7.66Z" style="fill:#407BFF"></path><path d="M260.48,390.8c-.93,10.05-9.05,23.36-32.55,26.35-13,1.65-23.32-1.21-30.85-5.81-13.47-8.24-17.91-22.08-12-25.83,9.25-5.85,17.64,4.47,17.64,4.47l33-2.81s14.66-11.77,21.37-7.66C259.45,380.94,261,385.41,260.48,390.8Z" style="fill:#fff;isolation:isolate;opacity:0.5"></path><path d="M260.48,390.8c-.93,10.05-9.05,23.36-32.55,26.35-13,1.65-23.32-1.21-30.85-5.81-6.87-5.89-5.36-13.2-5.36-13.2s5.39-14.18,15.08-8.5,28.93,11.86,28.93,11.86,3.09,0,10.77-13.8C249.52,382.28,257,386.08,260.48,390.8Z" style="isolation:isolate;opacity:0.2"></path><path d="M230.39,403.32a7.75,7.75,0,0,1-1.24,1.12.14.14,0,0,1-.15,0,.16.16,0,0,1-.08-.14c0-.24.25-2.36,1-2.75a.56.56,0,0,1,.53,0,.77.77,0,0,1,.5.65A1.67,1.67,0,0,1,230.39,403.32Zm-.34-1.48c-.39.2-.66,1.32-.78,2.17.89-.7,1.39-1.35,1.36-1.75a.53.53,0,0,0-.33-.42.25.25,0,0,0-.25,0Z" style="fill:#407BFF"></path><path d="M229.24,402.9a7.74,7.74,0,0,1,.18,1.66.13.13,0,0,1-.07.14.18.18,0,0,1-.16,0c-.18-.16-1.77-1.57-1.68-2.38a.57.57,0,0,1,.32-.43.8.8,0,0,1,.83,0A1.65,1.65,0,0,1,229.24,402.9Zm-1.41-.57c-.06.43.7,1.3,1.32,1.89-.06-1.13-.29-1.91-.64-2.13a.55.55,0,0,0-.53,0,.26.26,0,0,0-.15.21Z" style="fill:#407BFF"></path><path d="M228.16,404.31l-4.51,5.3a.45.45,0,0,0,0,.62h0l4,3.83a1.08,1.08,0,0,0,1.53-.12c1.55-1.87,2.19-2.84,4.16-5.19a58.71,58.71,0,0,0,5.1-6.38c1.35-2.22-.88-3.5-1.65-2.68a17,17,0,0,1-7.67,4A1.77,1.77,0,0,0,228.16,404.31Z" style="fill:#263238"></path><path d="M251,415.35a7.37,7.37,0,0,1-1.17-1.2.12.12,0,0,1,0-.15.16.16,0,0,1,.13-.08c.25,0,2.37.15,2.79.85a.55.55,0,0,1,0,.53.76.76,0,0,1-.64.52A1.62,1.62,0,0,1,251,415.35Zm1.46-.41c-.22-.38-1.35-.6-2.2-.69.74.86,1.4,1.33,1.81,1.29a.57.57,0,0,0,.4-.34.27.27,0,0,0,0-.26Z" style="fill:#407BFF"></path><path d="M251.39,414.17a7.1,7.1,0,0,1-1.65.26.12.12,0,0,1-.13-.07.15.15,0,0,1,0-.16c.15-.19,1.49-1.84,2.31-1.77a.54.54,0,0,1,.43.3.76.76,0,0,1,.06.82A1.64,1.64,0,0,1,251.39,414.17Zm.52-1.43c-.43,0-1.27.76-1.83,1.4,1.12-.11,1.89-.37,2.09-.73a.51.51,0,0,0,0-.52.27.27,0,0,0-.21-.15Z" style="fill:#407BFF"></path><path d="M249.94,413.16l-5.48-4.28a.44.44,0,0,0-.62,0h0l-3.66,4.14a1.09,1.09,0,0,0,.18,1.53c1.94,1.46,2.94,2.06,5.37,3.93a57.55,57.55,0,0,0,6.58,4.83c2.28,1.26,3.46-1,2.61-1.76a17.12,17.12,0,0,1-4.35-7.5A1.7,1.7,0,0,0,249.94,413.16Z" style="fill:#263238"></path><path d="M188.75,384c9-4.64,40.22,19.4,40.22,19.4l-4,8.62s-32.35-8.83-36.18-13.9C184.26,392.17,182.32,387.29,188.75,384Z" style="fill:#407BFF"></path><path d="M188.75,384c9-4.64,40.22,19.4,40.22,19.4l-4,8.62s-32.35-8.83-36.18-13.9C184.26,392.17,182.32,387.29,188.75,384Z" style="fill:#fff;isolation:isolate;opacity:0.5"></path><path d="M260.48,381.49c5.63,6.89-9.09,32.68-9.09,32.68l-9.27-4.57s4.68-21.08,7-26.62C252,376.12,257.43,377.77,260.48,381.49Z" style="fill:#407BFF"></path><path d="M260.48,381.49c5.63,6.89-9.09,32.68-9.09,32.68l-9.27-4.57s4.68-21.08,7-26.62C252,376.12,257.43,377.77,260.48,381.49Z" style="fill:#fff;isolation:isolate;opacity:0.5"></path><path d="M227.92,331.62s2.49-3.1,18.4-.34l20-10.37L276,354.29s-9.35.7-19.91,7.43a53.71,53.71,0,0,0-13.1,1.72Z" style="fill:#407BFF"></path><path d="M256,361.71c-1.92-.9-4.64-.82-6.88-.56-.65.08-1.26.17-1.79.25l-.58.1a8.47,8.47,0,0,1-1.59.22l0,0a19.92,19.92,0,0,1-1.17-2.12c-.13-.27-.27-.55-.43-.85l-1-2.06L242,355.5l-.61-1.26-.65-1.31c-4.59-9.47-11.07-23.19-11.07-23.19l1.32-2.6a27.31,27.31,0,0,1,14.76,2.76l.07,0,.16.09.28.16.05,0h0Z" style="fill:#407BFF"></path><path d="M256,361.71c-1.92-.9-4.64-.82-6.88-.56-.65.08-1.26.17-1.79.25l-.58.1a9,9,0,0,1-1.59.21l0,0a19.92,19.92,0,0,1-1.17-2.12c-.13-.27-.27-.55-.43-.85l-1-2.06L242,355.5l-.61-1.26-.65-1.31c-4.59-9.47-11.07-23.19-11.07-23.19l1.32-2.6a27.31,27.31,0,0,1,14.76,2.76l.07,0,.16.09.28.16.05,0h0Z" style="fill:#fff;opacity:0.9"></path><path d="M256,361.71c-1.92-.9-4.64-.82-6.88-.56-.65.08-1.26.17-1.79.25l-.58.1a9,9,0,0,1-1.59.21L231,330.24l14.37,29.5L231,327.14a27.31,27.31,0,0,1,14.76,2.76l.07,0,.16.09.28.16.05,0h0Z" style="opacity:0.1"></path><path d="M231.81,325.73l14.62,34.87a12.43,12.43,0,0,1,9.61,1.12s8.57-7.9,18.07-8.29l-9.76-34.66s-12.58,5.19-18,11.48A18.32,18.32,0,0,0,231.81,325.73Z" style="fill:#407BFF"></path><path d="M274.1,353.43c-9.49.39-18.06,8.29-18.06,8.29a12.4,12.4,0,0,0-9.6-1.12l-14.62-34.87a18.25,18.25,0,0,1,14.5,4.52c5.45-6.29,18-11.48,18-11.48Z" style="fill:#fff;opacity:0.9"></path><path d="M274.1,353.43c-9.49.39-18.06,8.29-18.06,8.29l-9.72-31.47c5.71,9,10.89,28.82,10.89,28.82,4.2-9,14.78-8.35,14.78-8.35l-7.64-32Z" style="opacity:0.1"></path><path d="M260.34,339.24c4.44-2.78,6,6.91,1.88,9.09S255.89,342,260.34,339.24Z" style="opacity:0.2"></path><path d="M258.29,348.08s-1.39,1.24-1.88.84,6.43-9.69,8.85-10.38-.2,2.61-.2,2.61.79-1.62.05-1.58-7.66,8.16-7.62,8.41S258.29,348.08,258.29,348.08Z" style="fill:#263238"></path><path d="M258.29,348.08s-1.39,1.24-1.88.84,6.43-9.69,8.85-10.38-.2,2.61-.2,2.61.79-1.62.05-1.58-7.66,8.16-7.62,8.41S258.29,348.08,258.29,348.08Z" style="fill:#fff;opacity:0.6000000000000001"></path><path d="M261.33,324.2s-8.78,4.25-10.31,7.41l2.47,5.69,4-2.32s2.24,2.37,2.23,2.32-.36-3.21-.36-3.21a30.55,30.55,0,0,1,4.45-2.38Z" style="fill:#fff"></path><path d="M242.94,330.75a7.46,7.46,0,0,1,3.65,5c.6,3.41-.19,5.8-4,4.77-1.34-.36-2.83-3-2.4-5.23,0,0,1.47,1.63,2.48,1.08S244.73,332.61,242.94,330.75Z" style="opacity:0.2"></path><path d="M245.73,342.49v2.43l-2.68-.33,3.72,9.91a12.19,12.19,0,0,1,5.83,1.34l-3.07-9.49a11.55,11.55,0,0,0-2.76-1.24Z" style="fill:#fff"></path><path d="M193.59,370.75c0-.78,0-1.54,0-2.28.12-5.33.39-9.81.61-12.8a6.5,6.5,0,0,1,1.11-3.18c2.46-1.33,4.21-2.16,4.21-2.16L219,356.78S224.15,371.9,193.59,370.75Z" style="isolation:isolate;opacity:0.2"></path><path d="M229.94,346.56l6.11-5.41,3.81,6s-3.73,4.38-8.22,2.81Z" style="fill:#ebb376"></path><polygon points="241.7 339.79 243.46 344.97 239.87 347.18 236.05 341.15 241.7 339.79" style="fill:#ebb376"></polygon><path d="M201.14,351.47c4.8,2.31,10.64,5.45,16,5.47a2.34,2.34,0,0,0,1-.26,24.93,24.93,0,0,0,5.15-3.75c2.38-2.12,4.78-4.53,7.1-6.87a2.45,2.45,0,0,1,4,2.76c-2.87,5.83-6.33,11.56-11.83,15.4-2.77,2-7.5,2.18-10.44,1.63A48.08,48.08,0,0,1,196.33,360c-5.4-3.38-.86-11.39,4.81-8.52Z" style="fill:#ffb573"></path><path d="M195.92,362.7c3.19,1.75,7.85,3.29,14.55,4.28l4.95-10.7s-9.73-3.63-13.63-5.34l-.19-.08C194,347.7,188.75,358.76,195.92,362.7Z" style="fill:#263238"></path><path d="M266.55,333.77l-1-3a1.36,1.36,0,0,1,.61-1.57l1.58-.92a1.35,1.35,0,0,1,1.82.47l2,3.38a1.34,1.34,0,0,1-.87,2l-2.65.57A1.33,1.33,0,0,1,266.55,333.77Z" style="fill:#ebb376"></path></g></g><g id="freepik--character-1--inject-23"><g id="freepik--group--inject-23"><path d="M164.87,311.62,160,318.88l6.95,3.19s4.12-4.59,1.82-9.14Z" style="fill:#eec1bb"></path><polygon points="159.35 325.07 165.1 326.21 166.94 322.07 159.99 318.88 159.35 325.07" style="fill:#eec1bb"></polygon><path d="M174.36,274a57,57,0,0,1,6.2,10.08c1.87,4.15,3.45,7.95,3.15,13-.8,7.84-9.73,14.86-15.81,18.92a2.64,2.64,0,0,1-3.51-3.81c3.42-4.68,7.51-9.21,9.55-14.54a2.56,2.56,0,0,0,.14-1.12,12.81,12.81,0,0,0-.87-3.51c-1.73-4.46-4.62-8.85-7.34-12.86-3.62-5.67,4.24-11.33,8.49-6.14Z" style="fill:#ebc0bb"></path><path d="M177.19,273.16c2.31,3.14,4.6,7.88,6.61,14.86l-10.67,6.78s-5.24-9.83-7.61-13.73l-.11-.19C161,273.3,172,266.1,177.19,273.16Z" style="fill:#407BFF"></path><path d="M149.56,239.53,147,243.45a5.74,5.74,0,0,1-2.2-2.59A13.62,13.62,0,0,0,149.56,239.53Z" style="fill:#ed847e"></path><path d="M150.37,238c-.42.93-1.27,1.47-1.88,1.18s-.74-1.27-.31-2.2,1.26-1.44,1.88-1.17S150.8,237,150.37,238Z" style="fill:#263238"></path><path d="M149.89,233.78a.61.61,0,0,1,0-.3.51.51,0,0,1,.63-.27,4.73,4.73,0,0,1,2.94,3.27.49.49,0,0,1-.38.57h0a.51.51,0,0,1-.56-.38h0a3.78,3.78,0,0,0-2.4-2.56A.54.54,0,0,1,149.89,233.78Z" style="fill:#263238"></path><path d="M178.7,247.61c-2.47,4.92-6.7,9.51-11.27,11.69a11.4,11.4,0,0,1-7.37,1.11,38.77,38.77,0,0,1-8.3-2.59c-5.93-2.77-7.45-6.83-5.74-13.65,2.06-8.38,10-19.7,20.74-17.95S183.93,237.17,178.7,247.61Z" style="fill:#eec1bb"></path><path d="M179.4,230.56a21.37,21.37,0,0,0-15.31-10.84c-11-1.75-11.74,9.36-11.05,12l1.49-2.78a11.83,11.83,0,0,0,4.44,10.6C164.46,244,179.4,230.56,179.4,230.56Z" style="fill:#263238"></path><path d="M167.43,259.3a11.4,11.4,0,0,1-7.37,1.11,38.77,38.77,0,0,1-8.3-2.59,18.9,18.9,0,0,1,7.61-.6A21.26,21.26,0,0,1,167.43,259.3Z" style="isolation:isolate;opacity:0.2"></path><path d="M170.75,223c-8.45-3.31-16.89.28-14.07,5.51a17.5,17.5,0,0,0,2.09,1.65c-2,2.77-2.79,6.94.54,13,2.34,4.27,1.94,15.07,1.94,15.07l6.78,1.69s7.75,1.3,15.29-13.65C188.81,235.34,180.85,226.94,170.75,223Z" style="fill:#263238"></path><path d="M160.32,243.66s4.1-3.85,5.9-1.29-2.13,10.24-5.77,8.66S157.57,245.49,160.32,243.66Z" style="fill:#eec1bb"></path><path d="M154.31,258.62a6.25,6.25,0,0,1-2.2,4.3c-.22.18-.46.36-.71.53a10.62,10.62,0,0,1-1.22.65h0a25.56,25.56,0,0,0,3.24,5.88,49.75,49.75,0,0,0,6.52-.54,22.09,22.09,0,0,0,4.45-1.07s-1.47-3.92,1.53-8.86c.76-1.27-4.37-2.95-6.06-3.05a36.89,36.89,0,0,0-5.54.82S154.53,256.3,154.31,258.62Z" style="fill:#eec1bb"></path><path d="M164.47,272.84l-3-2.46-10.46,3-2.18-8.08-4.44.34a15.86,15.86,0,0,1,16.72-2.5C170.75,267.31,164.47,272.84,164.47,272.84Z" style="fill:#407BFF"></path><path d="M175.64,278a104.34,104.34,0,0,0-2.39,13.08,182.63,182.63,0,0,0-1.3,18.75c0,.88,0,1.37,0,1.37l-43.48-.1c.65-5.6,1.65-11.18,2.79-16.46.73-3.43,1.52-6.72,2.32-9.78.34-1.28.67-2.52,1-3.71.56-2.05,1.12-4,1.64-5.73,2-6.74,3.59-11,3.59-11s7-2,20.48,1a47.31,47.31,0,0,1,11.54,4A7.64,7.64,0,0,1,175.64,278Z" style="fill:#407BFF"></path><path d="M171.92,311.18l-43.47-.1c.65-5.6,1.65-11.18,2.78-16.45.49-2.28,1-4.49,1.52-6.6.26-1.09.54-2.15.8-3.19.23-.83.45-1.65.66-2.44.12-.43.23-.86.35-1.27.56-2.05,1.12-4,1.63-5.73,2-6.74,3.6-11,3.6-11s7-2,20.48,1a47.31,47.31,0,0,1,11.54,4,7.64,7.64,0,0,1,3.83,8.66,104.17,104.17,0,0,0-2.39,13.09,179.42,179.42,0,0,0-1.3,18.74C171.93,310.69,171.92,311.18,171.92,311.18Z" style="fill:#fff;opacity:0.7000000000000001"></path><path d="M168.55,339.48c-2.57,20.48,4.11,70.41,4.11,70.41l-6.19-1.05s-13.09-47.73-13.64-76.18Z" style="fill:#eec1bb"></path><path d="M159.78,406.69a1,1,0,0,1-.25-1,.69.69,0,0,1,.41-.54c1-.4,3.26,1.09,3.52,1.26a.21.21,0,0,1,.08.19.17.17,0,0,1-.14.14,10.08,10.08,0,0,1-2.12.34A2.15,2.15,0,0,1,159.78,406.69Zm.3-1.19a.38.38,0,0,0-.2.26.69.69,0,0,0,.15.66c.38.36,1.43.38,2.85.07-.94-.57-2.28-1.21-2.8-1Z" style="fill:#407BFF"></path><path d="M161.22,404.12a1,1,0,0,1,.7-.8.69.69,0,0,1,.68,0c.88.56,1,3.29,1,3.6a.2.2,0,0,1-.11.17.17.17,0,0,1-.19,0,9.93,9.93,0,0,1-1.51-1.53A2.18,2.18,0,0,1,161.22,404.12Zm1.15-.44a.35.35,0,0,0-.33,0,.69.69,0,0,0-.45.5c-.07.53.52,1.39,1.6,2.36-.09-1.09-.34-2.55-.82-2.85Z" style="fill:#407BFF"></path><path d="M164.47,405.55l8.55-.13a.81.81,0,0,1,.73.5h0l2.66,6.65a.93.93,0,0,1-.88,1.34c-3,0-4.48-.15-8.25-.13a73.25,73.25,0,0,1-10.13-.15c-3.32-.45-3.77-3.51-2.41-3.59A15,15,0,0,0,163.3,406,1.59,1.59,0,0,1,164.47,405.55Z" style="fill:#263238"></path><path d="M141.62,340.22c-4.52,20.14-2.66,70.47-2.66,70.47l-6.06-1.63s-8.46-48.77-6.27-77.14Z" style="fill:#eec1bb"></path><path d="M126.76,406.69a1,1,0,0,1-.25-1,.69.69,0,0,1,.41-.54c1-.4,3.26,1.09,3.52,1.26a.21.21,0,0,1,.08.19.17.17,0,0,1-.14.14,10.08,10.08,0,0,1-2.12.34A2.15,2.15,0,0,1,126.76,406.69Zm.31-1.19a.37.37,0,0,0-.21.26.69.69,0,0,0,.15.66c.38.36,1.43.38,2.85.07-.94-.57-2.28-1.21-2.79-1Z" style="fill:#407BFF"></path><path d="M128.2,404.12a1,1,0,0,1,.7-.8.69.69,0,0,1,.68,0c.88.56,1,3.29,1,3.6a.2.2,0,0,1-.11.17.17.17,0,0,1-.19,0,9.93,9.93,0,0,1-1.51-1.53A2.18,2.18,0,0,1,128.2,404.12Zm1.15-.44a.35.35,0,0,0-.33,0,.69.69,0,0,0-.45.5c-.07.53.52,1.39,1.6,2.36-.09-1.09-.34-2.55-.82-2.85Z" style="fill:#407BFF"></path><path d="M131.45,405.55l8.55-.13a.81.81,0,0,1,.73.5h0l2.66,6.65a.93.93,0,0,1-.88,1.34c-3,0-4.48-.15-8.25-.13a73.25,73.25,0,0,1-10.13-.15c-3.32-.45-3.77-3.51-2.41-3.59a15,15,0,0,0,8.55-4.05A1.59,1.59,0,0,1,131.45,405.55Z" style="fill:#263238"></path><path d="M128.45,308.32l43.47,2.86-1.69,45.18-19.46.6-1.56-11.74L146.13,357l-21.56-2.19S122.65,336.55,128.45,308.32Z" style="fill:#263238"></path><path d="M116.89,245.27l-3.4-8.06L107,241.27s1.58,6,6.64,6.54Z" style="fill:#eec1bb"></path><polygon points="108.67 233.28 104.56 237.46 107.01 241.27 113.49 237.21 108.67 233.28" style="fill:#eec1bb"></polygon><path d="M143.14,273.86a57.77,57.77,0,0,1-11.83-.34c-4.49-.72-8.53-1.48-12.58-4.5-6.12-5-7.07-16.25-7.13-23.59a2.63,2.63,0,0,1,5.1-.85c2,5.42,3.58,11.33,6.92,16a2.38,2.38,0,0,0,.86.72,12.34,12.34,0,0,0,3.41,1.2c4.68,1,9.94,1,14.78.92,6.73.09,7.15,9.76.47,10.47Z" style="fill:#ebc0bb"></path><path d="M142.28,276.67c-3.89.22-9.11-.47-16-2.62l.18-12.64s11.09,1,15.65,1.17h.23C151.06,263.05,151,276.19,142.28,276.67Z" style="fill:#407BFF"></path><path d="M128.45,308.32l43.47,2.86-1.69,45.18-19.46.6-1.56-11.74L146.13,357l-21.56-2.19S122.65,336.55,128.45,308.32Z" style="fill:#fff;opacity:0.2"></path><path d="M149.21,345.22l1.66-6.17s6.59-2.07,8.72-4.75C159.59,334.3,159.11,344.32,149.21,345.22Z" style="isolation:isolate;opacity:0.2"></path></g></g></svg>
