<svg xmlns="http://www.w3.org/2000/svg" viewBox="0 0 500 500"><g id="freepik--background-complete--inject-21"><rect x="38.63" y="126.95" width="44.32" height="11.72" style="fill:#ebebeb"></rect><path d="M64.21,151a1.12,1.12,0,0,1,0-.22v-.6c0-.55,0-1.32,0-2.3,0-2,0-4.94-.07-8.61l.14.14-44.32.09c.1-.1-.23.22.22-.23h0V151l-.22-.22,31.58.1,9.32.06,2.52,0H64l.24,0H64l-.63,0-2.47,0-9.28.07-31.73.1h-.22V151c0-1.89,0-3.81,0-5.77v-5.94h0c.45-.45.13-.12.23-.22l44.32.09h.13v.13c0,3.71,0,6.64-.07,8.69,0,1,0,1.73,0,2.27,0,.24,0,.43,0,.58A1.31,1.31,0,0,1,64.21,151Z" style="fill:#e0e0e0"></path><rect x="50.18" y="388.04" width="44.32" height="11.72" style="fill:#ebebeb"></rect><path d="M75.76,412.12s0-.08,0-.22l0-.6c0-.55,0-1.32,0-2.3,0-2,0-4.94-.08-8.61l.14.14-44.31.09c.1-.1-.23.22.22-.23h0v5.94c0,2,0,3.88,0,5.77l-.22-.22L63,412l9.32.06,2.52,0h.66l.23,0h-.2l-.64,0-2.47,0-9.27.06-31.74.1h-.22V400.41h0c.45-.45.12-.12.23-.22l44.31.09h.14v.13c0,3.71-.06,6.64-.08,8.69,0,1,0,1.73,0,2.27,0,.24,0,.43,0,.58S75.77,412.12,75.76,412.12Z" style="fill:#e0e0e0"></path><rect x="433.64" y="76.74" width="44.32" height="11.72" style="fill:#ebebeb"></rect><path d="M459.22,100.81a1.07,1.07,0,0,1,0-.21c0-.16,0-.36,0-.61,0-.55,0-1.32,0-2.3,0-2-.05-4.94-.08-8.61l.14.14-44.32.09c.1-.1-.23.23.23-.22h0v3c0,1,0,2,0,3v5.77l-.22-.22,31.58.1,9.32.06,2.53,0H459l.24,0H459l-.63,0-2.47,0-9.27.06-31.74.1h-.22V95c0-1,0-2,0-3v-3h0l.23-.23,44.32.09h.14v.13c0,3.71-.06,6.65-.08,8.69,0,1,0,1.73,0,2.28,0,.23,0,.42,0,.57A1.31,1.31,0,0,1,459.22,100.81Z" style="fill:#e0e0e0"></path><rect x="55" y="33.57" width="44.32" height="11.72" style="fill:#ebebeb"></rect><rect x="185.45" y="382.18" width="44.32" height="11.72" style="fill:#ebebeb"></rect><path d="M256,70.66a2.07,2.07,0,0,1,0-.23c0-.17,0-.39,0-.66,0-.61,0-1.45,0-2.53,0-2.23,0-5.42-.08-9.45l.15.15-48.65.1.25-.25h0v6.53q0,3.23,0,6.33l-.24-.24,34.67.11,10.23.07,2.77,0,.73,0H256s-.07,0-.22,0h-.7l-2.71,0-10.18.07-34.84.11h-.24v-.25c0-2.07,0-4.18,0-6.33V57.8h0l.25-.25,48.65.1h.15v.15c0,4.07-.06,7.29-.08,9.54,0,1.06,0,1.9,0,2.5v.63C256,70.6,256,70.67,256,70.66Z" style="fill:#e0e0e0"></path><path d="M262.62,57.79a1.22,1.22,0,0,1,0-.24c0-.19,0-.41,0-.68,0-.64,0-1.5,0-2.59,0-2.25-.06-5.44-.1-9.36l.18.18-29.23.07c-.22.22.3-.3.24-.25h0v6.62c0,2.15,0,4.24,0,6.24l-.23-.23,20.91.11,6.09.06,1.64,0,.59,0a3.28,3.28,0,0,1-.53,0l-1.6,0-6,.07L233.39,58h-.24v-.24c0-2,0-4.09,0-6.24V44.93h0l.25-.25,29.23.07h.18v.18c0,4-.08,7.19-.1,9.47,0,1.07,0,1.92,0,2.54S262.63,57.8,262.62,57.79Z" style="fill:#e0e0e0"></path><path d="M466.66,376.35a1,1,0,0,1,0-.23v-.66c0-.6,0-1.45,0-2.53,0-2.22,0-5.42-.08-9.45l.15.15-48.65.1c.11-.11-.25.25.24-.25h0v12.86l-.24-.24,34.67.11,10.23.07,2.77,0,.72,0h.26s-.07,0-.23,0l-.69,0-2.72,0-10.17.07L418,376.6h-.25V363.49h0c.49-.49.14-.13.25-.24l48.65.09h.15v.15c0,4.07-.07,7.29-.08,9.54,0,1.07,0,1.9,0,2.5,0,.26,0,.47,0,.63A1.23,1.23,0,0,1,466.66,376.35Z" style="fill:#e0e0e0"></path><path d="M473.25,363.48s0-.09,0-.24,0-.41,0-.68c0-.64,0-1.5-.05-2.58,0-2.26-.05-5.45-.09-9.37l.17.18-29.23.07.25-.25h0v6.62q0,3.24,0,6.24l-.24-.23,20.91.11,6.09.07,1.65,0,.58,0a3.28,3.28,0,0,1-.53,0l-1.59,0-6,.07-21.07.11h-.23v-.24q0-3,0-6.24v-6.62h0c0,.06.47-.47.25-.24l29.23.06h.18v.17c0,4-.07,7.19-.09,9.47,0,1.07,0,1.92,0,2.55A4.69,4.69,0,0,1,473.25,363.48Z" style="fill:#e0e0e0"></path><path d="M330.4,122.81a2.07,2.07,0,0,1,0-.23c0-.17,0-.39,0-.66,0-.61,0-1.45,0-2.53,0-2.23,0-5.42-.08-9.45l.15.15-48.65.1.25-.25h0v6.52q0,3.22,0,6.33l-.24-.24,34.67.11,10.23.07,2.77,0,.73,0h.25s-.07,0-.22,0h-.7l-2.71,0-10.18.07-34.84.11h-.24v-.25c0-2.07,0-4.18,0-6.33V110h0c.5-.49.14-.14.25-.25l48.65.1h.15v.15c0,4.07-.06,7.29-.08,9.54,0,1.06,0,1.9,0,2.49,0,.26,0,.47,0,.64S330.41,122.82,330.4,122.81Z" style="fill:#e0e0e0"></path><path d="M337,109.94a1.22,1.22,0,0,1,0-.24c0-.19,0-.41,0-.69,0-.63,0-1.49,0-2.58,0-2.25-.06-5.44-.1-9.36l.18.18-29.23.07c-.22.22.3-.3.24-.25h0v6.62c0,2.15,0,4.24,0,6.24l-.23-.23,20.91.11,6.09.06,1.64,0,.59,0a3.28,3.28,0,0,1-.53,0l-1.6,0-6,.07-21.07.11h-.24v-.24c0-2,0-4.09,0-6.24V97.08h0l.25-.25,29.23.07h.18v.18c0,4-.08,7.19-.1,9.47,0,1.07,0,1.92,0,2.54S337,110,337,109.94Z" style="fill:#e0e0e0"></path><path d="M358.91,425.44a1.35,1.35,0,0,1,0-.24v-.66c0-.6,0-1.45,0-2.53,0-2.22,0-5.42-.08-9.44l.15.15-48.65.09.24-.24h0v12.85l-.25-.25,34.68.11,10.23.07,2.77,0h.72l.26,0h-.23l-.69,0-2.72,0-10.18.07-34.84.11H310V412.59h0l.25-.25,48.65.09h.15v.16c0,4.06-.07,7.29-.09,9.53,0,1.07,0,1.9,0,2.5l0,.63A1.66,1.66,0,0,1,358.91,425.44Z" style="fill:#e0e0e0"></path><path d="M365.5,412.57s0-.09,0-.25,0-.41,0-.68c0-.64,0-1.5-.05-2.58,0-2.26-.05-5.45-.09-9.37l.17.18-29.23.07c-.22.22.3-.3.25-.24h0v6.6c0,2.16,0,4.25,0,6.25l-.24-.24,20.91.11,6.09.07,1.65,0,.58,0a4.89,4.89,0,0,1-.53,0l-1.59,0-6,.07-21.07.11H336v-6.48c0-1.07,0-2.17,0-3.27v-3.33h0l.25-.25,29.23.07h.18v.17c0,4-.07,7.19-.09,9.48,0,1.07,0,1.91,0,2.54A5,5,0,0,1,365.5,412.57Z" style="fill:#e0e0e0"></path><path d="M404.58,51.75s0-.09,0-.24l0-.66c0-.6,0-1.45,0-2.53,0-2.22,0-5.42-.08-9.45l.15.16-48.65.09.25-.25h0v6.53c0,2.15,0,4.27,0,6.34l-.24-.25,34.67.11,10.23.07,2.77,0,.72,0,.26,0h-.22l-.7,0-2.71,0-10.18.07L355.93,52h-.24v-.24c0-2.07,0-4.19,0-6.34V38.88h0c.5-.49.14-.13.25-.24l48.65.09h.15v.15c0,4.07-.06,7.3-.08,9.54,0,1.07,0,1.9,0,2.5v.63A.85.85,0,0,1,404.58,51.75Z" style="fill:#e0e0e0"></path></g><g id="freepik--Floor--inject-21"><path d="M485.41,467.44c0,.15-105.41.26-235.4.26s-235.42-.11-235.42-.26S120,467.18,250,467.18,485.41,467.3,485.41,467.44Z" style="fill:#263238"></path></g><g id="freepik--Characters--inject-21"><path d="M364.59,162.21s11.6-2,18.33,8.33,25.7,36.27,25.7,36.27l23.87-15.73,10.12,12s-14.91,22.7-26.37,27.76-26.34-7.48-26.34-7.48l-15.21-17.65Z" style="fill:#ffbf9d"></path><path d="M391.31,204.59c-.49.66-11.1,39.51-19.87,44.07-3.13,1.63-39.75-9.45-39.75-9.45s1.48-12,2-12.18,29.56,1.81,29.56,1.81l11.53-32.58Z" style="fill:#ae7461"></path><path d="M335.24,227s-2.85-5.42-4.09-6.69-5.85-4.61-7-6.8a1.53,1.53,0,0,0-1.29,2.26,16.77,16.77,0,0,0,3.57,5.79c1.09,1,.26,1.79-.8,1.71s-8.1-2-8.1-2-7.64-3.42-8.62-2.89a1.6,1.6,0,0,0-.43,2.39c.37.38,6.66,3.93,6.66,3.93l3.52,1.16s-11.27-2.89-12.28-2.23a1.39,1.39,0,0,0-.38,2.12c.38.59,5.37,1.81,5.37,1.81l6.6,2.13-12.87-1.92s-1.24,0-1.42,1,1.13,1.87,1.13,1.87l13.09,3.21s-7.32-1.44-7.78-1c-.61.63-.53,1.29,0,1.6,1.09.62,7.64,2.18,7.64,2.18L330.29,239l6,1.49,2.49-12.44Z" style="fill:#ae7461"></path><path d="M341.12,234.82s3.1-5.28,4.4-6.49,6.05-4.34,7.33-6.48a1.54,1.54,0,0,1,1.19,2.32,16.87,16.87,0,0,1-3.83,5.62c-1.14,1-.35,1.78.72,1.74s8.18-1.62,8.18-1.62,7.79-3.07,8.74-2.5a1.61,1.61,0,0,1,.33,2.41c-.39.36-6.84,3.62-6.84,3.62l-3.57,1s11.39-2.37,12.37-1.67a1.38,1.38,0,0,1,.28,2.13c-.41.58-5.45,1.57-5.45,1.57l-6.68,1.83L371.23,237s1.24,0,1.37,1.06-1.22,1.82-1.22,1.82l-13.21,2.61s7.38-1.11,7.81-.61c.59.66.47,1.32-.07,1.6-1.12.57-7.73,1.83-7.73,1.83L345.53,247l-6.07,1.22-1.92-12.54Z" style="fill:#ffbf9d"></path><path d="M285.22,237.39c.5.66,7.75,16,10.54,18.12s54.52-9.06,54.52-9.06-1.48-12-2-12.19-45.95,3.79-45.95,3.79l-5.2-14.91Z" style="fill:#ffbf9d"></path><path d="M270.87,203.58l-38.68-12.34-4.48,14.67s29,14.68,39.27,18.46c8.42,3.12,11.6,3.88,15.16.11,1.94-2.06,7.8-9.93,13.15-17.26l-14.73-15.07Z" style="fill:#ffbf9d"></path><path d="M143.34,168.72s-15.72,3.22-20.69,13.57c-5.35,11.15-23.94,33.62-23.94,33.62l-41.18-1.08-5.66,10.76S78.76,241,91.15,242.8c16.58,2.45,26.27-10.34,26.27-10.34l15.21-17.64Z" style="fill:#f5f5f5"></path><path d="M269.68,204.64s2-5.79,3.05-7.23,5.09-5.44,5.92-7.78c0,0,2-.15,1.62,2a16.86,16.86,0,0,1-2.66,6.26c-.93,1.16,0,1.81,1.05,1.56s7.7-3.18,7.7-3.18,7-4.53,8.09-4.16a1.6,1.6,0,0,1,.79,2.3c-.31.43-6,4.88-6,4.88L285.93,201s10.72-4.54,11.81-4a1.39,1.39,0,0,1,.7,2c-.29.64-5,2.6-5,2.6l-6.2,3.1,12.43-3.83s1.22-.21,1.56.77-.84,2-.84,2l-12.46,5.14s7-2.52,7.55-2.13c.7.54.72,1.21.23,1.59-1,.78-7.22,3.31-7.22,3.31l-12.07,4.16-5.71,2.38-4.33-11.92Z" style="fill:#ae7461"></path><path d="M195.42,167.33s11.78-1.27,18.51,9.11l22.59,34.88,31.28-6.6,6.7,12.91s-20.56,13.19-32,18.25-22-5.09-22-5.09L205.7,211.62Z" style="fill:#f5f5f5"></path><path d="M226.54,231.64c-.5.66-7.74,16-10.54,18.12s-38.08-7.46-38.08-7.46,1.44-11.65,1.93-11.81,29.56,1.81,29.56,1.81l4.78-9.16Z" style="fill:#ffbf9d"></path><path d="M180.22,230.8s-2.58-5-3.72-6.13-5.33-4.23-6.4-6.24a1.41,1.41,0,0,0-1.19,2.07,15.34,15.34,0,0,0,3.25,5.3c1,.92.23,1.64-.74,1.55s-7.39-1.84-7.39-1.84-7-3.15-7.87-2.67a1.46,1.46,0,0,0-.41,2.18c.34.35,6.08,3.61,6.08,3.61l3.22,1.07s-10.3-2.67-11.22-2.07a1.26,1.26,0,0,0-.36,1.93c.35.54,4.91,1.67,4.91,1.67l6,2-11.75-1.8s-1.13,0-1.3.9,1,1.72,1,1.72l12,3s-6.69-1.34-7.11-.91c-.56.58-.49,1.18,0,1.47a63.37,63.37,0,0,0,7,2l11.47,2.15,5.48,1.38,2.31-11.36Z" style="fill:#ffbf9d"></path><path d="M104,206.39s10.06-1.76,15.89,7.23S142.19,245,142.19,245l20.68-13.63,8.77,10.41s-12.92,19.67-22.85,24.05S126,259.39,126,259.39L112.79,244.1Z" style="fill:#FF725E"></path><path d="M164,230.71s.48-5.54,1.08-7,3.27-5.91,3.48-8.16a1.39,1.39,0,0,1,1.88,1.44,15.34,15.34,0,0,1-.95,6.1c-.56,1.23.41,1.59,1.27,1.14s6.07-4.51,6.07-4.51,5.19-5.54,6.19-5.45a1.46,1.46,0,0,1,1.21,1.85c-.18.45-4.19,5.62-4.19,5.62l-2.54,2.21s8.42-6.37,9.48-6.18a1.26,1.26,0,0,1,1.07,1.64c-.11.63-3.86,3.4-3.86,3.4l-4.76,4.11,10.08-6.13s1-.45,1.54.33-.29,2-.29,2L181,230.33s5.61-3.78,6.16-3.54c.74.31.9.9.56,1.34a61.51,61.51,0,0,1-5.62,4.51L172.36,239l-4.5,3.35-6.45-9.52Z" style="fill:#ffbf9d"></path><path d="M156,139.55a82.35,82.35,0,0,1-4.94-13.35,28.9,28.9,0,0,1-.27-14.1c.19-.69,1.87-5.41,2.59-5.41.51,0-.38,4.33-.08,4.75,2.88,4,4,9,4.15,13.9A64.74,64.74,0,0,1,156,139.55" style="fill:#263238"></path><path d="M185.14,163.1c-.29-3.34-.52-6-.49-6s11.34-2.3,11-13.72c-.19-5.52-1.49-16.85-2.79-27.09a21.31,21.31,0,0,0-22.1-18.6l-1.1.05c-11.85,1.24-17.42,12-15.85,23.8L157.92,163l9,8.79a10.76,10.76,0,0,0,18.22-8.73Z" style="fill:#ae7461"></path><path d="M184.65,157.12a27.61,27.61,0,0,1-15.07-3.72s4,8.14,15.35,6.59Z" style="fill:#6f4439"></path><path d="M188.25,126.65a1.63,1.63,0,0,1-1.5,1.72A1.56,1.56,0,0,1,185,127a1.63,1.63,0,0,1,1.49-1.71A1.56,1.56,0,0,1,188.25,126.65Z" style="fill:#263238"></path><path d="M190.6,121.15c-.2.23-1.47-.63-3.23-.55s-3,1-3.2.82.09-.49.63-.92a4.55,4.55,0,0,1,2.55-.92,4.31,4.31,0,0,1,2.58.71C190.49,120.68,190.69,121.05,190.6,121.15Z" style="fill:#263238"></path><path d="M173.43,127.44a1.63,1.63,0,0,1-1.5,1.71,1.55,1.55,0,0,1-1.74-1.39,1.63,1.63,0,0,1,1.49-1.72A1.56,1.56,0,0,1,173.43,127.44Z" style="fill:#263238"></path><path d="M174.29,122.52c-.19.22-1.47-.64-3.23-.55s-3,1-3.2.81.09-.48.64-.91a4.47,4.47,0,0,1,5.13-.22C174.18,122,174.38,122.42,174.29,122.52Z" style="fill:#263238"></path><path d="M180.35,135.84a12,12,0,0,1,2.83-.64c.44-.07.86-.18.93-.48a2.31,2.31,0,0,0-.36-1.32c-.48-1.06-1-2.18-1.49-3.35-2.06-4.77-3.57-8.71-3.38-8.79s2,3.72,4.08,8.5l1.43,3.37a2.61,2.61,0,0,1,.31,1.75,1.11,1.11,0,0,1-.7.69,3.53,3.53,0,0,1-.76.14A11.61,11.61,0,0,1,180.35,135.84Z" style="fill:#263238"></path><path d="M173.87,116.62c-.23.45-1.94,0-4,0s-3.8.35-4-.11c-.09-.22.25-.63,1-1a6.95,6.95,0,0,1,6.12.08C173.64,116,174,116.4,173.87,116.62Z" style="fill:#263238"></path><path d="M189.79,115c-.29.41-1.51,0-3,.1s-2.67.39-3,0c-.14-.2,0-.61.56-1a4.09,4.09,0,0,1,2.39-.76,4,4,0,0,1,2.4.69C189.73,114.44,189.92,114.84,189.79,115Z" style="fill:#263238"></path><path d="M155.08,130c-.19-.07-8-2-7.34,5.84s8.31,5.58,8.3,5.35S155.08,130,155.08,130Z" style="fill:#ae7461"></path><path d="M153.43,138.39s-.13.11-.35.23a1.35,1.35,0,0,1-1,.1c-.85-.24-1.64-1.49-1.79-2.89a4.42,4.42,0,0,1,.23-2,1.59,1.59,0,0,1,.94-1.12.71.71,0,0,1,.83.31c.12.21.08.37.13.38s.15-.14.06-.46a.84.84,0,0,0-.34-.46,1,1,0,0,0-.77-.14,1.92,1.92,0,0,0-1.32,1.32,4.54,4.54,0,0,0-.3,2.2c.17,1.57,1.09,3,2.24,3.22a1.45,1.45,0,0,0,1.23-.31C153.43,138.58,153.46,138.41,153.43,138.39Z" style="fill:#6f4439"></path><path d="M186.66,103.84c1.2-.81-2.93-4.56-6.15-5.7-4.87-1.72-12.13-2.41-16.34-.81-5.07,1.93-9.17,4.89-11.37,9.84a30.75,30.75,0,0,0-2.08,15.94,9.37,9.37,0,0,0,1.51,4.67c1.24,1.62,3.42,2.53,3.53,4.91a3.32,3.32,0,0,0,1,2.31c1.55,1.39,3.17-.18,3.85-1.68,1.45-3.2,1.33-6.86,1.17-10.37a22.79,22.79,0,0,0-1.13-7.36c-.49-1.27-1.21-2.44-1.64-3.73a4.71,4.71,0,0,1,.22-3.94,4.31,4.31,0,0,1,.58-.69,8.15,8.15,0,0,1,7.92-2.24c4.52,1.18,12.21,2.84,14,1.19,2.63-2.39,3.18-3.84,3.18-3.84Z" style="fill:#263238"></path><path d="M183.13,140.86c.06.13-.25.43-.89.65a4.65,4.65,0,0,1-4.82-1.37c-.43-.52-.53-.94-.42-1s1.26.93,2.92,1.37S183,140.58,183.13,140.86Z" style="fill:#263238"></path><path d="M193.81,436.22l-.55,19.9s21,7.17,21.25,10.86l-40.41.46-.47-31Z" style="fill:#263238"></path><path d="M180.75,454.59a1.49,1.49,0,1,0,.74,2.89,1.5,1.5,0,1,0-.89-2.83" style="fill:#e0e0e0"></path><path d="M174.1,467.44l.08-3.13,38.72.73s1.8.73,1.61,1.94Z" style="fill:#455a64"></path><path d="M193.91,455.92c0,.19-1,.29-1.95.9s-1.48,1.42-1.66,1.35.1-1.17,1.28-1.9S194,455.75,193.91,455.92Z" style="fill:#fff"></path><path d="M198.17,457.55c0,.18-.81.51-1.47,1.32s-.85,1.65-1,1.64-.33-1.07.52-2.06S198.16,457.37,198.17,457.55Z" style="fill:#fff"></path><path d="M200.62,462.37c-.18,0-.46-.9,0-1.94s1.41-1.46,1.5-1.3-.48.71-.88,1.57S200.82,462.35,200.62,462.37Z" style="fill:#fff"></path><path d="M193.51,451.37c-.08.18-1-.07-2.1,0s-2,.43-2.09.27.73-.84,2-.92S193.61,451.22,193.51,451.37Z" style="fill:#fff"></path><path d="M144.85,435.71l-1.48,24.05,4.57,19.32a2.48,2.48,0,0,1-2.12,3h0a2.62,2.62,0,0,1-2.25-.71c-3.71-3.64-17.29-17.12-17.08-18.87.25-2-.2-25.46-.2-25.46Z" style="fill:#263238"></path><path d="M145.82,482.07l-19.27-21.21,0,1a3.62,3.62,0,0,0,.83,2.44c1.54,1.85,5.88,6.86,16.16,17a2.65,2.65,0,0,0,2.32.71Z" style="fill:#455a64"></path><g style="opacity:0.6000000000000001"><path d="M132,453.26a1.46,1.46,0,0,1,.36,2,1.56,1.56,0,0,1-2,.35,1.53,1.53,0,0,1-.36-2.08,1.63,1.63,0,0,1,2.16-.15" style="fill:#fff"></path></g><path d="M140.45,471.37a7.87,7.87,0,0,1,2.28-1.8,8.16,8.16,0,0,1,2.92-.44c0-.06-.29-.26-.87-.35a4.18,4.18,0,0,0-2.27.31,3.94,3.94,0,0,0-1.75,1.42C140.45,471,140.39,471.35,140.45,471.37Z" style="fill:#fff"></path><path d="M142.13,474.65a20.37,20.37,0,0,1,2.27-1,21.25,21.25,0,0,1,2.47-.23,3,3,0,0,0-2.61-.29C142.76,473.54,142,474.58,142.13,474.65Z" style="fill:#fff"></path><path d="M137.27,467.13a26.61,26.61,0,0,1,3.4-1.71,27.41,27.41,0,0,1,3.77-.72,6,6,0,0,0-4,.22A5.74,5.74,0,0,0,137.27,467.13Z" style="fill:#fff"></path><path d="M137.08,459.79c.06.14,1.47-.37,3.29-.37s3.23.45,3.29.31a6.66,6.66,0,0,0-6.58.06Z" style="fill:#fff"></path><path d="M137.33,452.72a12.81,12.81,0,0,1,3.41-.47,13.49,13.49,0,0,1,3.31.9s-.22-.36-.79-.69a5.84,5.84,0,0,0-5-.33C137.6,452.39,137.29,452.66,137.33,452.72Z" style="fill:#fff"></path><path d="M140.75,450.9a2,2,0,0,0,.06-.91,6,6,0,0,0-.66-2.41,2.89,2.89,0,0,0-1.21-1.38,1.08,1.08,0,0,0-1.18.19,1.55,1.55,0,0,0-.44,1.07,3.54,3.54,0,0,0,3.08,3.33,4.3,4.3,0,0,0,4.23-2,1.34,1.34,0,0,0,.12-1.16,1,1,0,0,0-1.05-.55,3.68,3.68,0,0,0-1.69.77,7.28,7.28,0,0,0-1.79,1.82,2.1,2.1,0,0,0-.42.82,11.45,11.45,0,0,1,2.44-2.33,3.42,3.42,0,0,1,1.49-.64.55.55,0,0,1,.57.29,1,1,0,0,1-.12.77,3.87,3.87,0,0,1-3.7,1.68,3.07,3.07,0,0,1-2.65-2.79,1.2,1.2,0,0,1,.27-.77.61.61,0,0,1,.65-.11,2.54,2.54,0,0,1,1.05,1.15A9.46,9.46,0,0,1,140.75,450.9Z" style="fill:#fff"></path><path d="M203.17,275.94a72.74,72.74,0,0,1,3.37,23.84c-.15,5.12-11.51,147-11.51,147l-26.16,1.49-.18-132.76-2.11.53s-11.07,57.26-11.71,66.47c-.58,8.27-9.23,68.63-9.23,68.63l-23.9,1.61,3.15-79.38,4.57-76.24,2.09-22.24Z" style="fill:#455a64"></path><path d="M167.25,302.25a4.66,4.66,0,0,0,1,.51,11.8,11.8,0,0,0,3,.92,6.6,6.6,0,0,0,2.25-.05,4.75,4.75,0,0,0,2.31-1.14,5.16,5.16,0,0,0,1.35-2.41,28.72,28.72,0,0,0,.57-2.82c.67-3.84,1.09-7.35,1.32-9.9.12-1.27.19-2.3.22-3a4,4,0,0,0,0-1.11,5.54,5.54,0,0,0-.2,1.09c-.1.81-.23,1.82-.38,3-.33,2.53-.8,6-1.47,9.85-.33,1.9-.54,3.83-1.75,5a5.23,5.23,0,0,1-4.17,1.17,14.18,14.18,0,0,1-3-.75A6.49,6.49,0,0,0,167.25,302.25Z" style="fill:#263238"></path><path d="M174.05,284.06a.88.88,0,0,0-.51-.13,2.38,2.38,0,0,0-2.32,2.29,2.16,2.16,0,0,0,1.62,1.94,2.34,2.34,0,0,0,2.53-.59,2.28,2.28,0,0,0,.41-2,2.1,2.1,0,0,0-.78-1.15c-.27-.19-.47-.21-.48-.19a2.54,2.54,0,0,1,.9,1.41,2,2,0,0,1-.41,1.65,1.91,1.91,0,0,1-2,.42,1.76,1.76,0,0,1-1.31-1.5,2,2,0,0,1,.73-1.54A2.88,2.88,0,0,1,174.05,284.06Z" style="fill:#263238"></path><path d="M201.6,187.15l-4.19-20-11.16-1.26L184.93,160l-6,5.63-23.13-10.81-2.13,8.65-20.36,9-.66,55.61-.11,23.07-2.65,23.54a15.38,15.38,0,0,0,.94,7.83l58.66,1a97.2,97.2,0,0,0,12.2-1.37,6.15,6.15,0,0,0,5.12-5.6c.95-18.46,1.11-74,1.11-74Z" style="fill:#f5f5f5"></path><path d="M190.78,281.34a1,1,0,0,0,0-.28c0-.22,0-.5,0-.83q0-1.17.09-3.18c0-2.82.1-6.81.17-11.71.08-9.88.14-23.55-.46-38.64-.31-7.55-.78-14.74-1.69-21.24s-2.24-12.24-3.39-17.05-2.22-8.67-2.95-11.33c-.36-1.29-.65-2.31-.87-3.07-.09-.31-.17-.57-.24-.79s-.09-.27-.1-.26a.85.85,0,0,0,0,.28l.18.81c.19.76.44,1.79.76,3.09.66,2.68,1.65,6.56,2.76,11.37s2.34,10.57,3.25,17,1.32,13.65,1.64,21.18c.6,15.07.6,28.73.64,38.62,0,4.9,0,8.88,0,11.71q0,2,0,3.18c0,.33,0,.6,0,.83A1,1,0,0,0,190.78,281.34Z" style="fill:#263238"></path><path d="M173.33,196.86a8.1,8.1,0,0,0-1.35.08l-3.91.35-14.28,1.4-.27,0,0,.28c.69,6.54,1.51,14.36,2.4,22.81l0,.15.12.09c.68.46,1.42.93,2.18,1.4a43.81,43.81,0,0,0,4.09,2.21,11.87,11.87,0,0,0,4.4,1.27,8.65,8.65,0,0,0,4.3-1.13,18.66,18.66,0,0,0,3.42-2.44c.52-.45,1-.91,1.48-1.37a2.9,2.9,0,0,0,.65-.84,4.15,4.15,0,0,0,.36-1,14.83,14.83,0,0,0,.24-3.78,56.31,56.31,0,0,0-.8-6.66c-.71-4-1.51-7.24-2.08-9.46-.29-1.1-.53-2-.7-2.53a4.24,4.24,0,0,0-.3-.87,5.57,5.57,0,0,0,.17.9c.15.65.34,1.5.58,2.56.49,2.23,1.22,5.46,1.86,9.48a54.64,54.64,0,0,1,.72,6.6,14.26,14.26,0,0,1-.26,3.62,2.77,2.77,0,0,1-.86,1.53c-.46.46-.95.9-1.46,1.34a17.86,17.86,0,0,1-3.32,2.34,8,8,0,0,1-4,1,11.09,11.09,0,0,1-4.14-1.22,40.57,40.57,0,0,1-4-2.18c-.74-.45-1.48-.92-2.15-1.37l.15.23c-.94-8.45-1.8-16.27-2.52-22.8l-.24.3,14.09-1.66,4-.49,1-.15Z" style="fill:#263238"></path><path d="M165.08,159.46c-6.76-3.36-9.38-4-9.38-4l-1.79,9.1,25.33,11.8,0-10.62S171.71,162.75,165.08,159.46Z" style="fill:#f5f5f5"></path><path d="M154.15,204.88c0,.18,4.65-.17,10.35-.78s10.3-1.26,10.28-1.44-4.65.17-10.35.78S154.13,204.7,154.15,204.88Z" style="fill:#263238"></path><g style="opacity:0.30000000000000004"><path d="M176.32,221.09c-1.07,1.87-2,4.43-3.51,6a9,9,0,0,1-5.57,3,9.31,9.31,0,0,1-5.41-1.44,14.13,14.13,0,0,1-5.55-6.85c-.17-.2,3.78,2.27,5.92,3.32a9.47,9.47,0,0,0,6,1.11c3.1-.35,5.82-3,8.13-5.11"></path></g><g style="opacity:0.30000000000000004"><polygon points="179.21 166.83 181.29 179.77 156.43 165.39 179.24 176.33 179.21 166.83"></polygon></g><path d="M183.94,179.22A364.72,364.72,0,0,1,193.81,233c1.32,12.59,2.52,29.29,2.52,29.29l-5.42,7.14L182.06,262s-.67-35.54-1.48-47.42c-.66-9.77.15-34.79.15-34.79Z" style="fill:#FF725E"></path><polygon points="179.29 170.72 181.35 169.41 183.67 173.32 183.94 179.22 180.73 179.84 179.3 176.42 179.29 170.72" style="fill:#FF725E"></polygon><path d="M179,165.62a24.58,24.58,0,0,0,1.33,2.1c.82,1.29,1.91,3.1,3,5.18.08.17.17.34.25.5l.16.33.15-.34a42.41,42.41,0,0,0,1.91-5.29c.19-.69.33-1.25.41-1.63a2.15,2.15,0,0,0,.1-.61,20.38,20.38,0,0,0-.73,2.17c-.45,1.35-1.11,3.21-2,5.22h.31c-.08-.16-.17-.33-.25-.51a43.92,43.92,0,0,0-3.07-5.15c-.44-.63-.81-1.13-1.08-1.47A2.84,2.84,0,0,0,179,165.62Z" style="fill:#263238"></path><path d="M153.73,164.06a1.46,1.46,0,0,0,.34.2l1,.49,3.74,1.8c3.16,1.53,7.49,3.71,12.28,6.09,2.92,1.45,5.69,2.79,8.09,3.9l.23.1v-.24c-.06-3.07-.11-5.66-.15-7.53q0-1.32-.06-2.13a5,5,0,0,0-.06-.75,4,4,0,0,0,0,.75c0,.54,0,1.25,0,2.13,0,1.87,0,4.46,0,7.54l.21-.14c-2.39-1.14-5.14-2.49-8.06-3.94-4.8-2.38-9.15-4.53-12.33-6-1.6-.74-2.89-1.31-3.8-1.7l-1-.44Z" style="fill:#263238"></path><path d="M181.31,180.51c.06.08.61-.2,1.24-.63s1.1-.83,1-.91-.6.2-1.23.63S181.26,180.43,181.31,180.51Z" style="fill:#263238"></path><path d="M180.74,178.73a16.7,16.7,0,0,0,1.41-3,16.34,16.34,0,0,0,1.09-3.16,32.34,32.34,0,0,0-2.5,6.19Z" style="fill:#263238"></path><path d="M208.4,183.2a2.18,2.18,0,0,1,.06.57c0,.44,0,1,.08,1.64.07,1.42.11,3.48.14,6,.06,5.09-.05,12.12-.25,19.88s-.37,14.79-.41,19.88c0,2.48,0,4.52,0,6,0,.66,0,1.2,0,1.64a2.34,2.34,0,0,1,0,.57,2.41,2.41,0,0,1-.07-.57c0-.44,0-1-.08-1.64-.06-1.42-.1-3.48-.13-6-.06-5.1,0-12.13.25-19.89s.37-14.79.41-19.87c0-2.49,0-4.53,0-6l0-1.64A2,2,0,0,1,208.4,183.2Z" style="fill:#263238"></path><path d="M150.23,121.35l11.53-1.77a24.89,24.89,0,0,0-.56-2.9c-.28-.81-11.13,1.37-11.13,1.37Z" style="fill:#f5f5f5"></path><path d="M127.92,190.5c.14,0,1.4,5.53,2.82,12.42s2.45,12.51,2.3,12.54-1.4-5.54-2.81-12.43S127.78,190.53,127.92,190.5Z" style="fill:#263238"></path><path d="M371.4,209.68c0-.06,0-.15-.06-.29Z" style="fill:#455a64"></path><path d="M371.42,209.75s0,.05,0,0Z" style="fill:#455a64"></path><path d="M371.4,209.68l0,.07Z" style="fill:#455a64"></path><polygon points="65.52 432.37 59.83 462.8 74.03 464.54 82.92 435.56 65.52 432.37" style="fill:#ffbf9d"></polygon><path d="M75.63,458.93s-11.18,4.9-14.81-1.93L59,459.62,49.45,478.9a2.76,2.76,0,0,0,.94,3.58,2.81,2.81,0,0,0,3,0c4.78-3,22.34-14,22.56-15.89l.91-5a2.59,2.59,0,0,0-1.21-2.66Z" style="fill:#455a64"></path><g style="opacity:0.6000000000000001"><path d="M50.85,482.71l25.42-17.84L76.06,466c-.13,1.2-.75,1.57-1.47,2.22-2.15,1.91-7.87,6-21.14,14.34a2.82,2.82,0,0,1-2.6.19Z" style="fill:#fff"></path></g><g style="opacity:0.6000000000000001"><path d="M73.81,461a1.6,1.6,0,0,0-.87,2,1.64,1.64,0,0,0,2,.87,1.69,1.69,0,0,0,.91-2.12,1.71,1.71,0,0,0-2.22-.68" style="fill:#fff"></path></g><path d="M59.13,472.65a8.24,8.24,0,0,0-1.92-2.46A8.48,8.48,0,0,0,54.28,469c0-.07.36-.21,1-.17a4.5,4.5,0,0,1,2.29.88A4.24,4.24,0,0,1,59,471.66C59.24,472.25,59.2,472.64,59.13,472.65Z" style="fill:#263238"></path><path d="M56.56,475.73c-.14.08-.83-.92-2.12-1.57a21.84,21.84,0,0,0-2.52-.84c-.05-.15,1.33-.44,2.79.33S56.72,475.69,56.56,475.73Z" style="fill:#263238"></path><path d="M63.52,468.93a27,27,0,0,0-3.11-2.65c-1.9-1.21-3.78-1.49-3.75-1.67a6.35,6.35,0,0,1,4.07,1.19A6.1,6.1,0,0,1,63.52,468.93Z" style="fill:#263238"></path><path d="M65.2,462.81c-.11.15-1.45-.74-3.34-1.18s-3.48-.3-3.51-.47a5.46,5.46,0,0,1,3.65-.09A5.5,5.5,0,0,1,65.2,462.81Z" style="fill:#263238"></path><path d="M60.79,461.36a2.27,2.27,0,0,1,.33-.94,6.88,6.88,0,0,1,1.73-2.12,3.12,3.12,0,0,1,1.8-.87,1.15,1.15,0,0,1,1.08.68,1.76,1.76,0,0,1,0,1.26,3.89,3.89,0,0,1-4.5,2,4.5,4.5,0,0,1-3.28-3.76,1.46,1.46,0,0,1,.41-1.21,1.11,1.11,0,0,1,1.27-.11,3.77,3.77,0,0,1,1.31,1.49,7.56,7.56,0,0,1,1,2.56,2.22,2.22,0,0,1,0,1A12.1,12.1,0,0,0,60.54,458a3.75,3.75,0,0,0-1.18-1.26.61.61,0,0,0-.7.05,1.09,1.09,0,0,0-.22.82,4,4,0,0,0,2.89,3.23,3.39,3.39,0,0,0,3.84-1.67,1.19,1.19,0,0,0,.07-.88.62.62,0,0,0-.59-.38,2.85,2.85,0,0,0-1.53.71A10.11,10.11,0,0,0,60.79,461.36Z" style="fill:#263238"></path><polygon points="90.9 430.12 96.59 460.55 82.39 462.3 73.5 433.31 90.9 430.12" style="fill:#ffbf9d"></polygon><path d="M80.79,456.68s11.18,4.9,14.81-1.93l1.8,2.62L107,476.65a2.76,2.76,0,0,1-.94,3.58,2.81,2.81,0,0,1-3,0c-4.79-3-22.34-14-22.57-15.9l-.91-5a2.6,2.6,0,0,1,1.21-2.67Z" style="fill:#455a64"></path><g style="opacity:0.6000000000000001"><path d="M105.57,480.46,80.15,462.62l.22,1.09c.12,1.21.74,1.57,1.47,2.22,2.15,1.92,7.86,6,21.14,14.34a2.77,2.77,0,0,0,2.59.19Z" style="fill:#fff"></path></g><g style="opacity:0.6000000000000001"><path d="M82.62,458.76a1.61,1.61,0,0,1,.86,2,1.62,1.62,0,0,1-2,.87,1.67,1.67,0,0,1-.9-2.12,1.7,1.7,0,0,1,2.21-.68" style="fill:#fff"></path></g><path d="M97.29,470.41a8.22,8.22,0,0,1,1.92-2.47,8.48,8.48,0,0,1,2.93-1.17c0-.07-.36-.2-1-.17a4.5,4.5,0,0,0-2.29.88,4.28,4.28,0,0,0-1.46,1.94C97.18,470,97.22,470.4,97.29,470.41Z" style="fill:#263238"></path><path d="M99.86,473.48c.15.09.83-.92,2.12-1.57a24.37,24.37,0,0,1,2.52-.84c0-.15-1.33-.44-2.79.33S99.71,473.44,99.86,473.48Z" style="fill:#263238"></path><path d="M92.9,466.68A27.5,27.5,0,0,1,96,464a27.15,27.15,0,0,1,3.75-1.67,6.2,6.2,0,0,0-4.06,1.18A6.09,6.09,0,0,0,92.9,466.68Z" style="fill:#263238"></path><path d="M91.23,460.57c.1.14,1.44-.75,3.33-1.19s3.48-.3,3.51-.47a5.46,5.46,0,0,0-3.65-.09C92.39,459.3,91.12,460.46,91.23,460.57Z" style="fill:#263238"></path><path d="M95.63,459.11s0-.36-.33-.93a7,7,0,0,0-1.73-2.13,3.12,3.12,0,0,0-1.8-.86,1.11,1.11,0,0,0-1.07.67,1.71,1.71,0,0,0,0,1.26,3.91,3.91,0,0,0,4.5,2,4.5,4.5,0,0,0,3.28-3.77,1.5,1.5,0,0,0-.4-1.21,1.11,1.11,0,0,0-1.27-.1,3.77,3.77,0,0,0-1.32,1.48,7.29,7.29,0,0,0-1,2.56,2.21,2.21,0,0,0,0,1,11.84,11.84,0,0,1,1.36-3.35,3.51,3.51,0,0,1,1.18-1.27.6.6,0,0,1,.69.06,1.06,1.06,0,0,1,.22.81,4,4,0,0,1-2.88,3.23,3.38,3.38,0,0,1-3.85-1.67,1.27,1.27,0,0,1-.07-.87.61.61,0,0,1,.59-.39,3,3,0,0,1,1.54.71A10.17,10.17,0,0,1,95.63,459.11Z" style="fill:#263238"></path><path d="M58.26,214.94l-6.39,2.91s5.65-35.22,7-44c2.19-14.18,8.23-30.4,28.51-28.74,0,0,15.27,1.2,19.67,12.28,2.38,6,2.54,22.1,3,40.59l.36,3.17c1.83,8,2.07,13.68,4.35,21.56,3,10.26,3,30.21,1,42l-17,1.65Z" style="fill:#263238"></path><path d="M89.9,149.91l-1.3-1.26L74.41,154.2A3.94,3.94,0,0,0,70.65,158l-.35,46a13,13,0,0,0,2.4,8.34l2,2.64c4.46,6,13.78,5.63,17.43-.92a5.23,5.23,0,0,0,.51-1.18,10.15,10.15,0,0,0,.22-1c.46-3.7.52-6.91.52-6.91.29-4.06.39-5.73.39-5.69s8.66-.91,11.12-12c1.22-5.51,1.08-13.12.83-20.6C105.33,156.31,98.22,150,89.9,149.91Z" style="fill:#ffbf9d"></path><path d="M87.36,173.87a1.43,1.43,0,0,1-1.47,1.36,1.37,1.37,0,0,1-1.4-1.38A1.45,1.45,0,0,1,86,172.48,1.38,1.38,0,0,1,87.36,173.87Z" style="fill:#263238"></path><path d="M101.72,174a1.45,1.45,0,0,1-1.47,1.37,1.37,1.37,0,0,1-1.4-1.38,1.44,1.44,0,0,1,1.47-1.37A1.38,1.38,0,0,1,101.72,174Z" style="fill:#263238"></path><path d="M104.17,169.61c-.19.18-1.23-.69-2.77-.78s-2.73.61-2.88.41.12-.41.64-.74a3.85,3.85,0,0,1,2.32-.56,3.76,3.76,0,0,1,2.19.85C104.12,169.19,104.26,169.53,104.17,169.61Z" style="fill:#263238"></path><path d="M88.49,169.61c-.21.16-1.16-.82-2.68-1.06s-2.77.33-2.91.11.17-.4.71-.67a3.86,3.86,0,0,1,2.37-.32,3.79,3.79,0,0,1,2.09,1.07C88.48,169.18,88.59,169.54,88.49,169.61Z" style="fill:#263238"></path><path d="M93.77,180.92a10.14,10.14,0,0,1,2.53-.31c.4,0,.78-.07.86-.33a2,2,0,0,0-.19-1.19c-.31-1-.64-2-1-3.07-1.36-4.38-2.32-8-2.14-8s1.42,3.45,2.78,7.83c.33,1.07.64,2.1.94,3.09a2.28,2.28,0,0,1,.11,1.56A1,1,0,0,1,97,181a2.41,2.41,0,0,1-.68.06A10.51,10.51,0,0,1,93.77,180.92Z" style="fill:#263238"></path><path d="M93.73,199.26A28.51,28.51,0,0,1,79,194.35s3.3,8,14.57,7.61Z" style="fill:#ff9a6c"></path><path d="M92.89,184.6a2.8,2.8,0,0,0-2.43-1.19,2.57,2.57,0,0,0-1.81.84,1.61,1.61,0,0,0-.24,1.83,1.89,1.89,0,0,0,2,.64,6,6,0,0,0,2-1.06,1.94,1.94,0,0,0,.47-.43.52.52,0,0,0,0-.58" style="fill:#ff9a6c"></path><path d="M89.16,181.71c.25,0,.15,1.68,1.52,2.95s3.15,1.2,3.15,1.44-.42.3-1.17.27a4.12,4.12,0,0,1-2.64-1.1,3.67,3.67,0,0,1-1.17-2.47C88.83,182.1,89,181.69,89.16,181.71Z" style="fill:#263238"></path><path d="M90,163.6c-.22.39-1.71,0-3.54-.13s-3.36.17-3.53-.24c-.08-.2.24-.54.89-.85a5.77,5.77,0,0,1,2.72-.48,5.91,5.91,0,0,1,2.66.76C89.85,163,90.12,163.42,90,163.6Z" style="fill:#263238"></path><path d="M104,163c-.3.34-1.34-.09-2.62-.19s-2.37.1-2.6-.29c-.1-.18.09-.52.58-.83a3.68,3.68,0,0,1,2.17-.44,3.59,3.59,0,0,1,2,.83C104,162.44,104.15,162.81,104,163Z" style="fill:#263238"></path><path d="M70.73,177.63s7.89,2.54,12.57-16.95c1.6-6.66,7.85-12,7.85-12l-2.51-.79S73,152.13,72.73,152.32s-4,8-4,8Z" style="fill:#263238"></path><polygon points="46.24 334.59 66.07 422.6 77.23 455.85 94.76 450.9 86.11 335.4 46.24 334.59" style="fill:#263238"></polygon><path d="M59.86,270.78s-11.29,27.44-12.4,36.63-2.54,27.11-2.54,27.11L117,336.36s3.28-13.75,0-39.82c-1.59-12.61-6.52-22-7.26-24.14s4.6-38.7,4.6-38.7l-.58-22.51-8.25-4.94H93.63c-6.54,8.1-14.81,4.14-23.43-.34-3.28-1.71-16,7.6-16,7.6S54,233,56,245.9C57.83,258.13,59.86,270.78,59.86,270.78Z" style="fill:#FF725E"></path><path d="M39.21,311.85a6.72,6.72,0,0,0,1.88,4,16.22,16.22,0,0,1,2.56,5.54s1.35,7.67,1.67,10.15.33,4.76-1.65,4.3-2.56-2-2.87-6.54l-1.14-2.42-1.08,1.84-.27,7.31s4.93,4.84,4.57,6.21-1.3,1.14-1.3,1.14l-.82.76-7.57-5.52L30.48,329l1-12.44.11-9.68,8.14-1Z" style="fill:#ffbf9d"></path><path d="M59.35,210.57s-14.15,4.56-16.07,13.05S38.53,257.9,38,261.45s-3.21,9.24-4.89,19.81c-1.95,12.24-3.72,29.06-3.72,29.06l11.2.76s6.09-14.68,9.26-26c3.1-11.06,4.66-15.23,6.22-21.2a76.85,76.85,0,0,0,2.44-16.62Z" style="fill:#FF725E"></path><path d="M52.78,221.19s1.85-1.78.86-2.67-4.67-1-4.67-1,3.7-1.56,4-3.76-.71-2.86-1.4-2.5-2.64,2.42-4.08,3.32a32.35,32.35,0,0,0-3.78,3.17s-2,1.52-.41,3.26c0,0-2.75,2.18-1.27,3.74,0,0-2.32,1.43-1.32,3.29l.69,1.25s-2,1.19.11,3.62L45,229.5s3.21,0,3.5-1.3a6.88,6.88,0,0,0,.19-2.18s3.93-.66,4.38-2.05A3.91,3.91,0,0,0,52.78,221.19Z" style="fill:#ae7461"></path><path d="M40.47,251.65a8.7,8.7,0,0,0,.59.86C40.63,252.52,40.42,252.06,40.47,251.65Z" style="fill:#263238"></path><path d="M76,232.08c1.5-5.62,3.78-11.16,3.67-17-.11-5.58-2.43-10.83-4.21-16.12s-3-11.15-1-16.36c1.08-2.84,3-5.24,4.5-7.9S91.28,151.5,90.2,148.67l-28.59,13c-3.31,18.06-5,47.68-3.6,64,.43,5,4.16,28.16,6.71,32.47.76,1.28,7.94,2.76,7.94,2.76s.48-4.6.53-4.27a53.93,53.93,0,0,0,1.52,6.17c2,1.73,5.14,4,7.31,3.61C78.88,261.44,74.54,237.7,76,232.08Z" style="fill:#263238"></path><path d="M79.46,335.4c-.94,4.39-8.79,36.32-8.36,48.68s-6.13,46.72-7,51.83c-1.09,6.47-2.92,19.61-2.92,19.61l15.08,1.72S95.16,410.4,96.91,397s3.93-21.33,7-26.52S117,336.36,117,336.36" style="fill:#263238"></path><path d="M117,336.36s-.06.21-.19.63-.35,1-.62,1.82l-2.43,7c-1.08,3-2.41,6.74-4,11-.81,2.14-1.68,4.43-2.64,6.85-.48,1.21-1,2.44-1.53,3.71-.29.62-.58,1.26-.87,1.9s-.66,1.28-1,1.9a39.64,39.64,0,0,0-3.29,8.38,93.13,93.13,0,0,0-2.12,9.58c-.3,1.67-.56,3.38-.81,5.11l-.36,2.63c-.16.89-.31,1.78-.47,2.68-.79,3.55-1.8,7.16-3,10.81-2.3,7.32-5,14.92-7.89,22.76s-6,15.92-9.32,24.18l-.07.18-.2,0-4.42-.5-10.66-1.22-.26,0,0-.27c.62-4.21,1.24-8.38,1.85-12.47q.47-3.08.91-6.09c.3-2,.69-4,1-6,1.41-7.86,2.71-15.44,3.79-22.65s2-14.08,2.31-20.52c.12-1.62,0-3.18.07-4.75s.12-3.1.21-4.6c.3-3,.66-5.83,1.1-8.54,1.74-10.81,3.72-19.41,5.06-25.34l1.6-6.8L79.3,336c.1-.4.16-.6.16-.6s0,.21-.11.61-.21,1-.38,1.77c-.34,1.58-.85,3.87-1.51,6.83-1.28,5.93-3.2,14.54-4.89,25.35q-.64,4.05-1.06,8.52c-.09,1.49-.23,3-.2,4.55s.06,3.16,0,4.77C71,394.28,70,401.15,69,408.38s-2.35,14.8-3.76,22.67c-.34,2-.74,3.94-1,5.95s-.6,4-.9,6.09q-.91,6.14-1.85,12.46l-.23-.29,10.66,1.22,4.42.5-.27.17c3.3-8.25,6.41-16.34,9.32-24.17s5.61-15.42,7.91-22.72c1.18-3.64,2.18-7.24,3-10.76l.48-2.64c.12-.89.24-1.77.37-2.64.25-1.74.52-3.45.82-5.13a92.19,92.19,0,0,1,2.16-9.61,40.24,40.24,0,0,1,3.35-8.45c.37-.63.69-1.25,1-1.87s.58-1.27.87-1.89c.55-1.26,1.06-2.49,1.55-3.69,1-2.41,1.85-4.7,2.67-6.84,1.63-4.27,3-8,4.09-11s1.94-5.35,2.53-7c.28-.79.5-1.39.66-1.81S117,336.36,117,336.36Z" style="fill:#455a64"></path><path d="M111,219.67a3.83,3.83,0,0,1,.37,1c.2.62.46,1.54.74,2.68a56.44,56.44,0,0,1,1.34,18.2c-.1,1.17-.22,2.11-.34,2.75a3.36,3.36,0,0,1-.22,1c-.08,0,.07-1.45.2-3.78a74.19,74.19,0,0,0-.09-9.09,75.42,75.42,0,0,0-1.25-9C111.3,221.09,110.94,219.69,111,219.67Z" style="fill:#263238"></path><path d="M52.91,228.29a10,10,0,0,1,.26,1.51l.62,4.15c.58,3.59,1.35,8.38,2.19,13.67s1.71,10.06,2.32,13.64l.74,4.13a8,8,0,0,1,.24,1.52,8.89,8.89,0,0,1-.44-1.48c-.23-1-.55-2.36-.9-4.1-.71-3.47-1.59-8.29-2.47-13.63s-1.59-10.18-2-13.7c-.23-1.76-.38-3.18-.46-4.17A7.48,7.48,0,0,1,52.91,228.29Z" style="fill:#263238"></path><path d="M90.64,274.63a16.59,16.59,0,0,1-2.81.63c-1.75.32-4.17.69-6.86,1s-5.14.54-6.92.65a14.65,14.65,0,0,1-2.88.05,18.53,18.53,0,0,1,2.85-.42l6.88-.8,6.88-.86A15,15,0,0,1,90.64,274.63Z" style="fill:#263238"></path><path d="M100.22,273.84c.06.13-5.42,2.53-12.23,5.35s-12.38,5-12.44,4.86,5.43-2.52,12.24-5.35S100.17,273.7,100.22,273.84Z" style="fill:#263238"></path><path d="M352.49,160.45,353,116.2c.49-11-5.5-20.46-16.52-20.65l-1,0a19.69,19.69,0,0,0-18.86,18.9c-.38,9.54-.67,20.09-.4,25.19.57,10.55,11.2,11.76,11.2,11.76s.07,6.42.06,9.52l8.5,11.8v.63Z" style="fill:#ffbf9d"></path><path d="M327.43,151.44A25.56,25.56,0,0,0,341,146.8s-3,8.08-13.55,7.56Z" style="fill:#ff9a6c"></path><path d="M320.94,123.6a1.5,1.5,0,0,0,1.51,1.46,1.43,1.43,0,0,0,1.5-1.42,1.5,1.5,0,0,0-1.51-1.46A1.43,1.43,0,0,0,320.94,123.6Z" style="fill:#263238"></path><path d="M319.06,119.06c.2.19,1.31-.7,2.93-.76s2.85.69,3,.49-.12-.44-.65-.8a4.16,4.16,0,0,0-2.43-.63,3.9,3.9,0,0,0-2.31.85C319.12,118.61,319,119,319.06,119.06Z" style="fill:#263238"></path><path d="M335.6,123.6a1.5,1.5,0,0,0,1.52,1.46,1.44,1.44,0,0,0,1.5-1.42,1.51,1.51,0,0,0-1.52-1.46A1.44,1.44,0,0,0,335.6,123.6Z" style="fill:#263238"></path><path d="M335,118.78c.19.19,1.3-.7,2.92-.77s2.85.7,3,.5-.12-.44-.66-.8a4.23,4.23,0,0,0-2.42-.64,4,4,0,0,0-2.32.86C335.05,118.33,334.89,118.7,335,118.78Z" style="fill:#263238"></path><path d="M329.68,131.49a11.32,11.32,0,0,0-2.65-.37c-.42,0-.82-.09-.9-.37a2.13,2.13,0,0,1,.23-1.24l1.09-3.2c1.52-4.57,2.6-8.31,2.41-8.37s-1.56,3.59-3.07,8.15c-.37,1.13-.72,2.2-1.05,3.23a2.47,2.47,0,0,0-.15,1.63,1,1,0,0,0,.71.58,3.15,3.15,0,0,0,.71.07A10.59,10.59,0,0,0,329.68,131.49Z" style="fill:#263238"></path><path d="M334.25,113.73c.24.4,1.8-.1,3.71-.22s3.53.11,3.7-.32c.08-.21-.26-.57-1-.88a6,6,0,0,0-2.87-.44,6.13,6.13,0,0,0-2.77.85C334.43,113.13,334.15,113.53,334.25,113.73Z" style="fill:#263238"></path><path d="M318.79,114.29c.35.36,1.66-.05,3.25-.11s2.94.17,3.24-.23c.13-.19-.09-.55-.69-.89a5.07,5.07,0,0,0-2.65-.53,5.14,5.14,0,0,0-2.58.81C318.81,113.73,318.64,114.12,318.79,114.29Z" style="fill:#263238"></path><path d="M352.49,124.05c.17-.08,7.16-2.44,7.23,4.79s-7.2,5.8-7.22,5.6S352.49,124.05,352.49,124.05Z" style="fill:#ffbf9d"></path><path d="M354.69,131.68s.12.08.34.18a1.24,1.24,0,0,0,.94,0,3.12,3.12,0,0,0,1.41-2.81,4,4,0,0,0-.37-1.8,1.45,1.45,0,0,0-.95-1,.64.64,0,0,0-.74.36c-.1.2-.05.34-.09.36s-.15-.12-.1-.42a.79.79,0,0,1,.28-.46,1,1,0,0,1,.7-.19,1.76,1.76,0,0,1,1.32,1.11,4.35,4.35,0,0,1,.46,2c0,1.46-.77,2.83-1.81,3.14a1.32,1.32,0,0,1-1.15-.18C354.7,131.85,354.66,131.69,354.69,131.68Z" style="fill:#ff9a6c"></path><path d="M334.78,132.5c-.25,0-.26,1.64-1.69,2.81s-3.19,1-3.2,1.22.39.32,1.14.34a4.13,4.13,0,0,0,2.67-.91,3.63,3.63,0,0,0,1.31-2.37C335.08,132.9,334.89,132.49,334.78,132.5Z" style="fill:#263238"></path><path d="M302,105a1.71,1.71,0,0,1,.8-1,5.29,5.29,0,0,1,2.7-.47,15,15,0,0,0,6.59-1.74,7.49,7.49,0,0,1-2-1.34,4.53,4.53,0,0,1-1.35-4.5,1,1,0,0,1,.55-.69c.47-.15.89.3,1.22.67a3.91,3.91,0,0,0,3.7,1.51,6.43,6.43,0,0,0,2.73-.84l.09-.11,1.1-1.12h0c2.69-2.72,5-4.62,7.4-5.62a24.61,24.61,0,0,1,13.1-1.18c3.69.93,7,3.87,7.59,7.64,2-1.77,5.14-1.79,7.66-.81l.07,0c2.81,1,4.43,3.91,5.29,6.75.05.16.09.32.13.47a11.06,11.06,0,0,0,3.81,3.64c.27.16.58.34.62.66s-.22.56-.47.75a5.61,5.61,0,0,1-2.26,1,12.71,12.71,0,0,0,1,2c.32.53.7,1.17.43,1.73a1.19,1.19,0,0,1-1.23.55,3.4,3.4,0,0,1-1.31-.57l1,2.23a6.52,6.52,0,0,1-3-.17c-.57,2.68-1,7.62-1.63,9.44-1.91.06-2.38-.15-3.35.19-1.24.43-.74,2.64-2.38,2-.83-.32-2.14-3.44-2.43-4.29a41.32,41.32,0,0,1-2-17.45A13.4,13.4,0,0,0,342,101.3l.12.11c-3-1-6.32-2-9.11-.54-2.16,1.1-3.42,3.37-5,5.19a15.14,15.14,0,0,1-11.11,5.56c-.38,3.2-.44,8.42-.56,11.4l-2.61-5.94v0a10.58,10.58,0,0,1-.55-1l-.06-.11h0a17.77,17.77,0,0,0-.86-1.68l0,0a1.86,1.86,0,0,1-2.74-2.45,3.88,3.88,0,0,1,.89-.92,3,3,0,0,1-2.8.76,2.32,2.32,0,0,1-1.66-2.27,1.94,1.94,0,0,1,1.15-1.58,6.71,6.71,0,0,1-3.78-.79C302.53,106.61,301.79,105.92,302,105Z" style="fill:#263238"></path><path d="M343,97.42a9.47,9.47,0,0,1,1.07,1,7.66,7.66,0,0,1,1.67,3.49,13.83,13.83,0,0,1,.3,2.69c0,1-.05,2-.12,3.12a30.59,30.59,0,0,0,0,3.47,14.65,14.65,0,0,0,.26,1.83,3.8,3.8,0,0,0,.77,1.76,1.61,1.61,0,0,0,1.5.49,2.35,2.35,0,0,0,1.33-.78,5.4,5.4,0,0,0,1-2.7l-.22,0a8.6,8.6,0,0,0,1.31,2.2,3.15,3.15,0,0,0,2.07,1.1,2,2,0,0,0,1.09-.2,1.8,1.8,0,0,0,.95-1.68,1.33,1.33,0,0,0-.35-.82l-.11.1a6.85,6.85,0,0,0,2.29,1.68,5.46,5.46,0,0,0,.71.27l.25.06-.24-.1c-.16-.07-.39-.16-.68-.3a7.09,7.09,0,0,1-2.22-1.71l-.11.1a1.37,1.37,0,0,1,.09,1.58,1.59,1.59,0,0,1-.66.65,1.83,1.83,0,0,1-1,.17,3,3,0,0,1-1.92-1,8.78,8.78,0,0,1-1.27-2.16l-.15-.33-.07.36a5.32,5.32,0,0,1-.94,2.58,2.14,2.14,0,0,1-1.19.7,1.38,1.38,0,0,1-1.28-.41,3.75,3.75,0,0,1-.71-1.66,12,12,0,0,1-.25-1.79,28.1,28.1,0,0,1,0-3.44c.06-1.1.12-2.15.09-3.13a13.15,13.15,0,0,0-.33-2.72,7.48,7.48,0,0,0-1.77-3.53A4.42,4.42,0,0,0,343,97.42Z" style="fill:#455a64"></path><path d="M310.36,108.09s0,0,.08.07l.27.19a4.64,4.64,0,0,0,.45.28,4.87,4.87,0,0,0,.65.33,9.44,9.44,0,0,0,4.54.77,12,12,0,0,0,6.35-2.43,20.87,20.87,0,0,0,5.42-6.39c.75-1.29,1.36-2.61,2-3.83a14.34,14.34,0,0,1,2.33-3.25,7.15,7.15,0,0,1,3-1.88,5.26,5.26,0,0,1,1.6-.21,5.4,5.4,0,0,1,1.48.27,6.07,6.07,0,0,1,2.22,1.3A6,6,0,0,1,342,94.85a7.76,7.76,0,0,1,.57,1.58.87.87,0,0,0,0-.11q0-.13-.06-.33a5.24,5.24,0,0,0-.41-1.19,6.32,6.32,0,0,0-1.21-1.59,6.23,6.23,0,0,0-2.26-1.37,6.11,6.11,0,0,0-1.52-.29,5.38,5.38,0,0,0-1.67.2,7.41,7.41,0,0,0-3.13,1.92A13.87,13.87,0,0,0,330,97c-.69,1.23-1.3,2.55-2.05,3.83a20.75,20.75,0,0,1-5.33,6.32,11.89,11.89,0,0,1-6.24,2.44,9.38,9.38,0,0,1-4.48-.68A15.42,15.42,0,0,1,310.36,108.09Z" style="fill:#455a64"></path><path d="M309.34,103.45s.13.11.38.26a8.42,8.42,0,0,0,1.13.56,10.88,10.88,0,0,0,1.79.56,12.15,12.15,0,0,0,2.28.28,12.74,12.74,0,0,0,2.29-.18,11.78,11.78,0,0,0,1.8-.49,9.28,9.28,0,0,0,1.15-.51c.27-.15.41-.23.4-.25s-.6.27-1.6.59a12.42,12.42,0,0,1-1.79.43,13.31,13.31,0,0,1-2.25.16,13.69,13.69,0,0,1-2.23-.25,14,14,0,0,1-1.77-.5C309.93,103.74,309.36,103.41,309.34,103.45Z" style="fill:#455a64"></path><path d="M401,199.44s-10.85-19.57-15.41-27.37A22.4,22.4,0,0,0,375,162.74c-6.38-3.35-21-8-22.08-8.3l-.07,0s-5.12,8.3-14.8,8.09c-7.55-.17-10.64-4.7-11.19-5.62l-.1-.17-24.07,7.37c-2.73,1-23.31,26.83-23.31,26.83l1.21,1.23,14.73,15.07,3.76,3.85-.14,10.25-2.24,39.14s.25.31-1.11,3.72-1.95,15.91-1.95,15.91l.31.1a65.44,65.44,0,0,0,7.84,1.93l.63.12a83.49,83.49,0,0,0,21.46.79l.47,0c14.44-1.24,30.52-5,45.44-9.53l-1.38-7.2a16.27,16.27,0,0,0-2.05-6.4l1.25-21.19,3-32.78v0c.3,1.39.56,2.64.75,3.54Z" style="fill:#455a64"></path><path d="M380.21,457.25l-4-84.22-5.47-82.67-2.23-17.26c-14.92,4.51-29.78,8.65-44.22,9.89l-.47,0a83.81,83.81,0,0,1-21-.72,90.09,90.09,0,0,1-8.9-2.12c-.31,2.33-.58,5.54-.71,8.38h0c-.08,2-.09,4,0,6.09.21,5.55,13.24,159.37,13.24,159.37l5.49.24-.06-1.65a.18.18,0,0,1-.13-.06s0-.11.12-.2l-.61-16.21,20.89-.09-.06,19.06.72,0-1.31-144.11,2.14.54s11.78,61.94,12.54,71.92c.67,9,10.06,74.33,10.06,74.33l2.76-.07-.07-1.56c-.16.07-.25.1-.28.07s.08-.17.27-.34l-.16-3.52a4.09,4.09,0,0,1-.64-.86,1.49,1.49,0,0,1-.1-1.26.94.94,0,0,1,.62-.53l-.55-12.4L377.25,439s-.25,10.21-.46,18.31Z" style="fill:#263238"></path><path d="M312,457.32a3.32,3.32,0,0,1,1.76.53c1.23.77,1.54,2,1.35,2s-.71-.8-1.73-1.43a6.48,6.48,0,0,0-1.51-.68c-.45.17-2,.76-4.08,1.61a3,3,0,0,1,1.25.9c.88,1.05.74,2.25.55,2.22s-.38-.93-1.1-1.77a6.12,6.12,0,0,0-1.27-1.12c-1.17.49-2.48,1-3.84,1.64a3,3,0,0,1,1,1.24c.52,1.11.24,2.13.05,2.09s-.26-.88-.7-1.79a9.67,9.67,0,0,0-.81-1.36c-4.4,2-9.2,4.36-11.47,6.38l.31-.16,40.07-1.34.12,3.39.05-14.57-20.15-.85Zm11-.37a1.7,1.7,0,0,1,2.14-1l-.16-.05a1.71,1.71,0,0,1,1.19,1.95,1.66,1.66,0,0,1-1.92,1.19A1.82,1.82,0,0,1,323,457Z" style="fill:#455a64"></path><path d="M324.24,459a1.66,1.66,0,0,0,1.92-1.19,1.71,1.71,0,0,0-1.19-1.95l.16.05a1.7,1.7,0,0,0-2.14,1A1.82,1.82,0,0,0,324.24,459Z" style="fill:#e0e0e0"></path><path d="M291.51,467.81c-.52.3-1.5,1-1.34,2A3.38,3.38,0,0,1,291.51,467.81Z" style="fill:#263238"></path><path d="M291.82,467.65l-.31.16a3.38,3.38,0,0,0-1.34,2L332,469.7l-.12-3.39Z" style="fill:#263238"></path><path d="M312,457.32c-.41,0-.68.09-.66.18s.22.16.53.27l.15-.06Z" style="fill:#fff"></path><path d="M315.13,459.88c.19,0-.12-1.26-1.35-2a3.32,3.32,0,0,0-1.76-.53l0,.39-.15.06a6.48,6.48,0,0,1,1.51.68C314.42,459.08,314.94,460,315.13,459.88Z" style="fill:#fff"></path><path d="M307,459.32c0,.08.09.17.26.29l.57-.23C307.34,459.2,307,459.22,307,459.32Z" style="fill:#fff"></path><path d="M308.51,460.73c.72.84.9,1.78,1.1,1.77s.33-1.17-.55-2.22a3,3,0,0,0-1.25-.9l-.57.23A6.12,6.12,0,0,1,308.51,460.73Z" style="fill:#fff"></path><path d="M302.87,461.09c0,.06,0,.18.11.34l.42-.18C303.13,461.07,302.9,461,302.87,461.09Z" style="fill:#fff"></path><path d="M304.49,464.58c.19,0,.47-1-.05-2.09a3,3,0,0,0-1-1.24l-.42.18a9.67,9.67,0,0,1,.81,1.36C304.23,463.7,304.29,464.56,304.49,464.58Z" style="fill:#fff"></path><path d="M373.44,457.41a1.8,1.8,0,0,1-.66,1.66,1.48,1.48,0,0,1-2.29-1.58l-11.52.28.24,5.4a6.92,6.92,0,0,1,3.14-.64,5.12,5.12,0,0,1,3.38,1c-.06.15-1.52-.42-3.39-.44a15.24,15.24,0,0,0-3.12.31v0l-2.41,10a2.36,2.36,0,0,1,.82-.27,4.18,4.18,0,0,1,2.35.36,4.23,4.23,0,0,1,1.78,1.56c.32.53.37.92.3.94a8,8,0,0,0-2.33-2,6.5,6.5,0,0,0-3-.48L355.71,478a3.9,3.9,0,0,1,2.39-.06c1.55.42,2.32,1.55,2.18,1.62a22.92,22.92,0,0,0-2.33-1.07,7.61,7.61,0,0,0-2.3-.21l-1.45,6a2.67,2.67,0,0,0,2.15,3.26l20.23-22.7c.05-1.8.13-4.52.21-7.55ZM361.93,469.6c-2.05-.77-3.88-.64-3.88-.82a7.31,7.31,0,0,1,7.38,2.72A26.82,26.82,0,0,0,361.93,469.6Z" style="fill:#455a64"></path><path d="M376.52,466.91v0l-.06.23A.41.41,0,0,0,376.52,466.91Z" style="fill:#455a64"></path><path d="M376.64,465.94l0-1.1,0,0c0,1-.05,1.67-.06,2A6.36,6.36,0,0,0,376.64,465.94Z" style="fill:#263238"></path><path d="M356.35,487.58a2.68,2.68,0,0,0,2.41-.74c10.79-10.91,15.37-16.29,17-18.27a3.49,3.49,0,0,0,.72-1.47c-.93,2.19-14,16-17.78,19.74A2.68,2.68,0,0,1,356.35,487.58Z" style="fill:#263238"></path><path d="M358.68,486.84c3.77-3.78,16.85-17.55,17.78-19.74l.06-.23c0-.32,0-1,.06-2l-20.23,22.7A2.68,2.68,0,0,0,358.68,486.84Z" style="fill:#263238"></path><path d="M370.68,458.66a1.55,1.55,0,0,0,2.1.41,1.8,1.8,0,0,0,.66-1.66l-2.95.08A1.54,1.54,0,0,0,370.68,458.66Z" style="fill:#fff"></path><path d="M356.72,473.56s0,0,.06,0l0-.13C356.75,473.51,356.71,473.54,356.72,473.56Z" style="fill:#fff"></path><path d="M359.73,474.07a8,8,0,0,1,2.33,2c.07,0,0-.41-.3-.94a4.23,4.23,0,0,0-1.78-1.56,4.18,4.18,0,0,0-2.35-.36,2.36,2.36,0,0,0-.82.27l0,.13A6.5,6.5,0,0,1,359.73,474.07Z" style="fill:#fff"></path><path d="M355.39,478.24s.11.05.26.06l.06-.28C355.49,478.11,355.37,478.2,355.39,478.24Z" style="fill:#fff"></path><path d="M358,478.51a22.92,22.92,0,0,1,2.33,1.07c.14-.07-.63-1.2-2.18-1.62a3.9,3.9,0,0,0-2.39.06l-.06.28A7.61,7.61,0,0,1,358,478.51Z" style="fill:#fff"></path><path d="M362.13,469.06a6,6,0,0,0-4.08-.28c0,.18,1.83.05,3.88.82a26.82,26.82,0,0,1,3.5,1.9A6,6,0,0,0,362.13,469.06Z" style="fill:#fff"></path><path d="M358.93,463.4s.11,0,.29,0v-.25C359,463.28,358.9,463.37,358.93,463.4Z" style="fill:#fff"></path><path d="M365.73,463.55a5.12,5.12,0,0,0-3.38-1,6.92,6.92,0,0,0-3.14.64v.25a15.24,15.24,0,0,1,3.12-.31C364.21,463.13,365.67,463.7,365.73,463.55Z" style="fill:#fff"></path><path d="M358.45,450.5a1,1,0,0,0,.11.83l.13.19-.05-1.23A.43.43,0,0,0,358.45,450.5Z" style="fill:#263238"></path><path d="M311.23,436.16l.61,16.21a3.27,3.27,0,0,1,2.1-.53c1.36.07,2.24.82,2.12,1s-1-.21-2.16-.26c-1-.06-1.75.12-2,.08l.06,1.65,20.15.85.06-19.06Z" style="fill:#263238"></path><path d="M311.72,452.57a.18.18,0,0,0,.13.06v-.26C311.74,452.46,311.7,452.53,311.72,452.57Z" style="fill:#263238"></path><path d="M313.9,452.55c1.16.05,2.05.44,2.16.26s-.76-.9-2.12-1a3.27,3.27,0,0,0-2.1.53v.26C312.15,452.67,312.94,452.49,313.9,452.55Z" style="fill:#263238"></path><path d="M362.92,453.06a3.29,3.29,0,0,0,2.23-2.86,1.35,1.35,0,0,0-.27-.83.58.58,0,0,0-.67-.12,2.69,2.69,0,0,0-1.1,1.23,8.23,8.23,0,0,0-.71,1.73c.09.12.17.24.24.35S362.85,452.92,362.92,453.06Z" style="fill:#263238"></path><path d="M362,453.21c0-.1,0-.2,0-.32a5.71,5.71,0,0,1,.08-.63,9.27,9.27,0,0,0-1.52-1.36,3.5,3.5,0,0,0-1.54-.71.6.6,0,0,0-.4.1l.05,1.23A4,4,0,0,0,362,453.21Z" style="fill:#263238"></path><path d="M362.36,453.19a3.06,3.06,0,0,0,.41-.1q-.16-.22-.45-.57c-.06.26-.1.49-.13.68Z" style="fill:#263238"></path><path d="M371.08,456.54l-.12.1a1.61,1.61,0,0,1,2.23.18,1.16,1.16,0,0,1,.25.59l3.35-.08c.21-8.1.46-18.31.46-18.31l-19.19-1.65.55,12.4a1.13,1.13,0,0,1,.47-.06,3.85,3.85,0,0,1,1.74.86,7.77,7.77,0,0,1,1.35,1.34,6.79,6.79,0,0,1,.58-1.62,3,3,0,0,1,1.27-1.48,1.08,1.08,0,0,1,1.22.21,1.73,1.73,0,0,1,.43,1.17,3.77,3.77,0,0,1-3.23,3.57h-.32c0,.07,0,.11,0,.11s0,0,0-.1a4.39,4.39,0,0,1-3.31-1.36l.16,3.52a3.89,3.89,0,0,1,.56-.41,5.75,5.75,0,0,1,2.58-.77,5.59,5.59,0,0,1,2.65.48c.63.29.94.59.91.65a13,13,0,0,0-3.53-.56,8.52,8.52,0,0,0-3.16.88l.07,1.56,11.52-.28A1.54,1.54,0,0,1,371.08,456.54Z" style="fill:#263238"></path><path d="M371,456.64l.12-.1a1.54,1.54,0,0,0-.59.95l2.95-.08a1.16,1.16,0,0,0-.25-.59A1.61,1.61,0,0,0,371,456.64Z" style="fill:#263238"></path><path d="M358.62,456.28s.12,0,.28-.07v-.27C358.7,456.11,358.6,456.25,358.62,456.28Z" style="fill:#263238"></path><path d="M362.06,455.33a13,13,0,0,1,3.53.56c0-.06-.28-.36-.91-.65a5.59,5.59,0,0,0-2.65-.48,5.75,5.75,0,0,0-2.58.77,3.89,3.89,0,0,0-.56.41v.27A8.52,8.52,0,0,1,362.06,455.33Z" style="fill:#263238"></path><path d="M358,450.3a1.49,1.49,0,0,0,.1,1.26,4.09,4.09,0,0,0,.64.86l0-.9-.13-.19a1,1,0,0,1-.11-.83.43.43,0,0,1,.19-.21l0-.52A.94.94,0,0,0,358,450.3Z" style="fill:#263238"></path><path d="M362.32,452.52a2.81,2.81,0,0,0,.08-.31c-.06-.09-.15-.2-.23-.3,0,.12-.05.24-.07.35Z" style="fill:#263238"></path><path d="M363.11,450.48a2.69,2.69,0,0,1,1.1-1.23.58.58,0,0,1,.67.12,1.35,1.35,0,0,1,.27.83,3.29,3.29,0,0,1-2.23,2.86c.11.23.16.38.14.39s-.12-.12-.29-.36a3.06,3.06,0,0,1-.41.1h-.17c0,.27-.05.47-.07.57h.32a3.77,3.77,0,0,0,3.23-3.57,1.73,1.73,0,0,0-.43-1.17,1.08,1.08,0,0,0-1.22-.21,3,3,0,0,0-1.27,1.48,6.79,6.79,0,0,0-.58,1.62c.08.1.17.21.23.3A8.23,8.23,0,0,1,363.11,450.48Z" style="fill:#263238"></path><path d="M362.92,453.06c-.07-.14-.16-.3-.28-.5s-.15-.23-.24-.35a2.81,2.81,0,0,1-.08.31q.29.35.45.57Z" style="fill:#263238"></path><path d="M359,450.19a3.5,3.5,0,0,1,1.54.71,9.27,9.27,0,0,1,1.52,1.36c0-.11,0-.23.07-.35a7.77,7.77,0,0,0-1.35-1.34,3.85,3.85,0,0,0-1.74-.86,1.13,1.13,0,0,0-.47.06l0,.52A.6.6,0,0,1,359,450.19Z" style="fill:#263238"></path><path d="M362.08,453.88s0,0,0-.11H362C362.06,453.84,362.07,453.88,362.08,453.88Z" style="fill:#263238"></path><path d="M362,453.21h.18c0-.19.07-.42.13-.68l-.22-.26a5.71,5.71,0,0,0-.08.63C362,453,362,453.11,362,453.21Z" style="fill:#263238"></path><path d="M363.06,453.45s0-.16-.14-.39l-.15,0C362.94,453.33,363,453.47,363.06,453.45Z" style="fill:#263238"></path><path d="M362,453.21a3.67,3.67,0,0,0,0,.57h.08c0-.1,0-.3.07-.57Z" style="fill:#263238"></path><path d="M362,453.21a4,4,0,0,1-3.32-1.69l0,.9a4.39,4.39,0,0,0,3.31,1.36A3.67,3.67,0,0,1,362,453.21Z" style="fill:#263238"></path><path d="M296.43,175.06a7.48,7.48,0,0,1,.13,1.45c.08,1,.17,2.37.28,4,.23,3.35.57,8,.85,13.1s.4,9.77.36,13.13c0,1.68-.06,3-.13,4a9.84,9.84,0,0,1-.15,1.46,6.75,6.75,0,0,1,0-1.46c0-.94,0-2.3,0-4-.06-3.35-.25-8-.52-13.1s-.56-9.75-.7-13.11c-.07-1.68-.11-3-.11-4A8.44,8.44,0,0,1,296.43,175.06Z" style="fill:#263238"></path><path d="M373.78,179.12a5.68,5.68,0,0,1-.13,1.3c-.13.93-.31,2.1-.51,3.5-.44,3-1,7.05-1.52,11.58s-.86,8.64-1.09,11.62c-.12,1.41-.21,2.59-.28,3.53a5.31,5.31,0,0,1-.17,1.29,7.76,7.76,0,0,1,0-1.3c0-.84,0-2,.12-3.54.14-3,.44-7.12.95-11.66s1.14-8.63,1.67-11.58c.26-1.47.49-2.66.67-3.48A7.32,7.32,0,0,1,373.78,179.12Z" style="fill:#263238"></path><rect x="325.24" y="192.1" width="17.97" height="39.57" transform="matrix(1, 0.06, -0.06, 1, 14.44, -21.23)" style="fill:#f5f5f5"></rect><path d="M226.5,268.71s-11.47,17.18-9.66,39,10.55,63.47,10.55,63.47.3,35.58,4.22,53.9,3.22,24.17,3.22,24.17h17.28s1.2-46.74,0-56.56-1.34-13.28.53-21.78l1.58-59.48,1.5-40.89Z" style="fill:#263238"></path><path d="M280.44,270.42a55.43,55.43,0,0,1,11,35.91c-1,21.83-8.05,63.83-8.05,63.83s1.1,35.57-2.1,54-3.48,26.92-3.48,26.92l-16.05-2s-3.05-46.65-2.23-56.52.82-13.32-1.39-21.74l-3.91-59.37.53-41.39Z" style="fill:#263238"></path><path d="M235.26,442.39l1,16.65s-17.39,6.52-17.52,9.61l33.84-.61-.38-26Z" style="fill:#263238"></path><path d="M246.65,457.45a1.25,1.25,0,1,1-.56,2.43,1.25,1.25,0,1,1,.68-2.39" style="fill:#e0e0e0"></path><path d="M252.53,468l-.15-2.62L220,467s-1.49.66-1.3,1.67Z" style="fill:#455a64"></path><path d="M235.66,458.88c0,.16.83.22,1.66.71s1.27,1.15,1.42,1.08-.12-1-1.12-1.55S235.62,458.74,235.66,458.88Z" style="fill:#fff"></path><path d="M232.14,460.35c0,.15.68.41,1.26,1.07s.75,1.36.91,1.35.25-.91-.48-1.71S232.14,460.2,232.14,460.35Z" style="fill:#fff"></path><path d="M230.2,464.45c.15,0,.37-.77-.08-1.62s-1.22-1.19-1.28-1.06.42.59.77,1.3S230,464.43,230.2,464.45Z" style="fill:#fff"></path><path d="M235.88,455.07c.07.14.83-.09,1.76-.05s1.67.31,1.75.18-.62-.69-1.73-.73S235.8,454.94,235.88,455.07Z" style="fill:#fff"></path><path d="M277,443.37l-1.83,20.1,3.35,16.29a2.09,2.09,0,0,1-1.85,2.45h0a2.22,2.22,0,0,1-1.86-.65c-3-3.15-14.06-14.76-13.84-16.22.26-1.7.46-21.32.46-21.32Z" style="fill:#263238"></path><path d="M276.71,482.21,261.1,464l-.05.85a3,3,0,0,0,.63,2.06c1.24,1.59,4.75,5.89,13.1,14.66a2.22,2.22,0,0,0,1.93.66Z" style="fill:#455a64"></path><g style="opacity:0.6000000000000001"><path d="M265.86,457.75a1.2,1.2,0,0,1,.25,1.65,1.3,1.3,0,0,1-1.71.25,1.27,1.27,0,0,1-.25-1.75,1.35,1.35,0,0,1,1.81-.07" style="fill:#fff"></path></g><path d="M272.48,473.12a6.49,6.49,0,0,1,1.95-1.46,7,7,0,0,1,2.46-.29c0-.05-.24-.22-.72-.32a3.5,3.5,0,0,0-1.91.21,3.37,3.37,0,0,0-1.5,1.14C272.48,472.8,272.43,473.1,272.48,473.12Z" style="fill:#fff"></path><path d="M273.8,475.9c.1.1.82-.52,1.93-.75a17.85,17.85,0,0,1,2.07-.12,2.49,2.49,0,0,0-2.18-.31C274.36,475,273.7,475.84,273.8,475.9Z" style="fill:#fff"></path><path d="M269.92,469.49a11.44,11.44,0,0,1,6.06-1.85,4.9,4.9,0,0,0-3.31.08A4.74,4.74,0,0,0,269.92,469.49Z" style="fill:#fff"></path><path d="M269.94,463.34c.05.12,1.25-.27,2.76-.23s2.7.46,2.75.34a4.2,4.2,0,0,0-2.74-.78A4.31,4.31,0,0,0,269.94,463.34Z" style="fill:#fff"></path><path d="M270.33,457.43a10.82,10.82,0,0,1,2.86-.31,10.42,10.42,0,0,1,2.75.84s-.17-.31-.64-.61a4.88,4.88,0,0,0-2.06-.68,5.08,5.08,0,0,0-2.16.28C270.56,457.16,270.3,457.38,270.33,457.43Z" style="fill:#fff"></path><path d="M273.23,456a1.68,1.68,0,0,0,.08-.76,4.94,4.94,0,0,0-.5-2,2.36,2.36,0,0,0-1-1.19.91.91,0,0,0-1,.13,1.34,1.34,0,0,0-.39.89,3,3,0,0,0,2.49,2.86,3.61,3.61,0,0,0,3.6-1.56,1.13,1.13,0,0,0,.12-1,.87.87,0,0,0-.86-.49,3,3,0,0,0-1.43.61,6,6,0,0,0-1.55,1.47,1.91,1.91,0,0,0-.37.68,9.59,9.59,0,0,1,2.1-1.89,2.77,2.77,0,0,1,1.26-.5.46.46,0,0,1,.47.26.78.78,0,0,1-.12.64,3.22,3.22,0,0,1-3.13,1.31,2.57,2.57,0,0,1-2.15-2.4,1,1,0,0,1,.24-.63.5.5,0,0,1,.55-.08,2.21,2.21,0,0,1,.85,1A7.52,7.52,0,0,1,273.23,456Z" style="fill:#fff"></path><path d="M232.67,140.05s-4.6,17.19-5,29.35l-.13,4s10.14,8.43,18.65,8.94l7.13-17.53Z" style="fill:#263238"></path><path d="M277.73,150.59c-1.94-8.38-2.69-18.14-9.66-23.6-5.17-4.06-11.07-5.19-17.63-4.92a23.28,23.28,0,0,0-9.71,3.23c-3.86,2.18-5.5,6.62-7.36,10.64-3.73,8.07-3.26,19-.73,22l33.72,17.81c6.73-3.51,10.95-4.9,12-13.88A33.17,33.17,0,0,0,277.73,150.59Z" style="fill:#263238"></path><path d="M267.71,133.65l-21.22-6.26c-6.84-1-11.73,7.27-12.44,14.15-.78,7.63-1.44,17-.75,22.73,1.37,11.56,10.11,13.36,10.11,13.36s0,.18,0,3.59l0,7c-.09,2.24.3,3,1.67,4.76,3.13,4.06,8.83,4.6,15.56,2.11,3.9-1.44,6.61-4.34,6.91-8.3l3.69-48.93A4,4,0,0,0,267.71,133.65Z" style="fill:#ffbf9d"></path><path d="M237.54,152.22a1.46,1.46,0,0,0,1.36,1.54,1.41,1.41,0,0,0,1.57-1.27,1.48,1.48,0,0,0-1.36-1.54A1.41,1.41,0,0,0,237.54,152.22Z" style="fill:#263238"></path><path d="M235.46,148.46c.17.2,1.32-.58,2.9-.52s2.72.91,2.9.72-.09-.43-.58-.82a4,4,0,0,0-2.31-.81,3.79,3.79,0,0,0-2.32.65C235.55,148,235.37,148.37,235.46,148.46Z" style="fill:#263238"></path><path d="M251.47,152.44a1.48,1.48,0,0,0,1.36,1.54,1.42,1.42,0,0,0,1.58-1.27,1.48,1.48,0,0,0-1.37-1.54A1.41,1.41,0,0,0,251.47,152.44Z" style="fill:#263238"></path><path d="M251.05,148.65c.17.2,1.32-.58,2.9-.52s2.72.91,2.9.72-.08-.44-.58-.83a4.12,4.12,0,0,0-2.31-.81,3.93,3.93,0,0,0-2.32.65C251.14,148.22,251,148.56,251.05,148.65Z" style="fill:#263238"></path><path d="M244.87,158.92a10.17,10.17,0,0,0-2.55-.56c-.41-.06-.79-.16-.84-.43a2,2,0,0,1,.31-1.19l1.32-3c1.84-4.32,3.18-7.88,3-7.95s-1.81,3.37-3.64,7.69c-.44,1.07-.87,2.08-1.27,3.06a2.36,2.36,0,0,0-.27,1.58,1,1,0,0,0,.64.61,2.77,2.77,0,0,0,.68.13A10.07,10.07,0,0,0,244.87,158.92Z" style="fill:#263238"></path><path d="M243.37,177.63a29.19,29.19,0,0,0,15.54-3.49s-4.12,7.88-15.57,6.36Z" style="fill:#ff9a6c"></path><path d="M250,162.44a2.28,2.28,0,0,0-1.87-1.11,3,3,0,0,0-2.77,1.24,1.85,1.85,0,0,0-.18,1.34c.09.23,0,.11.19.28a5.24,5.24,0,0,0,2.09,1.41,2.18,2.18,0,0,0,2.54-3.16Z" style="fill:#ff9a6c"></path><path d="M249.78,160.27c-.26,0-.34,1.69-1.87,2.85s-3.35.88-3.37,1.12.39.35,1.17.41a4.28,4.28,0,0,0,2.81-.84,3.74,3.74,0,0,0,1.45-2.39C250.07,160.7,249.9,160.27,249.78,160.27Z" style="fill:#263238"></path><path d="M250.45,142.85c.11.44,1.71.39,3.54.79s3.28,1.06,3.56.7c.13-.18-.09-.61-.66-1.08a6,6,0,0,0-2.57-1.19,6.17,6.17,0,0,0-2.84.05C250.77,142.33,250.4,142.64,250.45,142.85Z" style="fill:#263238"></path><path d="M235.59,144.19c.36.32,1.51-.23,3-.46s2.72-.14,2.95-.56c.1-.2-.15-.53-.74-.79a4.5,4.5,0,0,0-2.49-.23,4.42,4.42,0,0,0-2.27,1.06C235.54,143.65,235.43,144,235.59,144.19Z" style="fill:#263238"></path><path d="M246.42,126.15l-.06.25h0Z" style="fill:#263238"></path><path d="M261.25,182.27c.33-3-.88-6-.53-9,.37-3.19,2.44-5.93,3.28-9,1.36-5-.5-10.24-1.18-15.36a12.14,12.14,0,0,1-7.47-4.32c-2.31-2.68-3.7-6-5-9.28a15.55,15.55,0,0,0,3.12,8.93,4.18,4.18,0,0,1-3.58-1.16,9.46,9.46,0,0,1-2.1-3.27,25.21,25.21,0,0,1-2-9.18,32.78,32.78,0,0,0,1.5,13.41,5.72,5.72,0,0,0-2.5.1,2.76,2.76,0,0,1-2.38-.51,3.06,3.06,0,0,1-.65-1.53,34.52,34.52,0,0,1-.38-11.69,35.63,35.63,0,0,0-2.63,6.48,12.49,12.49,0,0,0,0,6.91,1,1,0,0,1-1.43,0,2.39,2.39,0,0,1-.62-1.44,17.58,17.58,0,0,1,.37-5.82c-1.14,2-1.52,4.4-2.16,6.65s-1.65,4.55-3.6,5.84a30.45,30.45,0,0,1,.29-8.82,26.17,26.17,0,0,1,2.58-7,20.68,20.68,0,0,1,4.66-6.49c3.38-3,4.8-1.68,7-.55l.25.1s0-.1,0-.16l.1-.46a32.56,32.56,0,0,1,17.07.8c4.07,1.33,4.45,10.1,5.44,5.93.6-2.52,3.87-.22,3.91-.14,4.81,8.66,9.9,22.41,10.13,44.13h0Z" style="fill:#263238"></path><path d="M272.05,175.36c-.05,0,.45-.73,1.13-2.11a22,22,0,0,0,1.94-6.19,21.28,21.28,0,0,0-.64-9.51,27.81,27.81,0,0,0-6-10c-2.78-3.15-5.77-5.86-8.29-8.52a42,42,0,0,1-6-7.71,20.53,20.53,0,0,1-2.39-6.12,12.71,12.71,0,0,1-.24-1.77,2.64,2.64,0,0,1,0-.62c.06,0,.1.85.46,2.35a21.89,21.89,0,0,0,2.51,6,42.84,42.84,0,0,0,6,7.56c2.52,2.62,5.52,5.32,8.33,8.51a27.84,27.84,0,0,1,6.1,10.23,21.33,21.33,0,0,1,.55,9.71,20.87,20.87,0,0,1-2.13,6.22,16.79,16.79,0,0,1-.93,1.53A2.84,2.84,0,0,1,272.05,175.36Z" style="fill:#e0e0e0"></path><polygon points="234.96 185.31 244.18 184.66 266.58 184.98 285.47 191.33 274.12 208.38 255.74 214.88 241.45 211.51 233.27 201.64 234.96 185.31" style="fill:#ffbf9d"></polygon><path d="M284.44,237.5l5-44.66-15.63-5.9h-.1c-4.35,12.37-9.54,15.44-13.88,17.05-4.5,1.66-9.73,3.48-17.71-3.3-7.11-6-3.93-15.61-3.93-15.61s-11-.65-15.55.76-6.24,8.16-7.27,11.1l.06,7.82,6.47,27.5h0s.76,24.85.38,27.16.37,7.88,4.21,9.29c3.09,1.13,40.05,2.54,53.94,1.71,2.94-.17,8.2-2.69,6.12-8Z" style="fill:#FF725E"></path><path d="M299.37,231l-3.55-28c-.86-4.6-2.53-8.57-6.37-10.15h0l-6.73,42.63,1.87,4.8Z" style="fill:#FF725E"></path><polygon points="215.38 196.94 208.56 223.95 226.67 234.34 219.44 196.94 215.38 196.94" style="fill:#FF725E"></polygon><path d="M216.61,206.06a32.56,32.56,0,0,1,.39,3.48,76.48,76.48,0,0,0,1.32,8.32,79.09,79.09,0,0,0,2.27,8.11,31.43,31.43,0,0,1,1.11,3.32,3.29,3.29,0,0,1-.45-.83c-.26-.55-.61-1.35-1-2.37a56.57,56.57,0,0,1-3.62-16.52c-.07-1.08-.09-2-.08-2.56A4,4,0,0,1,216.61,206.06Z" style="fill:#263238"></path><path d="M288.64,201.41a9.58,9.58,0,0,1-.15,1.54c-.15,1.07-.34,2.47-.57,4.16-.48,3.51-1.11,8.37-1.69,13.74s-1,10.26-1.25,13.8c-.13,1.7-.24,3.1-.32,4.19a8,8,0,0,1-.18,1.53,8.36,8.36,0,0,1,0-1.54c0-1,.07-2.43.15-4.2.18-3.55.53-8.44,1.1-13.83s1.27-10.24,1.84-13.75c.29-1.75.54-3.16.74-4.14A8,8,0,0,1,288.64,201.41Z" style="fill:#263238"></path><path d="M270.18,255.71a8.6,8.6,0,0,1-1.48-.45c-.94-.32-2.29-.83-3.94-1.5a97.24,97.24,0,0,1-23.89-14.18c-1.38-1.12-2.48-2.06-3.21-2.74a8.39,8.39,0,0,1-1.1-1.09,10.52,10.52,0,0,1,1.23.93c.77.63,1.9,1.53,3.31,2.61a114,114,0,0,0,23.8,14.13c1.63.72,3,1.28,3.87,1.65A8.78,8.78,0,0,1,270.18,255.71Z" style="fill:#263238"></path><path d="M237.77,185.11s-3.23-3.64-5.59-4-11.13,1.26-13.77,1.79c-3.67.73-3.5,3.46-1.06,3.67a43.57,43.57,0,0,0,6.76-.17,7,7,0,0,0,5.87,3.26C233.89,189.54,237.77,185.11,237.77,185.11Z" style="fill:#ffbf9d"></path><path d="M232.18,181.07a53,53,0,0,0-6.12-2.08c-3-.77-4.94-.77-5.76.27s-3.13,6.63-2.46,7.74,8.21,6.46,9.38,6.61,2.05-.37,1.53-1.86-4.64-5.39-4.64-5.39l.85-3.44Z" style="fill:#ffbf9d"></path><path d="M219.92,180s-4.24,9.33-4.35,10.1,2.07,2.61,3.78,3.54,7,2.64,7.59,1.75a3.06,3.06,0,0,0,.53-1.75l-8-5.07Z" style="fill:#ffbf9d"></path><path d="M216.11,190.27s.06,4.29,0,4.94.94,2.59,2.12,2.12,1.06-.51,1.18-1.7a24,24,0,0,0,0-2.95l-3-2" style="fill:#ffbf9d"></path><path d="M230.6,189.6a3.66,3.66,0,0,1-2.07,0,6.25,6.25,0,0,1-4.07-3l.27.13-.66.1a20.3,20.3,0,0,1-5.5.27,5.18,5.18,0,0,1-2.19-.64c0-.09.86.18,2.23.27a25.17,25.17,0,0,0,5.38-.42l.66-.09.18,0,.09.16a6.29,6.29,0,0,0,3.7,2.9A19.48,19.48,0,0,0,230.6,189.6Z" style="fill:#ff9a6c"></path><path d="M230.15,181a40.72,40.72,0,0,1-6.34,1.31,40.42,40.42,0,0,1-6.43.79,40.72,40.72,0,0,1,6.34-1.31A41.86,41.86,0,0,1,230.15,181Z" style="fill:#ff9a6c"></path><path d="M218.32,186.94c.1,0,.21.66.8,1.54a10.21,10.21,0,0,0,3,2.79,28.34,28.34,0,0,0,5.44,2.41,11,11,0,0,1-5.71-2,8.77,8.77,0,0,1-3.09-3A2.87,2.87,0,0,1,218.32,186.94Z" style="fill:#ff9a6c"></path><path d="M219.83,194.09a6.31,6.31,0,0,1-4.17-3.86c.13-.08.83,1,2,2S219.89,194,219.83,194.09Z" style="fill:#ff9a6c"></path><path d="M396,175.74c.71-.41,11.34-4.38,11.34-4.38l22.33-.83,9.89,2.08-9.65,16.14-14.56,1.19-12.74-5.3-5.1-6Z" style="fill:#ae7461"></path><path d="M414.93,100.14a4.75,4.75,0,0,1,5.43-4.09,6.09,6.09,0,0,1,8.07-2.46c1.3.72,2.29,1.92,3.56,2.7s2.66,1.07,3.95,1.69a4.36,4.36,0,0,1,2.7,3.11,3.78,3.78,0,0,1-2.56,3.64,11,11,0,0,1-4.72.42,1.67,1.67,0,0,1,.49,2.13,3.36,3.36,0,0,1-1.84,1.48,7.26,7.26,0,0,1-7.45-1.38l-3-2.28A4.76,4.76,0,0,1,414.93,100.14Z" style="fill:#263238"></path><path d="M422.37,110.1a1.58,1.58,0,0,0,2.1,0,2.15,2.15,0,0,0,.5-2.14,3.36,3.36,0,0,0-1.42-1.78,8.14,8.14,0,0,0-2.13-.89,15.12,15.12,0,0,0-3.51-.67,2.93,2.93,0,0,0-1.25.15,1.2,1.2,0,0,0-.76.94c0,.59.47,1.06,1,1.42a36.91,36.91,0,0,0,5.68,3.45" style="fill:#FF725E"></path><path d="M424.11,109.79c2.82-3.15,9.85-2.73,11.53-.68a5.37,5.37,0,0,1,7,2.28l7.48,1.59a7.74,7.74,0,0,1,3.6,1.42,2.67,2.67,0,0,1,.66,3.48,4.07,4.07,0,0,1,1.75,6.49,2.83,2.83,0,0,1-.39,4.1,28.23,28.23,0,0,1,4.87,8.28,5.76,5.76,0,0,1,.4,3.94c-.46,1.27-2.11,2.15-3.21,1.37a3.32,3.32,0,0,1,.18,3.58c1.27,0,1.66,2,.79,2.89a4.58,4.58,0,0,1-3.53,1,6.08,6.08,0,0,0-3.67.66,1.18,1.18,0,0,0,.42.8,5.2,5.2,0,0,1,1.21,7.07l-.41.58a11.36,11.36,0,0,1-3.66,2.61c-2.84,1.51-4.55,1.24-7.74,1.72.89,2.05-4.26,6.65-10.22,2.21a114.53,114.53,0,0,1-32.59,4.65c-1.75,0-3.85-.21-4.64-1.77a4.32,4.32,0,0,1-4-1.28,12.69,12.69,0,0,1-2.37-3.68,7.61,7.61,0,0,1-5.53-6.82,9.43,9.43,0,0,1-3.6-6.67,5.53,5.53,0,0,1-3.22-7.44,33.57,33.57,0,0,1,3.56-10.34c-2-.42-2.78-3.11-2-5s2.63-3.1,4.35-4.21c-1.49.41-2.81-1.47-2.47-3s1.7-2.56,3-3.37a28.3,28.3,0,0,1,6.19-2.81c.7-2.65,4.05-5.67,6.51-6.86,9.93-4.78,16.9-6,29.67,3.18" style="fill:#263238"></path><path d="M426.52,120.7,409,114.91c-6.82-1-11.77,7.2-12.51,14.07-.83,7.63-1.54,17-.89,22.72a17.47,17.47,0,0,0,11.48,14.66s-.26,7-.26,7c.88,5.39,6.6,5.49,6.6,5.49,15.67.35,16.72-8.5,16.72-8.5L430.08,127C430.22,124.9,428.6,121,426.52,120.7Z" style="fill:#ae7461"></path><path d="M407.58,146.43a10.09,10.09,0,0,0-2.55-.58c-.4-.07-.78-.16-.84-.44a2.07,2.07,0,0,1,.33-1.19l1.33-3c1.86-4.31,3.23-7.86,3-7.94s-1.82,3.36-3.68,7.67c-.45,1.07-.88,2.08-1.28,3a2.3,2.3,0,0,0-.29,1.58,1.06,1.06,0,0,0,.64.62,2.71,2.71,0,0,0,.68.12A10.57,10.57,0,0,0,407.58,146.43Z" style="fill:#263238"></path><path d="M407.09,166.36a37.61,37.61,0,0,0,14.1-4.65s-2.66,7.25-14.2,8.13Z" style="fill:#6f4439"></path><path d="M414.34,128.78c.14.43,1.73.3,3.58.61s3.33.88,3.59.51c.12-.18-.12-.6-.71-1a5.88,5.88,0,0,0-2.63-1.06,6.14,6.14,0,0,0-2.83.2C414.65,128.25,414.29,128.57,414.34,128.78Z" style="fill:#263238"></path><path d="M399.11,128.51c.26.38,1.37.05,2.68.09s2.42.36,2.69,0c.12-.18,0-.54-.51-.91a3.76,3.76,0,0,0-2.15-.69,3.68,3.68,0,0,0-2.17.63C399.16,128,399,128.33,399.11,128.51Z" style="fill:#263238"></path><path d="M391.33,134.49a7.88,7.88,0,0,1,1.91-4.94,29.53,29.53,0,0,0,2.13-2.05c1.29-1.7,1.11-4.06,1.66-6.12a8.71,8.71,0,0,1,5.38-5.83c2.15-.76,4.59-.66,6.61-1.73,1.5-.79,2.63-2.17,4.17-2.87,3-1.37,6.47.17,9.3,1.86.56,2.25-.86,4.19-2.23,6.06a8.08,8.08,0,0,1-5.91,3.21c-1.8.11-3.89-.3-5.15,1s-.82,3.72-1.91,5.26c-1.56,2.2-5.1,1.36-7.43,2.72-1.8,1.06-2.56,3.21-3.47,5.09s-2.47,3.83-4.56,3.73A23.67,23.67,0,0,1,391.33,134.49Z" style="fill:#263238"></path><path d="M418,116.9a40.59,40.59,0,0,1,15.37,2.78,7.38,7.38,0,0,1,3.79,2.62,7.22,7.22,0,0,1,.8,4c-.05,4.3-1.79,9.56-3.43,13.54L429.17,143c-4.14-1-2.23-8.12-2-11.7a8.44,8.44,0,0,1-4.93-7.47A9.36,9.36,0,0,1,418,116.9Z" style="fill:#263238"></path><path d="M429.24,141.48c.17-2.46,3.19-2.93,5.3-1.66,1.16.69,2,2.07,1.88,4.68-.4,7-7.31,5.12-7.31,4.92S429.05,144.36,429.24,141.48Z" style="fill:#ae7461"></path><path d="M431.39,146.9s.12.1.32.2a1.14,1.14,0,0,0,.9.07,3,3,0,0,0,1.55-2.61,4.14,4.14,0,0,0-.24-1.75,1.41,1.41,0,0,0-.86-1,.64.64,0,0,0-.74.29c-.1.19-.06.33-.1.34s-.14-.12-.07-.41a.79.79,0,0,1,.3-.42.9.9,0,0,1,.68-.13,1.69,1.69,0,0,1,1.2,1.15,4,4,0,0,1,.31,2c-.13,1.4-.92,2.67-1.94,2.91a1.32,1.32,0,0,1-1.1-.25C431.39,147.07,431.36,146.92,431.39,146.9Z" style="fill:#6f4439"></path><path d="M432.16,149.83a.66.66,0,0,1,0,.09,2.09,2.09,0,0,0,.09.27,1.67,1.67,0,0,0,.81.72,4.18,4.18,0,0,0,1.72.36,5.44,5.44,0,0,0,1.12-.07,4,4,0,0,0,1.22-.37l-.08,0a3.46,3.46,0,0,0,5.51,2.21l-.12,0a1.45,1.45,0,0,0,.91.61,2,2,0,0,0,1.13-.1,1.81,1.81,0,0,0,.91-.73,2.42,2.42,0,0,0,.35-1.15,3.53,3.53,0,0,0-.75-2.32,10.4,10.4,0,0,0-1.84-1.79v.16a2.47,2.47,0,0,0,1.11-1.65,3.61,3.61,0,0,0-.2-2,5.38,5.38,0,0,0-1.22-1.74,15.72,15.72,0,0,0-1.64-1.4V141a2.68,2.68,0,0,0,.69-2,3.78,3.78,0,0,0-.79-2.07,9.19,9.19,0,0,0-3.39-2.37l0,.12a4.62,4.62,0,0,0-5-5.71l.11.12a3.94,3.94,0,0,0-.94-3.39,3.9,3.9,0,0,0-2.94-1.45l.09.09a3.91,3.91,0,0,0-1.58-3,3.84,3.84,0,0,0-2.91-.81l.08.07a3.86,3.86,0,0,0-.56-1.79,4.78,4.78,0,0,0-1.06-1.27,3.93,3.93,0,0,0-2.38-1l-.26,0-.24,0a3.1,3.1,0,0,0-.45,0,4.65,4.65,0,0,0-.66.18l-.39.17-.13.06s.05,0,.14,0l.39-.15c.17-.07.4-.1.66-.17s.28,0,.44,0h.24l.26,0a4,4,0,0,1,2.31,1,4.77,4.77,0,0,1,1,1.26,3.63,3.63,0,0,1,.53,1.72v.08h.07a3.71,3.71,0,0,1,2.8.79,3.79,3.79,0,0,1,1.5,2.91v.09H429a3.75,3.75,0,0,1,2.8,1.4,3.8,3.8,0,0,1,.89,3.22l0,.14.14,0a4.43,4.43,0,0,1,4.79,5.47l0,.08.07,0a9,9,0,0,1,3.32,2.31,3.53,3.53,0,0,1,.74,1.95,2.37,2.37,0,0,1-.62,1.86l-.09.09.1.07a8.23,8.23,0,0,1,2.8,3,3.37,3.37,0,0,1,.19,1.93,2.27,2.27,0,0,1-1,1.52l-.12.07.11.09a10,10,0,0,1,1.8,1.75,3.36,3.36,0,0,1,.73,2.2,1.87,1.87,0,0,1-1.14,1.73,1.54,1.54,0,0,1-1.84-.44l0-.08-.07.06a3.39,3.39,0,0,1-3.51.33,3.43,3.43,0,0,1-1.79-2.43v-.07l-.07,0a3.89,3.89,0,0,1-1.19.37,5.24,5.24,0,0,1-1.1.08,4.24,4.24,0,0,1-1.69-.32,1.64,1.64,0,0,1-.81-.68A3.27,3.27,0,0,1,432.16,149.83Z" style="fill:#455a64"></path><path d="M458.69,142.39A2.46,2.46,0,0,0,459,142a3.6,3.6,0,0,0-.2-3.56,3.68,3.68,0,0,0-2.52-1.61l.06.08a4.72,4.72,0,0,0-.63-3.43A4.58,4.58,0,0,0,454.3,132a10.67,10.67,0,0,0-1.9-.9,3.7,3.7,0,0,1-.92-.54,2.37,2.37,0,0,1-.63-.86c-.31-.67-.41-1.46-.8-2.18a4.24,4.24,0,0,0-4.24-2.1l.12.12a5.58,5.58,0,0,0-6.18-6.33l.12.12a4.9,4.9,0,0,0-7.62-4.59l.12,0a6.6,6.6,0,0,0-2.44-1.49,9.8,9.8,0,0,0-2.49-.57,11.62,11.62,0,0,0-4.13.27,8.42,8.42,0,0,0-2.46,1,4.57,4.57,0,0,0-.56.41l-.19.16s.26-.2.78-.52a8.34,8.34,0,0,1,2.45-1,11.77,11.77,0,0,1,4.09-.23,10.06,10.06,0,0,1,2.46.58,6.54,6.54,0,0,1,2.36,1.46l.05.05.06,0a4.71,4.71,0,0,1,7.31,4.41v.13h.13a5.37,5.37,0,0,1,5.94,6.09l0,.14.14,0a4,4,0,0,1,4,2c.37.67.47,1.46.79,2.16a2.62,2.62,0,0,0,.69.92,4.12,4.12,0,0,0,1,.57,10.85,10.85,0,0,1,1.88.87,4.47,4.47,0,0,1,1.32,1.39,4.63,4.63,0,0,1,.63,3.32v.08h.07a3.57,3.57,0,0,1,2.45,1.53,3.42,3.42,0,0,1,.59,2.12,3.73,3.73,0,0,1-.33,1.36C458.78,142.24,458.68,142.38,458.69,142.39Z" style="fill:#455a64"></path><path d="M392.09,144.27a.66.66,0,0,0,0-.57,1.3,1.3,0,0,0-.41-.58,2.31,2.31,0,0,0-.86-.43,4,4,0,0,1-1.08-.46,2.2,2.2,0,0,1-.79-1.11,4.36,4.36,0,0,1-.17-1.6c0-.57.11-1.18.11-1.83a18.36,18.36,0,0,0-.88-4.12,5.86,5.86,0,0,1-.1-2.29,2.81,2.81,0,0,1,1.27-2,10.6,10.6,0,0,1,2.44-.82,4.72,4.72,0,0,0,1.25-.58,2.94,2.94,0,0,0,.88-1.1,13.77,13.77,0,0,0,.73-2.75,5.09,5.09,0,0,1,.48-1.32,2.21,2.21,0,0,1,1-.9,8.1,8.1,0,0,1,1.93-.26,3,3,0,0,0,1-.24,2,2,0,0,0,.77-.65,6.76,6.76,0,0,0,.73-1.78,4.26,4.26,0,0,1,.88-1.57,4.17,4.17,0,0,1,3-1.45,4.27,4.27,0,0,1,2.95,1.07l.1.08.05-.11a6.62,6.62,0,0,1,4.13-3.57,6.1,6.1,0,0,1,2.33-.2,5.47,5.47,0,0,1,1.91.53,4.89,4.89,0,0,1,2,1.87,5.31,5.31,0,0,1,.34.65l.09.18a.07.07,0,0,0,0,0l0-.06-.07-.18a5.24,5.24,0,0,0-.32-.67,4.91,4.91,0,0,0-2-1.94,5.64,5.64,0,0,0-2-.56,6.16,6.16,0,0,0-2.38.19,6.78,6.78,0,0,0-4.26,3.63l.15,0a4.54,4.54,0,0,0-3.09-1.13,4.39,4.39,0,0,0-3.18,1.51,4.66,4.66,0,0,0-.92,1.64,6.35,6.35,0,0,1-.7,1.72,2,2,0,0,1-1.6.81,7.69,7.69,0,0,0-2,.28,2.32,2.32,0,0,0-1.13,1,5,5,0,0,0-.51,1.38,13.54,13.54,0,0,1-.71,2.7,2.63,2.63,0,0,1-.81,1,4,4,0,0,1-1.19.55,10.34,10.34,0,0,0-2.49.86,2.73,2.73,0,0,0-.91.91,3.65,3.65,0,0,0-.43,1.18,6,6,0,0,0,.11,2.36,18.88,18.88,0,0,1,.9,4.08c0,.63-.08,1.24-.1,1.83a4.54,4.54,0,0,0,.2,1.63,2.24,2.24,0,0,0,.84,1.17,4.23,4.23,0,0,0,1.12.45,2.19,2.19,0,0,1,.84.4,1.29,1.29,0,0,1,.41.54A.8.8,0,0,1,392.09,144.27Z" style="fill:#455a64"></path><path d="M378.58,133.48a.73.73,0,0,0,.07-.13l.19-.39.72-1.51c.32-.65.67-1.47,1.18-2.36a6.07,6.07,0,0,1,2.33-2.5c.56-.31,1.21-.51,1.87-.8a4.64,4.64,0,0,0,.95-.56,2.34,2.34,0,0,0,.71-.9c.33-.73.34-1.55.6-2.29a2,2,0,0,1,.67-1,3.59,3.59,0,0,1,1.12-.52,7.75,7.75,0,0,0,1.23-.47,2.22,2.22,0,0,0,.95-1,10.05,10.05,0,0,0,.6-2.7,3.39,3.39,0,0,1,.46-1.28,1.72,1.72,0,0,1,1.11-.72c.91-.2,1.9.12,2.92,0a2.38,2.38,0,0,0,1.34-.71,6.53,6.53,0,0,0,.86-1.19,13,13,0,0,1,.77-1.2,2.6,2.6,0,0,1,1-.88,4.09,4.09,0,0,1,2.63,0,6.13,6.13,0,0,0,2.65.23,6.9,6.9,0,0,0,2.3-1,11.55,11.55,0,0,1,2.05-1.13,7.14,7.14,0,0,1,4.13-.13,7.7,7.7,0,0,1,3.06,1.57,8.55,8.55,0,0,1,1.69,2,10,10,0,0,1,.72,1.5l.16.4c0,.09.06.14.07.14l0-.14c0-.11-.08-.24-.14-.42a8.83,8.83,0,0,0-.69-1.52,8.38,8.38,0,0,0-1.68-2,7.87,7.87,0,0,0-3.1-1.63,7.38,7.38,0,0,0-4.23.11,11.58,11.58,0,0,0-2.09,1.15,6.89,6.89,0,0,1-2.24,1,6,6,0,0,1-2.56-.24,9.89,9.89,0,0,0-1.36-.23,3,3,0,0,0-1.4.22,2.89,2.89,0,0,0-1.11.94,14,14,0,0,0-.78,1.22,6,6,0,0,1-.83,1.16,2.38,2.38,0,0,1-1.23.65c-1,.15-1.93-.17-2.93,0a1.93,1.93,0,0,0-1.23.81,3.49,3.49,0,0,0-.49,1.36A10.38,10.38,0,0,1,391,119a2,2,0,0,1-.86.9,6.46,6.46,0,0,1-1.2.46,4.18,4.18,0,0,0-1.17.55,2.1,2.1,0,0,0-.73,1c-.28.79-.28,1.6-.59,2.28a2.82,2.82,0,0,1-1.57,1.39c-.64.29-1.3.5-1.87.82a6.26,6.26,0,0,0-2.37,2.57c-.5.91-.84,1.73-1.14,2.39s-.52,1.16-.69,1.52l-.17.4A.75.75,0,0,0,378.58,133.48Z" style="fill:#455a64"></path><path d="M386,126.2s0,0-.13,0a1,1,0,0,0-.37.09,1.48,1.48,0,0,0-.69,1.23,3.63,3.63,0,0,0,.15,1,4.21,4.21,0,0,1,.18,1.21,2.64,2.64,0,0,1-.49,1.28c-.27.42-.62.83-.89,1.33a2,2,0,0,0-.18,1.76c.22.59.65,1.09.87,1.69a2.6,2.6,0,0,1-.2,1.92c-.27.63-.65,1.25-.92,2a2.85,2.85,0,0,0-.22,1.13,2.88,2.88,0,0,0,.26,1.15,13.73,13.73,0,0,0,1.32,2,3.18,3.18,0,0,1,.74,2.2,10.71,10.71,0,0,1-.84,2.35,3.52,3.52,0,0,0-.26,1.28,2.83,2.83,0,0,0,.32,1.25,11.11,11.11,0,0,0,1.5,2,5.54,5.54,0,0,1,1.22,2,17.24,17.24,0,0,0,.72,2.17,2.54,2.54,0,0,0,.71.88,3.08,3.08,0,0,0,1,.48,8.48,8.48,0,0,1,1,.34,3.25,3.25,0,0,1,.8.55,6.42,6.42,0,0,1,1.14,1.49c.32.52.62,1,.95,1.49a4.8,4.8,0,0,0,2.43,1.78,5,5,0,0,0,2.27.22,4.47,4.47,0,0,0,1.39-.41,2.46,2.46,0,0,0,.44-.25,5,5,0,0,1-1.84.58,5.17,5.17,0,0,1-2.22-.25,4.59,4.59,0,0,1-2.34-1.76c-.33-.45-.62-1-.94-1.48a6.92,6.92,0,0,0-1.16-1.54,3.58,3.58,0,0,0-.84-.58,9,9,0,0,0-1-.36,3,3,0,0,1-.92-.45,2.28,2.28,0,0,1-.65-.82,15.79,15.79,0,0,1-.71-2.14,5.77,5.77,0,0,0-1.25-2,10.94,10.94,0,0,1-1.47-1.93,2.63,2.63,0,0,1-.3-1.16,3.67,3.67,0,0,1,.24-1.21,10.39,10.39,0,0,0,.86-2.4,2.69,2.69,0,0,0-.17-1.26,4.77,4.77,0,0,0-.61-1.08,15.12,15.12,0,0,1-1.31-2,2.73,2.73,0,0,1-.24-1.07,2.79,2.79,0,0,1,.2-1.07c.26-.68.64-1.3.92-2a2.81,2.81,0,0,0,.18-2c-.23-.64-.67-1.13-.88-1.69a1.84,1.84,0,0,1,.16-1.62c.26-.49.6-.9.87-1.33a2.86,2.86,0,0,0,.5-1.36,4.52,4.52,0,0,0-.2-1.23,3.61,3.61,0,0,1-.17-1,1.5,1.5,0,0,1,.63-1.21A.86.86,0,0,1,386,126.2Z" style="fill:#455a64"></path><path d="M436.28,148.69a3.73,3.73,0,0,1,1,.61,4.67,4.67,0,0,1,1.69,2.78,4.92,4.92,0,0,1-.06,2.28,5.66,5.66,0,0,1-1.27,2.3,5.76,5.76,0,0,1-2.42,1.59,5.23,5.23,0,0,1-3.11.06,5.57,5.57,0,0,1-2.65-1.62,5.09,5.09,0,0,1-1.27-2.6,5.42,5.42,0,0,1,1.37-4.58,4.74,4.74,0,0,1,1.59-1,4.65,4.65,0,0,1,1.37-.36,2.76,2.76,0,0,1,.9,0,1.31,1.31,0,0,1,.3.09,4.43,4.43,0,0,0-1.19,0,5.27,5.27,0,0,0-1.32.39,4.91,4.91,0,0,0-1.51,1,5.23,5.23,0,0,0-1.26,4.41,4.87,4.87,0,0,0,1.21,2.47,5.47,5.47,0,0,0,2.53,1.54,5,5,0,0,0,3-.06,5.54,5.54,0,0,0,2.32-1.51,5.37,5.37,0,0,0,1.24-2.19,4.86,4.86,0,0,0-1.49-4.92C436.67,148.89,436.26,148.72,436.28,148.69Z" style="fill:#e0e0e0"></path><path d="M414.64,139.72a1.51,1.51,0,0,0,1.39,1.59,1.44,1.44,0,0,0,1.61-1.3,1.51,1.51,0,0,0-1.38-1.59A1.44,1.44,0,0,0,414.64,139.72Z" style="fill:#263238"></path><path d="M400.86,139.49a1.51,1.51,0,0,0,1.39,1.59,1.46,1.46,0,0,0,1.62-1.3,1.52,1.52,0,0,0-1.39-1.59A1.45,1.45,0,0,0,400.86,139.49Z" style="fill:#263238"></path><path d="M399.27,133.78c.15.23,1.3-.56,2.79-.39s2.46,1.15,2.65,1,0-.48-.46-.93a3.4,3.4,0,0,0-2.1-1,3.3,3.3,0,0,0-2.24.57C399.4,133.32,399.2,133.68,399.27,133.78Z" style="fill:#263238"></path><path d="M413.45,135c.21.24,1.48-.75,3.26-.74s3.09,1,3.28.75-.1-.52-.67-1a4.37,4.37,0,0,0-2.62-.89,4.23,4.23,0,0,0-2.6.88C413.55,134.48,413.35,134.9,413.45,135Z" style="fill:#263238"></path><path d="M379.31,104.74a8.14,8.14,0,0,1,1.9-1.1,6.4,6.4,0,0,1,2.5-.44,6.22,6.22,0,0,1,3.19.91l.15.1.09-.16a5.75,5.75,0,0,1,3.49-2.56,5.85,5.85,0,0,1,4.9.78l.18.13.13-.18a9.37,9.37,0,0,1,6-3.61,8.83,8.83,0,0,1,5.42.82,9.25,9.25,0,0,1,3.77,3.34l.06.1h.12a14,14,0,0,1,5.61,1.4,14.57,14.57,0,0,1,3.75,2.55,20.1,20.1,0,0,1,2.56,3.09s0-.09-.11-.25-.21-.4-.4-.69a12.48,12.48,0,0,0-1.88-2.33,14.34,14.34,0,0,0-3.76-2.69,14.05,14.05,0,0,0-5.76-1.5l.17.1A9.69,9.69,0,0,0,407.42,99a9.41,9.41,0,0,0-5.7-.87,9.79,9.79,0,0,0-6.24,3.81l.31,0a6.24,6.24,0,0,0-5.27-.81,6.08,6.08,0,0,0-3.68,2.79l.24-.06a6.34,6.34,0,0,0-3.37-.9,6.64,6.64,0,0,0-2.58.54,6.24,6.24,0,0,0-1.42.87A2.09,2.09,0,0,0,379.31,104.74Z" style="fill:#263238"></path><path d="M426.5,102.31a4.14,4.14,0,0,0,1.74.42,6.28,6.28,0,0,0,4.58-1.64,5.85,5.85,0,0,0,1.7-3,6.56,6.56,0,0,0-.39-4,5.88,5.88,0,0,0-3.2-3.07,6.35,6.35,0,0,0-4.79,0l.27.07a4.5,4.5,0,0,0-2.62-1.49,4.67,4.67,0,0,0-2.54.21,4.26,4.26,0,0,0-1.93,1.57,4.62,4.62,0,0,0-.39,4.52l.31-.28a3.81,3.81,0,0,0-3.59-.07A3.94,3.94,0,0,0,413.53,98a5.06,5.06,0,0,0,1.39,5,6.38,6.38,0,0,0,3.07,1.6,6.25,6.25,0,0,0,.92.12h.32s-.43,0-1.2-.25a6.43,6.43,0,0,1-2.92-1.65,4.81,4.81,0,0,1-1.22-4.71,3.54,3.54,0,0,1,1.94-2.22A3.41,3.41,0,0,1,419,96l.63.39-.32-.67a4.18,4.18,0,0,1,.39-4.07,3.71,3.71,0,0,1,1.71-1.39A4.2,4.2,0,0,1,423.7,90a4,4,0,0,1,2.35,1.33l.11.13.16-.06a5.88,5.88,0,0,1,4.44,0,5.52,5.52,0,0,1,3,2.82,6.13,6.13,0,0,1,.4,3.72,5.46,5.46,0,0,1-1.55,2.86,6.23,6.23,0,0,1-4.36,1.7A8.68,8.68,0,0,1,426.5,102.31Z" style="fill:#263238"></path><path d="M459.6,120.41s.06-.08.14-.26a5,5,0,0,0,.27-.81,7.5,7.5,0,0,0-2.36-7.41,7.75,7.75,0,0,0-5.87-1.79l.23.12a9.22,9.22,0,0,0-4.69-4.42,8.89,8.89,0,0,0-4.88-.56,9.1,9.1,0,0,0-4.14,1.79l.24,0a10.07,10.07,0,0,0-5-1.18,10.37,10.37,0,0,0-3.88.79,9.3,9.3,0,0,0-2.22,1.28,4.44,4.44,0,0,0-.67.62,13.44,13.44,0,0,1,3-1.67,10.58,10.58,0,0,1,3.79-.67,9.9,9.9,0,0,1,4.75,1.2l.12.07.11-.09a8.91,8.91,0,0,1,3.95-1.67,8.54,8.54,0,0,1,4.63.54,8.87,8.87,0,0,1,4.46,4.19l.07.15.16,0a7.38,7.38,0,0,1,5.57,1.63,7.14,7.14,0,0,1,2.41,4,7.77,7.77,0,0,1,.05,3.11C459.72,120,459.57,120.4,459.6,120.41Z" style="fill:#263238"></path><path d="M414.6,149.86a2.22,2.22,0,0,0-2.24-1.74,2.34,2.34,0,0,0-1.82,1.21,2.88,2.88,0,0,0-.16,2.21l0,.16a2.53,2.53,0,0,0,2.82.69A2.38,2.38,0,0,0,414.6,149.86Z" style="fill:#6f4439"></path><path d="M409.18,151.7c0-.25,1.72-.12,3.05-1.49s1.28-3.21,1.52-3.2.3.43.26,1.2a4.26,4.26,0,0,1-1.17,2.68,3.69,3.69,0,0,1-2.55,1.14C409.57,152,409.16,151.82,409.18,151.7Z" style="fill:#263238"></path><path d="M386.41,257.53c-.4.6-9.6,32-8.2,42.19s8.2,40.4,8.2,40.4,4.2,17.2,3.4,24-.47,29.56,1.8,43.2c2.63,15.74,5.43,44,5.43,44l20.29-1.56-.92-98.19,5-38.6,2.8-37.79Z" style="fill:#263238"></path><path d="M444.6,437.85l-2,22.17,3.69,18a2.29,2.29,0,0,1-2,2.7h0a2.44,2.44,0,0,1-2.05-.71c-3.33-3.47-15.5-16.28-15.26-17.9.28-1.87.51-23.51.51-23.51Z" style="fill:#263238"></path><path d="M444.23,480.69,427,460.58l-.06.94a3.31,3.31,0,0,0,.7,2.28c1.36,1.74,5.24,6.49,14.45,16.17a2.43,2.43,0,0,0,2.12.72Z" style="fill:#455a64"></path><g style="opacity:0.6000000000000001"><path d="M432.27,453.71a1.35,1.35,0,0,1,.27,1.83,1.44,1.44,0,0,1-1.89.27,1.41,1.41,0,0,1-.27-1.93,1.48,1.48,0,0,1,2-.08" style="fill:#fff"></path></g><path d="M439.57,470.66a7.29,7.29,0,0,1,2.15-1.6,7.44,7.44,0,0,1,2.71-.32c0-.06-.26-.25-.8-.35a3.83,3.83,0,0,0-2.1.22,3.72,3.72,0,0,0-1.66,1.27C439.57,470.32,439.51,470.64,439.57,470.66Z" style="fill:#fff"></path><path d="M441,473.74a17.07,17.07,0,0,1,2.12-.83,21.89,21.89,0,0,1,2.29-.14,2.77,2.77,0,0,0-2.41-.34C441.64,472.73,440.91,473.67,441,473.74Z" style="fill:#fff"></path><path d="M436.75,466.66a25.47,25.47,0,0,1,3.18-1.49,23.64,23.64,0,0,1,3.5-.55,5.51,5.51,0,0,0-3.66.09A5.21,5.21,0,0,0,436.75,466.66Z" style="fill:#fff"></path><path d="M436.77,459.88c.05.13,1.37-.3,3.05-.26s3,.51,3,.38a4.66,4.66,0,0,0-3-.86A4.71,4.71,0,0,0,436.77,459.88Z" style="fill:#fff"></path><path d="M437.19,453.36a7.86,7.86,0,0,1,6.2.58s-.2-.34-.71-.67a5.5,5.5,0,0,0-4.66-.44C437.45,453.06,437.16,453.3,437.19,453.36Z" style="fill:#fff"></path><path d="M440.4,451.77a1.82,1.82,0,0,0,.08-.84,5.45,5.45,0,0,0-.55-2.24,2.65,2.65,0,0,0-1.07-1.31,1,1,0,0,0-1.1.14,1.46,1.46,0,0,0-.43,1,3.27,3.27,0,0,0,2.75,3.16,4,4,0,0,0,4-1.72,1.25,1.25,0,0,0,.14-1.07,1,1,0,0,0-.95-.54,3.38,3.38,0,0,0-1.58.67,6.68,6.68,0,0,0-1.7,1.63c-.33.45-.44.73-.41.74a10.65,10.65,0,0,1,2.31-2.08,3.06,3.06,0,0,1,1.39-.55.49.49,0,0,1,.52.29.85.85,0,0,1-.13.7,3.58,3.58,0,0,1-3.46,1.45,2.83,2.83,0,0,1-2.37-2.65,1.08,1.08,0,0,1,.27-.7.53.53,0,0,1,.6-.08,2.38,2.38,0,0,1,.94,1.09A8.5,8.5,0,0,1,440.4,451.77Z" style="fill:#fff"></path><path d="M456.08,259.26c.4.6,9.6,32,8.2,42.19s-8.2,40.4-8.2,40.4-4.2,17.2-3.4,24-.6,29.42-1.8,43.19c-1.35,15.48-4.75,42.41-4.75,42.41l-21.08-1.38,1-96.82-5-38.6-2.8-37.79Z" style="fill:#263238"></path><path d="M398,438.55,399,456.91s-19.18,7.19-19.33,10.6l37.33-.67-.42-28.68Z" style="fill:#263238"></path><path d="M410.53,455.16a1.37,1.37,0,1,1-.61,2.68,1.38,1.38,0,1,1,.75-2.64" style="fill:#e0e0e0"></path><path d="M417,466.84l-.16-2.89-35.73,1.73s-1.65.72-1.44,1.83Z" style="fill:#455a64"></path><path d="M398.41,456.74c0,.17.92.24,1.83.78s1.4,1.27,1.56,1.2-.12-1.08-1.23-1.72S398.36,456.58,398.41,456.74Z" style="fill:#fff"></path><path d="M394.52,458.36c0,.17.76.45,1.39,1.18s.83,1.5,1,1.49.28-1-.53-1.89S394.52,458.19,394.52,458.36Z" style="fill:#fff"></path><path d="M392.39,462.88c.16,0,.4-.84-.09-1.79s-1.34-1.31-1.42-1.16.46.64.85,1.43S392.2,462.86,392.39,462.88Z" style="fill:#fff"></path><path d="M398.65,452.53c.08.16.91-.1,2,0s1.84.34,1.93.19-.69-.75-1.91-.8S398.56,452.4,398.65,452.53Z" style="fill:#fff"></path><path d="M462.41,279.37a6.88,6.88,0,0,1-2.06,4,16.61,16.61,0,0,0-2.81,5.54s-1.67,7.75-2.08,10.26S455,304,457,303.62s2.68-1.91,3.17-6.54l1.25-2.42,1,1.92V304s-5.19,4.73-4.88,6.14,1.28,1.21,1.28,1.21l.8.81,7.91-5.34,3.12-9.76-.52-12.68.25-9.85-8.25-1.3Z" style="fill:#ae7461"></path><path d="M447.15,174.86s12.79,5.92,14.42,14.63,3.55,35,4,38.67,3.62,9.45,4.23,20.32.6,27.75.6,27.75l-8,2.26s-6.47-15.87-8.07-27.75-4.63-17-3.89-21.8-1.93-17.11-1.93-17.11Z" style="fill:#ae7461"></path><path d="M447.15,200.09c.44.84,0,17.06,1.26,17.54S466,217,466,217s-2-25-4.76-30.06-9.73-11.19-11.12-11.18-5.62,21-5.62,21Z" style="fill:#FF725E"></path><path d="M398.09,174.43c-1,.8-16.11,7.41-16.11,7.41l5.4,37.4,2.5,15.36-7.94,32.53s17.19,16.2,44.79,14,33.82-11.83,33.82-11.83l-11.82-47.57s-1.2-14.66-1.2-20c0-1,2.6-26,2.6-26l-12.8-3.8s-2.4,9.6-19,9.6S398.09,174.43,398.09,174.43Z" style="fill:#FF725E"></path><path d="M445.78,197.05s.22.29.53.86a24.11,24.11,0,0,1,1.14,2.5,31.61,31.61,0,0,1,1.47,17.88,23.24,23.24,0,0,1-.72,2.66,4.16,4.16,0,0,1-.37.93c-.09,0,.33-1.39.73-3.66a36,36,0,0,0,.4-8.93,35.53,35.53,0,0,0-1.86-8.75C446.34,198.37,445.7,197.09,445.78,197.05Z" style="fill:#263238"></path><path d="M440,172.93s3.22-3.64,5.59-4.05,11.12,1.27,13.77,1.8c3.67.73,3.5,3.46,1.06,3.66a42.79,42.79,0,0,1-6.76-.16,7,7,0,0,1-5.87,3.26C443.91,177.36,440,172.93,440,172.93Z" style="fill:#ffbf9d"></path><path d="M445.62,168.88a53.14,53.14,0,0,1,6.12-2.07c3-.77,4.94-.77,5.75.27s3.13,6.63,2.46,7.74-8.21,6.46-9.37,6.61-2.06-.37-1.54-1.86,4.65-5.39,4.65-5.39l-.85-3.44Z" style="fill:#ffbf9d"></path><path d="M457.88,167.81s4.23,9.33,4.34,10.1-2.06,2.61-3.77,3.54-7,2.64-7.59,1.75a3.06,3.06,0,0,1-.53-1.75l7.95-5.07Z" style="fill:#ffbf9d"></path><path d="M461.69,178.09s-.06,4.29,0,4.94-.95,2.59-2.12,2.12-1.06-.51-1.18-1.7a22,22,0,0,1,0-2.95l3-2" style="fill:#ffbf9d"></path><path d="M447.2,177.42a19.48,19.48,0,0,0,2-.34,6.29,6.29,0,0,0,3.7-2.9L453,174l.17,0,.66.09a25.3,25.3,0,0,0,5.39.42c1.37-.09,2.2-.36,2.22-.27a5,5,0,0,1-2.19.64,20.24,20.24,0,0,1-5.49-.27l-.66-.1.26-.13a6.23,6.23,0,0,1-4.06,3A3.66,3.66,0,0,1,447.2,177.42Z" style="fill:#ff9a6c"></path><path d="M447.65,168.77a79.6,79.6,0,0,1,12.76,2.1,79.6,79.6,0,0,1-12.76-2.1Z" style="fill:#ff9a6c"></path><path d="M459.47,174.76a2.79,2.79,0,0,1-.48,1.73,8.73,8.73,0,0,1-3.08,3,11,11,0,0,1-5.71,2,28.11,28.11,0,0,0,5.43-2.42,10.12,10.12,0,0,0,3.05-2.78C459.27,175.42,459.38,174.74,459.47,174.76Z" style="fill:#ff9a6c"></path><path d="M458,181.91c-.07-.14,1.06-.76,2.19-1.82s1.85-2.12,2-2a4.68,4.68,0,0,1-1.63,2.42A4.58,4.58,0,0,1,458,181.91Z" style="fill:#ff9a6c"></path><path d="M370.12,211.16c0-.8,4.57-24.36,9.76-27.76l2.4-1.8,5.4,32.39v2.2Z" style="fill:#FF725E"></path><path d="M387.68,220.19a16.68,16.68,0,0,1-.86-2.93c-.46-1.83-1-4.38-1.47-7.23s-.77-5.43-.93-7.31a15.79,15.79,0,0,1-.12-3.06,19.61,19.61,0,0,1,.48,3c.26,1.86.61,4.44,1.08,7.27s.95,5.38,1.31,7.23A17.76,17.76,0,0,1,387.68,220.19Z" style="fill:#263238"></path></g><g id="freepik--speech-bubble--inject-21"><path d="M134.22,122.13l-1.9-7a23.42,23.42,0,1,0-5.57,6.3h0Z" style="fill:#fff"></path><path d="M134.22,122.13l-.51-.07-1.44-.17-5.52-.61.07.17h0a.1.1,0,0,0,0-.15.11.11,0,0,0-.13,0,23.56,23.56,0,0,1-10.46,4.6,23.62,23.62,0,0,1-15.36-2.73,23.17,23.17,0,0,1-6-35.45l1-1.06,1-1a24.22,24.22,0,0,1,2.2-1.76A23.28,23.28,0,0,1,104,81.35,23.27,23.27,0,0,1,132.23,115v.09l1.46,5.18c.17.58.3,1,.39,1.35s.15.48.15.48a3.71,3.71,0,0,0-.1-.44c-.08-.33-.19-.77-.34-1.34-.31-1.23-.77-3-1.36-5.29v.08a23.28,23.28,0,0,0,3.43-11,23.59,23.59,0,0,0-32.06-23.25,24.34,24.34,0,0,0-5,2.64,25.7,25.7,0,0,0-2.25,1.8l-1.07,1-1,1.09a23.63,23.63,0,0,0,6.19,36.15,23.41,23.41,0,0,0,26.16-2.07l-.15-.15h0a.11.11,0,0,0,0,.16l.06,0,5.61.48,1.42.12Z" style="fill:#263238"></path><polygon points="111.82 114.29 99.5 106.05 102.37 101.75 110.64 107.28 120.91 93.67 125.04 96.79 111.82 114.29" style="fill:#FF725E"></polygon></g></svg>