<svg id="Layer_1" data-name="Layer 1" xmlns="http://www.w3.org/2000/svg" viewBox="0 0 149.67 149.67"><defs><style>.cls-1{fill:#39aa35;}.cls-2{fill:#18213b;}.cls-3{fill:#75b847;}</style></defs><path class="cls-1" d="M-116.71,2.8" transform="translate(-25.16 -25.16)"/><circle class="cls-2" cx="74.84" cy="74.84" r="74.84"/><rect class="cls-3" x="12.47" y="12.47" width="124.73" height="124.73" rx="62.36"/><path class="cls-2" d="M34.94,117.93a1.51,1.51,0,0,0-.65,2.32A41.74,41.74,0,0,0,42.46,126a1.68,1.68,0,0,1,.81,1.35c.46,6,1.68,8.76,2.59,10a1.19,1.19,0,0,0,1.92-.2C70.85,105.58,42.7,114.94,34.94,117.93Z" transform="translate(-25.16 -25.16)"/><path class="cls-2" d="M43.69,113.38c1.25,1.3,4.17.54,6.54-1.71s3.26-5.14,2-6.45-4.17-.54-6.53,1.71S42.45,112.07,43.69,113.38Z" transform="translate(-25.16 -25.16)"/><ellipse class="cls-2" cx="58.57" cy="109.64" rx="5.91" ry="3.27" transform="translate(-84.65 45.56) rotate(-43.64)"/><ellipse class="cls-2" cx="63.56" cy="117" rx="5.91" ry="3.27" transform="translate(-88.35 51.03) rotate(-43.64)"/><ellipse class="cls-2" cx="59.57" cy="127.28" rx="5.91" ry="3.27" transform="translate(-84.15 26.66) rotate(-32.45)"/><path class="cls-2" d="M58.12,86.47a1.5,1.5,0,0,0-.65,2.32,41.28,41.28,0,0,0,8.16,5.77,1.64,1.64,0,0,1,.81,1.36c.46,6,1.69,8.76,2.59,10a1.19,1.19,0,0,0,1.92-.2C94,74.12,65.88,83.48,58.12,86.47Z" transform="translate(-25.16 -25.16)"/><path class="cls-2" d="M66.87,81.92c1.24,1.31,4.17.54,6.53-1.71s3.27-5.14,2-6.44-4.17-.55-6.53,1.71S65.62,80.61,66.87,81.92Z" transform="translate(-25.16 -25.16)"/><ellipse class="cls-2" cx="81.75" cy="78.18" rx="5.91" ry="3.27" transform="translate(-56.53 52.86) rotate(-43.64)"/><ellipse class="cls-2" cx="86.73" cy="85.54" rx="5.91" ry="3.27" transform="translate(-60.24 58.33) rotate(-43.64)"/><ellipse class="cls-2" cx="82.75" cy="95.83" rx="5.91" ry="3.27" transform="translate(-63.66 34.19) rotate(-32.45)"/><path class="cls-2" d="M87.71,53.65A1.5,1.5,0,0,0,87.06,56a41.31,41.31,0,0,0,8.17,5.77A1.7,1.7,0,0,1,96,63.09c.46,6,1.68,8.76,2.59,10a1.19,1.19,0,0,0,1.92-.2C123.62,41.29,95.47,50.65,87.71,53.65Z" transform="translate(-25.16 -25.16)"/><path class="cls-2" d="M96.46,49.09c1.25,1.31,4.17.54,6.54-1.71s3.26-5.14,2-6.44-4.17-.54-6.53,1.71S95.22,47.79,96.46,49.09Z" transform="translate(-25.16 -25.16)"/><ellipse class="cls-2" cx="111.35" cy="45.36" rx="5.91" ry="3.27" transform="translate(-25.7 64.22) rotate(-43.64)"/><ellipse class="cls-2" cx="116.33" cy="52.72" rx="5.91" ry="3.27" transform="translate(-29.4 69.69) rotate(-43.64)"/><ellipse class="cls-2" cx="112.34" cy="63" rx="5.91" ry="3.27" transform="translate(-41.43 44.94) rotate(-32.45)"/><path class="cls-2" d="M60,150.43a1.51,1.51,0,0,0-.31,2.39,41.44,41.44,0,0,0,8.91,4.54,1.68,1.68,0,0,1,1,1.23c1.32,5.91,2.92,8.43,4,9.5a1.19,1.19,0,0,0,1.87-.47C93.81,133.07,67.29,146.36,60,150.43Z" transform="translate(-25.16 -25.16)"/><path class="cls-2" d="M68.05,144.67c1.42,1.12,4.2-.06,6.22-2.62s2.49-5.55,1.07-6.67-4.2.06-6.22,2.63S66.63,143.56,68.05,144.67Z" transform="translate(-25.16 -25.16)"/><ellipse class="cls-2" cx="82.24" cy="138.85" rx="5.91" ry="3.27" transform="translate(-102.92 92.66) rotate(-51.87)"/><ellipse class="cls-2" cx="88.23" cy="145.42" rx="5.91" ry="3.27" transform="translate(-105.8 99.88) rotate(-51.87)"/><ellipse class="cls-2" cx="85.75" cy="156.16" rx="5.91" ry="3.27" transform="translate(-106.23 68.46) rotate(-40.68)"/><path class="cls-2" d="M89.63,121.07a1.5,1.5,0,0,0-.31,2.39A41.67,41.67,0,0,0,98.23,128a1.65,1.65,0,0,1,1,1.22c1.32,5.91,2.92,8.43,4,9.5a1.18,1.18,0,0,0,1.87-.47C123.4,103.7,96.89,117,89.63,121.07Z" transform="translate(-25.16 -25.16)"/><path class="cls-2" d="M97.64,115.31c1.43,1.11,4.21-.06,6.22-2.63s2.5-5.55,1.08-6.67-4.21.07-6.22,2.63S96.22,114.19,97.64,115.31Z" transform="translate(-25.16 -25.16)"/><ellipse class="cls-2" cx="111.84" cy="109.48" rx="5.91" ry="3.27" transform="translate(-68.5 104.7) rotate(-51.87)"/><ellipse class="cls-2" cx="117.82" cy="116.05" rx="5.91" ry="3.27" transform="translate(-71.38 111.93) rotate(-51.87)"/><ellipse class="cls-2" cx="115.35" cy="126.8" rx="5.91" ry="3.27" transform="translate(-79.94 80.66) rotate(-40.68)"/><path class="cls-2" d="M112.19,84.9a1.5,1.5,0,0,0-.31,2.38,41.21,41.21,0,0,0,8.91,4.54,1.69,1.69,0,0,1,1,1.23c1.32,5.91,2.92,8.43,4,9.5a1.18,1.18,0,0,0,1.87-.47C146,67.53,119.45,80.82,112.19,84.9Z" transform="translate(-25.16 -25.16)"/><path class="cls-2" d="M120.21,79.14c1.42,1.11,4.2-.06,6.22-2.63s2.49-5.55,1.07-6.67-4.21.06-6.22,2.63S118.79,78,120.21,79.14Z" transform="translate(-25.16 -25.16)"/><ellipse class="cls-2" cx="134.4" cy="73.31" rx="5.91" ry="3.27" transform="translate(-31.41 108.61) rotate(-51.87)"/><ellipse class="cls-2" cx="140.39" cy="79.88" rx="5.91" ry="3.27" transform="translate(-34.29 115.83) rotate(-51.87)"/><ellipse class="cls-2" cx="137.91" cy="90.63" rx="5.91" ry="3.27" transform="translate(-50.91 86.62) rotate(-40.68)"/><path class="cls-2" d="M138.68,56.78a1.51,1.51,0,0,0-.31,2.39,41.67,41.67,0,0,0,8.91,4.54,1.67,1.67,0,0,1,1,1.23c1.32,5.9,2.92,8.43,4,9.5a1.19,1.19,0,0,0,1.87-.47C172.45,39.42,145.94,52.71,138.68,56.78Z" transform="translate(-25.16 -25.16)"/><path class="cls-2" d="M146.69,51c1.43,1.12,4.21-.06,6.22-2.62s2.5-5.56,1.08-6.67-4.21.06-6.22,2.63S145.27,49.91,146.69,51Z" transform="translate(-25.16 -25.16)"/><ellipse class="cls-2" cx="160.89" cy="45.2" rx="5.91" ry="3.27" transform="translate(0.84 118.69) rotate(-51.87)"/><ellipse class="cls-2" cx="166.87" cy="51.77" rx="5.91" ry="3.27" transform="translate(-2.04 125.92) rotate(-51.87)"/><ellipse class="cls-2" cx="164.4" cy="62.51" rx="5.91" ry="3.27" transform="translate(-26.19 97.1) rotate(-40.68)"/></svg>